M48
; DRILL file {KiCad 9.0.8+dfsg-1} date 2026-10-01T17:40:26+0200
; FORMAT={-:-/ absolute / metric / decimal}
; #@! TF.CreationDate,2026-10-01T17:40:26+02:00
; #@! TF.GenerationSoftware,Kicad,Pcbnew,9.0.8+dfsg-1
; #@! TF.FileFunction,Plated,1,2,PTH
FMAT,2
METRIC
; #@! TA.AperFunction,Plated,PTH,ViaDrill
T1C0.300
; #@! TA.AperFunction,Plated,PTH,ComponentDrill
T2C0.600
; #@! TA.AperFunction,Plated,PTH,ComponentDrill
T3C0.950
%
G90
G05
T1
X8.051Y-60.314
X12.31Y-35.349
X14.612Y-78.725
X14.837Y-13.667
X21.962Y-43.208
X22.103Y-65.795
X22.114Y-22.002
X22.127Y-86.838
X23.853Y-11.317
X23.853Y-54.616
X23.853Y-76.268
X23.89Y-77.529
X23.913Y-12.621
X25.16Y-56.247
X25.197Y-33.79
X26.512Y-35.563
X27.938Y-23.448
X29.0Y-64.626
X29.962Y-43.208
X35.573Y-35.758
X35.757Y-12.999
X40.144Y-63.305
X41.611Y-16.576
X41.696Y-35.12
X41.791Y-13.16
X41.871Y-23.042
X43.03Y-57.655
X43.154Y-26.193
X43.935Y-41.576
X44.078Y-43.21
X45.933Y-81.557
X47.484Y-16.576
X47.948Y-23.85
X47.948Y-64.544
X47.948Y-88.826
X47.962Y-18.875
X48.617Y-60.314
X48.86Y-19.786
X49.803Y-13.46
X49.873Y-82.354
X50.233Y-57.609
X50.254Y-35.929
X50.588Y-40.378
X51.841Y-50.623
X52.0Y-63.662
X52.004Y-59.922
X52.295Y-40.352
X52.495Y-89.76
X52.617Y-24.729
X52.938Y-11.69
X53.507Y-74.897
X53.578Y-41.368
X53.933Y-61.764
X54.185Y-55.83
X54.188Y-77.58
X55.085Y-30.843
X55.985Y-23.145
X55.988Y-43.214
X56.414Y-25.078
X57.438Y-77.415
X57.716Y-35.286
X57.883Y-65.86
X58.069Y-68.186
X59.924Y-40.982
X59.924Y-81.532
X60.064Y-35.178
X61.942Y-35.612
X62.527Y-83.465
X64.051Y-38.187
X64.947Y-37.513
X65.086Y-81.914
X65.11Y-38.845
X65.371Y-79.315
X66.138Y-40.835
X67.675Y-42.079
X67.987Y-85.379
X68.064Y-25.669
X68.112Y-11.509
X68.789Y-85.372
X68.832Y-42.054
X69.0Y-54.607
X69.0Y-76.275
X69.007Y-42.899
X69.67Y-37.491
X69.695Y-84.352
X69.862Y-40.862
X70.11Y-33.754
X70.915Y-83.465
X70.982Y-38.913
X71.316Y-59.09
X71.368Y-82.165
X72.573Y-86.92
X73.435Y-63.162
X73.91Y-55.692
X74.25Y-35.932
X75.062Y-14.277
X75.684Y-77.49
X75.75Y-47.578
X76.316Y-78.679
X83.164Y-47.396
X83.533Y-42.053
X83.747Y-49.676
X85.903Y-68.186
X87.416Y-83.891
X88.643Y-48.497
X96.043Y-61.05
X96.807Y-71.056
X97.902Y-44.049
X98.233Y-87.197
X98.767Y-14.766
X98.905Y-9.057
X98.916Y-57.059
X98.94Y-45.06
X98.942Y-69.058
X98.957Y-40.954
X99.552Y-66.358
X100.0Y-71.222
X100.025Y-56.783
X100.037Y-32.709
X100.304Y-65.775
X101.068Y-91.557
X101.103Y-51.499
X101.17Y-77.936
X101.88Y-10.751
X102.432Y-92.175
X102.812Y-40.0
X102.813Y-28.0
X102.835Y-8.2
X103.098Y-89.776
X103.296Y-90.908
X103.468Y-62.95
X103.745Y-22.187
X103.856Y-85.287
X104.127Y-9.222
X104.271Y-16.108
X104.286Y-5.059
X104.364Y-44.729
X104.552Y-82.548
X105.059Y-93.441
X105.062Y-9.887
X105.6Y-82.567
X105.6Y-90.706
X105.841Y-43.86
X106.003Y-31.699
X106.018Y-51.261
X106.44Y-90.918
X106.462Y-73.988
X106.549Y-82.071
X106.75Y-10.864
X107.065Y-23.065
X107.2Y-82.559
X107.56Y-90.897
X107.75Y-10.885
X107.938Y-62.807
X107.938Y-68.815
X108.037Y-51.885
X108.242Y-89.139
X108.412Y-66.227
X108.42Y-90.671
X108.679Y-82.554
X109.583Y-92.732
X109.731Y-16.392
X109.742Y-14.742
X110.896Y-82.0
X110.926Y-62.239
X110.957Y-84.418
X111.437Y-85.773
X111.594Y-86.576
X112.153Y-75.44
X115.968Y-64.156
X117.732Y-60.314
X117.856Y-64.444
X118.286Y-62.916
X118.868Y-69.184
X119.0Y-47.212
X119.365Y-53.23
X119.743Y-43.285
X119.79Y-68.061
X120.635Y-36.494
X120.789Y-90.186
X121.018Y-87.056
X121.436Y-21.762
X121.827Y-51.607
X122.0Y-59.228
X122.096Y-69.096
X122.113Y-74.889
X123.0Y-76.745
X123.172Y-5.123
X123.297Y-13.155
X125.273Y-36.901
X128.085Y-21.153
X128.087Y-20.161
X130.417Y-18.274
X130.467Y-21.25
X131.575Y-52.5
T3
X134.0Y-42.5
X134.0Y-45.0
X134.0Y-47.5
X134.0Y-50.0
X134.0Y-52.5
X134.0Y-55.0
X134.0Y-74.5
X134.0Y-77.0
X134.0Y-79.5
X134.0Y-82.0
T2
X129.345Y-15.68G85X130.445Y-15.68
G05
X129.345Y-24.32G85X130.445Y-24.32
G05
X133.775Y-15.68G85X134.375Y-15.68
G05
X133.775Y-24.32G85X134.375Y-24.32
G05
M30
