%TF.GenerationSoftware,KiCad,Pcbnew,9.0.8+dfsg-1*%
%TF.CreationDate,2026-09-29T10:58:16+02:00*%
%TF.ProjectId,carrier,63617272-6965-4722-9e6b-696361645f70,rev?*%
%TF.SameCoordinates,Original*%
%TF.FileFunction,Soldermask,Bot*%
%TF.FilePolarity,Negative*%
%FSLAX46Y46*%
G04 Gerber Fmt 4.6, Leading zero omitted, Abs format (unit mm)*
G04 Created by KiCad (PCBNEW 9.0.8+dfsg-1) date 2026-09-29 10:58:16*
%MOMM*%
%LPD*%
G01*
G04 APERTURE LIST*
G04 Aperture macros list*
%AMRoundRect*
0 Rectangle with rounded corners*
0 $1 Rounding radius*
0 $2 $3 $4 $5 $6 $7 $8 $9 X,Y pos of 4 corners*
0 Add a 4 corners polygon primitive as box body*
4,1,4,$2,$3,$4,$5,$6,$7,$8,$9,$2,$3,0*
0 Add four circle primitives for the rounded corners*
1,1,$1+$1,$2,$3*
1,1,$1+$1,$4,$5*
1,1,$1+$1,$6,$7*
1,1,$1+$1,$8,$9*
0 Add four rect primitives between the rounded corners*
20,1,$1+$1,$2,$3,$4,$5,0*
20,1,$1+$1,$4,$5,$6,$7,0*
20,1,$1+$1,$6,$7,$8,$9,0*
20,1,$1+$1,$8,$9,$2,$3,0*%
G04 Aperture macros list end*
%ADD10RoundRect,0.250000X-0.600000X-0.750000X0.600000X-0.750000X0.600000X0.750000X-0.600000X0.750000X0*%
%ADD11O,1.700000X2.000000*%
%ADD12RoundRect,0.250000X0.750000X-0.600000X0.750000X0.600000X-0.750000X0.600000X-0.750000X-0.600000X0*%
%ADD13O,2.000000X1.700000*%
%ADD14RoundRect,0.250000X-0.600000X-0.725000X0.600000X-0.725000X0.600000X0.725000X-0.600000X0.725000X0*%
%ADD15O,1.700000X1.950000*%
%ADD16RoundRect,0.250000X-0.550000X-0.550000X0.550000X-0.550000X0.550000X0.550000X-0.550000X0.550000X0*%
%ADD17C,1.600000*%
%ADD18C,3.200000*%
%ADD19R,1.700000X1.700000*%
%ADD20C,1.700000*%
%ADD21RoundRect,0.250000X0.725000X-0.600000X0.725000X0.600000X-0.725000X0.600000X-0.725000X-0.600000X0*%
%ADD22O,1.950000X1.700000*%
G04 APERTURE END LIST*
D10*
%TO.C,J_BAT1*%
X10000000Y-6000000D03*
D11*
X12500000Y-6000000D03*
%TD*%
D12*
%TO.C,J_BUZ1*%
X6000000Y-47000000D03*
D13*
X6000000Y-44500000D03*
%TD*%
D14*
%TO.C,J_NFC1*%
X54000000Y-6000000D03*
D15*
X56500000Y-6000000D03*
X59000000Y-6000000D03*
X61500000Y-6000000D03*
%TD*%
D16*
%TO.C,C_BULK1*%
X13500000Y-20500000D03*
D17*
X16000000Y-20500000D03*
%TD*%
D18*
%TO.C,H1*%
X3500000Y-3500000D03*
%TD*%
D10*
%TO.C,J_KEY1*%
X19000000Y-6000000D03*
D11*
X21500000Y-6000000D03*
%TD*%
D18*
%TO.C,H3*%
X3500000Y-56500000D03*
%TD*%
%TO.C,H4*%
X86500000Y-56500000D03*
%TD*%
%TO.C,H2*%
X86500000Y-3500000D03*
%TD*%
D19*
%TO.C,J3*%
X44820000Y-27000000D03*
D20*
X47360000Y-27000000D03*
X49900000Y-27000000D03*
X52440000Y-27000000D03*
X54980000Y-27000000D03*
X57520000Y-27000000D03*
X60060000Y-27000000D03*
X62600000Y-27000000D03*
X65140000Y-27000000D03*
X67680000Y-27000000D03*
X70220000Y-27000000D03*
X72760000Y-27000000D03*
X75300000Y-27000000D03*
X77840000Y-27000000D03*
X80380000Y-27000000D03*
X82920000Y-27000000D03*
X85460000Y-27000000D03*
X88000000Y-27000000D03*
%TD*%
D10*
%TO.C,J_HBAT1*%
X28000000Y-6000000D03*
D11*
X30500000Y-6000000D03*
%TD*%
D19*
%TO.C,J2*%
X44820000Y-49860000D03*
D20*
X47360000Y-49860000D03*
X49900000Y-49860000D03*
X52440000Y-49860000D03*
X54980000Y-49860000D03*
X57520000Y-49860000D03*
X60060000Y-49860000D03*
X62600000Y-49860000D03*
X65140000Y-49860000D03*
X67680000Y-49860000D03*
X70220000Y-49860000D03*
X72760000Y-49860000D03*
X75300000Y-49860000D03*
X77840000Y-49860000D03*
X80380000Y-49860000D03*
X82920000Y-49860000D03*
X85460000Y-49860000D03*
X88000000Y-49860000D03*
%TD*%
D14*
%TO.C,J_LCD1*%
X40000000Y-6000000D03*
D15*
X42500000Y-6000000D03*
X45000000Y-6000000D03*
X47500000Y-6000000D03*
%TD*%
D21*
%TO.C,J_BTN_B1*%
X6000000Y-33000000D03*
D22*
X6000000Y-30500000D03*
X6000000Y-28000000D03*
X6000000Y-25500000D03*
%TD*%
D16*
%TO.C,C_NFC1*%
X55500000Y-18000000D03*
D17*
X58000000Y-18000000D03*
%TD*%
D14*
%TO.C,J_BTN_R1*%
X68000000Y-6000000D03*
D15*
X70500000Y-6000000D03*
X73000000Y-6000000D03*
X75500000Y-6000000D03*
%TD*%
M02*
