%TF.GenerationSoftware,KiCad,Pcbnew,9.0.8+dfsg-1*%
%TF.CreationDate,2026-09-29T10:58:16+02:00*%
%TF.ProjectId,carrier,63617272-6965-4722-9e6b-696361645f70,rev?*%
%TF.SameCoordinates,Original*%
%TF.FileFunction,Copper,L2,Bot*%
%TF.FilePolarity,Positive*%
%FSLAX46Y46*%
G04 Gerber Fmt 4.6, Leading zero omitted, Abs format (unit mm)*
G04 Created by KiCad (PCBNEW 9.0.8+dfsg-1) date 2026-09-29 10:58:16*
%MOMM*%
%LPD*%
G01*
G04 APERTURE LIST*
G04 Aperture macros list*
%AMRoundRect*
0 Rectangle with rounded corners*
0 $1 Rounding radius*
0 $2 $3 $4 $5 $6 $7 $8 $9 X,Y pos of 4 corners*
0 Add a 4 corners polygon primitive as box body*
4,1,4,$2,$3,$4,$5,$6,$7,$8,$9,$2,$3,0*
0 Add four circle primitives for the rounded corners*
1,1,$1+$1,$2,$3*
1,1,$1+$1,$4,$5*
1,1,$1+$1,$6,$7*
1,1,$1+$1,$8,$9*
0 Add four rect primitives between the rounded corners*
20,1,$1+$1,$2,$3,$4,$5,0*
20,1,$1+$1,$4,$5,$6,$7,0*
20,1,$1+$1,$6,$7,$8,$9,0*
20,1,$1+$1,$8,$9,$2,$3,0*%
G04 Aperture macros list end*
%TA.AperFunction,ComponentPad*%
%ADD10RoundRect,0.250000X-0.600000X-0.750000X0.600000X-0.750000X0.600000X0.750000X-0.600000X0.750000X0*%
%TD*%
%TA.AperFunction,ComponentPad*%
%ADD11O,1.700000X2.000000*%
%TD*%
%TA.AperFunction,ComponentPad*%
%ADD12RoundRect,0.250000X0.750000X-0.600000X0.750000X0.600000X-0.750000X0.600000X-0.750000X-0.600000X0*%
%TD*%
%TA.AperFunction,ComponentPad*%
%ADD13O,2.000000X1.700000*%
%TD*%
%TA.AperFunction,ComponentPad*%
%ADD14RoundRect,0.250000X-0.600000X-0.725000X0.600000X-0.725000X0.600000X0.725000X-0.600000X0.725000X0*%
%TD*%
%TA.AperFunction,ComponentPad*%
%ADD15O,1.700000X1.950000*%
%TD*%
%TA.AperFunction,ComponentPad*%
%ADD16RoundRect,0.250000X-0.550000X-0.550000X0.550000X-0.550000X0.550000X0.550000X-0.550000X0.550000X0*%
%TD*%
%TA.AperFunction,ComponentPad*%
%ADD17C,1.600000*%
%TD*%
%TA.AperFunction,ComponentPad*%
%ADD18R,1.700000X1.700000*%
%TD*%
%TA.AperFunction,ComponentPad*%
%ADD19C,1.700000*%
%TD*%
%TA.AperFunction,ComponentPad*%
%ADD20RoundRect,0.250000X0.725000X-0.600000X0.725000X0.600000X-0.725000X0.600000X-0.725000X-0.600000X0*%
%TD*%
%TA.AperFunction,ComponentPad*%
%ADD21O,1.950000X1.700000*%
%TD*%
%TA.AperFunction,ViaPad*%
%ADD22C,0.600000*%
%TD*%
%TA.AperFunction,Conductor*%
%ADD23C,0.250000*%
%TD*%
%TA.AperFunction,Conductor*%
%ADD24C,0.800000*%
%TD*%
G04 APERTURE END LIST*
D10*
%TO.P,J_BAT1,1*%
%TO.N,VBAT_RAW*%
X10000000Y-6000000D03*
D11*
%TO.P,J_BAT1,2*%
%TO.N,GND*%
X12500000Y-6000000D03*
%TD*%
D12*
%TO.P,J_BUZ1,1*%
%TO.N,+5V*%
X6000000Y-47000000D03*
D13*
%TO.P,J_BUZ1,2*%
%TO.N,BUZ_K*%
X6000000Y-44500000D03*
%TD*%
D14*
%TO.P,J_NFC1,1*%
%TO.N,GND*%
X54000000Y-6000000D03*
D15*
%TO.P,J_NFC1,2*%
%TO.N,+3V3*%
X56500000Y-6000000D03*
%TO.P,J_NFC1,3*%
%TO.N,SDA_3V3*%
X59000000Y-6000000D03*
%TO.P,J_NFC1,4*%
%TO.N,SCL_3V3*%
X61500000Y-6000000D03*
%TD*%
D16*
%TO.P,C_BULK1,1*%
%TO.N,VBAT_SW*%
X13500000Y-20500000D03*
D17*
%TO.P,C_BULK1,2*%
%TO.N,GND*%
X16000000Y-20500000D03*
%TD*%
D10*
%TO.P,J_KEY1,1*%
%TO.N,VBAT_F*%
X19000000Y-6000000D03*
D11*
%TO.P,J_KEY1,2*%
%TO.N,VBAT_SW*%
X21500000Y-6000000D03*
%TD*%
D18*
%TO.P,J3,1*%
%TO.N,GND*%
X44820000Y-27000000D03*
D19*
%TO.P,J3,2*%
%TO.N,+3V3*%
X47360000Y-27000000D03*
%TO.P,J3,3*%
X49900000Y-27000000D03*
%TO.P,J3,4*%
%TO.N,unconnected-(J3-Pin_4-Pad4)*%
X52440000Y-27000000D03*
%TO.P,J3,5*%
%TO.N,unconnected-(J3-Pin_5-Pad5)*%
X54980000Y-27000000D03*
%TO.P,J3,6*%
%TO.N,unconnected-(J3-Pin_6-Pad6)*%
X57520000Y-27000000D03*
%TO.P,J3,7*%
%TO.N,unconnected-(J3-Pin_7-Pad7)*%
X60060000Y-27000000D03*
%TO.P,J3,8*%
%TO.N,unconnected-(J3-Pin_8-Pad8)*%
X62600000Y-27000000D03*
%TO.P,J3,9*%
%TO.N,unconnected-(J3-Pin_9-Pad9)*%
X65140000Y-27000000D03*
%TO.P,J3,10*%
%TO.N,unconnected-(J3-Pin_10-Pad10)*%
X67680000Y-27000000D03*
%TO.P,J3,11*%
%TO.N,unconnected-(J3-Pin_11-Pad11)*%
X70220000Y-27000000D03*
%TO.P,J3,12*%
%TO.N,unconnected-(J3-Pin_12-Pad12)*%
X72760000Y-27000000D03*
%TO.P,J3,13*%
%TO.N,unconnected-(J3-Pin_13-Pad13)*%
X75300000Y-27000000D03*
%TO.P,J3,14*%
%TO.N,SCL_3V3*%
X77840000Y-27000000D03*
%TO.P,J3,15*%
%TO.N,SDA_3V3*%
X80380000Y-27000000D03*
%TO.P,J3,16*%
%TO.N,unconnected-(J3-Pin_16-Pad16)*%
X82920000Y-27000000D03*
%TO.P,J3,17*%
%TO.N,BTN_R_IN*%
X85460000Y-27000000D03*
%TO.P,J3,18*%
%TO.N,unconnected-(J3-Pin_18-Pad18)*%
X88000000Y-27000000D03*
%TD*%
D10*
%TO.P,J_HBAT1,1*%
%TO.N,VBAT_SW*%
X28000000Y-6000000D03*
D11*
%TO.P,J_HBAT1,2*%
%TO.N,GND*%
X30500000Y-6000000D03*
%TD*%
D18*
%TO.P,J2,1*%
%TO.N,GND*%
X44820000Y-49860000D03*
D19*
%TO.P,J2,2*%
%TO.N,unconnected-(J2-Pin_2-Pad2)*%
X47360000Y-49860000D03*
%TO.P,J2,3*%
%TO.N,unconnected-(J2-Pin_3-Pad3)*%
X49900000Y-49860000D03*
%TO.P,J2,4*%
%TO.N,unconnected-(J2-Pin_4-Pad4)*%
X52440000Y-49860000D03*
%TO.P,J2,5*%
%TO.N,BTN_B_IN*%
X54980000Y-49860000D03*
%TO.P,J2,6*%
%TO.N,unconnected-(J2-Pin_6-Pad6)*%
X57520000Y-49860000D03*
%TO.P,J2,7*%
%TO.N,unconnected-(J2-Pin_7-Pad7)*%
X60060000Y-49860000D03*
%TO.P,J2,8*%
%TO.N,unconnected-(J2-Pin_8-Pad8)*%
X62600000Y-49860000D03*
%TO.P,J2,9*%
%TO.N,unconnected-(J2-Pin_9-Pad9)*%
X65140000Y-49860000D03*
%TO.P,J2,10*%
%TO.N,unconnected-(J2-Pin_10-Pad10)*%
X67680000Y-49860000D03*
%TO.P,J2,11*%
%TO.N,unconnected-(J2-Pin_11-Pad11)*%
X70220000Y-49860000D03*
%TO.P,J2,12*%
%TO.N,unconnected-(J2-Pin_12-Pad12)*%
X72760000Y-49860000D03*
%TO.P,J2,13*%
%TO.N,LED_R_G*%
X75300000Y-49860000D03*
%TO.P,J2,14*%
%TO.N,LED_B_G*%
X77840000Y-49860000D03*
%TO.P,J2,15*%
%TO.N,unconnected-(J2-Pin_15-Pad15)*%
X80380000Y-49860000D03*
%TO.P,J2,16*%
%TO.N,BUZ_G*%
X82920000Y-49860000D03*
%TO.P,J2,17*%
%TO.N,unconnected-(J2-Pin_17-Pad17)*%
X85460000Y-49860000D03*
%TO.P,J2,18*%
%TO.N,unconnected-(J2-Pin_18-Pad18)*%
X88000000Y-49860000D03*
%TD*%
D14*
%TO.P,J_LCD1,1*%
%TO.N,GND*%
X40000000Y-6000000D03*
D15*
%TO.P,J_LCD1,2*%
%TO.N,+5V*%
X42500000Y-6000000D03*
%TO.P,J_LCD1,3*%
%TO.N,SDA_5V*%
X45000000Y-6000000D03*
%TO.P,J_LCD1,4*%
%TO.N,SCL_5V*%
X47500000Y-6000000D03*
%TD*%
D20*
%TO.P,J_BTN_B1,1*%
%TO.N,BTN_B_SW*%
X6000000Y-33000000D03*
D21*
%TO.P,J_BTN_B1,2*%
%TO.N,GND*%
X6000000Y-30500000D03*
%TO.P,J_BTN_B1,3*%
%TO.N,+5V*%
X6000000Y-28000000D03*
%TO.P,J_BTN_B1,4*%
%TO.N,BTN_B_LEDK*%
X6000000Y-25500000D03*
%TD*%
D16*
%TO.P,C_NFC1,1*%
%TO.N,+3V3*%
X55500000Y-18000000D03*
D17*
%TO.P,C_NFC1,2*%
%TO.N,GND*%
X58000000Y-18000000D03*
%TD*%
D14*
%TO.P,J_BTN_R1,1*%
%TO.N,BTN_R_SW*%
X68000000Y-6000000D03*
D15*
%TO.P,J_BTN_R1,2*%
%TO.N,GND*%
X70500000Y-6000000D03*
%TO.P,J_BTN_R1,3*%
%TO.N,+5V*%
X73000000Y-6000000D03*
%TO.P,J_BTN_R1,4*%
%TO.N,BTN_R_LEDK*%
X75500000Y-6000000D03*
%TD*%
D22*
%TO.N,GND*%
X22147100Y-34080200D03*
X21314100Y-23269200D03*
X29670400Y-26936800D03*
X22036300Y-51501200D03*
X68122900Y-20085400D03*
%TO.N,+3V3*%
X19000000Y-47783600D03*
%TO.N,VBAT_RAW*%
X13712500Y-12564500D03*
%TO.N,+5V*%
X18003600Y-23379400D03*
X49455400Y-24339500D03*
X8666900Y-44333100D03*
%TO.N,SDA_3V3*%
X56821200Y-11091000D03*
%TO.N,SCL_3V3*%
X63394200Y-10943100D03*
%TO.N,SDA_5V*%
X44937500Y-16822300D03*
X44063500Y-22360900D03*
%TO.N,SCL_5V*%
X51783200Y-6594200D03*
X50438700Y-16816400D03*
X49560900Y-22359300D03*
%TO.N,LED_R_G*%
X31932400Y-29932400D03*
%TO.N,LED_B_G*%
X16033500Y-29937500D03*
X24655300Y-49291100D03*
%TO.N,BTN_B_LEDK*%
X15029400Y-39529400D03*
%TO.N,BTN_R_SW*%
X67958500Y-14541500D03*
%TO.N,BTN_R_IN*%
X76650100Y-18190100D03*
%TO.N,BTN_B_SW*%
X20179900Y-47941800D03*
%TD*%
D23*
%TO.N,+3V3*%
X32744700Y-28226700D02*
X25438000Y-35533400D01*
X47360000Y-27000000D02*
X46133300Y-28226700D01*
X24947100Y-49919900D02*
X21136300Y-49919900D01*
X56500000Y-6000000D02*
X55323300Y-6000000D01*
X25438000Y-35533400D02*
X25438000Y-49429000D01*
X25438000Y-49429000D02*
X24947100Y-49919900D01*
X49900000Y-27000000D02*
X55500000Y-21400000D01*
X55323300Y-6000000D02*
X55323300Y-17823300D01*
X21136300Y-49919900D02*
X19000000Y-47783600D01*
X55323300Y-17823300D02*
X55500000Y-18000000D01*
X46133300Y-28226700D02*
X32744700Y-28226700D01*
X55500000Y-21400000D02*
X55500000Y-18000000D01*
D24*
%TO.N,VBAT_RAW*%
X10000000Y-8852000D02*
X10000000Y-6000000D01*
X13712500Y-12564500D02*
X10000000Y-8852000D01*
%TO.N,VBAT_SW*%
X13500000Y-20500000D02*
X21500000Y-12500000D01*
X21500000Y-12500000D02*
X21500000Y-6000000D01*
%TO.N,+5V*%
X4368400Y-40034600D02*
X8666900Y-44333100D01*
X18003600Y-23379400D02*
X19239000Y-22144000D01*
X42500000Y-22144000D02*
X44695500Y-24339500D01*
X4368400Y-29631600D02*
X4368400Y-40034600D01*
X8666900Y-44333100D02*
X6000000Y-47000000D01*
X6000000Y-28000000D02*
X4368400Y-29631600D01*
X44695500Y-24339500D02*
X49455400Y-24339500D01*
X19239000Y-22144000D02*
X42500000Y-22144000D01*
X42500000Y-6000000D02*
X42500000Y-22144000D01*
D23*
%TO.N,SDA_3V3*%
X59000000Y-7435100D02*
X67570400Y-16005500D01*
X56821200Y-9479000D02*
X56821200Y-11091000D01*
X59000000Y-7301700D02*
X59000000Y-7435100D01*
X59000000Y-7300200D02*
X59000000Y-7301700D01*
X59000000Y-6000000D02*
X59000000Y-7188300D01*
X59000000Y-7300200D02*
X56821200Y-9479000D01*
X59000000Y-7188300D02*
X59000000Y-7300200D01*
X67570400Y-16005500D02*
X69385500Y-16005500D01*
X69385500Y-16005500D02*
X80380000Y-27000000D01*
%TO.N,SCL_3V3*%
X61500000Y-9048900D02*
X61500000Y-6000000D01*
X63394200Y-10943100D02*
X61500000Y-9048900D01*
%TO.N,SDA_5V*%
X44063500Y-17696300D02*
X44063500Y-22360900D01*
X44937500Y-16822300D02*
X44063500Y-17696300D01*
X45000000Y-16759800D02*
X44937500Y-16822300D01*
X45000000Y-6000000D02*
X45000000Y-16759800D01*
%TO.N,SCL_5V*%
X50438700Y-16816400D02*
X49560900Y-17694200D01*
X50438700Y-7938700D02*
X50438700Y-16816400D01*
X51783200Y-6594200D02*
X50438700Y-7938700D01*
X49560900Y-17694200D02*
X49560900Y-22359300D01*
%TO.N,LED_R_G*%
X42770900Y-48633300D02*
X31932400Y-37794800D01*
X75300000Y-49860000D02*
X74073300Y-48633300D01*
X74073300Y-48633300D02*
X42770900Y-48633300D01*
X31932400Y-37794800D02*
X31932400Y-29932400D01*
%TO.N,LED_B_G*%
X24655300Y-49291100D02*
X16033500Y-40669300D01*
X16033500Y-40669300D02*
X16033500Y-29937500D01*
%TO.N,BTN_B_LEDK*%
X6588300Y-26676700D02*
X15029400Y-35117800D01*
X6000000Y-25500000D02*
X6000000Y-26676700D01*
X6000000Y-26676700D02*
X6588300Y-26676700D01*
X15029400Y-35117800D02*
X15029400Y-39529400D01*
%TO.N,BTN_R_SW*%
X68000000Y-6000000D02*
X68000000Y-14500000D01*
X68000000Y-14500000D02*
X67958500Y-14541500D01*
%TO.N,BTN_R_IN*%
X85460000Y-27000000D02*
X76650100Y-18190100D01*
%TO.N,BTN_B_SW*%
X6000000Y-33000000D02*
X20179900Y-47179900D01*
X20179900Y-47179900D02*
X20179900Y-47941800D01*
%TD*%
%TA.AperFunction,Conductor*%
%TO.N,GND*%
G36*
X88004418Y-500816D02*
G01*
X88204561Y-515130D01*
X88222063Y-517647D01*
X88413797Y-559355D01*
X88430755Y-564334D01*
X88614601Y-632906D01*
X88614609Y-632909D01*
X88630701Y-640259D01*
X88802904Y-734288D01*
X88817784Y-743849D01*
X88974863Y-861438D01*
X88974867Y-861441D01*
X88988237Y-873027D01*
X89063681Y-948471D01*
X89097166Y-1009794D01*
X89100000Y-1036152D01*
X89100000Y-26175037D01*
X89080315Y-26242076D01*
X89027511Y-26287831D01*
X88958353Y-26297775D01*
X88894797Y-26268750D01*
X88881132Y-26253863D01*
X88880725Y-26254212D01*
X88877554Y-26250500D01*
X88749499Y-26122445D01*
X88749494Y-26122441D01*
X88602997Y-26016006D01*
X88602996Y-26016005D01*
X88602994Y-26016004D01*
X88533740Y-25980717D01*
X88441639Y-25933788D01*
X88441636Y-25933787D01*
X88269410Y-25877829D01*
X88090551Y-25849500D01*
X88090546Y-25849500D01*
X87909454Y-25849500D01*
X87909449Y-25849500D01*
X87730589Y-25877829D01*
X87558363Y-25933787D01*
X87558360Y-25933788D01*
X87397002Y-26016006D01*
X87250505Y-26122441D01*
X87250500Y-26122445D01*
X87122445Y-26250500D01*
X87122441Y-26250505D01*
X87016006Y-26397002D01*
X86933788Y-26558360D01*
X86933787Y-26558363D01*
X86877829Y-26730589D01*
X86852473Y-26890678D01*
X86822544Y-26953813D01*
X86763232Y-26990744D01*
X86693369Y-26989746D01*
X86635137Y-26951136D01*
X86607527Y-26890678D01*
X86589651Y-26777817D01*
X86582171Y-26730591D01*
X86543662Y-26612069D01*
X86526212Y-26558363D01*
X86526211Y-26558360D01*
X86474582Y-26457034D01*
X86443996Y-26397006D01*
X86370679Y-26296093D01*
X86337558Y-26250505D01*
X86337554Y-26250500D01*
X86209499Y-26122445D01*
X86209494Y-26122441D01*
X86062997Y-26016006D01*
X86062996Y-26016005D01*
X86062994Y-26016004D01*
X85993740Y-25980717D01*
X85901639Y-25933788D01*
X85901636Y-25933787D01*
X85729410Y-25877829D01*
X85550551Y-25849500D01*
X85550546Y-25849500D01*
X85369454Y-25849500D01*
X85369449Y-25849500D01*
X85190589Y-25877829D01*
X85073402Y-25915905D01*
X85003560Y-25917900D01*
X84947403Y-25885655D01*
X77286919Y-18225171D01*
X77253434Y-18163848D01*
X77250600Y-18137490D01*
X77250600Y-18111045D01*
X77250600Y-18111043D01*
X77209677Y-17958316D01*
X77189813Y-17923910D01*
X77130624Y-17821390D01*
X77130618Y-17821382D01*
X77018817Y-17709581D01*
X77018809Y-17709575D01*
X76881890Y-17630526D01*
X76881886Y-17630524D01*
X76881884Y-17630523D01*
X76729157Y-17589600D01*
X76571043Y-17589600D01*
X76418316Y-17630523D01*
X76418309Y-17630526D01*
X76281390Y-17709575D01*
X76281382Y-17709581D01*
X76169581Y-17821382D01*
X76169575Y-17821390D01*
X76090526Y-17958309D01*
X76090523Y-17958316D01*
X76049600Y-18111043D01*
X76049600Y-18269156D01*
X76090523Y-18421883D01*
X76090526Y-18421890D01*
X76169575Y-18558809D01*
X76169579Y-18558814D01*
X76169580Y-18558816D01*
X76281384Y-18670620D01*
X76281386Y-18670621D01*
X76281390Y-18670624D01*
X76418309Y-18749673D01*
X76418316Y-18749677D01*
X76571043Y-18790600D01*
X76597490Y-18790600D01*
X76664529Y-18810285D01*
X76685171Y-18826919D01*
X83693419Y-25835167D01*
X83726904Y-25896490D01*
X83721920Y-25966182D01*
X83680048Y-26022115D01*
X83614584Y-26046532D01*
X83546311Y-26031680D01*
X83532854Y-26023167D01*
X83522996Y-26016005D01*
X83361639Y-25933788D01*
X83361636Y-25933787D01*
X83189410Y-25877829D01*
X83010551Y-25849500D01*
X83010546Y-25849500D01*
X82829454Y-25849500D01*
X82829449Y-25849500D01*
X82650589Y-25877829D01*
X82478363Y-25933787D01*
X82478360Y-25933788D01*
X82317002Y-26016006D01*
X82170505Y-26122441D01*
X82170500Y-26122445D01*
X82042445Y-26250500D01*
X82042441Y-26250505D01*
X81936006Y-26397002D01*
X81853788Y-26558360D01*
X81853787Y-26558363D01*
X81797829Y-26730589D01*
X81772473Y-26890678D01*
X81742544Y-26953813D01*
X81683232Y-26990744D01*
X81613369Y-26989746D01*
X81555137Y-26951136D01*
X81527527Y-26890678D01*
X81509651Y-26777817D01*
X81502171Y-26730591D01*
X81463662Y-26612069D01*
X81446212Y-26558363D01*
X81446211Y-26558360D01*
X81394582Y-26457034D01*
X81363996Y-26397006D01*
X81290679Y-26296093D01*
X81257558Y-26250505D01*
X81257554Y-26250500D01*
X81129499Y-26122445D01*
X81129494Y-26122441D01*
X80982997Y-26016006D01*
X80982996Y-26016005D01*
X80982994Y-26016004D01*
X80913740Y-25980717D01*
X80821639Y-25933788D01*
X80821636Y-25933787D01*
X80649410Y-25877829D01*
X80470551Y-25849500D01*
X80470546Y-25849500D01*
X80289454Y-25849500D01*
X80289449Y-25849500D01*
X80110589Y-25877829D01*
X79993402Y-25915905D01*
X79923560Y-25917900D01*
X79867403Y-25885655D01*
X69646765Y-15665017D01*
X69646763Y-15665015D01*
X69549737Y-15608997D01*
X69441518Y-15580000D01*
X69441517Y-15580000D01*
X67798010Y-15580000D01*
X67730971Y-15560315D01*
X67710329Y-15543681D01*
X63764273Y-11597625D01*
X63730788Y-11536302D01*
X63735772Y-11466610D01*
X63764273Y-11422263D01*
X63874720Y-11311816D01*
X63953777Y-11174884D01*
X63994700Y-11022157D01*
X63994700Y-10864043D01*
X63953777Y-10711316D01*
X63913908Y-10642260D01*
X63874724Y-10574390D01*
X63874718Y-10574382D01*
X63762917Y-10462581D01*
X63762909Y-10462575D01*
X63625990Y-10383526D01*
X63625986Y-10383524D01*
X63625984Y-10383523D01*
X63473257Y-10342600D01*
X63473256Y-10342600D01*
X63446809Y-10342600D01*
X63379770Y-10322915D01*
X63359128Y-10306281D01*
X61961819Y-8908971D01*
X61928334Y-8847648D01*
X61925500Y-8821290D01*
X61925500Y-7275421D01*
X61945185Y-7208382D01*
X61993203Y-7164937D01*
X62102994Y-7108996D01*
X62249501Y-7002553D01*
X62377553Y-6874501D01*
X62483996Y-6727994D01*
X62566211Y-6566639D01*
X62622171Y-6394409D01*
X62646540Y-6240551D01*
X62650500Y-6215551D01*
X62650500Y-5784448D01*
X62630712Y-5659517D01*
X62622171Y-5605591D01*
X62594191Y-5519476D01*
X62566212Y-5433363D01*
X62566211Y-5433361D01*
X62490355Y-5284487D01*
X62490354Y-5284485D01*
X62483995Y-5272004D01*
X62454856Y-5231898D01*
X66849500Y-5231898D01*
X66849500Y-6768102D01*
X66852502Y-6793102D01*
X66860122Y-6856561D01*
X66860122Y-6856563D01*
X66860123Y-6856564D01*
X66869981Y-6881561D01*
X66915639Y-6997343D01*
X67007077Y-7117922D01*
X67127656Y-7209360D01*
X67127657Y-7209360D01*
X67127658Y-7209361D01*
X67268436Y-7264877D01*
X67356898Y-7275500D01*
X67450500Y-7275500D01*
X67517539Y-7295185D01*
X67563294Y-7347989D01*
X67574500Y-7399500D01*
X67574500Y-14024902D01*
X67554815Y-14091941D01*
X67538181Y-14112583D01*
X67477981Y-14172782D01*
X67477975Y-14172790D01*
X67398926Y-14309709D01*
X67398923Y-14309716D01*
X67358000Y-14462443D01*
X67358000Y-14620556D01*
X67398923Y-14773283D01*
X67398926Y-14773290D01*
X67477975Y-14910209D01*
X67477979Y-14910214D01*
X67477980Y-14910216D01*
X67589784Y-15022020D01*
X67589786Y-15022021D01*
X67589790Y-15022024D01*
X67726709Y-15101073D01*
X67726716Y-15101077D01*
X67879443Y-15142000D01*
X67879445Y-15142000D01*
X68037555Y-15142000D01*
X68037557Y-15142000D01*
X68190284Y-15101077D01*
X68327216Y-15022020D01*
X68439020Y-14910216D01*
X68518077Y-14773284D01*
X68559000Y-14620557D01*
X68559000Y-14462443D01*
X68518077Y-14309716D01*
X68442112Y-14178139D01*
X68425500Y-14116140D01*
X68425500Y-7399500D01*
X68445185Y-7332461D01*
X68497989Y-7286706D01*
X68549500Y-7275500D01*
X68643097Y-7275500D01*
X68643102Y-7275500D01*
X68731564Y-7264877D01*
X68872342Y-7209361D01*
X68992922Y-7117922D01*
X69084361Y-6997342D01*
X69139877Y-6856564D01*
X69150500Y-6768102D01*
X69150500Y-5784448D01*
X71849500Y-5784448D01*
X71849500Y-6215551D01*
X71877829Y-6394410D01*
X71933787Y-6566636D01*
X71933788Y-6566639D01*
X72016006Y-6727997D01*
X72122441Y-6874494D01*
X72122445Y-6874499D01*
X72250500Y-7002554D01*
X72250505Y-7002558D01*
X72349826Y-7074718D01*
X72397006Y-7108996D01*
X72502484Y-7162740D01*
X72558360Y-7191211D01*
X72558363Y-7191212D01*
X72625145Y-7212910D01*
X72730591Y-7247171D01*
X72813429Y-7260291D01*
X72909449Y-7275500D01*
X72909454Y-7275500D01*
X73090551Y-7275500D01*
X73177259Y-7261765D01*
X73269409Y-7247171D01*
X73441639Y-7191211D01*
X73602994Y-7108996D01*
X73749501Y-7002553D01*
X73877553Y-6874501D01*
X73983996Y-6727994D01*
X74066211Y-6566639D01*
X74122171Y-6394409D01*
X74127527Y-6360594D01*
X74157456Y-6297459D01*
X74216768Y-6260528D01*
X74286630Y-6261526D01*
X74344863Y-6300136D01*
X74372473Y-6360594D01*
X74377829Y-6394410D01*
X74433787Y-6566636D01*
X74433788Y-6566639D01*
X74516006Y-6727997D01*
X74622441Y-6874494D01*
X74622445Y-6874499D01*
X74750500Y-7002554D01*
X74750505Y-7002558D01*
X74849826Y-7074718D01*
X74897006Y-7108996D01*
X75002484Y-7162740D01*
X75058360Y-7191211D01*
X75058363Y-7191212D01*
X75125145Y-7212910D01*
X75230591Y-7247171D01*
X75313429Y-7260291D01*
X75409449Y-7275500D01*
X75409454Y-7275500D01*
X75590551Y-7275500D01*
X75677259Y-7261765D01*
X75769409Y-7247171D01*
X75941639Y-7191211D01*
X76102994Y-7108996D01*
X76249501Y-7002553D01*
X76377553Y-6874501D01*
X76483996Y-6727994D01*
X76566211Y-6566639D01*
X76622171Y-6394409D01*
X76646540Y-6240551D01*
X76650500Y-6215551D01*
X76650500Y-5784448D01*
X76630712Y-5659517D01*
X76622171Y-5605591D01*
X76594191Y-5519476D01*
X76566212Y-5433363D01*
X76566211Y-5433360D01*
X76490354Y-5284485D01*
X76483996Y-5272006D01*
X76436693Y-5206898D01*
X76377558Y-5125505D01*
X76377554Y-5125500D01*
X76249499Y-4997445D01*
X76249494Y-4997441D01*
X76102997Y-4891006D01*
X76102996Y-4891005D01*
X76102994Y-4891004D01*
X76036409Y-4857077D01*
X75941639Y-4808788D01*
X75941636Y-4808787D01*
X75769410Y-4752829D01*
X75590551Y-4724500D01*
X75590546Y-4724500D01*
X75409454Y-4724500D01*
X75409449Y-4724500D01*
X75230589Y-4752829D01*
X75058363Y-4808787D01*
X75058360Y-4808788D01*
X74897002Y-4891006D01*
X74750505Y-4997441D01*
X74750500Y-4997445D01*
X74622445Y-5125500D01*
X74622441Y-5125505D01*
X74516006Y-5272002D01*
X74433788Y-5433360D01*
X74433787Y-5433363D01*
X74377829Y-5605589D01*
X74372473Y-5639406D01*
X74342543Y-5702540D01*
X74283232Y-5739471D01*
X74213369Y-5738473D01*
X74155137Y-5699863D01*
X74127527Y-5639406D01*
X74124536Y-5620522D01*
X74122171Y-5605591D01*
X74094191Y-5519476D01*
X74066212Y-5433363D01*
X74066211Y-5433360D01*
X73990354Y-5284485D01*
X73983996Y-5272006D01*
X73936693Y-5206898D01*
X73877558Y-5125505D01*
X73877554Y-5125500D01*
X73749499Y-4997445D01*
X73749494Y-4997441D01*
X73602997Y-4891006D01*
X73602996Y-4891005D01*
X73602994Y-4891004D01*
X73536409Y-4857077D01*
X73441639Y-4808788D01*
X73441636Y-4808787D01*
X73269410Y-4752829D01*
X73090551Y-4724500D01*
X73090546Y-4724500D01*
X72909454Y-4724500D01*
X72909449Y-4724500D01*
X72730589Y-4752829D01*
X72558363Y-4808787D01*
X72558360Y-4808788D01*
X72397002Y-4891006D01*
X72250505Y-4997441D01*
X72250500Y-4997445D01*
X72122445Y-5125500D01*
X72122441Y-5125505D01*
X72016006Y-5272002D01*
X71933788Y-5433360D01*
X71933787Y-5433363D01*
X71877829Y-5605589D01*
X71849500Y-5784448D01*
X69150500Y-5784448D01*
X69150500Y-5231898D01*
X69139877Y-5143436D01*
X69084361Y-5002658D01*
X69084360Y-5002657D01*
X69084360Y-5002656D01*
X68992922Y-4882077D01*
X68872343Y-4790639D01*
X68731561Y-4735122D01*
X68685926Y-4729642D01*
X68643102Y-4724500D01*
X67356898Y-4724500D01*
X67317853Y-4729188D01*
X67268438Y-4735122D01*
X67127656Y-4790639D01*
X67007077Y-4882077D01*
X66915639Y-5002656D01*
X66860122Y-5143438D01*
X66854188Y-5192853D01*
X66849500Y-5231898D01*
X62454856Y-5231898D01*
X62377558Y-5125505D01*
X62377554Y-5125500D01*
X62249499Y-4997445D01*
X62249494Y-4997441D01*
X62102997Y-4891006D01*
X62102996Y-4891005D01*
X62102994Y-4891004D01*
X62036409Y-4857077D01*
X61941639Y-4808788D01*
X61941636Y-4808787D01*
X61769410Y-4752829D01*
X61590551Y-4724500D01*
X61590546Y-4724500D01*
X61409454Y-4724500D01*
X61409449Y-4724500D01*
X61230589Y-4752829D01*
X61058363Y-4808787D01*
X61058360Y-4808788D01*
X60897002Y-4891006D01*
X60750505Y-4997441D01*
X60750500Y-4997445D01*
X60622445Y-5125500D01*
X60622441Y-5125505D01*
X60516006Y-5272002D01*
X60433788Y-5433360D01*
X60433787Y-5433363D01*
X60377829Y-5605589D01*
X60372473Y-5639406D01*
X60342543Y-5702540D01*
X60283232Y-5739471D01*
X60213369Y-5738473D01*
X60155137Y-5699863D01*
X60127527Y-5639406D01*
X60124536Y-5620522D01*
X60122171Y-5605591D01*
X60094191Y-5519476D01*
X60066212Y-5433363D01*
X60066211Y-5433360D01*
X59990354Y-5284485D01*
X59983996Y-5272006D01*
X59936693Y-5206898D01*
X59877558Y-5125505D01*
X59877554Y-5125500D01*
X59749499Y-4997445D01*
X59749494Y-4997441D01*
X59602997Y-4891006D01*
X59602996Y-4891005D01*
X59602994Y-4891004D01*
X59536409Y-4857077D01*
X59441639Y-4808788D01*
X59441636Y-4808787D01*
X59269410Y-4752829D01*
X59090551Y-4724500D01*
X59090546Y-4724500D01*
X58909454Y-4724500D01*
X58909449Y-4724500D01*
X58730589Y-4752829D01*
X58558363Y-4808787D01*
X58558360Y-4808788D01*
X58397002Y-4891006D01*
X58250505Y-4997441D01*
X58250500Y-4997445D01*
X58122445Y-5125500D01*
X58122441Y-5125505D01*
X58016006Y-5272002D01*
X57933788Y-5433360D01*
X57933787Y-5433363D01*
X57877829Y-5605589D01*
X57872473Y-5639406D01*
X57842543Y-5702540D01*
X57783232Y-5739471D01*
X57713369Y-5738473D01*
X57655137Y-5699863D01*
X57627527Y-5639406D01*
X57624536Y-5620522D01*
X57622171Y-5605591D01*
X57594191Y-5519476D01*
X57566212Y-5433363D01*
X57566211Y-5433360D01*
X57490354Y-5284485D01*
X57483996Y-5272006D01*
X57436693Y-5206898D01*
X57377558Y-5125505D01*
X57377554Y-5125500D01*
X57249499Y-4997445D01*
X57249494Y-4997441D01*
X57102997Y-4891006D01*
X57102996Y-4891005D01*
X57102994Y-4891004D01*
X57036409Y-4857077D01*
X56941639Y-4808788D01*
X56941636Y-4808787D01*
X56769410Y-4752829D01*
X56590551Y-4724500D01*
X56590546Y-4724500D01*
X56409454Y-4724500D01*
X56409449Y-4724500D01*
X56230589Y-4752829D01*
X56058363Y-4808787D01*
X56058360Y-4808788D01*
X55897002Y-4891006D01*
X55750505Y-4997441D01*
X55750500Y-4997445D01*
X55622445Y-5125500D01*
X55622441Y-5125505D01*
X55516006Y-5272002D01*
X55433788Y-5433360D01*
X55433786Y-5433366D01*
X55415770Y-5488817D01*
X55376333Y-5546493D01*
X55311975Y-5573692D01*
X55297839Y-5574500D01*
X55267282Y-5574500D01*
X55159063Y-5603497D01*
X55159060Y-5603498D01*
X55062040Y-5659513D01*
X55062034Y-5659517D01*
X54982817Y-5738734D01*
X54982813Y-5738740D01*
X54926798Y-5835760D01*
X54926797Y-5835763D01*
X54897800Y-5943982D01*
X54897800Y-16794431D01*
X54878115Y-16861470D01*
X54825311Y-16907225D01*
X54819290Y-16909785D01*
X54677660Y-16965637D01*
X54677658Y-16965638D01*
X54557077Y-17057077D01*
X54465639Y-17177656D01*
X54410122Y-17318438D01*
X54405634Y-17355815D01*
X54399500Y-17406898D01*
X54399500Y-18593102D01*
X54405126Y-18639954D01*
X54410122Y-18681561D01*
X54465639Y-18822343D01*
X54557077Y-18942922D01*
X54677656Y-19034360D01*
X54677657Y-19034360D01*
X54677658Y-19034361D01*
X54818436Y-19089877D01*
X54906898Y-19100500D01*
X54950500Y-19100500D01*
X55017539Y-19120185D01*
X55063294Y-19172989D01*
X55074500Y-19224500D01*
X55074500Y-21172389D01*
X55054815Y-21239428D01*
X55038181Y-21260070D01*
X50412595Y-25885655D01*
X50351272Y-25919140D01*
X50286596Y-25915905D01*
X50262337Y-25908022D01*
X50169409Y-25877828D01*
X49990551Y-25849500D01*
X49990546Y-25849500D01*
X49809454Y-25849500D01*
X49809449Y-25849500D01*
X49630589Y-25877829D01*
X49458363Y-25933787D01*
X49458360Y-25933788D01*
X49297002Y-26016006D01*
X49150505Y-26122441D01*
X49150500Y-26122445D01*
X49022445Y-26250500D01*
X49022441Y-26250505D01*
X48916006Y-26397002D01*
X48833788Y-26558360D01*
X48833787Y-26558363D01*
X48777829Y-26730589D01*
X48752473Y-26890678D01*
X48722544Y-26953813D01*
X48663232Y-26990744D01*
X48593369Y-26989746D01*
X48535137Y-26951136D01*
X48507527Y-26890678D01*
X48489651Y-26777817D01*
X48482171Y-26730591D01*
X48443662Y-26612069D01*
X48426212Y-26558363D01*
X48426211Y-26558360D01*
X48374582Y-26457034D01*
X48343996Y-26397006D01*
X48270679Y-26296093D01*
X48237558Y-26250505D01*
X48237554Y-26250500D01*
X48109499Y-26122445D01*
X48109494Y-26122441D01*
X47962997Y-26016006D01*
X47962996Y-26016005D01*
X47962994Y-26016004D01*
X47893740Y-25980717D01*
X47801639Y-25933788D01*
X47801636Y-25933787D01*
X47629410Y-25877829D01*
X47450551Y-25849500D01*
X47450546Y-25849500D01*
X47269454Y-25849500D01*
X47269449Y-25849500D01*
X47090589Y-25877829D01*
X46918363Y-25933787D01*
X46918360Y-25933788D01*
X46757002Y-26016006D01*
X46610505Y-26122441D01*
X46610500Y-26122445D01*
X46482445Y-26250500D01*
X46482441Y-26250505D01*
X46376006Y-26397002D01*
X46293788Y-26558360D01*
X46293787Y-26558363D01*
X46237829Y-26730589D01*
X46209500Y-26909448D01*
X46209500Y-27090551D01*
X46237828Y-27269409D01*
X46275905Y-27386596D01*
X46277900Y-27456437D01*
X46245655Y-27512595D01*
X45993369Y-27764882D01*
X45932049Y-27798366D01*
X45905690Y-27801200D01*
X32800718Y-27801200D01*
X32688681Y-27801200D01*
X32580463Y-27830197D01*
X32580461Y-27830198D01*
X32580460Y-27830198D01*
X32483440Y-27886213D01*
X32483434Y-27886217D01*
X32404213Y-27965439D01*
X25159296Y-35210355D01*
X25159295Y-35210355D01*
X25159296Y-35210356D01*
X25097514Y-35272138D01*
X25097513Y-35272140D01*
X25041498Y-35369160D01*
X25041497Y-35369163D01*
X25012500Y-35477382D01*
X25012500Y-48603528D01*
X25006473Y-48624052D01*
X25005214Y-48645407D01*
X24996825Y-48656909D01*
X24992815Y-48670567D01*
X24976651Y-48684573D01*
X24964045Y-48701859D01*
X24950768Y-48707000D01*
X24940011Y-48716322D01*
X24918839Y-48719366D01*
X24898891Y-48727092D01*
X24878041Y-48725232D01*
X24870853Y-48726266D01*
X24863658Y-48725014D01*
X24860001Y-48724266D01*
X24734357Y-48690600D01*
X24695362Y-48690600D01*
X24683068Y-48688086D01*
X24662836Y-48677364D01*
X24640871Y-48670915D01*
X24622059Y-48655756D01*
X24621331Y-48655370D01*
X24621124Y-48655002D01*
X24620229Y-48654281D01*
X16495319Y-40529371D01*
X16461834Y-40468048D01*
X16459000Y-40441690D01*
X16459000Y-30412598D01*
X16478685Y-30345559D01*
X16495319Y-30324917D01*
X16500419Y-30319817D01*
X16514020Y-30306216D01*
X16593077Y-30169284D01*
X16634000Y-30016557D01*
X16634000Y-29858443D01*
X16593077Y-29705716D01*
X16590133Y-29700616D01*
X16514024Y-29568790D01*
X16514018Y-29568782D01*
X16402217Y-29456981D01*
X16402209Y-29456975D01*
X16265290Y-29377926D01*
X16265286Y-29377924D01*
X16265284Y-29377923D01*
X16112557Y-29337000D01*
X15954443Y-29337000D01*
X15801716Y-29377923D01*
X15801709Y-29377926D01*
X15664790Y-29456975D01*
X15664782Y-29456981D01*
X15552981Y-29568782D01*
X15552975Y-29568790D01*
X15473926Y-29705709D01*
X15473923Y-29705716D01*
X15433000Y-29858443D01*
X15433000Y-30016557D01*
X15472557Y-30164184D01*
X15473923Y-30169283D01*
X15473926Y-30169290D01*
X15552975Y-30306209D01*
X15552981Y-30306217D01*
X15571681Y-30324917D01*
X15605166Y-30386240D01*
X15608000Y-30412598D01*
X15608000Y-34806190D01*
X15588315Y-34873229D01*
X15535511Y-34918984D01*
X15466353Y-34928928D01*
X15402797Y-34899903D01*
X15376613Y-34868191D01*
X15369885Y-34856537D01*
X15290663Y-34777315D01*
X6970382Y-26457034D01*
X6936897Y-26395711D01*
X6941881Y-26326019D01*
X6970382Y-26281672D01*
X6983304Y-26268750D01*
X7002553Y-26249501D01*
X7108996Y-26102994D01*
X7191211Y-25941639D01*
X7247171Y-25769409D01*
X7261765Y-25677259D01*
X7275500Y-25590551D01*
X7275500Y-25409448D01*
X7259019Y-25305397D01*
X7247171Y-25230591D01*
X7191211Y-25058361D01*
X7191211Y-25058360D01*
X7141231Y-24960271D01*
X7108996Y-24897006D01*
X7028379Y-24786045D01*
X7002558Y-24750505D01*
X7002554Y-24750500D01*
X6874499Y-24622445D01*
X6874494Y-24622441D01*
X6727997Y-24516006D01*
X6727996Y-24516005D01*
X6727994Y-24516004D01*
X6676300Y-24489664D01*
X6566639Y-24433788D01*
X6566636Y-24433787D01*
X6394410Y-24377829D01*
X6215551Y-24349500D01*
X6215546Y-24349500D01*
X5784454Y-24349500D01*
X5784449Y-24349500D01*
X5605589Y-24377829D01*
X5433363Y-24433787D01*
X5433360Y-24433788D01*
X5272002Y-24516006D01*
X5125505Y-24622441D01*
X5125500Y-24622445D01*
X4997445Y-24750500D01*
X4997441Y-24750505D01*
X4891006Y-24897002D01*
X4808788Y-25058360D01*
X4808787Y-25058363D01*
X4752829Y-25230589D01*
X4724500Y-25409448D01*
X4724500Y-25590551D01*
X4752829Y-25769410D01*
X4808787Y-25941636D01*
X4808788Y-25941639D01*
X4891006Y-26102997D01*
X4997441Y-26249494D01*
X4997445Y-26249499D01*
X5125500Y-26377554D01*
X5125505Y-26377558D01*
X5234896Y-26457034D01*
X5272006Y-26483996D01*
X5433361Y-26566211D01*
X5488819Y-26584230D01*
X5502729Y-26593741D01*
X5518837Y-26598690D01*
X5530970Y-26613051D01*
X5546492Y-26623664D01*
X5553354Y-26639545D01*
X5563929Y-26652061D01*
X5568858Y-26675424D01*
X5573449Y-26686047D01*
X5574500Y-26694066D01*
X5574500Y-26732718D01*
X5584415Y-26769721D01*
X5585476Y-26777817D01*
X5581283Y-26804596D01*
X5580638Y-26831689D01*
X5575959Y-26838600D01*
X5574669Y-26846846D01*
X5556666Y-26867104D01*
X5541475Y-26889550D01*
X5532192Y-26894647D01*
X5528259Y-26899074D01*
X5519833Y-26901433D01*
X5500846Y-26911861D01*
X5433360Y-26933789D01*
X5272002Y-27016006D01*
X5125505Y-27122441D01*
X5125500Y-27122445D01*
X4997445Y-27250500D01*
X4997441Y-27250505D01*
X4891006Y-27397002D01*
X4808788Y-27558360D01*
X4808787Y-27558363D01*
X4752829Y-27730589D01*
X4724500Y-27909448D01*
X4724500Y-28090551D01*
X4741181Y-28195874D01*
X4732226Y-28265167D01*
X4706389Y-28302952D01*
X3824287Y-29185054D01*
X3747622Y-29299792D01*
X3694821Y-29427267D01*
X3694818Y-29427279D01*
X3672199Y-29540994D01*
X3672199Y-29540997D01*
X3667900Y-29562607D01*
X3667900Y-39965606D01*
X3667900Y-40103594D01*
X3667900Y-40103596D01*
X3667899Y-40103596D01*
X3694818Y-40238922D01*
X3694821Y-40238932D01*
X3747622Y-40366407D01*
X3824287Y-40481145D01*
X3824288Y-40481146D01*
X6507868Y-43164725D01*
X6541353Y-43226048D01*
X6536369Y-43295740D01*
X6494497Y-43351673D01*
X6429033Y-43376090D01*
X6400789Y-43374879D01*
X6240551Y-43349500D01*
X6240546Y-43349500D01*
X5759454Y-43349500D01*
X5759449Y-43349500D01*
X5580589Y-43377829D01*
X5408363Y-43433787D01*
X5408360Y-43433788D01*
X5247002Y-43516006D01*
X5100505Y-43622441D01*
X5100500Y-43622445D01*
X4972445Y-43750500D01*
X4972441Y-43750505D01*
X4866006Y-43897002D01*
X4783788Y-44058360D01*
X4783787Y-44058363D01*
X4727829Y-44230589D01*
X4699500Y-44409448D01*
X4699500Y-44590551D01*
X4727829Y-44769410D01*
X4783787Y-44941636D01*
X4783788Y-44941639D01*
X4866006Y-45102997D01*
X4972441Y-45249494D01*
X4972445Y-45249499D01*
X5100500Y-45377554D01*
X5100505Y-45377558D01*
X5228287Y-45470396D01*
X5247006Y-45483996D01*
X5352484Y-45537740D01*
X5408360Y-45566211D01*
X5408363Y-45566212D01*
X5535649Y-45607569D01*
X5593324Y-45647006D01*
X5620523Y-45711364D01*
X5608609Y-45780211D01*
X5561365Y-45831687D01*
X5497331Y-45849500D01*
X5206898Y-45849500D01*
X5167853Y-45854188D01*
X5118438Y-45860122D01*
X4977656Y-45915639D01*
X4857077Y-46007077D01*
X4765639Y-46127656D01*
X4710122Y-46268438D01*
X4704188Y-46317853D01*
X4699500Y-46356898D01*
X4699500Y-47643102D01*
X4705126Y-47689954D01*
X4710122Y-47731561D01*
X4765639Y-47872343D01*
X4857077Y-47992922D01*
X4977656Y-48084360D01*
X4977657Y-48084360D01*
X4977658Y-48084361D01*
X5118436Y-48139877D01*
X5206898Y-48150500D01*
X5206903Y-48150500D01*
X6793097Y-48150500D01*
X6793102Y-48150500D01*
X6881564Y-48139877D01*
X7022342Y-48084361D01*
X7142922Y-47992922D01*
X7234361Y-47872342D01*
X7289877Y-47731564D01*
X7300500Y-47643102D01*
X7300500Y-46741519D01*
X7320185Y-46674480D01*
X7336819Y-46653838D01*
X9211012Y-44779645D01*
X9211014Y-44779643D01*
X9287675Y-44664911D01*
X9340480Y-44537429D01*
X9346535Y-44506986D01*
X9367400Y-44402094D01*
X9367400Y-44264106D01*
X9367400Y-44264103D01*
X9340481Y-44128777D01*
X9340480Y-44128776D01*
X9340480Y-44128772D01*
X9311315Y-44058361D01*
X9287677Y-44001292D01*
X9211012Y-43886554D01*
X5105219Y-39780761D01*
X5071734Y-39719438D01*
X5068900Y-39693080D01*
X5068900Y-34270707D01*
X5088585Y-34203668D01*
X5141389Y-34157913D01*
X5207684Y-34147592D01*
X5231898Y-34150500D01*
X6497390Y-34150500D01*
X6564429Y-34170185D01*
X6585071Y-34186819D01*
X19489689Y-47091437D01*
X19523174Y-47152760D01*
X19518190Y-47222452D01*
X19476318Y-47278385D01*
X19410854Y-47302802D01*
X19342581Y-47287950D01*
X19340009Y-47286506D01*
X19231784Y-47224023D01*
X19225921Y-47222452D01*
X19079057Y-47183100D01*
X18920943Y-47183100D01*
X18768216Y-47224023D01*
X18768209Y-47224026D01*
X18631290Y-47303075D01*
X18631282Y-47303081D01*
X18519481Y-47414882D01*
X18519475Y-47414890D01*
X18440426Y-47551809D01*
X18440423Y-47551816D01*
X18399500Y-47704543D01*
X18399500Y-47862657D01*
X18434405Y-47992922D01*
X18440423Y-48015383D01*
X18440426Y-48015390D01*
X18519475Y-48152309D01*
X18519479Y-48152314D01*
X18519480Y-48152316D01*
X18631284Y-48264120D01*
X18631286Y-48264121D01*
X18631290Y-48264124D01*
X18768209Y-48343173D01*
X18768216Y-48343177D01*
X18920943Y-48384100D01*
X18947390Y-48384100D01*
X19014429Y-48403785D01*
X19035071Y-48420419D01*
X20795815Y-50181163D01*
X20875037Y-50260385D01*
X20946491Y-50301639D01*
X20972063Y-50316403D01*
X21080281Y-50345400D01*
X21080282Y-50345400D01*
X21080283Y-50345400D01*
X25003116Y-50345400D01*
X25003118Y-50345400D01*
X25111337Y-50316403D01*
X25208363Y-50260385D01*
X25778484Y-49690264D01*
X25780021Y-49687603D01*
X25834503Y-49593237D01*
X25845455Y-49552363D01*
X25863500Y-49485019D01*
X25863500Y-49372982D01*
X25863500Y-35761009D01*
X25883185Y-35693970D01*
X25899819Y-35673328D01*
X27950757Y-33622390D01*
X31274276Y-30298870D01*
X31282219Y-30294533D01*
X31287645Y-30287286D01*
X31312404Y-30278051D01*
X31335597Y-30265387D01*
X31344626Y-30266032D01*
X31353109Y-30262869D01*
X31378929Y-30268485D01*
X31405289Y-30270371D01*
X31414342Y-30276189D01*
X31421382Y-30277721D01*
X31449636Y-30298872D01*
X31470581Y-30319817D01*
X31504066Y-30381140D01*
X31506900Y-30407498D01*
X31506900Y-37738782D01*
X31506900Y-37850818D01*
X31535897Y-37959037D01*
X31591915Y-38056063D01*
X42430415Y-48894563D01*
X42509637Y-48973785D01*
X42606663Y-49029803D01*
X42714882Y-49058800D01*
X46276645Y-49058800D01*
X46343684Y-49078485D01*
X46389439Y-49131289D01*
X46399383Y-49200447D01*
X46378201Y-49252636D01*
X46378550Y-49252850D01*
X46377260Y-49254954D01*
X46376964Y-49255685D01*
X46376003Y-49257006D01*
X46293788Y-49418360D01*
X46293787Y-49418363D01*
X46237829Y-49590589D01*
X46209500Y-49769448D01*
X46209500Y-49950551D01*
X46237829Y-50129410D01*
X46293787Y-50301636D01*
X46293788Y-50301639D01*
X46376006Y-50462997D01*
X46482441Y-50609494D01*
X46482445Y-50609499D01*
X46610500Y-50737554D01*
X46610505Y-50737558D01*
X46738287Y-50830396D01*
X46757006Y-50843996D01*
X46862484Y-50897740D01*
X46918360Y-50926211D01*
X46918363Y-50926212D01*
X47004476Y-50954191D01*
X47090591Y-50982171D01*
X47173429Y-50995291D01*
X47269449Y-51010500D01*
X47269454Y-51010500D01*
X47450551Y-51010500D01*
X47537259Y-50996765D01*
X47629409Y-50982171D01*
X47801639Y-50926211D01*
X47962994Y-50843996D01*
X48109501Y-50737553D01*
X48237553Y-50609501D01*
X48343996Y-50462994D01*
X48426211Y-50301639D01*
X48482171Y-50129409D01*
X48496422Y-50039425D01*
X48507527Y-49969321D01*
X48537456Y-49906186D01*
X48596768Y-49869255D01*
X48666630Y-49870253D01*
X48724863Y-49908863D01*
X48752473Y-49969321D01*
X48777829Y-50129410D01*
X48833787Y-50301636D01*
X48833788Y-50301639D01*
X48916006Y-50462997D01*
X49022441Y-50609494D01*
X49022445Y-50609499D01*
X49150500Y-50737554D01*
X49150505Y-50737558D01*
X49278287Y-50830396D01*
X49297006Y-50843996D01*
X49402484Y-50897740D01*
X49458360Y-50926211D01*
X49458363Y-50926212D01*
X49544476Y-50954191D01*
X49630591Y-50982171D01*
X49713429Y-50995291D01*
X49809449Y-51010500D01*
X49809454Y-51010500D01*
X49990551Y-51010500D01*
X50077259Y-50996765D01*
X50169409Y-50982171D01*
X50341639Y-50926211D01*
X50502994Y-50843996D01*
X50649501Y-50737553D01*
X50777553Y-50609501D01*
X50883996Y-50462994D01*
X50966211Y-50301639D01*
X51022171Y-50129409D01*
X51036422Y-50039425D01*
X51047527Y-49969321D01*
X51077456Y-49906186D01*
X51136768Y-49869255D01*
X51206630Y-49870253D01*
X51264863Y-49908863D01*
X51292473Y-49969321D01*
X51317829Y-50129410D01*
X51373787Y-50301636D01*
X51373788Y-50301639D01*
X51456006Y-50462997D01*
X51562441Y-50609494D01*
X51562445Y-50609499D01*
X51690500Y-50737554D01*
X51690505Y-50737558D01*
X51818287Y-50830396D01*
X51837006Y-50843996D01*
X51942484Y-50897740D01*
X51998360Y-50926211D01*
X51998363Y-50926212D01*
X52084476Y-50954191D01*
X52170591Y-50982171D01*
X52253429Y-50995291D01*
X52349449Y-51010500D01*
X52349454Y-51010500D01*
X52530551Y-51010500D01*
X52617259Y-50996765D01*
X52709409Y-50982171D01*
X52881639Y-50926211D01*
X53042994Y-50843996D01*
X53189501Y-50737553D01*
X53317553Y-50609501D01*
X53423996Y-50462994D01*
X53506211Y-50301639D01*
X53562171Y-50129409D01*
X53576422Y-50039425D01*
X53587527Y-49969321D01*
X53617456Y-49906186D01*
X53676768Y-49869255D01*
X53746630Y-49870253D01*
X53804863Y-49908863D01*
X53832473Y-49969321D01*
X53857829Y-50129410D01*
X53913787Y-50301636D01*
X53913788Y-50301639D01*
X53996006Y-50462997D01*
X54102441Y-50609494D01*
X54102445Y-50609499D01*
X54230500Y-50737554D01*
X54230505Y-50737558D01*
X54358287Y-50830396D01*
X54377006Y-50843996D01*
X54482484Y-50897740D01*
X54538360Y-50926211D01*
X54538363Y-50926212D01*
X54624476Y-50954191D01*
X54710591Y-50982171D01*
X54793429Y-50995291D01*
X54889449Y-51010500D01*
X54889454Y-51010500D01*
X55070551Y-51010500D01*
X55157259Y-50996765D01*
X55249409Y-50982171D01*
X55421639Y-50926211D01*
X55582994Y-50843996D01*
X55729501Y-50737553D01*
X55857553Y-50609501D01*
X55963996Y-50462994D01*
X56046211Y-50301639D01*
X56102171Y-50129409D01*
X56116422Y-50039425D01*
X56127527Y-49969321D01*
X56157456Y-49906186D01*
X56216768Y-49869255D01*
X56286630Y-49870253D01*
X56344863Y-49908863D01*
X56372473Y-49969321D01*
X56397829Y-50129410D01*
X56453787Y-50301636D01*
X56453788Y-50301639D01*
X56536006Y-50462997D01*
X56642441Y-50609494D01*
X56642445Y-50609499D01*
X56770500Y-50737554D01*
X56770505Y-50737558D01*
X56898287Y-50830396D01*
X56917006Y-50843996D01*
X57022484Y-50897740D01*
X57078360Y-50926211D01*
X57078363Y-50926212D01*
X57164476Y-50954191D01*
X57250591Y-50982171D01*
X57333429Y-50995291D01*
X57429449Y-51010500D01*
X57429454Y-51010500D01*
X57610551Y-51010500D01*
X57697259Y-50996765D01*
X57789409Y-50982171D01*
X57961639Y-50926211D01*
X58122994Y-50843996D01*
X58269501Y-50737553D01*
X58397553Y-50609501D01*
X58503996Y-50462994D01*
X58586211Y-50301639D01*
X58642171Y-50129409D01*
X58656422Y-50039425D01*
X58667527Y-49969321D01*
X58697456Y-49906186D01*
X58756768Y-49869255D01*
X58826630Y-49870253D01*
X58884863Y-49908863D01*
X58912473Y-49969321D01*
X58937829Y-50129410D01*
X58993787Y-50301636D01*
X58993788Y-50301639D01*
X59076006Y-50462997D01*
X59182441Y-50609494D01*
X59182445Y-50609499D01*
X59310500Y-50737554D01*
X59310505Y-50737558D01*
X59438287Y-50830396D01*
X59457006Y-50843996D01*
X59562484Y-50897740D01*
X59618360Y-50926211D01*
X59618363Y-50926212D01*
X59704476Y-50954191D01*
X59790591Y-50982171D01*
X59873429Y-50995291D01*
X59969449Y-51010500D01*
X59969454Y-51010500D01*
X60150551Y-51010500D01*
X60237259Y-50996765D01*
X60329409Y-50982171D01*
X60501639Y-50926211D01*
X60662994Y-50843996D01*
X60809501Y-50737553D01*
X60937553Y-50609501D01*
X61043996Y-50462994D01*
X61126211Y-50301639D01*
X61182171Y-50129409D01*
X61196422Y-50039425D01*
X61207527Y-49969321D01*
X61237456Y-49906186D01*
X61296768Y-49869255D01*
X61366630Y-49870253D01*
X61424863Y-49908863D01*
X61452473Y-49969321D01*
X61477829Y-50129410D01*
X61533787Y-50301636D01*
X61533788Y-50301639D01*
X61616006Y-50462997D01*
X61722441Y-50609494D01*
X61722445Y-50609499D01*
X61850500Y-50737554D01*
X61850505Y-50737558D01*
X61978287Y-50830396D01*
X61997006Y-50843996D01*
X62102484Y-50897740D01*
X62158360Y-50926211D01*
X62158363Y-50926212D01*
X62244476Y-50954191D01*
X62330591Y-50982171D01*
X62413429Y-50995291D01*
X62509449Y-51010500D01*
X62509454Y-51010500D01*
X62690551Y-51010500D01*
X62777259Y-50996765D01*
X62869409Y-50982171D01*
X63041639Y-50926211D01*
X63202994Y-50843996D01*
X63349501Y-50737553D01*
X63477553Y-50609501D01*
X63583996Y-50462994D01*
X63666211Y-50301639D01*
X63722171Y-50129409D01*
X63736422Y-50039425D01*
X63747527Y-49969321D01*
X63777456Y-49906186D01*
X63836768Y-49869255D01*
X63906630Y-49870253D01*
X63964863Y-49908863D01*
X63992473Y-49969321D01*
X64017829Y-50129410D01*
X64073787Y-50301636D01*
X64073788Y-50301639D01*
X64156006Y-50462997D01*
X64262441Y-50609494D01*
X64262445Y-50609499D01*
X64390500Y-50737554D01*
X64390505Y-50737558D01*
X64518287Y-50830396D01*
X64537006Y-50843996D01*
X64642484Y-50897740D01*
X64698360Y-50926211D01*
X64698363Y-50926212D01*
X64784476Y-50954191D01*
X64870591Y-50982171D01*
X64953429Y-50995291D01*
X65049449Y-51010500D01*
X65049454Y-51010500D01*
X65230551Y-51010500D01*
X65317259Y-50996765D01*
X65409409Y-50982171D01*
X65581639Y-50926211D01*
X65742994Y-50843996D01*
X65889501Y-50737553D01*
X66017553Y-50609501D01*
X66123996Y-50462994D01*
X66206211Y-50301639D01*
X66262171Y-50129409D01*
X66276422Y-50039425D01*
X66287527Y-49969321D01*
X66317456Y-49906186D01*
X66376768Y-49869255D01*
X66446630Y-49870253D01*
X66504863Y-49908863D01*
X66532473Y-49969321D01*
X66557829Y-50129410D01*
X66613787Y-50301636D01*
X66613788Y-50301639D01*
X66696006Y-50462997D01*
X66802441Y-50609494D01*
X66802445Y-50609499D01*
X66930500Y-50737554D01*
X66930505Y-50737558D01*
X67058287Y-50830396D01*
X67077006Y-50843996D01*
X67182484Y-50897740D01*
X67238360Y-50926211D01*
X67238363Y-50926212D01*
X67324476Y-50954191D01*
X67410591Y-50982171D01*
X67493429Y-50995291D01*
X67589449Y-51010500D01*
X67589454Y-51010500D01*
X67770551Y-51010500D01*
X67857259Y-50996765D01*
X67949409Y-50982171D01*
X68121639Y-50926211D01*
X68282994Y-50843996D01*
X68429501Y-50737553D01*
X68557553Y-50609501D01*
X68663996Y-50462994D01*
X68746211Y-50301639D01*
X68802171Y-50129409D01*
X68816422Y-50039425D01*
X68827527Y-49969321D01*
X68857456Y-49906186D01*
X68916768Y-49869255D01*
X68986630Y-49870253D01*
X69044863Y-49908863D01*
X69072473Y-49969321D01*
X69097829Y-50129410D01*
X69153787Y-50301636D01*
X69153788Y-50301639D01*
X69236006Y-50462997D01*
X69342441Y-50609494D01*
X69342445Y-50609499D01*
X69470500Y-50737554D01*
X69470505Y-50737558D01*
X69598287Y-50830396D01*
X69617006Y-50843996D01*
X69722484Y-50897740D01*
X69778360Y-50926211D01*
X69778363Y-50926212D01*
X69864476Y-50954191D01*
X69950591Y-50982171D01*
X70033429Y-50995291D01*
X70129449Y-51010500D01*
X70129454Y-51010500D01*
X70310551Y-51010500D01*
X70397259Y-50996765D01*
X70489409Y-50982171D01*
X70661639Y-50926211D01*
X70822994Y-50843996D01*
X70969501Y-50737553D01*
X71097553Y-50609501D01*
X71203996Y-50462994D01*
X71286211Y-50301639D01*
X71342171Y-50129409D01*
X71356422Y-50039425D01*
X71367527Y-49969321D01*
X71397456Y-49906186D01*
X71456768Y-49869255D01*
X71526630Y-49870253D01*
X71584863Y-49908863D01*
X71612473Y-49969321D01*
X71637829Y-50129410D01*
X71693787Y-50301636D01*
X71693788Y-50301639D01*
X71776006Y-50462997D01*
X71882441Y-50609494D01*
X71882445Y-50609499D01*
X72010500Y-50737554D01*
X72010505Y-50737558D01*
X72138287Y-50830396D01*
X72157006Y-50843996D01*
X72262484Y-50897740D01*
X72318360Y-50926211D01*
X72318363Y-50926212D01*
X72404476Y-50954191D01*
X72490591Y-50982171D01*
X72573429Y-50995291D01*
X72669449Y-51010500D01*
X72669454Y-51010500D01*
X72850551Y-51010500D01*
X72937259Y-50996765D01*
X73029409Y-50982171D01*
X73201639Y-50926211D01*
X73362994Y-50843996D01*
X73509501Y-50737553D01*
X73637553Y-50609501D01*
X73743996Y-50462994D01*
X73826211Y-50301639D01*
X73882171Y-50129409D01*
X73896422Y-50039425D01*
X73907527Y-49969321D01*
X73937456Y-49906186D01*
X73996768Y-49869255D01*
X74066630Y-49870253D01*
X74124863Y-49908863D01*
X74152473Y-49969321D01*
X74177829Y-50129410D01*
X74233787Y-50301636D01*
X74233788Y-50301639D01*
X74316006Y-50462997D01*
X74422441Y-50609494D01*
X74422445Y-50609499D01*
X74550500Y-50737554D01*
X74550505Y-50737558D01*
X74678287Y-50830396D01*
X74697006Y-50843996D01*
X74802484Y-50897740D01*
X74858360Y-50926211D01*
X74858363Y-50926212D01*
X74944476Y-50954191D01*
X75030591Y-50982171D01*
X75113429Y-50995291D01*
X75209449Y-51010500D01*
X75209454Y-51010500D01*
X75390551Y-51010500D01*
X75477259Y-50996765D01*
X75569409Y-50982171D01*
X75741639Y-50926211D01*
X75902994Y-50843996D01*
X76049501Y-50737553D01*
X76177553Y-50609501D01*
X76283996Y-50462994D01*
X76366211Y-50301639D01*
X76422171Y-50129409D01*
X76436422Y-50039425D01*
X76447527Y-49969321D01*
X76477456Y-49906186D01*
X76536768Y-49869255D01*
X76606630Y-49870253D01*
X76664863Y-49908863D01*
X76692473Y-49969321D01*
X76717829Y-50129410D01*
X76773787Y-50301636D01*
X76773788Y-50301639D01*
X76856006Y-50462997D01*
X76962441Y-50609494D01*
X76962445Y-50609499D01*
X77090500Y-50737554D01*
X77090505Y-50737558D01*
X77218287Y-50830396D01*
X77237006Y-50843996D01*
X77342484Y-50897740D01*
X77398360Y-50926211D01*
X77398363Y-50926212D01*
X77484476Y-50954191D01*
X77570591Y-50982171D01*
X77653429Y-50995291D01*
X77749449Y-51010500D01*
X77749454Y-51010500D01*
X77930551Y-51010500D01*
X78017259Y-50996765D01*
X78109409Y-50982171D01*
X78281639Y-50926211D01*
X78442994Y-50843996D01*
X78589501Y-50737553D01*
X78717553Y-50609501D01*
X78823996Y-50462994D01*
X78906211Y-50301639D01*
X78962171Y-50129409D01*
X78976422Y-50039425D01*
X78987527Y-49969321D01*
X79017456Y-49906186D01*
X79076768Y-49869255D01*
X79146630Y-49870253D01*
X79204863Y-49908863D01*
X79232473Y-49969321D01*
X79257829Y-50129410D01*
X79313787Y-50301636D01*
X79313788Y-50301639D01*
X79396006Y-50462997D01*
X79502441Y-50609494D01*
X79502445Y-50609499D01*
X79630500Y-50737554D01*
X79630505Y-50737558D01*
X79758287Y-50830396D01*
X79777006Y-50843996D01*
X79882484Y-50897740D01*
X79938360Y-50926211D01*
X79938363Y-50926212D01*
X80024476Y-50954191D01*
X80110591Y-50982171D01*
X80193429Y-50995291D01*
X80289449Y-51010500D01*
X80289454Y-51010500D01*
X80470551Y-51010500D01*
X80557259Y-50996765D01*
X80649409Y-50982171D01*
X80821639Y-50926211D01*
X80982994Y-50843996D01*
X81129501Y-50737553D01*
X81257553Y-50609501D01*
X81363996Y-50462994D01*
X81446211Y-50301639D01*
X81502171Y-50129409D01*
X81516422Y-50039425D01*
X81527527Y-49969321D01*
X81557456Y-49906186D01*
X81616768Y-49869255D01*
X81686630Y-49870253D01*
X81744863Y-49908863D01*
X81772473Y-49969321D01*
X81797829Y-50129410D01*
X81853787Y-50301636D01*
X81853788Y-50301639D01*
X81936006Y-50462997D01*
X82042441Y-50609494D01*
X82042445Y-50609499D01*
X82170500Y-50737554D01*
X82170505Y-50737558D01*
X82298287Y-50830396D01*
X82317006Y-50843996D01*
X82422484Y-50897740D01*
X82478360Y-50926211D01*
X82478363Y-50926212D01*
X82564476Y-50954191D01*
X82650591Y-50982171D01*
X82733429Y-50995291D01*
X82829449Y-51010500D01*
X82829454Y-51010500D01*
X83010551Y-51010500D01*
X83097259Y-50996765D01*
X83189409Y-50982171D01*
X83361639Y-50926211D01*
X83522994Y-50843996D01*
X83669501Y-50737553D01*
X83797553Y-50609501D01*
X83903996Y-50462994D01*
X83986211Y-50301639D01*
X84042171Y-50129409D01*
X84056422Y-50039425D01*
X84067527Y-49969321D01*
X84097456Y-49906186D01*
X84156768Y-49869255D01*
X84226630Y-49870253D01*
X84284863Y-49908863D01*
X84312473Y-49969321D01*
X84337829Y-50129410D01*
X84393787Y-50301636D01*
X84393788Y-50301639D01*
X84476006Y-50462997D01*
X84582441Y-50609494D01*
X84582445Y-50609499D01*
X84710500Y-50737554D01*
X84710505Y-50737558D01*
X84838287Y-50830396D01*
X84857006Y-50843996D01*
X84962484Y-50897740D01*
X85018360Y-50926211D01*
X85018363Y-50926212D01*
X85104476Y-50954191D01*
X85190591Y-50982171D01*
X85273429Y-50995291D01*
X85369449Y-51010500D01*
X85369454Y-51010500D01*
X85550551Y-51010500D01*
X85637259Y-50996765D01*
X85729409Y-50982171D01*
X85901639Y-50926211D01*
X86062994Y-50843996D01*
X86209501Y-50737553D01*
X86337553Y-50609501D01*
X86443996Y-50462994D01*
X86526211Y-50301639D01*
X86582171Y-50129409D01*
X86596422Y-50039425D01*
X86607527Y-49969321D01*
X86637456Y-49906186D01*
X86696768Y-49869255D01*
X86766630Y-49870253D01*
X86824863Y-49908863D01*
X86852473Y-49969321D01*
X86877829Y-50129410D01*
X86933787Y-50301636D01*
X86933788Y-50301639D01*
X87016006Y-50462997D01*
X87122441Y-50609494D01*
X87122445Y-50609499D01*
X87250500Y-50737554D01*
X87250505Y-50737558D01*
X87378287Y-50830396D01*
X87397006Y-50843996D01*
X87502484Y-50897740D01*
X87558360Y-50926211D01*
X87558363Y-50926212D01*
X87644476Y-50954191D01*
X87730591Y-50982171D01*
X87813429Y-50995291D01*
X87909449Y-51010500D01*
X87909454Y-51010500D01*
X88090551Y-51010500D01*
X88177259Y-50996765D01*
X88269409Y-50982171D01*
X88441639Y-50926211D01*
X88602994Y-50843996D01*
X88749501Y-50737553D01*
X88877553Y-50609501D01*
X88877558Y-50609494D01*
X88880725Y-50605788D01*
X88882206Y-50607053D01*
X88930987Y-50569421D01*
X89000599Y-50563426D01*
X89062401Y-50596019D01*
X89096771Y-50656850D01*
X89100000Y-50684962D01*
X89100000Y-58963847D01*
X89091355Y-58993284D01*
X89084832Y-59023275D01*
X89081076Y-59028291D01*
X89080315Y-59030886D01*
X89063685Y-59051523D01*
X88988237Y-59126972D01*
X88988234Y-59126975D01*
X88974863Y-59138560D01*
X88817790Y-59256143D01*
X88802907Y-59265708D01*
X88630698Y-59359742D01*
X88614604Y-59367092D01*
X88430764Y-59435660D01*
X88413789Y-59440644D01*
X88222067Y-59482351D01*
X88204556Y-59484869D01*
X88021731Y-59497945D01*
X88004417Y-59499184D01*
X87995572Y-59499500D01*
X2004428Y-59499500D01*
X1995582Y-59499184D01*
X1973622Y-59497613D01*
X1795442Y-59484869D01*
X1777931Y-59482351D01*
X1586212Y-59440646D01*
X1569236Y-59435662D01*
X1385390Y-59367090D01*
X1369298Y-59359740D01*
X1197095Y-59265711D01*
X1182210Y-59256146D01*
X1025132Y-59138558D01*
X1011762Y-59126972D01*
X873027Y-58988237D01*
X861441Y-58974867D01*
X743849Y-58817784D01*
X734288Y-58802904D01*
X640259Y-58630701D01*
X632909Y-58614609D01*
X564334Y-58430755D01*
X559355Y-58413797D01*
X517647Y-58222063D01*
X515130Y-58204556D01*
X500816Y-58004418D01*
X500500Y-57995572D01*
X500500Y-56378711D01*
X1649500Y-56378711D01*
X1649500Y-56621288D01*
X1681161Y-56861785D01*
X1743947Y-57096104D01*
X1836773Y-57320205D01*
X1836776Y-57320212D01*
X1958064Y-57530289D01*
X1958066Y-57530292D01*
X1958067Y-57530293D01*
X2105733Y-57722736D01*
X2105739Y-57722743D01*
X2277256Y-57894260D01*
X2277263Y-57894266D01*
X2390321Y-57981018D01*
X2469711Y-58041936D01*
X2679788Y-58163224D01*
X2903900Y-58256054D01*
X3138211Y-58318838D01*
X3318586Y-58342584D01*
X3378711Y-58350500D01*
X3378712Y-58350500D01*
X3621289Y-58350500D01*
X3669388Y-58344167D01*
X3861789Y-58318838D01*
X4096100Y-58256054D01*
X4320212Y-58163224D01*
X4530289Y-58041936D01*
X4722738Y-57894265D01*
X4894265Y-57722738D01*
X5041936Y-57530289D01*
X5163224Y-57320212D01*
X5256054Y-57096100D01*
X5318838Y-56861789D01*
X5350500Y-56621288D01*
X5350500Y-56378712D01*
X5350500Y-56378711D01*
X84649500Y-56378711D01*
X84649500Y-56621288D01*
X84681161Y-56861785D01*
X84743947Y-57096104D01*
X84836773Y-57320205D01*
X84836776Y-57320212D01*
X84958064Y-57530289D01*
X84958066Y-57530292D01*
X84958067Y-57530293D01*
X85105733Y-57722736D01*
X85105739Y-57722743D01*
X85277256Y-57894260D01*
X85277263Y-57894266D01*
X85390321Y-57981018D01*
X85469711Y-58041936D01*
X85679788Y-58163224D01*
X85903900Y-58256054D01*
X86138211Y-58318838D01*
X86318586Y-58342584D01*
X86378711Y-58350500D01*
X86378712Y-58350500D01*
X86621289Y-58350500D01*
X86669388Y-58344167D01*
X86861789Y-58318838D01*
X87096100Y-58256054D01*
X87320212Y-58163224D01*
X87530289Y-58041936D01*
X87722738Y-57894265D01*
X87894265Y-57722738D01*
X88041936Y-57530289D01*
X88163224Y-57320212D01*
X88256054Y-57096100D01*
X88318838Y-56861789D01*
X88350500Y-56621288D01*
X88350500Y-56378712D01*
X88318838Y-56138211D01*
X88256054Y-55903900D01*
X88163224Y-55679788D01*
X88041936Y-55469711D01*
X87894265Y-55277262D01*
X87894260Y-55277256D01*
X87722743Y-55105739D01*
X87722736Y-55105733D01*
X87530293Y-54958067D01*
X87530292Y-54958066D01*
X87530289Y-54958064D01*
X87320212Y-54836776D01*
X87320205Y-54836773D01*
X87096104Y-54743947D01*
X86861785Y-54681161D01*
X86621289Y-54649500D01*
X86621288Y-54649500D01*
X86378712Y-54649500D01*
X86378711Y-54649500D01*
X86138214Y-54681161D01*
X85903895Y-54743947D01*
X85679794Y-54836773D01*
X85679785Y-54836777D01*
X85469706Y-54958067D01*
X85277263Y-55105733D01*
X85277256Y-55105739D01*
X85105739Y-55277256D01*
X85105733Y-55277263D01*
X84958067Y-55469706D01*
X84836777Y-55679785D01*
X84836773Y-55679794D01*
X84743947Y-55903895D01*
X84681161Y-56138214D01*
X84649500Y-56378711D01*
X5350500Y-56378711D01*
X5318838Y-56138211D01*
X5256054Y-55903900D01*
X5163224Y-55679788D01*
X5041936Y-55469711D01*
X4894265Y-55277262D01*
X4894260Y-55277256D01*
X4722743Y-55105739D01*
X4722736Y-55105733D01*
X4530293Y-54958067D01*
X4530292Y-54958066D01*
X4530289Y-54958064D01*
X4320212Y-54836776D01*
X4320205Y-54836773D01*
X4096104Y-54743947D01*
X3861785Y-54681161D01*
X3621289Y-54649500D01*
X3621288Y-54649500D01*
X3378712Y-54649500D01*
X3378711Y-54649500D01*
X3138214Y-54681161D01*
X2903895Y-54743947D01*
X2679794Y-54836773D01*
X2679785Y-54836777D01*
X2469706Y-54958067D01*
X2277263Y-55105733D01*
X2277256Y-55105739D01*
X2105739Y-55277256D01*
X2105733Y-55277263D01*
X1958067Y-55469706D01*
X1836777Y-55679785D01*
X1836773Y-55679794D01*
X1743947Y-55903895D01*
X1681161Y-56138214D01*
X1649500Y-56378711D01*
X500500Y-56378711D01*
X500500Y-23448396D01*
X17303099Y-23448396D01*
X17330018Y-23583722D01*
X17330021Y-23583732D01*
X17382822Y-23711207D01*
X17459487Y-23825945D01*
X17557054Y-23923512D01*
X17671792Y-24000177D01*
X17799267Y-24052978D01*
X17799272Y-24052980D01*
X17799276Y-24052980D01*
X17799277Y-24052981D01*
X17934603Y-24079900D01*
X17934606Y-24079900D01*
X18072596Y-24079900D01*
X18163640Y-24061789D01*
X18207928Y-24052980D01*
X18271669Y-24026577D01*
X18335407Y-24000177D01*
X18335408Y-24000176D01*
X18335411Y-24000175D01*
X18450143Y-23923514D01*
X19492837Y-22880818D01*
X19554160Y-22847334D01*
X19580518Y-22844500D01*
X42158481Y-22844500D01*
X42225520Y-22864185D01*
X42246162Y-22880819D01*
X44248953Y-24883611D01*
X44248954Y-24883612D01*
X44363692Y-24960277D01*
X44491167Y-25013078D01*
X44491172Y-25013080D01*
X44491176Y-25013080D01*
X44491177Y-25013081D01*
X44626503Y-25040000D01*
X44626506Y-25040000D01*
X49524395Y-25040000D01*
X49615441Y-25021889D01*
X49659728Y-25013080D01*
X49787211Y-24960275D01*
X49901942Y-24883614D01*
X49999514Y-24786042D01*
X50076175Y-24671311D01*
X50128980Y-24543828D01*
X50137789Y-24499541D01*
X50155900Y-24408495D01*
X50155900Y-24270504D01*
X50128981Y-24135177D01*
X50128980Y-24135176D01*
X50128980Y-24135172D01*
X50106086Y-24079900D01*
X50076178Y-24007695D01*
X50076171Y-24007682D01*
X49999514Y-23892958D01*
X49999511Y-23892954D01*
X49901945Y-23795388D01*
X49901941Y-23795385D01*
X49787217Y-23718728D01*
X49787204Y-23718721D01*
X49659732Y-23665921D01*
X49659722Y-23665918D01*
X49524395Y-23639000D01*
X49524393Y-23639000D01*
X45037019Y-23639000D01*
X44969980Y-23619315D01*
X44949338Y-23602681D01*
X44391706Y-23045049D01*
X44358221Y-22983726D01*
X44363205Y-22914034D01*
X44405077Y-22858101D01*
X44417381Y-22849984D01*
X44432216Y-22841420D01*
X44544020Y-22729616D01*
X44623077Y-22592684D01*
X44664000Y-22439957D01*
X44664000Y-22281843D01*
X44663571Y-22280243D01*
X48960400Y-22280243D01*
X48960400Y-22438357D01*
X48960829Y-22439956D01*
X49001323Y-22591083D01*
X49001326Y-22591090D01*
X49080375Y-22728009D01*
X49080379Y-22728014D01*
X49080380Y-22728016D01*
X49192184Y-22839820D01*
X49192186Y-22839821D01*
X49192190Y-22839824D01*
X49329109Y-22918873D01*
X49329116Y-22918877D01*
X49481843Y-22959800D01*
X49481845Y-22959800D01*
X49639955Y-22959800D01*
X49639957Y-22959800D01*
X49792684Y-22918877D01*
X49929616Y-22839820D01*
X50041420Y-22728016D01*
X50120477Y-22591084D01*
X50161400Y-22438357D01*
X50161400Y-22280243D01*
X50120477Y-22127516D01*
X50079760Y-22056991D01*
X50041424Y-21990590D01*
X50041418Y-21990582D01*
X50022719Y-21971883D01*
X49989234Y-21910560D01*
X49986400Y-21884202D01*
X49986400Y-17921810D01*
X50006085Y-17854771D01*
X50022719Y-17834129D01*
X50403629Y-17453219D01*
X50464952Y-17419734D01*
X50491310Y-17416900D01*
X50517755Y-17416900D01*
X50517757Y-17416900D01*
X50670484Y-17375977D01*
X50807416Y-17296920D01*
X50919220Y-17185116D01*
X50998277Y-17048184D01*
X51039200Y-16895457D01*
X51039200Y-16737343D01*
X50998277Y-16584616D01*
X50946718Y-16495312D01*
X50919224Y-16447690D01*
X50919218Y-16447682D01*
X50900519Y-16428983D01*
X50867034Y-16367660D01*
X50864200Y-16341302D01*
X50864200Y-8166310D01*
X50883885Y-8099271D01*
X50900519Y-8078629D01*
X51748129Y-7231019D01*
X51809452Y-7197534D01*
X51835810Y-7194700D01*
X51862255Y-7194700D01*
X51862257Y-7194700D01*
X52014984Y-7153777D01*
X52151916Y-7074720D01*
X52263720Y-6962916D01*
X52342777Y-6825984D01*
X52383700Y-6673257D01*
X52383700Y-6515143D01*
X52342777Y-6362416D01*
X52306820Y-6300136D01*
X52263724Y-6225490D01*
X52263718Y-6225482D01*
X52151917Y-6113681D01*
X52151909Y-6113675D01*
X52014990Y-6034626D01*
X52014986Y-6034624D01*
X52014984Y-6034623D01*
X51862257Y-5993700D01*
X51704143Y-5993700D01*
X51551416Y-6034623D01*
X51551409Y-6034626D01*
X51414490Y-6113675D01*
X51414482Y-6113681D01*
X51302681Y-6225482D01*
X51302675Y-6225490D01*
X51223626Y-6362409D01*
X51223623Y-6362416D01*
X51182700Y-6515143D01*
X51182700Y-6541590D01*
X51163015Y-6608629D01*
X51146381Y-6629271D01*
X50098217Y-7677434D01*
X50098213Y-7677440D01*
X50042198Y-7774460D01*
X50042197Y-7774463D01*
X50013200Y-7882682D01*
X50013200Y-16341302D01*
X49993515Y-16408341D01*
X49976881Y-16428983D01*
X49958181Y-16447682D01*
X49958175Y-16447690D01*
X49879126Y-16584609D01*
X49879123Y-16584616D01*
X49838200Y-16737343D01*
X49838200Y-16763790D01*
X49818515Y-16830829D01*
X49801881Y-16851471D01*
X49220417Y-17432934D01*
X49220413Y-17432940D01*
X49164398Y-17529960D01*
X49164397Y-17529963D01*
X49135400Y-17638182D01*
X49135400Y-21884202D01*
X49115715Y-21951241D01*
X49099081Y-21971883D01*
X49080381Y-21990582D01*
X49080375Y-21990590D01*
X49001326Y-22127509D01*
X49001323Y-22127516D01*
X48960400Y-22280243D01*
X44663571Y-22280243D01*
X44623077Y-22129116D01*
X44588052Y-22068450D01*
X44544024Y-21992190D01*
X44544018Y-21992182D01*
X44525319Y-21973483D01*
X44491834Y-21912160D01*
X44489000Y-21885802D01*
X44489000Y-17923910D01*
X44508685Y-17856871D01*
X44525319Y-17836229D01*
X44902429Y-17459119D01*
X44963752Y-17425634D01*
X44990110Y-17422800D01*
X45016555Y-17422800D01*
X45016557Y-17422800D01*
X45169284Y-17381877D01*
X45306216Y-17302820D01*
X45418020Y-17191016D01*
X45497077Y-17054084D01*
X45538000Y-16901357D01*
X45538000Y-16743243D01*
X45497077Y-16590516D01*
X45442112Y-16495312D01*
X45425500Y-16433313D01*
X45425500Y-7275421D01*
X45445185Y-7208382D01*
X45493203Y-7164937D01*
X45602994Y-7108996D01*
X45749501Y-7002553D01*
X45877553Y-6874501D01*
X45983996Y-6727994D01*
X46066211Y-6566639D01*
X46122171Y-6394409D01*
X46127527Y-6360594D01*
X46157456Y-6297459D01*
X46216768Y-6260528D01*
X46286630Y-6261526D01*
X46344863Y-6300136D01*
X46372473Y-6360594D01*
X46377829Y-6394410D01*
X46433787Y-6566636D01*
X46433788Y-6566639D01*
X46516006Y-6727997D01*
X46622441Y-6874494D01*
X46622445Y-6874499D01*
X46750500Y-7002554D01*
X46750505Y-7002558D01*
X46849826Y-7074718D01*
X46897006Y-7108996D01*
X47002484Y-7162740D01*
X47058360Y-7191211D01*
X47058363Y-7191212D01*
X47125145Y-7212910D01*
X47230591Y-7247171D01*
X47313429Y-7260291D01*
X47409449Y-7275500D01*
X47409454Y-7275500D01*
X47590551Y-7275500D01*
X47677259Y-7261765D01*
X47769409Y-7247171D01*
X47941639Y-7191211D01*
X48102994Y-7108996D01*
X48249501Y-7002553D01*
X48377553Y-6874501D01*
X48483996Y-6727994D01*
X48566211Y-6566639D01*
X48622171Y-6394409D01*
X48646540Y-6240551D01*
X48650500Y-6215551D01*
X48650500Y-5784448D01*
X48630712Y-5659517D01*
X48622171Y-5605591D01*
X48594191Y-5519476D01*
X48566212Y-5433363D01*
X48566211Y-5433360D01*
X48490354Y-5284485D01*
X48483996Y-5272006D01*
X48436693Y-5206898D01*
X48377558Y-5125505D01*
X48377554Y-5125500D01*
X48249499Y-4997445D01*
X48249494Y-4997441D01*
X48102997Y-4891006D01*
X48102996Y-4891005D01*
X48102994Y-4891004D01*
X48036409Y-4857077D01*
X47941639Y-4808788D01*
X47941636Y-4808787D01*
X47769410Y-4752829D01*
X47590551Y-4724500D01*
X47590546Y-4724500D01*
X47409454Y-4724500D01*
X47409449Y-4724500D01*
X47230589Y-4752829D01*
X47058363Y-4808787D01*
X47058360Y-4808788D01*
X46897002Y-4891006D01*
X46750505Y-4997441D01*
X46750500Y-4997445D01*
X46622445Y-5125500D01*
X46622441Y-5125505D01*
X46516006Y-5272002D01*
X46433788Y-5433360D01*
X46433787Y-5433363D01*
X46377829Y-5605589D01*
X46372473Y-5639406D01*
X46342543Y-5702540D01*
X46283232Y-5739471D01*
X46213369Y-5738473D01*
X46155137Y-5699863D01*
X46127527Y-5639406D01*
X46124536Y-5620522D01*
X46122171Y-5605591D01*
X46094191Y-5519476D01*
X46066212Y-5433363D01*
X46066211Y-5433360D01*
X45990354Y-5284485D01*
X45983996Y-5272006D01*
X45936693Y-5206898D01*
X45877558Y-5125505D01*
X45877554Y-5125500D01*
X45749499Y-4997445D01*
X45749494Y-4997441D01*
X45602997Y-4891006D01*
X45602996Y-4891005D01*
X45602994Y-4891004D01*
X45536409Y-4857077D01*
X45441639Y-4808788D01*
X45441636Y-4808787D01*
X45269410Y-4752829D01*
X45090551Y-4724500D01*
X45090546Y-4724500D01*
X44909454Y-4724500D01*
X44909449Y-4724500D01*
X44730589Y-4752829D01*
X44558363Y-4808787D01*
X44558360Y-4808788D01*
X44397002Y-4891006D01*
X44250505Y-4997441D01*
X44250500Y-4997445D01*
X44122445Y-5125500D01*
X44122441Y-5125505D01*
X44016006Y-5272002D01*
X43933788Y-5433360D01*
X43933787Y-5433363D01*
X43877829Y-5605589D01*
X43872473Y-5639406D01*
X43842543Y-5702540D01*
X43783232Y-5739471D01*
X43713369Y-5738473D01*
X43655137Y-5699863D01*
X43627527Y-5639406D01*
X43624536Y-5620522D01*
X43622171Y-5605591D01*
X43594191Y-5519476D01*
X43566212Y-5433363D01*
X43566211Y-5433360D01*
X43490354Y-5284485D01*
X43483996Y-5272006D01*
X43436693Y-5206898D01*
X43377558Y-5125505D01*
X43377554Y-5125500D01*
X43249499Y-4997445D01*
X43249494Y-4997441D01*
X43102997Y-4891006D01*
X43102996Y-4891005D01*
X43102994Y-4891004D01*
X43036409Y-4857077D01*
X42941639Y-4808788D01*
X42941636Y-4808787D01*
X42769410Y-4752829D01*
X42590551Y-4724500D01*
X42590546Y-4724500D01*
X42409454Y-4724500D01*
X42409449Y-4724500D01*
X42230589Y-4752829D01*
X42058363Y-4808787D01*
X42058360Y-4808788D01*
X41897002Y-4891006D01*
X41750505Y-4997441D01*
X41750500Y-4997445D01*
X41622445Y-5125500D01*
X41622441Y-5125505D01*
X41516006Y-5272002D01*
X41433788Y-5433360D01*
X41433787Y-5433363D01*
X41377829Y-5605589D01*
X41349500Y-5784448D01*
X41349500Y-6215551D01*
X41377829Y-6394410D01*
X41433787Y-6566636D01*
X41433788Y-6566639D01*
X41516006Y-6727997D01*
X41622441Y-6874494D01*
X41622445Y-6874499D01*
X41750500Y-7002554D01*
X41754212Y-7005725D01*
X41753056Y-7007077D01*
X41791049Y-7056343D01*
X41799500Y-7101336D01*
X41799500Y-21319500D01*
X41779815Y-21386539D01*
X41727011Y-21432294D01*
X41675500Y-21443500D01*
X19170003Y-21443500D01*
X19061590Y-21465065D01*
X19061589Y-21465065D01*
X19048131Y-21467742D01*
X19034673Y-21470419D01*
X19034671Y-21470420D01*
X18981866Y-21492292D01*
X18981864Y-21492293D01*
X18981863Y-21492292D01*
X18907191Y-21523223D01*
X18807438Y-21589877D01*
X18807437Y-21589878D01*
X18792454Y-21599888D01*
X18792453Y-21599889D01*
X17459488Y-22932853D01*
X17459487Y-22932854D01*
X17382822Y-23047592D01*
X17330021Y-23175067D01*
X17330018Y-23175077D01*
X17303100Y-23310403D01*
X17303100Y-23310406D01*
X17303100Y-23448394D01*
X17303100Y-23448396D01*
X17303099Y-23448396D01*
X500500Y-23448396D01*
X500500Y-19906898D01*
X12399500Y-19906898D01*
X12399500Y-21093102D01*
X12405126Y-21139954D01*
X12410122Y-21181561D01*
X12465639Y-21322343D01*
X12557077Y-21442922D01*
X12677656Y-21534360D01*
X12677657Y-21534360D01*
X12677658Y-21534361D01*
X12818436Y-21589877D01*
X12906898Y-21600500D01*
X12906903Y-21600500D01*
X14093097Y-21600500D01*
X14093102Y-21600500D01*
X14181564Y-21589877D01*
X14322342Y-21534361D01*
X14442922Y-21442922D01*
X14534361Y-21322342D01*
X14589877Y-21181564D01*
X14600500Y-21093102D01*
X14600500Y-20441518D01*
X14620185Y-20374479D01*
X14636819Y-20353837D01*
X22044110Y-12946546D01*
X22044113Y-12946543D01*
X22114560Y-12841113D01*
X22120775Y-12831811D01*
X22173580Y-12704328D01*
X22182389Y-12660041D01*
X22200500Y-12568995D01*
X22200500Y-7126336D01*
X22220185Y-7059297D01*
X22246444Y-7031493D01*
X22245788Y-7030725D01*
X22249495Y-7027557D01*
X22249501Y-7027553D01*
X22377553Y-6899501D01*
X22483996Y-6752994D01*
X22566211Y-6591639D01*
X22622171Y-6419409D01*
X22641486Y-6297459D01*
X22650500Y-6240551D01*
X22650500Y-5759448D01*
X22626608Y-5608608D01*
X22622171Y-5580591D01*
X22592352Y-5488817D01*
X22566212Y-5408363D01*
X22566211Y-5408361D01*
X22520596Y-5318838D01*
X22483996Y-5247006D01*
X22483995Y-5247004D01*
X22454856Y-5206898D01*
X26849500Y-5206898D01*
X26849500Y-6793102D01*
X26855126Y-6839954D01*
X26860122Y-6881561D01*
X26860122Y-6881563D01*
X26860123Y-6881564D01*
X26877722Y-6926192D01*
X26915639Y-7022343D01*
X27007077Y-7142922D01*
X27127656Y-7234360D01*
X27127657Y-7234360D01*
X27127658Y-7234361D01*
X27268436Y-7289877D01*
X27356898Y-7300500D01*
X27356903Y-7300500D01*
X28643097Y-7300500D01*
X28643102Y-7300500D01*
X28731564Y-7289877D01*
X28872342Y-7234361D01*
X28992922Y-7142922D01*
X29084361Y-7022342D01*
X29139877Y-6881564D01*
X29150500Y-6793102D01*
X29150500Y-5206898D01*
X29139877Y-5118436D01*
X29084361Y-4977658D01*
X29084360Y-4977657D01*
X29084360Y-4977656D01*
X28992922Y-4857077D01*
X28872343Y-4765639D01*
X28731561Y-4710122D01*
X28685926Y-4704642D01*
X28643102Y-4699500D01*
X27356898Y-4699500D01*
X27317853Y-4704188D01*
X27268438Y-4710122D01*
X27127656Y-4765639D01*
X27007077Y-4857077D01*
X26915639Y-4977656D01*
X26860122Y-5118438D01*
X26854745Y-5163222D01*
X26849500Y-5206898D01*
X22454856Y-5206898D01*
X22377558Y-5100505D01*
X22377554Y-5100500D01*
X22249499Y-4972445D01*
X22249494Y-4972441D01*
X22102997Y-4866006D01*
X22102996Y-4866005D01*
X22102994Y-4866004D01*
X22051300Y-4839664D01*
X21941639Y-4783788D01*
X21941636Y-4783787D01*
X21769410Y-4727829D01*
X21590551Y-4699500D01*
X21590546Y-4699500D01*
X21409454Y-4699500D01*
X21409449Y-4699500D01*
X21230589Y-4727829D01*
X21058363Y-4783787D01*
X21058360Y-4783788D01*
X20897002Y-4866006D01*
X20750505Y-4972441D01*
X20750500Y-4972445D01*
X20622445Y-5100500D01*
X20622441Y-5100505D01*
X20516006Y-5247002D01*
X20433788Y-5408360D01*
X20433787Y-5408363D01*
X20392431Y-5535648D01*
X20352994Y-5593323D01*
X20288635Y-5620522D01*
X20219789Y-5608608D01*
X20168313Y-5561364D01*
X20150500Y-5497330D01*
X20150500Y-5206903D01*
X20150500Y-5206898D01*
X20139877Y-5118436D01*
X20084361Y-4977658D01*
X20084360Y-4977657D01*
X20084360Y-4977656D01*
X19992922Y-4857077D01*
X19872343Y-4765639D01*
X19731561Y-4710122D01*
X19685926Y-4704642D01*
X19643102Y-4699500D01*
X18356898Y-4699500D01*
X18317853Y-4704188D01*
X18268438Y-4710122D01*
X18127656Y-4765639D01*
X18007077Y-4857077D01*
X17915639Y-4977656D01*
X17860122Y-5118438D01*
X17854745Y-5163222D01*
X17849500Y-5206898D01*
X17849500Y-6793102D01*
X17855126Y-6839954D01*
X17860122Y-6881561D01*
X17860122Y-6881563D01*
X17860123Y-6881564D01*
X17877722Y-6926192D01*
X17915639Y-7022343D01*
X18007077Y-7142922D01*
X18127656Y-7234360D01*
X18127657Y-7234360D01*
X18127658Y-7234361D01*
X18268436Y-7289877D01*
X18356898Y-7300500D01*
X18356903Y-7300500D01*
X19643097Y-7300500D01*
X19643102Y-7300500D01*
X19731564Y-7289877D01*
X19872342Y-7234361D01*
X19992922Y-7142922D01*
X20084361Y-7022342D01*
X20139877Y-6881564D01*
X20150500Y-6793102D01*
X20150500Y-6502669D01*
X20170185Y-6435630D01*
X20222989Y-6389875D01*
X20292147Y-6379931D01*
X20355703Y-6408956D01*
X20392431Y-6464351D01*
X20433787Y-6591636D01*
X20433788Y-6591639D01*
X20489664Y-6701300D01*
X20503267Y-6727997D01*
X20516006Y-6752997D01*
X20622441Y-6899494D01*
X20622445Y-6899499D01*
X20750500Y-7027554D01*
X20754212Y-7030725D01*
X20753056Y-7032077D01*
X20791049Y-7081343D01*
X20799500Y-7126336D01*
X20799500Y-12158481D01*
X20779815Y-12225520D01*
X20763181Y-12246162D01*
X13646162Y-19363181D01*
X13584839Y-19396666D01*
X13558481Y-19399500D01*
X12906898Y-19399500D01*
X12867853Y-19404188D01*
X12818438Y-19410122D01*
X12677656Y-19465639D01*
X12557077Y-19557077D01*
X12465639Y-19677656D01*
X12410122Y-19818438D01*
X12404188Y-19867853D01*
X12399500Y-19906898D01*
X500500Y-19906898D01*
X500500Y-3378711D01*
X1649500Y-3378711D01*
X1649500Y-3621288D01*
X1681161Y-3861785D01*
X1743947Y-4096104D01*
X1836773Y-4320205D01*
X1836776Y-4320212D01*
X1958064Y-4530289D01*
X1958066Y-4530292D01*
X1958067Y-4530293D01*
X2105733Y-4722736D01*
X2105739Y-4722743D01*
X2277256Y-4894260D01*
X2277262Y-4894265D01*
X2469711Y-5041936D01*
X2679788Y-5163224D01*
X2903900Y-5256054D01*
X3138211Y-5318838D01*
X3318586Y-5342584D01*
X3378711Y-5350500D01*
X3378712Y-5350500D01*
X3621289Y-5350500D01*
X3669388Y-5344167D01*
X3861789Y-5318838D01*
X4096100Y-5256054D01*
X4214773Y-5206898D01*
X8849500Y-5206898D01*
X8849500Y-6793102D01*
X8855126Y-6839954D01*
X8860122Y-6881561D01*
X8860122Y-6881563D01*
X8860123Y-6881564D01*
X8877722Y-6926192D01*
X8915639Y-7022343D01*
X9007077Y-7142922D01*
X9127656Y-7234360D01*
X9127657Y-7234360D01*
X9127658Y-7234361D01*
X9220991Y-7271167D01*
X9276134Y-7314072D01*
X9299327Y-7379980D01*
X9299500Y-7386521D01*
X9299500Y-8783006D01*
X9299500Y-8920994D01*
X9299500Y-8920996D01*
X9299499Y-8920996D01*
X9326418Y-9056322D01*
X9326421Y-9056332D01*
X9379222Y-9183807D01*
X9455887Y-9298545D01*
X13265954Y-13108612D01*
X13380692Y-13185277D01*
X13508167Y-13238078D01*
X13508172Y-13238080D01*
X13508176Y-13238080D01*
X13508177Y-13238081D01*
X13643503Y-13265000D01*
X13643506Y-13265000D01*
X13781496Y-13265000D01*
X13872542Y-13246889D01*
X13916829Y-13238080D01*
X14044311Y-13185275D01*
X14159043Y-13108614D01*
X14256614Y-13011043D01*
X14333275Y-12896311D01*
X14386080Y-12768829D01*
X14413000Y-12633494D01*
X14413000Y-12495506D01*
X14413000Y-12495503D01*
X14386081Y-12360177D01*
X14386080Y-12360176D01*
X14386080Y-12360172D01*
X14338856Y-12246162D01*
X14333277Y-12232692D01*
X14256612Y-12117954D01*
X10736819Y-8598161D01*
X10703334Y-8536838D01*
X10700500Y-8510480D01*
X10700500Y-7386521D01*
X10720185Y-7319482D01*
X10772989Y-7273727D01*
X10778990Y-7271174D01*
X10872342Y-7234361D01*
X10992922Y-7142922D01*
X11084361Y-7022342D01*
X11139877Y-6881564D01*
X11150500Y-6793102D01*
X11150500Y-5206898D01*
X11139877Y-5118436D01*
X11084361Y-4977658D01*
X11084360Y-4977657D01*
X11084360Y-4977656D01*
X10992922Y-4857077D01*
X10872343Y-4765639D01*
X10731561Y-4710122D01*
X10685926Y-4704642D01*
X10643102Y-4699500D01*
X9356898Y-4699500D01*
X9317853Y-4704188D01*
X9268438Y-4710122D01*
X9127656Y-4765639D01*
X9007077Y-4857077D01*
X8915639Y-4977656D01*
X8860122Y-5118438D01*
X8854745Y-5163222D01*
X8849500Y-5206898D01*
X4214773Y-5206898D01*
X4320212Y-5163224D01*
X4530289Y-5041936D01*
X4722738Y-4894265D01*
X4894265Y-4722738D01*
X5041936Y-4530289D01*
X5163224Y-4320212D01*
X5256054Y-4096100D01*
X5318838Y-3861789D01*
X5350500Y-3621288D01*
X5350500Y-3378712D01*
X5350500Y-3378711D01*
X84649500Y-3378711D01*
X84649500Y-3621288D01*
X84681161Y-3861785D01*
X84743947Y-4096104D01*
X84836773Y-4320205D01*
X84836776Y-4320212D01*
X84958064Y-4530289D01*
X84958066Y-4530292D01*
X84958067Y-4530293D01*
X85105733Y-4722736D01*
X85105739Y-4722743D01*
X85277256Y-4894260D01*
X85277262Y-4894265D01*
X85469711Y-5041936D01*
X85679788Y-5163224D01*
X85903900Y-5256054D01*
X86138211Y-5318838D01*
X86318586Y-5342584D01*
X86378711Y-5350500D01*
X86378712Y-5350500D01*
X86621289Y-5350500D01*
X86669388Y-5344167D01*
X86861789Y-5318838D01*
X87096100Y-5256054D01*
X87320212Y-5163224D01*
X87530289Y-5041936D01*
X87722738Y-4894265D01*
X87894265Y-4722738D01*
X88041936Y-4530289D01*
X88163224Y-4320212D01*
X88256054Y-4096100D01*
X88318838Y-3861789D01*
X88350500Y-3621288D01*
X88350500Y-3378712D01*
X88318838Y-3138211D01*
X88256054Y-2903900D01*
X88163224Y-2679788D01*
X88041936Y-2469711D01*
X87894265Y-2277262D01*
X87894260Y-2277256D01*
X87722743Y-2105739D01*
X87722736Y-2105733D01*
X87530293Y-1958067D01*
X87530292Y-1958066D01*
X87530289Y-1958064D01*
X87320212Y-1836776D01*
X87320205Y-1836773D01*
X87096104Y-1743947D01*
X86861785Y-1681161D01*
X86621289Y-1649500D01*
X86621288Y-1649500D01*
X86378712Y-1649500D01*
X86378711Y-1649500D01*
X86138214Y-1681161D01*
X85903895Y-1743947D01*
X85679794Y-1836773D01*
X85679785Y-1836777D01*
X85469706Y-1958067D01*
X85277263Y-2105733D01*
X85277256Y-2105739D01*
X85105739Y-2277256D01*
X85105733Y-2277263D01*
X84958067Y-2469706D01*
X84836777Y-2679785D01*
X84836773Y-2679794D01*
X84743947Y-2903895D01*
X84681161Y-3138214D01*
X84649500Y-3378711D01*
X5350500Y-3378711D01*
X5318838Y-3138211D01*
X5256054Y-2903900D01*
X5163224Y-2679788D01*
X5041936Y-2469711D01*
X4894265Y-2277262D01*
X4894260Y-2277256D01*
X4722743Y-2105739D01*
X4722736Y-2105733D01*
X4530293Y-1958067D01*
X4530292Y-1958066D01*
X4530289Y-1958064D01*
X4320212Y-1836776D01*
X4320205Y-1836773D01*
X4096104Y-1743947D01*
X3861785Y-1681161D01*
X3621289Y-1649500D01*
X3621288Y-1649500D01*
X3378712Y-1649500D01*
X3378711Y-1649500D01*
X3138214Y-1681161D01*
X2903895Y-1743947D01*
X2679794Y-1836773D01*
X2679785Y-1836777D01*
X2469706Y-1958067D01*
X2277263Y-2105733D01*
X2277256Y-2105739D01*
X2105739Y-2277256D01*
X2105733Y-2277263D01*
X1958067Y-2469706D01*
X1836777Y-2679785D01*
X1836773Y-2679794D01*
X1743947Y-2903895D01*
X1681161Y-3138214D01*
X1649500Y-3378711D01*
X500500Y-3378711D01*
X500500Y-2004427D01*
X500816Y-1995581D01*
X515130Y-1795443D01*
X517646Y-1777938D01*
X559356Y-1586200D01*
X564335Y-1569242D01*
X632911Y-1385382D01*
X640251Y-1369310D01*
X734294Y-1197083D01*
X743850Y-1182214D01*
X861443Y-1025128D01*
X873017Y-1011771D01*
X1011771Y-873017D01*
X1025132Y-861441D01*
X1182214Y-743850D01*
X1197083Y-734294D01*
X1369310Y-640251D01*
X1385382Y-632911D01*
X1569242Y-564335D01*
X1586200Y-559356D01*
X1777938Y-517646D01*
X1795436Y-515130D01*
X1995582Y-500816D01*
X2004428Y-500500D01*
X2065892Y-500500D01*
X87934108Y-500500D01*
X87995572Y-500500D01*
X88004418Y-500816D01*
G37*
%TD.AperFunction*%
%TA.AperFunction,Conductor*%
G36*
X7413610Y-28124024D02*
G01*
X7464661Y-28154809D01*
X14567581Y-35257729D01*
X14601066Y-35319052D01*
X14603900Y-35345410D01*
X14603900Y-39054302D01*
X14584215Y-39121341D01*
X14567581Y-39141983D01*
X14548881Y-39160682D01*
X14548875Y-39160690D01*
X14469826Y-39297609D01*
X14469823Y-39297616D01*
X14428900Y-39450343D01*
X14428900Y-39608457D01*
X14465338Y-39744443D01*
X14469823Y-39761183D01*
X14469826Y-39761190D01*
X14548875Y-39898109D01*
X14548879Y-39898114D01*
X14548880Y-39898116D01*
X14660684Y-40009920D01*
X14660686Y-40009921D01*
X14660690Y-40009924D01*
X14797609Y-40088973D01*
X14797616Y-40088977D01*
X14950343Y-40129900D01*
X14950345Y-40129900D01*
X15108455Y-40129900D01*
X15108457Y-40129900D01*
X15261184Y-40088977D01*
X15398116Y-40009920D01*
X15398121Y-40009914D01*
X15404561Y-40004974D01*
X15405773Y-40006554D01*
X15457642Y-39978232D01*
X15527334Y-39983216D01*
X15583267Y-40025088D01*
X15607684Y-40090552D01*
X15608000Y-40099398D01*
X15608000Y-40613282D01*
X15608000Y-40725318D01*
X15636997Y-40833537D01*
X15693015Y-40930563D01*
X15693017Y-40930565D01*
X24018481Y-49256029D01*
X24033184Y-49282956D01*
X24049777Y-49308775D01*
X24050668Y-49314975D01*
X24051966Y-49317352D01*
X24054800Y-49343710D01*
X24054800Y-49370400D01*
X24035115Y-49437439D01*
X23982311Y-49483194D01*
X23930800Y-49494400D01*
X21363910Y-49494400D01*
X21296871Y-49474715D01*
X21276229Y-49458081D01*
X20467526Y-48649378D01*
X20434041Y-48588055D01*
X20439025Y-48518363D01*
X20480897Y-48462430D01*
X20493201Y-48454313D01*
X20548616Y-48422320D01*
X20660420Y-48310516D01*
X20739477Y-48173584D01*
X20780400Y-48020857D01*
X20780400Y-47862743D01*
X20739477Y-47710016D01*
X20700841Y-47643096D01*
X20660424Y-47573090D01*
X20660418Y-47573082D01*
X20641719Y-47554383D01*
X20608234Y-47493060D01*
X20605400Y-47466702D01*
X20605400Y-47123884D01*
X20605400Y-47123882D01*
X20576403Y-47015663D01*
X20520385Y-46918637D01*
X20441163Y-46839415D01*
X7311819Y-33710071D01*
X7278334Y-33648748D01*
X7275500Y-33622390D01*
X7275500Y-32356903D01*
X7275500Y-32356898D01*
X7264877Y-32268436D01*
X7209361Y-32127658D01*
X7209360Y-32127657D01*
X7209360Y-32127656D01*
X7117922Y-32007077D01*
X6997343Y-31915639D01*
X6856561Y-31860122D01*
X6810926Y-31854642D01*
X6768102Y-31849500D01*
X5231898Y-31849500D01*
X5207682Y-31852408D01*
X5138774Y-31840855D01*
X5087051Y-31793882D01*
X5068900Y-31729292D01*
X5068900Y-29973119D01*
X5088585Y-29906080D01*
X5105219Y-29885438D01*
X5803838Y-29186819D01*
X5865161Y-29153334D01*
X5891519Y-29150500D01*
X6215551Y-29150500D01*
X6302259Y-29136765D01*
X6394409Y-29122171D01*
X6566639Y-29066211D01*
X6727994Y-28983996D01*
X6874501Y-28877553D01*
X7002553Y-28749501D01*
X7108996Y-28602994D01*
X7191211Y-28441639D01*
X7247171Y-28269409D01*
X7254507Y-28223092D01*
X7284436Y-28159957D01*
X7343748Y-28123026D01*
X7413610Y-28124024D01*
G37*
%TD.AperFunction*%
%TA.AperFunction,Conductor*%
G36*
X57786630Y-6261526D02*
G01*
X57844863Y-6300136D01*
X57872473Y-6360594D01*
X57877829Y-6394410D01*
X57933787Y-6566636D01*
X57933788Y-6566639D01*
X58016006Y-6727997D01*
X58122441Y-6874494D01*
X58122445Y-6874499D01*
X58122447Y-6874501D01*
X58250499Y-7002553D01*
X58391014Y-7104642D01*
X58433679Y-7159971D01*
X58439658Y-7229584D01*
X58407053Y-7291380D01*
X58405809Y-7292641D01*
X56559937Y-9138515D01*
X56480717Y-9217734D01*
X56480713Y-9217740D01*
X56424698Y-9314760D01*
X56424697Y-9314763D01*
X56395700Y-9422982D01*
X56395700Y-10615902D01*
X56376015Y-10682941D01*
X56359381Y-10703583D01*
X56340681Y-10722282D01*
X56340675Y-10722290D01*
X56261626Y-10859209D01*
X56261623Y-10859216D01*
X56220700Y-11011943D01*
X56220700Y-11170057D01*
X56258685Y-11311817D01*
X56261623Y-11322783D01*
X56261626Y-11322790D01*
X56340675Y-11459709D01*
X56340679Y-11459714D01*
X56340680Y-11459716D01*
X56452484Y-11571520D01*
X56452486Y-11571521D01*
X56452490Y-11571524D01*
X56589409Y-11650573D01*
X56589416Y-11650577D01*
X56742143Y-11691500D01*
X56742145Y-11691500D01*
X56900255Y-11691500D01*
X56900257Y-11691500D01*
X57052984Y-11650577D01*
X57189916Y-11571520D01*
X57301720Y-11459716D01*
X57380777Y-11322784D01*
X57421700Y-11170057D01*
X57421700Y-11011943D01*
X57380777Y-10859216D01*
X57380773Y-10859209D01*
X57301724Y-10722290D01*
X57301718Y-10722282D01*
X57283019Y-10703583D01*
X57249534Y-10642260D01*
X57246700Y-10615902D01*
X57246700Y-9706610D01*
X57266385Y-9639571D01*
X57283019Y-9618929D01*
X58844869Y-8057079D01*
X58906192Y-8023594D01*
X58975884Y-8028578D01*
X59020231Y-8057079D01*
X67309137Y-16345985D01*
X67406163Y-16402003D01*
X67514382Y-16431000D01*
X67626418Y-16431000D01*
X69157890Y-16431000D01*
X69224929Y-16450685D01*
X69245571Y-16467319D01*
X78613419Y-25835167D01*
X78646904Y-25896490D01*
X78641920Y-25966182D01*
X78600048Y-26022115D01*
X78534584Y-26046532D01*
X78466311Y-26031680D01*
X78452854Y-26023167D01*
X78442996Y-26016005D01*
X78281639Y-25933788D01*
X78281636Y-25933787D01*
X78109410Y-25877829D01*
X77930551Y-25849500D01*
X77930546Y-25849500D01*
X77749454Y-25849500D01*
X77749449Y-25849500D01*
X77570589Y-25877829D01*
X77398363Y-25933787D01*
X77398360Y-25933788D01*
X77237002Y-26016006D01*
X77090505Y-26122441D01*
X77090500Y-26122445D01*
X76962445Y-26250500D01*
X76962441Y-26250505D01*
X76856006Y-26397002D01*
X76773788Y-26558360D01*
X76773787Y-26558363D01*
X76717829Y-26730589D01*
X76692473Y-26890678D01*
X76662544Y-26953813D01*
X76603232Y-26990744D01*
X76533369Y-26989746D01*
X76475137Y-26951136D01*
X76447527Y-26890678D01*
X76429651Y-26777817D01*
X76422171Y-26730591D01*
X76383662Y-26612069D01*
X76366212Y-26558363D01*
X76366211Y-26558360D01*
X76314582Y-26457034D01*
X76283996Y-26397006D01*
X76210679Y-26296093D01*
X76177558Y-26250505D01*
X76177554Y-26250500D01*
X76049499Y-26122445D01*
X76049494Y-26122441D01*
X75902997Y-26016006D01*
X75902996Y-26016005D01*
X75902994Y-26016004D01*
X75833740Y-25980717D01*
X75741639Y-25933788D01*
X75741636Y-25933787D01*
X75569410Y-25877829D01*
X75390551Y-25849500D01*
X75390546Y-25849500D01*
X75209454Y-25849500D01*
X75209449Y-25849500D01*
X75030589Y-25877829D01*
X74858363Y-25933787D01*
X74858360Y-25933788D01*
X74697002Y-26016006D01*
X74550505Y-26122441D01*
X74550500Y-26122445D01*
X74422445Y-26250500D01*
X74422441Y-26250505D01*
X74316006Y-26397002D01*
X74233788Y-26558360D01*
X74233787Y-26558363D01*
X74177829Y-26730589D01*
X74152473Y-26890678D01*
X74122544Y-26953813D01*
X74063232Y-26990744D01*
X73993369Y-26989746D01*
X73935137Y-26951136D01*
X73907527Y-26890678D01*
X73889651Y-26777817D01*
X73882171Y-26730591D01*
X73843662Y-26612069D01*
X73826212Y-26558363D01*
X73826211Y-26558360D01*
X73774582Y-26457034D01*
X73743996Y-26397006D01*
X73670679Y-26296093D01*
X73637558Y-26250505D01*
X73637554Y-26250500D01*
X73509499Y-26122445D01*
X73509494Y-26122441D01*
X73362997Y-26016006D01*
X73362996Y-26016005D01*
X73362994Y-26016004D01*
X73293740Y-25980717D01*
X73201639Y-25933788D01*
X73201636Y-25933787D01*
X73029410Y-25877829D01*
X72850551Y-25849500D01*
X72850546Y-25849500D01*
X72669454Y-25849500D01*
X72669449Y-25849500D01*
X72490589Y-25877829D01*
X72318363Y-25933787D01*
X72318360Y-25933788D01*
X72157002Y-26016006D01*
X72010505Y-26122441D01*
X72010500Y-26122445D01*
X71882445Y-26250500D01*
X71882441Y-26250505D01*
X71776006Y-26397002D01*
X71693788Y-26558360D01*
X71693787Y-26558363D01*
X71637829Y-26730589D01*
X71612473Y-26890678D01*
X71582544Y-26953813D01*
X71523232Y-26990744D01*
X71453369Y-26989746D01*
X71395137Y-26951136D01*
X71367527Y-26890678D01*
X71349651Y-26777817D01*
X71342171Y-26730591D01*
X71303662Y-26612069D01*
X71286212Y-26558363D01*
X71286211Y-26558360D01*
X71234582Y-26457034D01*
X71203996Y-26397006D01*
X71130679Y-26296093D01*
X71097558Y-26250505D01*
X71097554Y-26250500D01*
X70969499Y-26122445D01*
X70969494Y-26122441D01*
X70822997Y-26016006D01*
X70822996Y-26016005D01*
X70822994Y-26016004D01*
X70753740Y-25980717D01*
X70661639Y-25933788D01*
X70661636Y-25933787D01*
X70489410Y-25877829D01*
X70310551Y-25849500D01*
X70310546Y-25849500D01*
X70129454Y-25849500D01*
X70129449Y-25849500D01*
X69950589Y-25877829D01*
X69778363Y-25933787D01*
X69778360Y-25933788D01*
X69617002Y-26016006D01*
X69470505Y-26122441D01*
X69470500Y-26122445D01*
X69342445Y-26250500D01*
X69342441Y-26250505D01*
X69236006Y-26397002D01*
X69153788Y-26558360D01*
X69153787Y-26558363D01*
X69097829Y-26730589D01*
X69072473Y-26890678D01*
X69042544Y-26953813D01*
X68983232Y-26990744D01*
X68913369Y-26989746D01*
X68855137Y-26951136D01*
X68827527Y-26890678D01*
X68809651Y-26777817D01*
X68802171Y-26730591D01*
X68763662Y-26612069D01*
X68746212Y-26558363D01*
X68746211Y-26558360D01*
X68694582Y-26457034D01*
X68663996Y-26397006D01*
X68590679Y-26296093D01*
X68557558Y-26250505D01*
X68557554Y-26250500D01*
X68429499Y-26122445D01*
X68429494Y-26122441D01*
X68282997Y-26016006D01*
X68282996Y-26016005D01*
X68282994Y-26016004D01*
X68213740Y-25980717D01*
X68121639Y-25933788D01*
X68121636Y-25933787D01*
X67949410Y-25877829D01*
X67770551Y-25849500D01*
X67770546Y-25849500D01*
X67589454Y-25849500D01*
X67589449Y-25849500D01*
X67410589Y-25877829D01*
X67238363Y-25933787D01*
X67238360Y-25933788D01*
X67077002Y-26016006D01*
X66930505Y-26122441D01*
X66930500Y-26122445D01*
X66802445Y-26250500D01*
X66802441Y-26250505D01*
X66696006Y-26397002D01*
X66613788Y-26558360D01*
X66613787Y-26558363D01*
X66557829Y-26730589D01*
X66532473Y-26890678D01*
X66502544Y-26953813D01*
X66443232Y-26990744D01*
X66373369Y-26989746D01*
X66315137Y-26951136D01*
X66287527Y-26890678D01*
X66269651Y-26777817D01*
X66262171Y-26730591D01*
X66223662Y-26612069D01*
X66206212Y-26558363D01*
X66206211Y-26558360D01*
X66154582Y-26457034D01*
X66123996Y-26397006D01*
X66050679Y-26296093D01*
X66017558Y-26250505D01*
X66017554Y-26250500D01*
X65889499Y-26122445D01*
X65889494Y-26122441D01*
X65742997Y-26016006D01*
X65742996Y-26016005D01*
X65742994Y-26016004D01*
X65673740Y-25980717D01*
X65581639Y-25933788D01*
X65581636Y-25933787D01*
X65409410Y-25877829D01*
X65230551Y-25849500D01*
X65230546Y-25849500D01*
X65049454Y-25849500D01*
X65049449Y-25849500D01*
X64870589Y-25877829D01*
X64698363Y-25933787D01*
X64698360Y-25933788D01*
X64537002Y-26016006D01*
X64390505Y-26122441D01*
X64390500Y-26122445D01*
X64262445Y-26250500D01*
X64262441Y-26250505D01*
X64156006Y-26397002D01*
X64073788Y-26558360D01*
X64073787Y-26558363D01*
X64017829Y-26730589D01*
X63992473Y-26890678D01*
X63962544Y-26953813D01*
X63903232Y-26990744D01*
X63833369Y-26989746D01*
X63775137Y-26951136D01*
X63747527Y-26890678D01*
X63729651Y-26777817D01*
X63722171Y-26730591D01*
X63683662Y-26612069D01*
X63666212Y-26558363D01*
X63666211Y-26558360D01*
X63614582Y-26457034D01*
X63583996Y-26397006D01*
X63510679Y-26296093D01*
X63477558Y-26250505D01*
X63477554Y-26250500D01*
X63349499Y-26122445D01*
X63349494Y-26122441D01*
X63202997Y-26016006D01*
X63202996Y-26016005D01*
X63202994Y-26016004D01*
X63133740Y-25980717D01*
X63041639Y-25933788D01*
X63041636Y-25933787D01*
X62869410Y-25877829D01*
X62690551Y-25849500D01*
X62690546Y-25849500D01*
X62509454Y-25849500D01*
X62509449Y-25849500D01*
X62330589Y-25877829D01*
X62158363Y-25933787D01*
X62158360Y-25933788D01*
X61997002Y-26016006D01*
X61850505Y-26122441D01*
X61850500Y-26122445D01*
X61722445Y-26250500D01*
X61722441Y-26250505D01*
X61616006Y-26397002D01*
X61533788Y-26558360D01*
X61533787Y-26558363D01*
X61477829Y-26730589D01*
X61452473Y-26890678D01*
X61422544Y-26953813D01*
X61363232Y-26990744D01*
X61293369Y-26989746D01*
X61235137Y-26951136D01*
X61207527Y-26890678D01*
X61189651Y-26777817D01*
X61182171Y-26730591D01*
X61143662Y-26612069D01*
X61126212Y-26558363D01*
X61126211Y-26558360D01*
X61074582Y-26457034D01*
X61043996Y-26397006D01*
X60970679Y-26296093D01*
X60937558Y-26250505D01*
X60937554Y-26250500D01*
X60809499Y-26122445D01*
X60809494Y-26122441D01*
X60662997Y-26016006D01*
X60662996Y-26016005D01*
X60662994Y-26016004D01*
X60593740Y-25980717D01*
X60501639Y-25933788D01*
X60501636Y-25933787D01*
X60329410Y-25877829D01*
X60150551Y-25849500D01*
X60150546Y-25849500D01*
X59969454Y-25849500D01*
X59969449Y-25849500D01*
X59790589Y-25877829D01*
X59618363Y-25933787D01*
X59618360Y-25933788D01*
X59457002Y-26016006D01*
X59310505Y-26122441D01*
X59310500Y-26122445D01*
X59182445Y-26250500D01*
X59182441Y-26250505D01*
X59076006Y-26397002D01*
X58993788Y-26558360D01*
X58993787Y-26558363D01*
X58937829Y-26730589D01*
X58912473Y-26890678D01*
X58882544Y-26953813D01*
X58823232Y-26990744D01*
X58753369Y-26989746D01*
X58695137Y-26951136D01*
X58667527Y-26890678D01*
X58649651Y-26777817D01*
X58642171Y-26730591D01*
X58603662Y-26612069D01*
X58586212Y-26558363D01*
X58586211Y-26558360D01*
X58534582Y-26457034D01*
X58503996Y-26397006D01*
X58430679Y-26296093D01*
X58397558Y-26250505D01*
X58397554Y-26250500D01*
X58269499Y-26122445D01*
X58269494Y-26122441D01*
X58122997Y-26016006D01*
X58122996Y-26016005D01*
X58122994Y-26016004D01*
X58053740Y-25980717D01*
X57961639Y-25933788D01*
X57961636Y-25933787D01*
X57789410Y-25877829D01*
X57610551Y-25849500D01*
X57610546Y-25849500D01*
X57429454Y-25849500D01*
X57429449Y-25849500D01*
X57250589Y-25877829D01*
X57078363Y-25933787D01*
X57078360Y-25933788D01*
X56917002Y-26016006D01*
X56770505Y-26122441D01*
X56770500Y-26122445D01*
X56642445Y-26250500D01*
X56642441Y-26250505D01*
X56536006Y-26397002D01*
X56453788Y-26558360D01*
X56453787Y-26558363D01*
X56397829Y-26730589D01*
X56372473Y-26890678D01*
X56342544Y-26953813D01*
X56283232Y-26990744D01*
X56213369Y-26989746D01*
X56155137Y-26951136D01*
X56127527Y-26890678D01*
X56109651Y-26777817D01*
X56102171Y-26730591D01*
X56063662Y-26612069D01*
X56046212Y-26558363D01*
X56046211Y-26558360D01*
X55994582Y-26457034D01*
X55963996Y-26397006D01*
X55890679Y-26296093D01*
X55857558Y-26250505D01*
X55857554Y-26250500D01*
X55729499Y-26122445D01*
X55729494Y-26122441D01*
X55582997Y-26016006D01*
X55582996Y-26016005D01*
X55582994Y-26016004D01*
X55513740Y-25980717D01*
X55421639Y-25933788D01*
X55421636Y-25933787D01*
X55249410Y-25877829D01*
X55070551Y-25849500D01*
X55070546Y-25849500D01*
X54889454Y-25849500D01*
X54889449Y-25849500D01*
X54710589Y-25877829D01*
X54538363Y-25933787D01*
X54538360Y-25933788D01*
X54377002Y-26016006D01*
X54230505Y-26122441D01*
X54230500Y-26122445D01*
X54102445Y-26250500D01*
X54102441Y-26250505D01*
X53996006Y-26397002D01*
X53913788Y-26558360D01*
X53913787Y-26558363D01*
X53857829Y-26730589D01*
X53832473Y-26890678D01*
X53802544Y-26953813D01*
X53743232Y-26990744D01*
X53673369Y-26989746D01*
X53615137Y-26951136D01*
X53587527Y-26890678D01*
X53569651Y-26777817D01*
X53562171Y-26730591D01*
X53523662Y-26612069D01*
X53506212Y-26558363D01*
X53506211Y-26558360D01*
X53454582Y-26457034D01*
X53423996Y-26397006D01*
X53350679Y-26296093D01*
X53317558Y-26250505D01*
X53317554Y-26250500D01*
X53189499Y-26122445D01*
X53189494Y-26122441D01*
X53042997Y-26016006D01*
X53042996Y-26016005D01*
X53042994Y-26016004D01*
X52973740Y-25980717D01*
X52881639Y-25933788D01*
X52881636Y-25933787D01*
X52709410Y-25877829D01*
X52530551Y-25849500D01*
X52530546Y-25849500D01*
X52349454Y-25849500D01*
X52349449Y-25849500D01*
X52170589Y-25877829D01*
X51998363Y-25933787D01*
X51998360Y-25933788D01*
X51837003Y-26016005D01*
X51827142Y-26023170D01*
X51761336Y-26046649D01*
X51693282Y-26030823D01*
X51644588Y-25980717D01*
X51630713Y-25912239D01*
X51656063Y-25847130D01*
X51666577Y-25835170D01*
X53366580Y-24135167D01*
X55840485Y-21661263D01*
X55896503Y-21564237D01*
X55925500Y-21456018D01*
X55925500Y-21343982D01*
X55925500Y-19224500D01*
X55945185Y-19157461D01*
X55997989Y-19111706D01*
X56049500Y-19100500D01*
X56093097Y-19100500D01*
X56093102Y-19100500D01*
X56181564Y-19089877D01*
X56322342Y-19034361D01*
X56442922Y-18942922D01*
X56534361Y-18822342D01*
X56589877Y-18681564D01*
X56600500Y-18593102D01*
X56600500Y-17406898D01*
X56589877Y-17318436D01*
X56534361Y-17177658D01*
X56534360Y-17177657D01*
X56534360Y-17177656D01*
X56442922Y-17057077D01*
X56322343Y-16965639D01*
X56181561Y-16910122D01*
X56135926Y-16904642D01*
X56093102Y-16899500D01*
X56093097Y-16899500D01*
X55872800Y-16899500D01*
X55805761Y-16879815D01*
X55760006Y-16827011D01*
X55748800Y-16775500D01*
X55748800Y-7235831D01*
X55768485Y-7168792D01*
X55821289Y-7123037D01*
X55890447Y-7113093D01*
X55929093Y-7125345D01*
X55961791Y-7142006D01*
X56058360Y-7191211D01*
X56058363Y-7191212D01*
X56125145Y-7212910D01*
X56230591Y-7247171D01*
X56313429Y-7260291D01*
X56409449Y-7275500D01*
X56409454Y-7275500D01*
X56590551Y-7275500D01*
X56677259Y-7261765D01*
X56769409Y-7247171D01*
X56941639Y-7191211D01*
X57102994Y-7108996D01*
X57249501Y-7002553D01*
X57377553Y-6874501D01*
X57483996Y-6727994D01*
X57566211Y-6566639D01*
X57622171Y-6394409D01*
X57627527Y-6360594D01*
X57657456Y-6297459D01*
X57716768Y-6260528D01*
X57786630Y-6261526D01*
G37*
%TD.AperFunction*%
%TD*%
M02*
