M48
; DRILL file {KiCad 9.0.8+dfsg-1} date 2026-09-29T10:58:16+0200
; FORMAT={-:-/ absolute / metric / decimal}
; #@! TF.CreationDate,2026-09-29T10:58:16+02:00
; #@! TF.GenerationSoftware,Kicad,Pcbnew,9.0.8+dfsg-1
; #@! TF.FileFunction,Plated,1,2,PTH
FMAT,2
METRIC
; #@! TA.AperFunction,Plated,PTH,ViaDrill
T1C0.300
; #@! TA.AperFunction,Plated,PTH,ComponentDrill
T2C0.800
; #@! TA.AperFunction,Plated,PTH,ComponentDrill
T3C0.950
; #@! TA.AperFunction,Plated,PTH,ComponentDrill
T4C1.000
%
G90
G05
T1
X8.667Y-44.333
X13.712Y-12.564
X15.029Y-39.529
X16.034Y-29.938
X18.004Y-23.379
X19.0Y-47.784
X20.18Y-47.942
X21.314Y-23.269
X22.036Y-51.501
X22.147Y-34.08
X24.655Y-49.291
X29.67Y-26.937
X31.932Y-29.932
X44.063Y-22.361
X44.938Y-16.822
X49.455Y-24.339
X49.561Y-22.359
X50.439Y-16.816
X51.783Y-6.594
X56.821Y-11.091
X63.394Y-10.943
X67.959Y-14.541
X68.123Y-20.085
X76.65Y-18.19
T2
X13.5Y-20.5
X16.0Y-20.5
X55.5Y-18.0
X58.0Y-18.0
T3
X6.0Y-25.5
X6.0Y-28.0
X6.0Y-30.5
X6.0Y-33.0
X40.0Y-6.0
X42.5Y-6.0
X45.0Y-6.0
X47.5Y-6.0
X54.0Y-6.0
X56.5Y-6.0
X59.0Y-6.0
X61.5Y-6.0
X68.0Y-6.0
X70.5Y-6.0
X73.0Y-6.0
X75.5Y-6.0
T4
X6.0Y-44.5
X6.0Y-47.0
X10.0Y-6.0
X12.5Y-6.0
X19.0Y-6.0
X21.5Y-6.0
X28.0Y-6.0
X30.5Y-6.0
X44.82Y-27.0
X44.82Y-49.86
X47.36Y-27.0
X47.36Y-49.86
X49.9Y-27.0
X49.9Y-49.86
X52.44Y-27.0
X52.44Y-49.86
X54.98Y-27.0
X54.98Y-49.86
X57.52Y-27.0
X57.52Y-49.86
X60.06Y-27.0
X60.06Y-49.86
X62.6Y-27.0
X62.6Y-49.86
X65.14Y-27.0
X65.14Y-49.86
X67.68Y-27.0
X67.68Y-49.86
X70.22Y-27.0
X70.22Y-49.86
X72.76Y-27.0
X72.76Y-49.86
X75.3Y-27.0
X75.3Y-49.86
X77.84Y-27.0
X77.84Y-49.86
X80.38Y-27.0
X80.38Y-49.86
X82.92Y-27.0
X82.92Y-49.86
X85.46Y-27.0
X85.46Y-49.86
X88.0Y-27.0
X88.0Y-49.86
M30
