%TF.GenerationSoftware,KiCad,Pcbnew,9.0.8+dfsg-1*%
%TF.CreationDate,2026-09-29T10:58:16+02:00*%
%TF.ProjectId,carrier,63617272-6965-4722-9e6b-696361645f70,rev?*%
%TF.SameCoordinates,Original*%
%TF.FileFunction,Legend,Top*%
%TF.FilePolarity,Positive*%
%FSLAX46Y46*%
G04 Gerber Fmt 4.6, Leading zero omitted, Abs format (unit mm)*
G04 Created by KiCad (PCBNEW 9.0.8+dfsg-1) date 2026-09-29 10:58:16*
%MOMM*%
%LPD*%
G01*
G04 APERTURE LIST*
%ADD10C,0.150000*%
%ADD11C,0.120000*%
G04 APERTURE END LIST*
D10*
X10659523Y-10311247D02*
X10773809Y-10349342D01*
X10773809Y-10349342D02*
X10811904Y-10387438D01*
X10811904Y-10387438D02*
X10850000Y-10463628D01*
X10850000Y-10463628D02*
X10850000Y-10577914D01*
X10850000Y-10577914D02*
X10811904Y-10654104D01*
X10811904Y-10654104D02*
X10773809Y-10692200D01*
X10773809Y-10692200D02*
X10697619Y-10730295D01*
X10697619Y-10730295D02*
X10392857Y-10730295D01*
X10392857Y-10730295D02*
X10392857Y-9930295D01*
X10392857Y-9930295D02*
X10659523Y-9930295D01*
X10659523Y-9930295D02*
X10735714Y-9968390D01*
X10735714Y-9968390D02*
X10773809Y-10006485D01*
X10773809Y-10006485D02*
X10811904Y-10082676D01*
X10811904Y-10082676D02*
X10811904Y-10158866D01*
X10811904Y-10158866D02*
X10773809Y-10235057D01*
X10773809Y-10235057D02*
X10735714Y-10273152D01*
X10735714Y-10273152D02*
X10659523Y-10311247D01*
X10659523Y-10311247D02*
X10392857Y-10311247D01*
X11154761Y-10501723D02*
X11535714Y-10501723D01*
X11078571Y-10730295D02*
X11345238Y-9930295D01*
X11345238Y-9930295D02*
X11611904Y-10730295D01*
X11764285Y-9930295D02*
X12221428Y-9930295D01*
X11992856Y-10730295D02*
X11992856Y-9930295D01*
X9840476Y-11713488D02*
X10450000Y-11713488D01*
X10145238Y-12018250D02*
X10145238Y-11408726D01*
X12050000Y-11713488D02*
X12659524Y-11713488D01*
X19335714Y-10730295D02*
X19335714Y-9930295D01*
X19792857Y-10730295D02*
X19449999Y-10273152D01*
X19792857Y-9930295D02*
X19335714Y-10387438D01*
X20135714Y-10311247D02*
X20402380Y-10311247D01*
X20516666Y-10730295D02*
X20135714Y-10730295D01*
X20135714Y-10730295D02*
X20135714Y-9930295D01*
X20135714Y-9930295D02*
X20516666Y-9930295D01*
X21011905Y-10349342D02*
X21011905Y-10730295D01*
X20745238Y-9930295D02*
X21011905Y-10349342D01*
X21011905Y-10349342D02*
X21278571Y-9930295D01*
X25916666Y-10730295D02*
X25916666Y-9930295D01*
X25916666Y-10311247D02*
X26373809Y-10311247D01*
X26373809Y-10730295D02*
X26373809Y-9930295D01*
X26754761Y-10311247D02*
X27021427Y-10311247D01*
X27135713Y-10730295D02*
X26754761Y-10730295D01*
X26754761Y-10730295D02*
X26754761Y-9930295D01*
X26754761Y-9930295D02*
X27135713Y-9930295D01*
X27859523Y-10730295D02*
X27478571Y-10730295D01*
X27478571Y-10730295D02*
X27478571Y-9930295D01*
X28011904Y-9930295D02*
X28469047Y-9930295D01*
X28240475Y-10730295D02*
X28240475Y-9930295D01*
X28735714Y-10311247D02*
X29002380Y-10311247D01*
X29116666Y-10730295D02*
X28735714Y-10730295D01*
X28735714Y-10730295D02*
X28735714Y-9930295D01*
X28735714Y-9930295D02*
X29116666Y-9930295D01*
X29916667Y-10654104D02*
X29878571Y-10692200D01*
X29878571Y-10692200D02*
X29764286Y-10730295D01*
X29764286Y-10730295D02*
X29688095Y-10730295D01*
X29688095Y-10730295D02*
X29573809Y-10692200D01*
X29573809Y-10692200D02*
X29497619Y-10616009D01*
X29497619Y-10616009D02*
X29459524Y-10539819D01*
X29459524Y-10539819D02*
X29421428Y-10387438D01*
X29421428Y-10387438D02*
X29421428Y-10273152D01*
X29421428Y-10273152D02*
X29459524Y-10120771D01*
X29459524Y-10120771D02*
X29497619Y-10044580D01*
X29497619Y-10044580D02*
X29573809Y-9968390D01*
X29573809Y-9968390D02*
X29688095Y-9930295D01*
X29688095Y-9930295D02*
X29764286Y-9930295D01*
X29764286Y-9930295D02*
X29878571Y-9968390D01*
X29878571Y-9968390D02*
X29916667Y-10006485D01*
X31135714Y-10311247D02*
X31250000Y-10349342D01*
X31250000Y-10349342D02*
X31288095Y-10387438D01*
X31288095Y-10387438D02*
X31326191Y-10463628D01*
X31326191Y-10463628D02*
X31326191Y-10577914D01*
X31326191Y-10577914D02*
X31288095Y-10654104D01*
X31288095Y-10654104D02*
X31250000Y-10692200D01*
X31250000Y-10692200D02*
X31173810Y-10730295D01*
X31173810Y-10730295D02*
X30869048Y-10730295D01*
X30869048Y-10730295D02*
X30869048Y-9930295D01*
X30869048Y-9930295D02*
X31135714Y-9930295D01*
X31135714Y-9930295D02*
X31211905Y-9968390D01*
X31211905Y-9968390D02*
X31250000Y-10006485D01*
X31250000Y-10006485D02*
X31288095Y-10082676D01*
X31288095Y-10082676D02*
X31288095Y-10158866D01*
X31288095Y-10158866D02*
X31250000Y-10235057D01*
X31250000Y-10235057D02*
X31211905Y-10273152D01*
X31211905Y-10273152D02*
X31135714Y-10311247D01*
X31135714Y-10311247D02*
X30869048Y-10311247D01*
X31630952Y-10501723D02*
X32011905Y-10501723D01*
X31554762Y-10730295D02*
X31821429Y-9930295D01*
X31821429Y-9930295D02*
X32088095Y-10730295D01*
X32240476Y-9930295D02*
X32697619Y-9930295D01*
X32469047Y-10730295D02*
X32469047Y-9930295D01*
X27840476Y-11713488D02*
X28450000Y-11713488D01*
X28145238Y-12018250D02*
X28145238Y-11408726D01*
X30050000Y-11713488D02*
X30659524Y-11713488D01*
X43197619Y-10730295D02*
X42816667Y-10730295D01*
X42816667Y-10730295D02*
X42816667Y-9930295D01*
X43921429Y-10654104D02*
X43883333Y-10692200D01*
X43883333Y-10692200D02*
X43769048Y-10730295D01*
X43769048Y-10730295D02*
X43692857Y-10730295D01*
X43692857Y-10730295D02*
X43578571Y-10692200D01*
X43578571Y-10692200D02*
X43502381Y-10616009D01*
X43502381Y-10616009D02*
X43464286Y-10539819D01*
X43464286Y-10539819D02*
X43426190Y-10387438D01*
X43426190Y-10387438D02*
X43426190Y-10273152D01*
X43426190Y-10273152D02*
X43464286Y-10120771D01*
X43464286Y-10120771D02*
X43502381Y-10044580D01*
X43502381Y-10044580D02*
X43578571Y-9968390D01*
X43578571Y-9968390D02*
X43692857Y-9930295D01*
X43692857Y-9930295D02*
X43769048Y-9930295D01*
X43769048Y-9930295D02*
X43883333Y-9968390D01*
X43883333Y-9968390D02*
X43921429Y-10006485D01*
X44264286Y-10730295D02*
X44264286Y-9930295D01*
X44264286Y-9930295D02*
X44454762Y-9930295D01*
X44454762Y-9930295D02*
X44569048Y-9968390D01*
X44569048Y-9968390D02*
X44645238Y-10044580D01*
X44645238Y-10044580D02*
X44683333Y-10120771D01*
X44683333Y-10120771D02*
X44721429Y-10273152D01*
X44721429Y-10273152D02*
X44721429Y-10387438D01*
X44721429Y-10387438D02*
X44683333Y-10539819D01*
X44683333Y-10539819D02*
X44645238Y-10616009D01*
X44645238Y-10616009D02*
X44569048Y-10692200D01*
X44569048Y-10692200D02*
X44454762Y-10730295D01*
X44454762Y-10730295D02*
X44264286Y-10730295D01*
X39273809Y-11256345D02*
X39197619Y-11218250D01*
X39197619Y-11218250D02*
X39083333Y-11218250D01*
X39083333Y-11218250D02*
X38969047Y-11256345D01*
X38969047Y-11256345D02*
X38892857Y-11332535D01*
X38892857Y-11332535D02*
X38854762Y-11408726D01*
X38854762Y-11408726D02*
X38816666Y-11561107D01*
X38816666Y-11561107D02*
X38816666Y-11675393D01*
X38816666Y-11675393D02*
X38854762Y-11827774D01*
X38854762Y-11827774D02*
X38892857Y-11903964D01*
X38892857Y-11903964D02*
X38969047Y-11980155D01*
X38969047Y-11980155D02*
X39083333Y-12018250D01*
X39083333Y-12018250D02*
X39159524Y-12018250D01*
X39159524Y-12018250D02*
X39273809Y-11980155D01*
X39273809Y-11980155D02*
X39311905Y-11942059D01*
X39311905Y-11942059D02*
X39311905Y-11675393D01*
X39311905Y-11675393D02*
X39159524Y-11675393D01*
X39654762Y-12018250D02*
X39654762Y-11218250D01*
X39654762Y-11218250D02*
X40111905Y-12018250D01*
X40111905Y-12018250D02*
X40111905Y-11218250D01*
X40492857Y-12018250D02*
X40492857Y-11218250D01*
X40492857Y-11218250D02*
X40683333Y-11218250D01*
X40683333Y-11218250D02*
X40797619Y-11256345D01*
X40797619Y-11256345D02*
X40873809Y-11332535D01*
X40873809Y-11332535D02*
X40911904Y-11408726D01*
X40911904Y-11408726D02*
X40950000Y-11561107D01*
X40950000Y-11561107D02*
X40950000Y-11675393D01*
X40950000Y-11675393D02*
X40911904Y-11827774D01*
X40911904Y-11827774D02*
X40873809Y-11903964D01*
X40873809Y-11903964D02*
X40797619Y-11980155D01*
X40797619Y-11980155D02*
X40683333Y-12018250D01*
X40683333Y-12018250D02*
X40492857Y-12018250D01*
X42283333Y-11218250D02*
X41902381Y-11218250D01*
X41902381Y-11218250D02*
X41864285Y-11599202D01*
X41864285Y-11599202D02*
X41902381Y-11561107D01*
X41902381Y-11561107D02*
X41978571Y-11523012D01*
X41978571Y-11523012D02*
X42169047Y-11523012D01*
X42169047Y-11523012D02*
X42245238Y-11561107D01*
X42245238Y-11561107D02*
X42283333Y-11599202D01*
X42283333Y-11599202D02*
X42321428Y-11675393D01*
X42321428Y-11675393D02*
X42321428Y-11865869D01*
X42321428Y-11865869D02*
X42283333Y-11942059D01*
X42283333Y-11942059D02*
X42245238Y-11980155D01*
X42245238Y-11980155D02*
X42169047Y-12018250D01*
X42169047Y-12018250D02*
X41978571Y-12018250D01*
X41978571Y-12018250D02*
X41902381Y-11980155D01*
X41902381Y-11980155D02*
X41864285Y-11942059D01*
X42550000Y-11218250D02*
X42816667Y-12018250D01*
X42816667Y-12018250D02*
X43083333Y-11218250D01*
X43921428Y-11980155D02*
X44035714Y-12018250D01*
X44035714Y-12018250D02*
X44226190Y-12018250D01*
X44226190Y-12018250D02*
X44302381Y-11980155D01*
X44302381Y-11980155D02*
X44340476Y-11942059D01*
X44340476Y-11942059D02*
X44378571Y-11865869D01*
X44378571Y-11865869D02*
X44378571Y-11789678D01*
X44378571Y-11789678D02*
X44340476Y-11713488D01*
X44340476Y-11713488D02*
X44302381Y-11675393D01*
X44302381Y-11675393D02*
X44226190Y-11637297D01*
X44226190Y-11637297D02*
X44073809Y-11599202D01*
X44073809Y-11599202D02*
X43997619Y-11561107D01*
X43997619Y-11561107D02*
X43959524Y-11523012D01*
X43959524Y-11523012D02*
X43921428Y-11446821D01*
X43921428Y-11446821D02*
X43921428Y-11370631D01*
X43921428Y-11370631D02*
X43959524Y-11294440D01*
X43959524Y-11294440D02*
X43997619Y-11256345D01*
X43997619Y-11256345D02*
X44073809Y-11218250D01*
X44073809Y-11218250D02*
X44264286Y-11218250D01*
X44264286Y-11218250D02*
X44378571Y-11256345D01*
X44721429Y-12018250D02*
X44721429Y-11218250D01*
X44721429Y-11218250D02*
X44911905Y-11218250D01*
X44911905Y-11218250D02*
X45026191Y-11256345D01*
X45026191Y-11256345D02*
X45102381Y-11332535D01*
X45102381Y-11332535D02*
X45140476Y-11408726D01*
X45140476Y-11408726D02*
X45178572Y-11561107D01*
X45178572Y-11561107D02*
X45178572Y-11675393D01*
X45178572Y-11675393D02*
X45140476Y-11827774D01*
X45140476Y-11827774D02*
X45102381Y-11903964D01*
X45102381Y-11903964D02*
X45026191Y-11980155D01*
X45026191Y-11980155D02*
X44911905Y-12018250D01*
X44911905Y-12018250D02*
X44721429Y-12018250D01*
X45483333Y-11789678D02*
X45864286Y-11789678D01*
X45407143Y-12018250D02*
X45673810Y-11218250D01*
X45673810Y-11218250D02*
X45940476Y-12018250D01*
X46778571Y-11980155D02*
X46892857Y-12018250D01*
X46892857Y-12018250D02*
X47083333Y-12018250D01*
X47083333Y-12018250D02*
X47159524Y-11980155D01*
X47159524Y-11980155D02*
X47197619Y-11942059D01*
X47197619Y-11942059D02*
X47235714Y-11865869D01*
X47235714Y-11865869D02*
X47235714Y-11789678D01*
X47235714Y-11789678D02*
X47197619Y-11713488D01*
X47197619Y-11713488D02*
X47159524Y-11675393D01*
X47159524Y-11675393D02*
X47083333Y-11637297D01*
X47083333Y-11637297D02*
X46930952Y-11599202D01*
X46930952Y-11599202D02*
X46854762Y-11561107D01*
X46854762Y-11561107D02*
X46816667Y-11523012D01*
X46816667Y-11523012D02*
X46778571Y-11446821D01*
X46778571Y-11446821D02*
X46778571Y-11370631D01*
X46778571Y-11370631D02*
X46816667Y-11294440D01*
X46816667Y-11294440D02*
X46854762Y-11256345D01*
X46854762Y-11256345D02*
X46930952Y-11218250D01*
X46930952Y-11218250D02*
X47121429Y-11218250D01*
X47121429Y-11218250D02*
X47235714Y-11256345D01*
X48035715Y-11942059D02*
X47997619Y-11980155D01*
X47997619Y-11980155D02*
X47883334Y-12018250D01*
X47883334Y-12018250D02*
X47807143Y-12018250D01*
X47807143Y-12018250D02*
X47692857Y-11980155D01*
X47692857Y-11980155D02*
X47616667Y-11903964D01*
X47616667Y-11903964D02*
X47578572Y-11827774D01*
X47578572Y-11827774D02*
X47540476Y-11675393D01*
X47540476Y-11675393D02*
X47540476Y-11561107D01*
X47540476Y-11561107D02*
X47578572Y-11408726D01*
X47578572Y-11408726D02*
X47616667Y-11332535D01*
X47616667Y-11332535D02*
X47692857Y-11256345D01*
X47692857Y-11256345D02*
X47807143Y-11218250D01*
X47807143Y-11218250D02*
X47883334Y-11218250D01*
X47883334Y-11218250D02*
X47997619Y-11256345D01*
X47997619Y-11256345D02*
X48035715Y-11294440D01*
X48759524Y-12018250D02*
X48378572Y-12018250D01*
X48378572Y-12018250D02*
X48378572Y-11218250D01*
X56778572Y-10730295D02*
X56778572Y-9930295D01*
X56778572Y-9930295D02*
X57235715Y-10730295D01*
X57235715Y-10730295D02*
X57235715Y-9930295D01*
X57883333Y-10311247D02*
X57616667Y-10311247D01*
X57616667Y-10730295D02*
X57616667Y-9930295D01*
X57616667Y-9930295D02*
X57997619Y-9930295D01*
X58759524Y-10654104D02*
X58721428Y-10692200D01*
X58721428Y-10692200D02*
X58607143Y-10730295D01*
X58607143Y-10730295D02*
X58530952Y-10730295D01*
X58530952Y-10730295D02*
X58416666Y-10692200D01*
X58416666Y-10692200D02*
X58340476Y-10616009D01*
X58340476Y-10616009D02*
X58302381Y-10539819D01*
X58302381Y-10539819D02*
X58264285Y-10387438D01*
X58264285Y-10387438D02*
X58264285Y-10273152D01*
X58264285Y-10273152D02*
X58302381Y-10120771D01*
X58302381Y-10120771D02*
X58340476Y-10044580D01*
X58340476Y-10044580D02*
X58416666Y-9968390D01*
X58416666Y-9968390D02*
X58530952Y-9930295D01*
X58530952Y-9930295D02*
X58607143Y-9930295D01*
X58607143Y-9930295D02*
X58721428Y-9968390D01*
X58721428Y-9968390D02*
X58759524Y-10006485D01*
X52892856Y-11256345D02*
X52816666Y-11218250D01*
X52816666Y-11218250D02*
X52702380Y-11218250D01*
X52702380Y-11218250D02*
X52588094Y-11256345D01*
X52588094Y-11256345D02*
X52511904Y-11332535D01*
X52511904Y-11332535D02*
X52473809Y-11408726D01*
X52473809Y-11408726D02*
X52435713Y-11561107D01*
X52435713Y-11561107D02*
X52435713Y-11675393D01*
X52435713Y-11675393D02*
X52473809Y-11827774D01*
X52473809Y-11827774D02*
X52511904Y-11903964D01*
X52511904Y-11903964D02*
X52588094Y-11980155D01*
X52588094Y-11980155D02*
X52702380Y-12018250D01*
X52702380Y-12018250D02*
X52778571Y-12018250D01*
X52778571Y-12018250D02*
X52892856Y-11980155D01*
X52892856Y-11980155D02*
X52930952Y-11942059D01*
X52930952Y-11942059D02*
X52930952Y-11675393D01*
X52930952Y-11675393D02*
X52778571Y-11675393D01*
X53273809Y-12018250D02*
X53273809Y-11218250D01*
X53273809Y-11218250D02*
X53730952Y-12018250D01*
X53730952Y-12018250D02*
X53730952Y-11218250D01*
X54111904Y-12018250D02*
X54111904Y-11218250D01*
X54111904Y-11218250D02*
X54302380Y-11218250D01*
X54302380Y-11218250D02*
X54416666Y-11256345D01*
X54416666Y-11256345D02*
X54492856Y-11332535D01*
X54492856Y-11332535D02*
X54530951Y-11408726D01*
X54530951Y-11408726D02*
X54569047Y-11561107D01*
X54569047Y-11561107D02*
X54569047Y-11675393D01*
X54569047Y-11675393D02*
X54530951Y-11827774D01*
X54530951Y-11827774D02*
X54492856Y-11903964D01*
X54492856Y-11903964D02*
X54416666Y-11980155D01*
X54416666Y-11980155D02*
X54302380Y-12018250D01*
X54302380Y-12018250D02*
X54111904Y-12018250D01*
X55445237Y-11218250D02*
X55940475Y-11218250D01*
X55940475Y-11218250D02*
X55673809Y-11523012D01*
X55673809Y-11523012D02*
X55788094Y-11523012D01*
X55788094Y-11523012D02*
X55864285Y-11561107D01*
X55864285Y-11561107D02*
X55902380Y-11599202D01*
X55902380Y-11599202D02*
X55940475Y-11675393D01*
X55940475Y-11675393D02*
X55940475Y-11865869D01*
X55940475Y-11865869D02*
X55902380Y-11942059D01*
X55902380Y-11942059D02*
X55864285Y-11980155D01*
X55864285Y-11980155D02*
X55788094Y-12018250D01*
X55788094Y-12018250D02*
X55559523Y-12018250D01*
X55559523Y-12018250D02*
X55483332Y-11980155D01*
X55483332Y-11980155D02*
X55445237Y-11942059D01*
X56169047Y-11218250D02*
X56435714Y-12018250D01*
X56435714Y-12018250D02*
X56702380Y-11218250D01*
X56892856Y-11218250D02*
X57388094Y-11218250D01*
X57388094Y-11218250D02*
X57121428Y-11523012D01*
X57121428Y-11523012D02*
X57235713Y-11523012D01*
X57235713Y-11523012D02*
X57311904Y-11561107D01*
X57311904Y-11561107D02*
X57349999Y-11599202D01*
X57349999Y-11599202D02*
X57388094Y-11675393D01*
X57388094Y-11675393D02*
X57388094Y-11865869D01*
X57388094Y-11865869D02*
X57349999Y-11942059D01*
X57349999Y-11942059D02*
X57311904Y-11980155D01*
X57311904Y-11980155D02*
X57235713Y-12018250D01*
X57235713Y-12018250D02*
X57007142Y-12018250D01*
X57007142Y-12018250D02*
X56930951Y-11980155D01*
X56930951Y-11980155D02*
X56892856Y-11942059D01*
X58302380Y-11980155D02*
X58416666Y-12018250D01*
X58416666Y-12018250D02*
X58607142Y-12018250D01*
X58607142Y-12018250D02*
X58683333Y-11980155D01*
X58683333Y-11980155D02*
X58721428Y-11942059D01*
X58721428Y-11942059D02*
X58759523Y-11865869D01*
X58759523Y-11865869D02*
X58759523Y-11789678D01*
X58759523Y-11789678D02*
X58721428Y-11713488D01*
X58721428Y-11713488D02*
X58683333Y-11675393D01*
X58683333Y-11675393D02*
X58607142Y-11637297D01*
X58607142Y-11637297D02*
X58454761Y-11599202D01*
X58454761Y-11599202D02*
X58378571Y-11561107D01*
X58378571Y-11561107D02*
X58340476Y-11523012D01*
X58340476Y-11523012D02*
X58302380Y-11446821D01*
X58302380Y-11446821D02*
X58302380Y-11370631D01*
X58302380Y-11370631D02*
X58340476Y-11294440D01*
X58340476Y-11294440D02*
X58378571Y-11256345D01*
X58378571Y-11256345D02*
X58454761Y-11218250D01*
X58454761Y-11218250D02*
X58645238Y-11218250D01*
X58645238Y-11218250D02*
X58759523Y-11256345D01*
X59102381Y-12018250D02*
X59102381Y-11218250D01*
X59102381Y-11218250D02*
X59292857Y-11218250D01*
X59292857Y-11218250D02*
X59407143Y-11256345D01*
X59407143Y-11256345D02*
X59483333Y-11332535D01*
X59483333Y-11332535D02*
X59521428Y-11408726D01*
X59521428Y-11408726D02*
X59559524Y-11561107D01*
X59559524Y-11561107D02*
X59559524Y-11675393D01*
X59559524Y-11675393D02*
X59521428Y-11827774D01*
X59521428Y-11827774D02*
X59483333Y-11903964D01*
X59483333Y-11903964D02*
X59407143Y-11980155D01*
X59407143Y-11980155D02*
X59292857Y-12018250D01*
X59292857Y-12018250D02*
X59102381Y-12018250D01*
X59864285Y-11789678D02*
X60245238Y-11789678D01*
X59788095Y-12018250D02*
X60054762Y-11218250D01*
X60054762Y-11218250D02*
X60321428Y-12018250D01*
X61159523Y-11980155D02*
X61273809Y-12018250D01*
X61273809Y-12018250D02*
X61464285Y-12018250D01*
X61464285Y-12018250D02*
X61540476Y-11980155D01*
X61540476Y-11980155D02*
X61578571Y-11942059D01*
X61578571Y-11942059D02*
X61616666Y-11865869D01*
X61616666Y-11865869D02*
X61616666Y-11789678D01*
X61616666Y-11789678D02*
X61578571Y-11713488D01*
X61578571Y-11713488D02*
X61540476Y-11675393D01*
X61540476Y-11675393D02*
X61464285Y-11637297D01*
X61464285Y-11637297D02*
X61311904Y-11599202D01*
X61311904Y-11599202D02*
X61235714Y-11561107D01*
X61235714Y-11561107D02*
X61197619Y-11523012D01*
X61197619Y-11523012D02*
X61159523Y-11446821D01*
X61159523Y-11446821D02*
X61159523Y-11370631D01*
X61159523Y-11370631D02*
X61197619Y-11294440D01*
X61197619Y-11294440D02*
X61235714Y-11256345D01*
X61235714Y-11256345D02*
X61311904Y-11218250D01*
X61311904Y-11218250D02*
X61502381Y-11218250D01*
X61502381Y-11218250D02*
X61616666Y-11256345D01*
X62416667Y-11942059D02*
X62378571Y-11980155D01*
X62378571Y-11980155D02*
X62264286Y-12018250D01*
X62264286Y-12018250D02*
X62188095Y-12018250D01*
X62188095Y-12018250D02*
X62073809Y-11980155D01*
X62073809Y-11980155D02*
X61997619Y-11903964D01*
X61997619Y-11903964D02*
X61959524Y-11827774D01*
X61959524Y-11827774D02*
X61921428Y-11675393D01*
X61921428Y-11675393D02*
X61921428Y-11561107D01*
X61921428Y-11561107D02*
X61959524Y-11408726D01*
X61959524Y-11408726D02*
X61997619Y-11332535D01*
X61997619Y-11332535D02*
X62073809Y-11256345D01*
X62073809Y-11256345D02*
X62188095Y-11218250D01*
X62188095Y-11218250D02*
X62264286Y-11218250D01*
X62264286Y-11218250D02*
X62378571Y-11256345D01*
X62378571Y-11256345D02*
X62416667Y-11294440D01*
X63140476Y-12018250D02*
X62759524Y-12018250D01*
X62759524Y-12018250D02*
X62759524Y-11218250D01*
X70378571Y-10311247D02*
X70492857Y-10349342D01*
X70492857Y-10349342D02*
X70530952Y-10387438D01*
X70530952Y-10387438D02*
X70569048Y-10463628D01*
X70569048Y-10463628D02*
X70569048Y-10577914D01*
X70569048Y-10577914D02*
X70530952Y-10654104D01*
X70530952Y-10654104D02*
X70492857Y-10692200D01*
X70492857Y-10692200D02*
X70416667Y-10730295D01*
X70416667Y-10730295D02*
X70111905Y-10730295D01*
X70111905Y-10730295D02*
X70111905Y-9930295D01*
X70111905Y-9930295D02*
X70378571Y-9930295D01*
X70378571Y-9930295D02*
X70454762Y-9968390D01*
X70454762Y-9968390D02*
X70492857Y-10006485D01*
X70492857Y-10006485D02*
X70530952Y-10082676D01*
X70530952Y-10082676D02*
X70530952Y-10158866D01*
X70530952Y-10158866D02*
X70492857Y-10235057D01*
X70492857Y-10235057D02*
X70454762Y-10273152D01*
X70454762Y-10273152D02*
X70378571Y-10311247D01*
X70378571Y-10311247D02*
X70111905Y-10311247D01*
X70797619Y-9930295D02*
X71254762Y-9930295D01*
X71026190Y-10730295D02*
X71026190Y-9930295D01*
X71521429Y-10730295D02*
X71521429Y-9930295D01*
X71521429Y-9930295D02*
X71978572Y-10730295D01*
X71978572Y-10730295D02*
X71978572Y-9930295D01*
X72169048Y-10806485D02*
X72778571Y-10806485D01*
X73426191Y-10730295D02*
X73159524Y-10349342D01*
X72969048Y-10730295D02*
X72969048Y-9930295D01*
X72969048Y-9930295D02*
X73273810Y-9930295D01*
X73273810Y-9930295D02*
X73350000Y-9968390D01*
X73350000Y-9968390D02*
X73388095Y-10006485D01*
X73388095Y-10006485D02*
X73426191Y-10082676D01*
X73426191Y-10082676D02*
X73426191Y-10196961D01*
X73426191Y-10196961D02*
X73388095Y-10273152D01*
X73388095Y-10273152D02*
X73350000Y-10311247D01*
X73350000Y-10311247D02*
X73273810Y-10349342D01*
X73273810Y-10349342D02*
X72969048Y-10349342D01*
X67292856Y-11980155D02*
X67407142Y-12018250D01*
X67407142Y-12018250D02*
X67597618Y-12018250D01*
X67597618Y-12018250D02*
X67673809Y-11980155D01*
X67673809Y-11980155D02*
X67711904Y-11942059D01*
X67711904Y-11942059D02*
X67749999Y-11865869D01*
X67749999Y-11865869D02*
X67749999Y-11789678D01*
X67749999Y-11789678D02*
X67711904Y-11713488D01*
X67711904Y-11713488D02*
X67673809Y-11675393D01*
X67673809Y-11675393D02*
X67597618Y-11637297D01*
X67597618Y-11637297D02*
X67445237Y-11599202D01*
X67445237Y-11599202D02*
X67369047Y-11561107D01*
X67369047Y-11561107D02*
X67330952Y-11523012D01*
X67330952Y-11523012D02*
X67292856Y-11446821D01*
X67292856Y-11446821D02*
X67292856Y-11370631D01*
X67292856Y-11370631D02*
X67330952Y-11294440D01*
X67330952Y-11294440D02*
X67369047Y-11256345D01*
X67369047Y-11256345D02*
X67445237Y-11218250D01*
X67445237Y-11218250D02*
X67635714Y-11218250D01*
X67635714Y-11218250D02*
X67749999Y-11256345D01*
X68016666Y-11218250D02*
X68207142Y-12018250D01*
X68207142Y-12018250D02*
X68359523Y-11446821D01*
X68359523Y-11446821D02*
X68511904Y-12018250D01*
X68511904Y-12018250D02*
X68702381Y-11218250D01*
X70035714Y-11256345D02*
X69959524Y-11218250D01*
X69959524Y-11218250D02*
X69845238Y-11218250D01*
X69845238Y-11218250D02*
X69730952Y-11256345D01*
X69730952Y-11256345D02*
X69654762Y-11332535D01*
X69654762Y-11332535D02*
X69616667Y-11408726D01*
X69616667Y-11408726D02*
X69578571Y-11561107D01*
X69578571Y-11561107D02*
X69578571Y-11675393D01*
X69578571Y-11675393D02*
X69616667Y-11827774D01*
X69616667Y-11827774D02*
X69654762Y-11903964D01*
X69654762Y-11903964D02*
X69730952Y-11980155D01*
X69730952Y-11980155D02*
X69845238Y-12018250D01*
X69845238Y-12018250D02*
X69921429Y-12018250D01*
X69921429Y-12018250D02*
X70035714Y-11980155D01*
X70035714Y-11980155D02*
X70073810Y-11942059D01*
X70073810Y-11942059D02*
X70073810Y-11675393D01*
X70073810Y-11675393D02*
X69921429Y-11675393D01*
X70416667Y-12018250D02*
X70416667Y-11218250D01*
X70416667Y-11218250D02*
X70873810Y-12018250D01*
X70873810Y-12018250D02*
X70873810Y-11218250D01*
X71254762Y-12018250D02*
X71254762Y-11218250D01*
X71254762Y-11218250D02*
X71445238Y-11218250D01*
X71445238Y-11218250D02*
X71559524Y-11256345D01*
X71559524Y-11256345D02*
X71635714Y-11332535D01*
X71635714Y-11332535D02*
X71673809Y-11408726D01*
X71673809Y-11408726D02*
X71711905Y-11561107D01*
X71711905Y-11561107D02*
X71711905Y-11675393D01*
X71711905Y-11675393D02*
X71673809Y-11827774D01*
X71673809Y-11827774D02*
X71635714Y-11903964D01*
X71635714Y-11903964D02*
X71559524Y-11980155D01*
X71559524Y-11980155D02*
X71445238Y-12018250D01*
X71445238Y-12018250D02*
X71254762Y-12018250D01*
X73045238Y-12018250D02*
X72664286Y-12018250D01*
X72664286Y-12018250D02*
X72664286Y-11218250D01*
X73311905Y-11713488D02*
X73921429Y-11713488D01*
X73616667Y-12018250D02*
X73616667Y-11408726D01*
X75292857Y-12018250D02*
X74911905Y-12018250D01*
X74911905Y-12018250D02*
X74911905Y-11218250D01*
X75559524Y-11713488D02*
X76169048Y-11713488D01*
X10311247Y-30621428D02*
X10349342Y-30507142D01*
X10349342Y-30507142D02*
X10387438Y-30469047D01*
X10387438Y-30469047D02*
X10463628Y-30430951D01*
X10463628Y-30430951D02*
X10577914Y-30430951D01*
X10577914Y-30430951D02*
X10654104Y-30469047D01*
X10654104Y-30469047D02*
X10692200Y-30507142D01*
X10692200Y-30507142D02*
X10730295Y-30583332D01*
X10730295Y-30583332D02*
X10730295Y-30888094D01*
X10730295Y-30888094D02*
X9930295Y-30888094D01*
X9930295Y-30888094D02*
X9930295Y-30621428D01*
X9930295Y-30621428D02*
X9968390Y-30545237D01*
X9968390Y-30545237D02*
X10006485Y-30507142D01*
X10006485Y-30507142D02*
X10082676Y-30469047D01*
X10082676Y-30469047D02*
X10158866Y-30469047D01*
X10158866Y-30469047D02*
X10235057Y-30507142D01*
X10235057Y-30507142D02*
X10273152Y-30545237D01*
X10273152Y-30545237D02*
X10311247Y-30621428D01*
X10311247Y-30621428D02*
X10311247Y-30888094D01*
X9930295Y-30202380D02*
X9930295Y-29745237D01*
X10730295Y-29973809D02*
X9930295Y-29973809D01*
X10730295Y-29478570D02*
X9930295Y-29478570D01*
X9930295Y-29478570D02*
X10730295Y-29021427D01*
X10730295Y-29021427D02*
X9930295Y-29021427D01*
X10806485Y-28830952D02*
X10806485Y-28221428D01*
X10311247Y-27764285D02*
X10349342Y-27649999D01*
X10349342Y-27649999D02*
X10387438Y-27611904D01*
X10387438Y-27611904D02*
X10463628Y-27573808D01*
X10463628Y-27573808D02*
X10577914Y-27573808D01*
X10577914Y-27573808D02*
X10654104Y-27611904D01*
X10654104Y-27611904D02*
X10692200Y-27649999D01*
X10692200Y-27649999D02*
X10730295Y-27726189D01*
X10730295Y-27726189D02*
X10730295Y-28030951D01*
X10730295Y-28030951D02*
X9930295Y-28030951D01*
X9930295Y-28030951D02*
X9930295Y-27764285D01*
X9930295Y-27764285D02*
X9968390Y-27688094D01*
X9968390Y-27688094D02*
X10006485Y-27649999D01*
X10006485Y-27649999D02*
X10082676Y-27611904D01*
X10082676Y-27611904D02*
X10158866Y-27611904D01*
X10158866Y-27611904D02*
X10235057Y-27649999D01*
X10235057Y-27649999D02*
X10273152Y-27688094D01*
X10273152Y-27688094D02*
X10311247Y-27764285D01*
X10311247Y-27764285D02*
X10311247Y-28030951D01*
X11980155Y-33707143D02*
X12018250Y-33592857D01*
X12018250Y-33592857D02*
X12018250Y-33402381D01*
X12018250Y-33402381D02*
X11980155Y-33326190D01*
X11980155Y-33326190D02*
X11942059Y-33288095D01*
X11942059Y-33288095D02*
X11865869Y-33250000D01*
X11865869Y-33250000D02*
X11789678Y-33250000D01*
X11789678Y-33250000D02*
X11713488Y-33288095D01*
X11713488Y-33288095D02*
X11675393Y-33326190D01*
X11675393Y-33326190D02*
X11637297Y-33402381D01*
X11637297Y-33402381D02*
X11599202Y-33554762D01*
X11599202Y-33554762D02*
X11561107Y-33630952D01*
X11561107Y-33630952D02*
X11523012Y-33669047D01*
X11523012Y-33669047D02*
X11446821Y-33707143D01*
X11446821Y-33707143D02*
X11370631Y-33707143D01*
X11370631Y-33707143D02*
X11294440Y-33669047D01*
X11294440Y-33669047D02*
X11256345Y-33630952D01*
X11256345Y-33630952D02*
X11218250Y-33554762D01*
X11218250Y-33554762D02*
X11218250Y-33364285D01*
X11218250Y-33364285D02*
X11256345Y-33250000D01*
X11218250Y-32983333D02*
X12018250Y-32792857D01*
X12018250Y-32792857D02*
X11446821Y-32640476D01*
X11446821Y-32640476D02*
X12018250Y-32488095D01*
X12018250Y-32488095D02*
X11218250Y-32297619D01*
X11256345Y-30964285D02*
X11218250Y-31040475D01*
X11218250Y-31040475D02*
X11218250Y-31154761D01*
X11218250Y-31154761D02*
X11256345Y-31269047D01*
X11256345Y-31269047D02*
X11332535Y-31345237D01*
X11332535Y-31345237D02*
X11408726Y-31383332D01*
X11408726Y-31383332D02*
X11561107Y-31421428D01*
X11561107Y-31421428D02*
X11675393Y-31421428D01*
X11675393Y-31421428D02*
X11827774Y-31383332D01*
X11827774Y-31383332D02*
X11903964Y-31345237D01*
X11903964Y-31345237D02*
X11980155Y-31269047D01*
X11980155Y-31269047D02*
X12018250Y-31154761D01*
X12018250Y-31154761D02*
X12018250Y-31078570D01*
X12018250Y-31078570D02*
X11980155Y-30964285D01*
X11980155Y-30964285D02*
X11942059Y-30926189D01*
X11942059Y-30926189D02*
X11675393Y-30926189D01*
X11675393Y-30926189D02*
X11675393Y-31078570D01*
X12018250Y-30583332D02*
X11218250Y-30583332D01*
X11218250Y-30583332D02*
X12018250Y-30126189D01*
X12018250Y-30126189D02*
X11218250Y-30126189D01*
X12018250Y-29745237D02*
X11218250Y-29745237D01*
X11218250Y-29745237D02*
X11218250Y-29554761D01*
X11218250Y-29554761D02*
X11256345Y-29440475D01*
X11256345Y-29440475D02*
X11332535Y-29364285D01*
X11332535Y-29364285D02*
X11408726Y-29326190D01*
X11408726Y-29326190D02*
X11561107Y-29288094D01*
X11561107Y-29288094D02*
X11675393Y-29288094D01*
X11675393Y-29288094D02*
X11827774Y-29326190D01*
X11827774Y-29326190D02*
X11903964Y-29364285D01*
X11903964Y-29364285D02*
X11980155Y-29440475D01*
X11980155Y-29440475D02*
X12018250Y-29554761D01*
X12018250Y-29554761D02*
X12018250Y-29745237D01*
X12018250Y-27954761D02*
X12018250Y-28335713D01*
X12018250Y-28335713D02*
X11218250Y-28335713D01*
X11713488Y-27688094D02*
X11713488Y-27078571D01*
X12018250Y-27383332D02*
X11408726Y-27383332D01*
X12018250Y-25707142D02*
X12018250Y-26088094D01*
X12018250Y-26088094D02*
X11218250Y-26088094D01*
X11713488Y-25440475D02*
X11713488Y-24830952D01*
X10311247Y-46492857D02*
X10349342Y-46378571D01*
X10349342Y-46378571D02*
X10387438Y-46340476D01*
X10387438Y-46340476D02*
X10463628Y-46302380D01*
X10463628Y-46302380D02*
X10577914Y-46302380D01*
X10577914Y-46302380D02*
X10654104Y-46340476D01*
X10654104Y-46340476D02*
X10692200Y-46378571D01*
X10692200Y-46378571D02*
X10730295Y-46454761D01*
X10730295Y-46454761D02*
X10730295Y-46759523D01*
X10730295Y-46759523D02*
X9930295Y-46759523D01*
X9930295Y-46759523D02*
X9930295Y-46492857D01*
X9930295Y-46492857D02*
X9968390Y-46416666D01*
X9968390Y-46416666D02*
X10006485Y-46378571D01*
X10006485Y-46378571D02*
X10082676Y-46340476D01*
X10082676Y-46340476D02*
X10158866Y-46340476D01*
X10158866Y-46340476D02*
X10235057Y-46378571D01*
X10235057Y-46378571D02*
X10273152Y-46416666D01*
X10273152Y-46416666D02*
X10311247Y-46492857D01*
X10311247Y-46492857D02*
X10311247Y-46759523D01*
X9930295Y-45959523D02*
X10577914Y-45959523D01*
X10577914Y-45959523D02*
X10654104Y-45921428D01*
X10654104Y-45921428D02*
X10692200Y-45883333D01*
X10692200Y-45883333D02*
X10730295Y-45807142D01*
X10730295Y-45807142D02*
X10730295Y-45654761D01*
X10730295Y-45654761D02*
X10692200Y-45578571D01*
X10692200Y-45578571D02*
X10654104Y-45540476D01*
X10654104Y-45540476D02*
X10577914Y-45502380D01*
X10577914Y-45502380D02*
X9930295Y-45502380D01*
X9930295Y-45197619D02*
X9930295Y-44664285D01*
X9930295Y-44664285D02*
X10730295Y-45197619D01*
X10730295Y-45197619D02*
X10730295Y-44664285D01*
X11713488Y-47159523D02*
X11713488Y-46550000D01*
X12018250Y-46854761D02*
X11408726Y-46854761D01*
X11713488Y-44949999D02*
X11713488Y-44340476D01*
X9289160Y-56669104D02*
X9765350Y-56669104D01*
X9193922Y-56954819D02*
X9527255Y-55954819D01*
X9527255Y-55954819D02*
X9860588Y-56954819D01*
X10193922Y-56954819D02*
X10193922Y-56288152D01*
X10193922Y-55954819D02*
X10146303Y-56002438D01*
X10146303Y-56002438D02*
X10193922Y-56050057D01*
X10193922Y-56050057D02*
X10241541Y-56002438D01*
X10241541Y-56002438D02*
X10193922Y-55954819D01*
X10193922Y-55954819D02*
X10193922Y-56050057D01*
X10670112Y-56954819D02*
X10670112Y-56288152D01*
X10670112Y-56478628D02*
X10717731Y-56383390D01*
X10717731Y-56383390D02*
X10765350Y-56335771D01*
X10765350Y-56335771D02*
X10860588Y-56288152D01*
X10860588Y-56288152D02*
X10955826Y-56288152D01*
X11241541Y-56907200D02*
X11336779Y-56954819D01*
X11336779Y-56954819D02*
X11527255Y-56954819D01*
X11527255Y-56954819D02*
X11622493Y-56907200D01*
X11622493Y-56907200D02*
X11670112Y-56811961D01*
X11670112Y-56811961D02*
X11670112Y-56764342D01*
X11670112Y-56764342D02*
X11622493Y-56669104D01*
X11622493Y-56669104D02*
X11527255Y-56621485D01*
X11527255Y-56621485D02*
X11384398Y-56621485D01*
X11384398Y-56621485D02*
X11289160Y-56573866D01*
X11289160Y-56573866D02*
X11241541Y-56478628D01*
X11241541Y-56478628D02*
X11241541Y-56431009D01*
X11241541Y-56431009D02*
X11289160Y-56335771D01*
X11289160Y-56335771D02*
X11384398Y-56288152D01*
X11384398Y-56288152D02*
X11527255Y-56288152D01*
X11527255Y-56288152D02*
X11622493Y-56335771D01*
X12241541Y-56954819D02*
X12146303Y-56907200D01*
X12146303Y-56907200D02*
X12098684Y-56859580D01*
X12098684Y-56859580D02*
X12051065Y-56764342D01*
X12051065Y-56764342D02*
X12051065Y-56478628D01*
X12051065Y-56478628D02*
X12098684Y-56383390D01*
X12098684Y-56383390D02*
X12146303Y-56335771D01*
X12146303Y-56335771D02*
X12241541Y-56288152D01*
X12241541Y-56288152D02*
X12384398Y-56288152D01*
X12384398Y-56288152D02*
X12479636Y-56335771D01*
X12479636Y-56335771D02*
X12527255Y-56383390D01*
X12527255Y-56383390D02*
X12574874Y-56478628D01*
X12574874Y-56478628D02*
X12574874Y-56764342D01*
X12574874Y-56764342D02*
X12527255Y-56859580D01*
X12527255Y-56859580D02*
X12479636Y-56907200D01*
X12479636Y-56907200D02*
X12384398Y-56954819D01*
X12384398Y-56954819D02*
X12241541Y-56954819D01*
X12860589Y-56288152D02*
X13241541Y-56288152D01*
X13003446Y-56954819D02*
X13003446Y-56097676D01*
X13003446Y-56097676D02*
X13051065Y-56002438D01*
X13051065Y-56002438D02*
X13146303Y-55954819D01*
X13146303Y-55954819D02*
X13241541Y-55954819D01*
X13432018Y-56288152D02*
X13812970Y-56288152D01*
X13574875Y-55954819D02*
X13574875Y-56811961D01*
X13574875Y-56811961D02*
X13622494Y-56907200D01*
X13622494Y-56907200D02*
X13717732Y-56954819D01*
X13717732Y-56954819D02*
X13812970Y-56954819D01*
X14717732Y-56859580D02*
X14670113Y-56907200D01*
X14670113Y-56907200D02*
X14527256Y-56954819D01*
X14527256Y-56954819D02*
X14432018Y-56954819D01*
X14432018Y-56954819D02*
X14289161Y-56907200D01*
X14289161Y-56907200D02*
X14193923Y-56811961D01*
X14193923Y-56811961D02*
X14146304Y-56716723D01*
X14146304Y-56716723D02*
X14098685Y-56526247D01*
X14098685Y-56526247D02*
X14098685Y-56383390D01*
X14098685Y-56383390D02*
X14146304Y-56192914D01*
X14146304Y-56192914D02*
X14193923Y-56097676D01*
X14193923Y-56097676D02*
X14289161Y-56002438D01*
X14289161Y-56002438D02*
X14432018Y-55954819D01*
X14432018Y-55954819D02*
X14527256Y-55954819D01*
X14527256Y-55954819D02*
X14670113Y-56002438D01*
X14670113Y-56002438D02*
X14717732Y-56050057D01*
X15289161Y-56954819D02*
X15193923Y-56907200D01*
X15193923Y-56907200D02*
X15146304Y-56859580D01*
X15146304Y-56859580D02*
X15098685Y-56764342D01*
X15098685Y-56764342D02*
X15098685Y-56478628D01*
X15098685Y-56478628D02*
X15146304Y-56383390D01*
X15146304Y-56383390D02*
X15193923Y-56335771D01*
X15193923Y-56335771D02*
X15289161Y-56288152D01*
X15289161Y-56288152D02*
X15432018Y-56288152D01*
X15432018Y-56288152D02*
X15527256Y-56335771D01*
X15527256Y-56335771D02*
X15574875Y-56383390D01*
X15574875Y-56383390D02*
X15622494Y-56478628D01*
X15622494Y-56478628D02*
X15622494Y-56764342D01*
X15622494Y-56764342D02*
X15574875Y-56859580D01*
X15574875Y-56859580D02*
X15527256Y-56907200D01*
X15527256Y-56907200D02*
X15432018Y-56954819D01*
X15432018Y-56954819D02*
X15289161Y-56954819D01*
X16479637Y-56288152D02*
X16479637Y-56954819D01*
X16051066Y-56288152D02*
X16051066Y-56811961D01*
X16051066Y-56811961D02*
X16098685Y-56907200D01*
X16098685Y-56907200D02*
X16193923Y-56954819D01*
X16193923Y-56954819D02*
X16336780Y-56954819D01*
X16336780Y-56954819D02*
X16432018Y-56907200D01*
X16432018Y-56907200D02*
X16479637Y-56859580D01*
X16955828Y-56288152D02*
X16955828Y-56954819D01*
X16955828Y-56383390D02*
X17003447Y-56335771D01*
X17003447Y-56335771D02*
X17098685Y-56288152D01*
X17098685Y-56288152D02*
X17241542Y-56288152D01*
X17241542Y-56288152D02*
X17336780Y-56335771D01*
X17336780Y-56335771D02*
X17384399Y-56431009D01*
X17384399Y-56431009D02*
X17384399Y-56954819D01*
X17717733Y-56288152D02*
X18098685Y-56288152D01*
X17860590Y-55954819D02*
X17860590Y-56811961D01*
X17860590Y-56811961D02*
X17908209Y-56907200D01*
X17908209Y-56907200D02*
X18003447Y-56954819D01*
X18003447Y-56954819D02*
X18098685Y-56954819D01*
X18812971Y-56907200D02*
X18717733Y-56954819D01*
X18717733Y-56954819D02*
X18527257Y-56954819D01*
X18527257Y-56954819D02*
X18432019Y-56907200D01*
X18432019Y-56907200D02*
X18384400Y-56811961D01*
X18384400Y-56811961D02*
X18384400Y-56431009D01*
X18384400Y-56431009D02*
X18432019Y-56335771D01*
X18432019Y-56335771D02*
X18527257Y-56288152D01*
X18527257Y-56288152D02*
X18717733Y-56288152D01*
X18717733Y-56288152D02*
X18812971Y-56335771D01*
X18812971Y-56335771D02*
X18860590Y-56431009D01*
X18860590Y-56431009D02*
X18860590Y-56526247D01*
X18860590Y-56526247D02*
X18384400Y-56621485D01*
X19289162Y-56954819D02*
X19289162Y-56288152D01*
X19289162Y-56478628D02*
X19336781Y-56383390D01*
X19336781Y-56383390D02*
X19384400Y-56335771D01*
X19384400Y-56335771D02*
X19479638Y-56288152D01*
X19479638Y-56288152D02*
X19574876Y-56288152D01*
X20574877Y-56288152D02*
X20812972Y-56954819D01*
X20812972Y-56954819D02*
X21051067Y-56288152D01*
X21384401Y-56050057D02*
X21432020Y-56002438D01*
X21432020Y-56002438D02*
X21527258Y-55954819D01*
X21527258Y-55954819D02*
X21765353Y-55954819D01*
X21765353Y-55954819D02*
X21860591Y-56002438D01*
X21860591Y-56002438D02*
X21908210Y-56050057D01*
X21908210Y-56050057D02*
X21955829Y-56145295D01*
X21955829Y-56145295D02*
X21955829Y-56240533D01*
X21955829Y-56240533D02*
X21908210Y-56383390D01*
X21908210Y-56383390D02*
X21336782Y-56954819D01*
X21336782Y-56954819D02*
X21955829Y-56954819D01*
X23574877Y-56907200D02*
X23479639Y-56954819D01*
X23479639Y-56954819D02*
X23289163Y-56954819D01*
X23289163Y-56954819D02*
X23193925Y-56907200D01*
X23193925Y-56907200D02*
X23146306Y-56859580D01*
X23146306Y-56859580D02*
X23098687Y-56764342D01*
X23098687Y-56764342D02*
X23098687Y-56478628D01*
X23098687Y-56478628D02*
X23146306Y-56383390D01*
X23146306Y-56383390D02*
X23193925Y-56335771D01*
X23193925Y-56335771D02*
X23289163Y-56288152D01*
X23289163Y-56288152D02*
X23479639Y-56288152D01*
X23479639Y-56288152D02*
X23574877Y-56335771D01*
X24432020Y-56954819D02*
X24432020Y-56431009D01*
X24432020Y-56431009D02*
X24384401Y-56335771D01*
X24384401Y-56335771D02*
X24289163Y-56288152D01*
X24289163Y-56288152D02*
X24098687Y-56288152D01*
X24098687Y-56288152D02*
X24003449Y-56335771D01*
X24432020Y-56907200D02*
X24336782Y-56954819D01*
X24336782Y-56954819D02*
X24098687Y-56954819D01*
X24098687Y-56954819D02*
X24003449Y-56907200D01*
X24003449Y-56907200D02*
X23955830Y-56811961D01*
X23955830Y-56811961D02*
X23955830Y-56716723D01*
X23955830Y-56716723D02*
X24003449Y-56621485D01*
X24003449Y-56621485D02*
X24098687Y-56573866D01*
X24098687Y-56573866D02*
X24336782Y-56573866D01*
X24336782Y-56573866D02*
X24432020Y-56526247D01*
X24908211Y-56954819D02*
X24908211Y-56288152D01*
X24908211Y-56478628D02*
X24955830Y-56383390D01*
X24955830Y-56383390D02*
X25003449Y-56335771D01*
X25003449Y-56335771D02*
X25098687Y-56288152D01*
X25098687Y-56288152D02*
X25193925Y-56288152D01*
X25527259Y-56954819D02*
X25527259Y-56288152D01*
X25527259Y-56478628D02*
X25574878Y-56383390D01*
X25574878Y-56383390D02*
X25622497Y-56335771D01*
X25622497Y-56335771D02*
X25717735Y-56288152D01*
X25717735Y-56288152D02*
X25812973Y-56288152D01*
X26146307Y-56954819D02*
X26146307Y-56288152D01*
X26146307Y-55954819D02*
X26098688Y-56002438D01*
X26098688Y-56002438D02*
X26146307Y-56050057D01*
X26146307Y-56050057D02*
X26193926Y-56002438D01*
X26193926Y-56002438D02*
X26146307Y-55954819D01*
X26146307Y-55954819D02*
X26146307Y-56050057D01*
X27003449Y-56907200D02*
X26908211Y-56954819D01*
X26908211Y-56954819D02*
X26717735Y-56954819D01*
X26717735Y-56954819D02*
X26622497Y-56907200D01*
X26622497Y-56907200D02*
X26574878Y-56811961D01*
X26574878Y-56811961D02*
X26574878Y-56431009D01*
X26574878Y-56431009D02*
X26622497Y-56335771D01*
X26622497Y-56335771D02*
X26717735Y-56288152D01*
X26717735Y-56288152D02*
X26908211Y-56288152D01*
X26908211Y-56288152D02*
X27003449Y-56335771D01*
X27003449Y-56335771D02*
X27051068Y-56431009D01*
X27051068Y-56431009D02*
X27051068Y-56526247D01*
X27051068Y-56526247D02*
X26574878Y-56621485D01*
X27479640Y-56954819D02*
X27479640Y-56288152D01*
X27479640Y-56478628D02*
X27527259Y-56383390D01*
X27527259Y-56383390D02*
X27574878Y-56335771D01*
X27574878Y-56335771D02*
X27670116Y-56288152D01*
X27670116Y-56288152D02*
X27765354Y-56288152D01*
X9289160Y-57850057D02*
X9336779Y-57802438D01*
X9336779Y-57802438D02*
X9432017Y-57754819D01*
X9432017Y-57754819D02*
X9670112Y-57754819D01*
X9670112Y-57754819D02*
X9765350Y-57802438D01*
X9765350Y-57802438D02*
X9812969Y-57850057D01*
X9812969Y-57850057D02*
X9860588Y-57945295D01*
X9860588Y-57945295D02*
X9860588Y-58040533D01*
X9860588Y-58040533D02*
X9812969Y-58183390D01*
X9812969Y-58183390D02*
X9241541Y-58754819D01*
X9241541Y-58754819D02*
X9860588Y-58754819D01*
X10479636Y-57754819D02*
X10574874Y-57754819D01*
X10574874Y-57754819D02*
X10670112Y-57802438D01*
X10670112Y-57802438D02*
X10717731Y-57850057D01*
X10717731Y-57850057D02*
X10765350Y-57945295D01*
X10765350Y-57945295D02*
X10812969Y-58135771D01*
X10812969Y-58135771D02*
X10812969Y-58373866D01*
X10812969Y-58373866D02*
X10765350Y-58564342D01*
X10765350Y-58564342D02*
X10717731Y-58659580D01*
X10717731Y-58659580D02*
X10670112Y-58707200D01*
X10670112Y-58707200D02*
X10574874Y-58754819D01*
X10574874Y-58754819D02*
X10479636Y-58754819D01*
X10479636Y-58754819D02*
X10384398Y-58707200D01*
X10384398Y-58707200D02*
X10336779Y-58659580D01*
X10336779Y-58659580D02*
X10289160Y-58564342D01*
X10289160Y-58564342D02*
X10241541Y-58373866D01*
X10241541Y-58373866D02*
X10241541Y-58135771D01*
X10241541Y-58135771D02*
X10289160Y-57945295D01*
X10289160Y-57945295D02*
X10336779Y-57850057D01*
X10336779Y-57850057D02*
X10384398Y-57802438D01*
X10384398Y-57802438D02*
X10479636Y-57754819D01*
X11193922Y-57850057D02*
X11241541Y-57802438D01*
X11241541Y-57802438D02*
X11336779Y-57754819D01*
X11336779Y-57754819D02*
X11574874Y-57754819D01*
X11574874Y-57754819D02*
X11670112Y-57802438D01*
X11670112Y-57802438D02*
X11717731Y-57850057D01*
X11717731Y-57850057D02*
X11765350Y-57945295D01*
X11765350Y-57945295D02*
X11765350Y-58040533D01*
X11765350Y-58040533D02*
X11717731Y-58183390D01*
X11717731Y-58183390D02*
X11146303Y-58754819D01*
X11146303Y-58754819D02*
X11765350Y-58754819D01*
X12622493Y-57754819D02*
X12432017Y-57754819D01*
X12432017Y-57754819D02*
X12336779Y-57802438D01*
X12336779Y-57802438D02*
X12289160Y-57850057D01*
X12289160Y-57850057D02*
X12193922Y-57992914D01*
X12193922Y-57992914D02*
X12146303Y-58183390D01*
X12146303Y-58183390D02*
X12146303Y-58564342D01*
X12146303Y-58564342D02*
X12193922Y-58659580D01*
X12193922Y-58659580D02*
X12241541Y-58707200D01*
X12241541Y-58707200D02*
X12336779Y-58754819D01*
X12336779Y-58754819D02*
X12527255Y-58754819D01*
X12527255Y-58754819D02*
X12622493Y-58707200D01*
X12622493Y-58707200D02*
X12670112Y-58659580D01*
X12670112Y-58659580D02*
X12717731Y-58564342D01*
X12717731Y-58564342D02*
X12717731Y-58326247D01*
X12717731Y-58326247D02*
X12670112Y-58231009D01*
X12670112Y-58231009D02*
X12622493Y-58183390D01*
X12622493Y-58183390D02*
X12527255Y-58135771D01*
X12527255Y-58135771D02*
X12336779Y-58135771D01*
X12336779Y-58135771D02*
X12241541Y-58183390D01*
X12241541Y-58183390D02*
X12193922Y-58231009D01*
X12193922Y-58231009D02*
X12146303Y-58326247D01*
X13146303Y-58373866D02*
X13908208Y-58373866D01*
X14574874Y-57754819D02*
X14670112Y-57754819D01*
X14670112Y-57754819D02*
X14765350Y-57802438D01*
X14765350Y-57802438D02*
X14812969Y-57850057D01*
X14812969Y-57850057D02*
X14860588Y-57945295D01*
X14860588Y-57945295D02*
X14908207Y-58135771D01*
X14908207Y-58135771D02*
X14908207Y-58373866D01*
X14908207Y-58373866D02*
X14860588Y-58564342D01*
X14860588Y-58564342D02*
X14812969Y-58659580D01*
X14812969Y-58659580D02*
X14765350Y-58707200D01*
X14765350Y-58707200D02*
X14670112Y-58754819D01*
X14670112Y-58754819D02*
X14574874Y-58754819D01*
X14574874Y-58754819D02*
X14479636Y-58707200D01*
X14479636Y-58707200D02*
X14432017Y-58659580D01*
X14432017Y-58659580D02*
X14384398Y-58564342D01*
X14384398Y-58564342D02*
X14336779Y-58373866D01*
X14336779Y-58373866D02*
X14336779Y-58135771D01*
X14336779Y-58135771D02*
X14384398Y-57945295D01*
X14384398Y-57945295D02*
X14432017Y-57850057D01*
X14432017Y-57850057D02*
X14479636Y-57802438D01*
X14479636Y-57802438D02*
X14574874Y-57754819D01*
X15384398Y-58754819D02*
X15574874Y-58754819D01*
X15574874Y-58754819D02*
X15670112Y-58707200D01*
X15670112Y-58707200D02*
X15717731Y-58659580D01*
X15717731Y-58659580D02*
X15812969Y-58516723D01*
X15812969Y-58516723D02*
X15860588Y-58326247D01*
X15860588Y-58326247D02*
X15860588Y-57945295D01*
X15860588Y-57945295D02*
X15812969Y-57850057D01*
X15812969Y-57850057D02*
X15765350Y-57802438D01*
X15765350Y-57802438D02*
X15670112Y-57754819D01*
X15670112Y-57754819D02*
X15479636Y-57754819D01*
X15479636Y-57754819D02*
X15384398Y-57802438D01*
X15384398Y-57802438D02*
X15336779Y-57850057D01*
X15336779Y-57850057D02*
X15289160Y-57945295D01*
X15289160Y-57945295D02*
X15289160Y-58183390D01*
X15289160Y-58183390D02*
X15336779Y-58278628D01*
X15336779Y-58278628D02*
X15384398Y-58326247D01*
X15384398Y-58326247D02*
X15479636Y-58373866D01*
X15479636Y-58373866D02*
X15670112Y-58373866D01*
X15670112Y-58373866D02*
X15765350Y-58326247D01*
X15765350Y-58326247D02*
X15812969Y-58278628D01*
X15812969Y-58278628D02*
X15860588Y-58183390D01*
X81857143Y-38599104D02*
X82333333Y-38599104D01*
X81761905Y-38884819D02*
X82095238Y-37884819D01*
X82095238Y-37884819D02*
X82428571Y-38884819D01*
X82761905Y-38884819D02*
X82761905Y-37884819D01*
X82761905Y-37884819D02*
X83333333Y-38884819D01*
X83333333Y-38884819D02*
X83333333Y-37884819D01*
X83666667Y-37884819D02*
X84238095Y-37884819D01*
X83952381Y-38884819D02*
X83952381Y-37884819D01*
X85333334Y-38503866D02*
X86095239Y-38503866D01*
X85904762Y-38694342D02*
X86095239Y-38503866D01*
X86095239Y-38503866D02*
X85904762Y-38313390D01*
X39954819Y-39691904D02*
X40764342Y-39691904D01*
X40764342Y-39691904D02*
X40859580Y-39644285D01*
X40859580Y-39644285D02*
X40907200Y-39596666D01*
X40907200Y-39596666D02*
X40954819Y-39501428D01*
X40954819Y-39501428D02*
X40954819Y-39310952D01*
X40954819Y-39310952D02*
X40907200Y-39215714D01*
X40907200Y-39215714D02*
X40859580Y-39168095D01*
X40859580Y-39168095D02*
X40764342Y-39120476D01*
X40764342Y-39120476D02*
X39954819Y-39120476D01*
X40907200Y-38691904D02*
X40954819Y-38549047D01*
X40954819Y-38549047D02*
X40954819Y-38310952D01*
X40954819Y-38310952D02*
X40907200Y-38215714D01*
X40907200Y-38215714D02*
X40859580Y-38168095D01*
X40859580Y-38168095D02*
X40764342Y-38120476D01*
X40764342Y-38120476D02*
X40669104Y-38120476D01*
X40669104Y-38120476D02*
X40573866Y-38168095D01*
X40573866Y-38168095D02*
X40526247Y-38215714D01*
X40526247Y-38215714D02*
X40478628Y-38310952D01*
X40478628Y-38310952D02*
X40431009Y-38501428D01*
X40431009Y-38501428D02*
X40383390Y-38596666D01*
X40383390Y-38596666D02*
X40335771Y-38644285D01*
X40335771Y-38644285D02*
X40240533Y-38691904D01*
X40240533Y-38691904D02*
X40145295Y-38691904D01*
X40145295Y-38691904D02*
X40050057Y-38644285D01*
X40050057Y-38644285D02*
X40002438Y-38596666D01*
X40002438Y-38596666D02*
X39954819Y-38501428D01*
X39954819Y-38501428D02*
X39954819Y-38263333D01*
X39954819Y-38263333D02*
X40002438Y-38120476D01*
X40431009Y-37358571D02*
X40478628Y-37215714D01*
X40478628Y-37215714D02*
X40526247Y-37168095D01*
X40526247Y-37168095D02*
X40621485Y-37120476D01*
X40621485Y-37120476D02*
X40764342Y-37120476D01*
X40764342Y-37120476D02*
X40859580Y-37168095D01*
X40859580Y-37168095D02*
X40907200Y-37215714D01*
X40907200Y-37215714D02*
X40954819Y-37310952D01*
X40954819Y-37310952D02*
X40954819Y-37691904D01*
X40954819Y-37691904D02*
X39954819Y-37691904D01*
X39954819Y-37691904D02*
X39954819Y-37358571D01*
X39954819Y-37358571D02*
X40002438Y-37263333D01*
X40002438Y-37263333D02*
X40050057Y-37215714D01*
X40050057Y-37215714D02*
X40145295Y-37168095D01*
X40145295Y-37168095D02*
X40240533Y-37168095D01*
X40240533Y-37168095D02*
X40335771Y-37215714D01*
X40335771Y-37215714D02*
X40383390Y-37263333D01*
X40383390Y-37263333D02*
X40431009Y-37358571D01*
X40431009Y-37358571D02*
X40431009Y-37691904D01*
X18761905Y-51106104D02*
X18723809Y-51144200D01*
X18723809Y-51144200D02*
X18609524Y-51182295D01*
X18609524Y-51182295D02*
X18533333Y-51182295D01*
X18533333Y-51182295D02*
X18419047Y-51144200D01*
X18419047Y-51144200D02*
X18342857Y-51068009D01*
X18342857Y-51068009D02*
X18304762Y-50991819D01*
X18304762Y-50991819D02*
X18266666Y-50839438D01*
X18266666Y-50839438D02*
X18266666Y-50725152D01*
X18266666Y-50725152D02*
X18304762Y-50572771D01*
X18304762Y-50572771D02*
X18342857Y-50496580D01*
X18342857Y-50496580D02*
X18419047Y-50420390D01*
X18419047Y-50420390D02*
X18533333Y-50382295D01*
X18533333Y-50382295D02*
X18609524Y-50382295D01*
X18609524Y-50382295D02*
X18723809Y-50420390D01*
X18723809Y-50420390D02*
X18761905Y-50458485D01*
X18914286Y-51258485D02*
X19523809Y-51258485D01*
X19980952Y-50763247D02*
X20095238Y-50801342D01*
X20095238Y-50801342D02*
X20133333Y-50839438D01*
X20133333Y-50839438D02*
X20171429Y-50915628D01*
X20171429Y-50915628D02*
X20171429Y-51029914D01*
X20171429Y-51029914D02*
X20133333Y-51106104D01*
X20133333Y-51106104D02*
X20095238Y-51144200D01*
X20095238Y-51144200D02*
X20019048Y-51182295D01*
X20019048Y-51182295D02*
X19714286Y-51182295D01*
X19714286Y-51182295D02*
X19714286Y-50382295D01*
X19714286Y-50382295D02*
X19980952Y-50382295D01*
X19980952Y-50382295D02*
X20057143Y-50420390D01*
X20057143Y-50420390D02*
X20095238Y-50458485D01*
X20095238Y-50458485D02*
X20133333Y-50534676D01*
X20133333Y-50534676D02*
X20133333Y-50610866D01*
X20133333Y-50610866D02*
X20095238Y-50687057D01*
X20095238Y-50687057D02*
X20057143Y-50725152D01*
X20057143Y-50725152D02*
X19980952Y-50763247D01*
X19980952Y-50763247D02*
X19714286Y-50763247D01*
X20780952Y-50763247D02*
X20895238Y-50801342D01*
X20895238Y-50801342D02*
X20933333Y-50839438D01*
X20933333Y-50839438D02*
X20971429Y-50915628D01*
X20971429Y-50915628D02*
X20971429Y-51029914D01*
X20971429Y-51029914D02*
X20933333Y-51106104D01*
X20933333Y-51106104D02*
X20895238Y-51144200D01*
X20895238Y-51144200D02*
X20819048Y-51182295D01*
X20819048Y-51182295D02*
X20514286Y-51182295D01*
X20514286Y-51182295D02*
X20514286Y-50382295D01*
X20514286Y-50382295D02*
X20780952Y-50382295D01*
X20780952Y-50382295D02*
X20857143Y-50420390D01*
X20857143Y-50420390D02*
X20895238Y-50458485D01*
X20895238Y-50458485D02*
X20933333Y-50534676D01*
X20933333Y-50534676D02*
X20933333Y-50610866D01*
X20933333Y-50610866D02*
X20895238Y-50687057D01*
X20895238Y-50687057D02*
X20857143Y-50725152D01*
X20857143Y-50725152D02*
X20780952Y-50763247D01*
X20780952Y-50763247D02*
X20514286Y-50763247D01*
X21733333Y-51182295D02*
X21276190Y-51182295D01*
X21504762Y-51182295D02*
X21504762Y-50382295D01*
X21504762Y-50382295D02*
X21428571Y-50496580D01*
X21428571Y-50496580D02*
X21352381Y-50572771D01*
X21352381Y-50572771D02*
X21276190Y-50610866D01*
X18342857Y-47712295D02*
X18076190Y-47331342D01*
X17885714Y-47712295D02*
X17885714Y-46912295D01*
X17885714Y-46912295D02*
X18190476Y-46912295D01*
X18190476Y-46912295D02*
X18266666Y-46950390D01*
X18266666Y-46950390D02*
X18304761Y-46988485D01*
X18304761Y-46988485D02*
X18342857Y-47064676D01*
X18342857Y-47064676D02*
X18342857Y-47178961D01*
X18342857Y-47178961D02*
X18304761Y-47255152D01*
X18304761Y-47255152D02*
X18266666Y-47293247D01*
X18266666Y-47293247D02*
X18190476Y-47331342D01*
X18190476Y-47331342D02*
X17885714Y-47331342D01*
X18495238Y-47788485D02*
X19104761Y-47788485D01*
X19295238Y-47712295D02*
X19295238Y-46912295D01*
X19295238Y-46912295D02*
X19600000Y-46912295D01*
X19600000Y-46912295D02*
X19676190Y-46950390D01*
X19676190Y-46950390D02*
X19714285Y-46988485D01*
X19714285Y-46988485D02*
X19752381Y-47064676D01*
X19752381Y-47064676D02*
X19752381Y-47178961D01*
X19752381Y-47178961D02*
X19714285Y-47255152D01*
X19714285Y-47255152D02*
X19676190Y-47293247D01*
X19676190Y-47293247D02*
X19600000Y-47331342D01*
X19600000Y-47331342D02*
X19295238Y-47331342D01*
X20095238Y-46912295D02*
X20095238Y-47559914D01*
X20095238Y-47559914D02*
X20133333Y-47636104D01*
X20133333Y-47636104D02*
X20171428Y-47674200D01*
X20171428Y-47674200D02*
X20247619Y-47712295D01*
X20247619Y-47712295D02*
X20400000Y-47712295D01*
X20400000Y-47712295D02*
X20476190Y-47674200D01*
X20476190Y-47674200D02*
X20514285Y-47636104D01*
X20514285Y-47636104D02*
X20552381Y-47559914D01*
X20552381Y-47559914D02*
X20552381Y-46912295D01*
X21199999Y-47293247D02*
X21314285Y-47331342D01*
X21314285Y-47331342D02*
X21352380Y-47369438D01*
X21352380Y-47369438D02*
X21390476Y-47445628D01*
X21390476Y-47445628D02*
X21390476Y-47559914D01*
X21390476Y-47559914D02*
X21352380Y-47636104D01*
X21352380Y-47636104D02*
X21314285Y-47674200D01*
X21314285Y-47674200D02*
X21238095Y-47712295D01*
X21238095Y-47712295D02*
X20933333Y-47712295D01*
X20933333Y-47712295D02*
X20933333Y-46912295D01*
X20933333Y-46912295D02*
X21199999Y-46912295D01*
X21199999Y-46912295D02*
X21276190Y-46950390D01*
X21276190Y-46950390D02*
X21314285Y-46988485D01*
X21314285Y-46988485D02*
X21352380Y-47064676D01*
X21352380Y-47064676D02*
X21352380Y-47140866D01*
X21352380Y-47140866D02*
X21314285Y-47217057D01*
X21314285Y-47217057D02*
X21276190Y-47255152D01*
X21276190Y-47255152D02*
X21199999Y-47293247D01*
X21199999Y-47293247D02*
X20933333Y-47293247D01*
X22152380Y-47712295D02*
X21695237Y-47712295D01*
X21923809Y-47712295D02*
X21923809Y-46912295D01*
X21923809Y-46912295D02*
X21847618Y-47026580D01*
X21847618Y-47026580D02*
X21771428Y-47102771D01*
X21771428Y-47102771D02*
X21695237Y-47140866D01*
X9630952Y-2012295D02*
X9630952Y-2583723D01*
X9630952Y-2583723D02*
X9592857Y-2698009D01*
X9592857Y-2698009D02*
X9516666Y-2774200D01*
X9516666Y-2774200D02*
X9402381Y-2812295D01*
X9402381Y-2812295D02*
X9326190Y-2812295D01*
X9821429Y-2888485D02*
X10430952Y-2888485D01*
X10888095Y-2393247D02*
X11002381Y-2431342D01*
X11002381Y-2431342D02*
X11040476Y-2469438D01*
X11040476Y-2469438D02*
X11078572Y-2545628D01*
X11078572Y-2545628D02*
X11078572Y-2659914D01*
X11078572Y-2659914D02*
X11040476Y-2736104D01*
X11040476Y-2736104D02*
X11002381Y-2774200D01*
X11002381Y-2774200D02*
X10926191Y-2812295D01*
X10926191Y-2812295D02*
X10621429Y-2812295D01*
X10621429Y-2812295D02*
X10621429Y-2012295D01*
X10621429Y-2012295D02*
X10888095Y-2012295D01*
X10888095Y-2012295D02*
X10964286Y-2050390D01*
X10964286Y-2050390D02*
X11002381Y-2088485D01*
X11002381Y-2088485D02*
X11040476Y-2164676D01*
X11040476Y-2164676D02*
X11040476Y-2240866D01*
X11040476Y-2240866D02*
X11002381Y-2317057D01*
X11002381Y-2317057D02*
X10964286Y-2355152D01*
X10964286Y-2355152D02*
X10888095Y-2393247D01*
X10888095Y-2393247D02*
X10621429Y-2393247D01*
X11383333Y-2583723D02*
X11764286Y-2583723D01*
X11307143Y-2812295D02*
X11573810Y-2012295D01*
X11573810Y-2012295D02*
X11840476Y-2812295D01*
X11992857Y-2012295D02*
X12450000Y-2012295D01*
X12221428Y-2812295D02*
X12221428Y-2012295D01*
X13135714Y-2812295D02*
X12678571Y-2812295D01*
X12907143Y-2812295D02*
X12907143Y-2012295D01*
X12907143Y-2012295D02*
X12830952Y-2126580D01*
X12830952Y-2126580D02*
X12754762Y-2202771D01*
X12754762Y-2202771D02*
X12678571Y-2240866D01*
X69780952Y-15962295D02*
X69514285Y-15581342D01*
X69323809Y-15962295D02*
X69323809Y-15162295D01*
X69323809Y-15162295D02*
X69628571Y-15162295D01*
X69628571Y-15162295D02*
X69704761Y-15200390D01*
X69704761Y-15200390D02*
X69742856Y-15238485D01*
X69742856Y-15238485D02*
X69780952Y-15314676D01*
X69780952Y-15314676D02*
X69780952Y-15428961D01*
X69780952Y-15428961D02*
X69742856Y-15505152D01*
X69742856Y-15505152D02*
X69704761Y-15543247D01*
X69704761Y-15543247D02*
X69628571Y-15581342D01*
X69628571Y-15581342D02*
X69323809Y-15581342D01*
X69933333Y-16038485D02*
X70542856Y-16038485D01*
X70695237Y-15924200D02*
X70809523Y-15962295D01*
X70809523Y-15962295D02*
X70999999Y-15962295D01*
X70999999Y-15962295D02*
X71076190Y-15924200D01*
X71076190Y-15924200D02*
X71114285Y-15886104D01*
X71114285Y-15886104D02*
X71152380Y-15809914D01*
X71152380Y-15809914D02*
X71152380Y-15733723D01*
X71152380Y-15733723D02*
X71114285Y-15657533D01*
X71114285Y-15657533D02*
X71076190Y-15619438D01*
X71076190Y-15619438D02*
X70999999Y-15581342D01*
X70999999Y-15581342D02*
X70847618Y-15543247D01*
X70847618Y-15543247D02*
X70771428Y-15505152D01*
X70771428Y-15505152D02*
X70733333Y-15467057D01*
X70733333Y-15467057D02*
X70695237Y-15390866D01*
X70695237Y-15390866D02*
X70695237Y-15314676D01*
X70695237Y-15314676D02*
X70733333Y-15238485D01*
X70733333Y-15238485D02*
X70771428Y-15200390D01*
X70771428Y-15200390D02*
X70847618Y-15162295D01*
X70847618Y-15162295D02*
X71038095Y-15162295D01*
X71038095Y-15162295D02*
X71152380Y-15200390D01*
X71952381Y-15962295D02*
X71685714Y-15581342D01*
X71495238Y-15962295D02*
X71495238Y-15162295D01*
X71495238Y-15162295D02*
X71800000Y-15162295D01*
X71800000Y-15162295D02*
X71876190Y-15200390D01*
X71876190Y-15200390D02*
X71914285Y-15238485D01*
X71914285Y-15238485D02*
X71952381Y-15314676D01*
X71952381Y-15314676D02*
X71952381Y-15428961D01*
X71952381Y-15428961D02*
X71914285Y-15505152D01*
X71914285Y-15505152D02*
X71876190Y-15543247D01*
X71876190Y-15543247D02*
X71800000Y-15581342D01*
X71800000Y-15581342D02*
X71495238Y-15581342D01*
X72714285Y-15962295D02*
X72257142Y-15962295D01*
X72485714Y-15962295D02*
X72485714Y-15162295D01*
X72485714Y-15162295D02*
X72409523Y-15276580D01*
X72409523Y-15276580D02*
X72333333Y-15352771D01*
X72333333Y-15352771D02*
X72257142Y-15390866D01*
X64342857Y-14212295D02*
X64076190Y-13831342D01*
X63885714Y-14212295D02*
X63885714Y-13412295D01*
X63885714Y-13412295D02*
X64190476Y-13412295D01*
X64190476Y-13412295D02*
X64266666Y-13450390D01*
X64266666Y-13450390D02*
X64304761Y-13488485D01*
X64304761Y-13488485D02*
X64342857Y-13564676D01*
X64342857Y-13564676D02*
X64342857Y-13678961D01*
X64342857Y-13678961D02*
X64304761Y-13755152D01*
X64304761Y-13755152D02*
X64266666Y-13793247D01*
X64266666Y-13793247D02*
X64190476Y-13831342D01*
X64190476Y-13831342D02*
X63885714Y-13831342D01*
X64495238Y-14288485D02*
X65104761Y-14288485D01*
X65295238Y-14212295D02*
X65295238Y-13412295D01*
X65295238Y-13412295D02*
X65600000Y-13412295D01*
X65600000Y-13412295D02*
X65676190Y-13450390D01*
X65676190Y-13450390D02*
X65714285Y-13488485D01*
X65714285Y-13488485D02*
X65752381Y-13564676D01*
X65752381Y-13564676D02*
X65752381Y-13678961D01*
X65752381Y-13678961D02*
X65714285Y-13755152D01*
X65714285Y-13755152D02*
X65676190Y-13793247D01*
X65676190Y-13793247D02*
X65600000Y-13831342D01*
X65600000Y-13831342D02*
X65295238Y-13831342D01*
X66095238Y-13412295D02*
X66095238Y-14059914D01*
X66095238Y-14059914D02*
X66133333Y-14136104D01*
X66133333Y-14136104D02*
X66171428Y-14174200D01*
X66171428Y-14174200D02*
X66247619Y-14212295D01*
X66247619Y-14212295D02*
X66400000Y-14212295D01*
X66400000Y-14212295D02*
X66476190Y-14174200D01*
X66476190Y-14174200D02*
X66514285Y-14136104D01*
X66514285Y-14136104D02*
X66552381Y-14059914D01*
X66552381Y-14059914D02*
X66552381Y-13412295D01*
X67390476Y-14212295D02*
X67123809Y-13831342D01*
X66933333Y-14212295D02*
X66933333Y-13412295D01*
X66933333Y-13412295D02*
X67238095Y-13412295D01*
X67238095Y-13412295D02*
X67314285Y-13450390D01*
X67314285Y-13450390D02*
X67352380Y-13488485D01*
X67352380Y-13488485D02*
X67390476Y-13564676D01*
X67390476Y-13564676D02*
X67390476Y-13678961D01*
X67390476Y-13678961D02*
X67352380Y-13755152D01*
X67352380Y-13755152D02*
X67314285Y-13793247D01*
X67314285Y-13793247D02*
X67238095Y-13831342D01*
X67238095Y-13831342D02*
X66933333Y-13831342D01*
X68152380Y-14212295D02*
X67695237Y-14212295D01*
X67923809Y-14212295D02*
X67923809Y-13412295D01*
X67923809Y-13412295D02*
X67847618Y-13526580D01*
X67847618Y-13526580D02*
X67771428Y-13602771D01*
X67771428Y-13602771D02*
X67695237Y-13640866D01*
X64761905Y-17606104D02*
X64723809Y-17644200D01*
X64723809Y-17644200D02*
X64609524Y-17682295D01*
X64609524Y-17682295D02*
X64533333Y-17682295D01*
X64533333Y-17682295D02*
X64419047Y-17644200D01*
X64419047Y-17644200D02*
X64342857Y-17568009D01*
X64342857Y-17568009D02*
X64304762Y-17491819D01*
X64304762Y-17491819D02*
X64266666Y-17339438D01*
X64266666Y-17339438D02*
X64266666Y-17225152D01*
X64266666Y-17225152D02*
X64304762Y-17072771D01*
X64304762Y-17072771D02*
X64342857Y-16996580D01*
X64342857Y-16996580D02*
X64419047Y-16920390D01*
X64419047Y-16920390D02*
X64533333Y-16882295D01*
X64533333Y-16882295D02*
X64609524Y-16882295D01*
X64609524Y-16882295D02*
X64723809Y-16920390D01*
X64723809Y-16920390D02*
X64761905Y-16958485D01*
X64914286Y-17758485D02*
X65523809Y-17758485D01*
X65980952Y-17263247D02*
X66095238Y-17301342D01*
X66095238Y-17301342D02*
X66133333Y-17339438D01*
X66133333Y-17339438D02*
X66171429Y-17415628D01*
X66171429Y-17415628D02*
X66171429Y-17529914D01*
X66171429Y-17529914D02*
X66133333Y-17606104D01*
X66133333Y-17606104D02*
X66095238Y-17644200D01*
X66095238Y-17644200D02*
X66019048Y-17682295D01*
X66019048Y-17682295D02*
X65714286Y-17682295D01*
X65714286Y-17682295D02*
X65714286Y-16882295D01*
X65714286Y-16882295D02*
X65980952Y-16882295D01*
X65980952Y-16882295D02*
X66057143Y-16920390D01*
X66057143Y-16920390D02*
X66095238Y-16958485D01*
X66095238Y-16958485D02*
X66133333Y-17034676D01*
X66133333Y-17034676D02*
X66133333Y-17110866D01*
X66133333Y-17110866D02*
X66095238Y-17187057D01*
X66095238Y-17187057D02*
X66057143Y-17225152D01*
X66057143Y-17225152D02*
X65980952Y-17263247D01*
X65980952Y-17263247D02*
X65714286Y-17263247D01*
X66971429Y-17682295D02*
X66704762Y-17301342D01*
X66514286Y-17682295D02*
X66514286Y-16882295D01*
X66514286Y-16882295D02*
X66819048Y-16882295D01*
X66819048Y-16882295D02*
X66895238Y-16920390D01*
X66895238Y-16920390D02*
X66933333Y-16958485D01*
X66933333Y-16958485D02*
X66971429Y-17034676D01*
X66971429Y-17034676D02*
X66971429Y-17148961D01*
X66971429Y-17148961D02*
X66933333Y-17225152D01*
X66933333Y-17225152D02*
X66895238Y-17263247D01*
X66895238Y-17263247D02*
X66819048Y-17301342D01*
X66819048Y-17301342D02*
X66514286Y-17301342D01*
X67733333Y-17682295D02*
X67276190Y-17682295D01*
X67504762Y-17682295D02*
X67504762Y-16882295D01*
X67504762Y-16882295D02*
X67428571Y-16996580D01*
X67428571Y-16996580D02*
X67352381Y-17072771D01*
X67352381Y-17072771D02*
X67276190Y-17110866D01*
X25319048Y-24212295D02*
X25052381Y-23831342D01*
X24861905Y-24212295D02*
X24861905Y-23412295D01*
X24861905Y-23412295D02*
X25166667Y-23412295D01*
X25166667Y-23412295D02*
X25242857Y-23450390D01*
X25242857Y-23450390D02*
X25280952Y-23488485D01*
X25280952Y-23488485D02*
X25319048Y-23564676D01*
X25319048Y-23564676D02*
X25319048Y-23678961D01*
X25319048Y-23678961D02*
X25280952Y-23755152D01*
X25280952Y-23755152D02*
X25242857Y-23793247D01*
X25242857Y-23793247D02*
X25166667Y-23831342D01*
X25166667Y-23831342D02*
X24861905Y-23831342D01*
X25471429Y-24288485D02*
X26080952Y-24288485D01*
X26538095Y-23793247D02*
X26271429Y-23793247D01*
X26271429Y-24212295D02*
X26271429Y-23412295D01*
X26271429Y-23412295D02*
X26652381Y-23412295D01*
X27223809Y-23793247D02*
X27338095Y-23831342D01*
X27338095Y-23831342D02*
X27376190Y-23869438D01*
X27376190Y-23869438D02*
X27414286Y-23945628D01*
X27414286Y-23945628D02*
X27414286Y-24059914D01*
X27414286Y-24059914D02*
X27376190Y-24136104D01*
X27376190Y-24136104D02*
X27338095Y-24174200D01*
X27338095Y-24174200D02*
X27261905Y-24212295D01*
X27261905Y-24212295D02*
X26957143Y-24212295D01*
X26957143Y-24212295D02*
X26957143Y-23412295D01*
X26957143Y-23412295D02*
X27223809Y-23412295D01*
X27223809Y-23412295D02*
X27300000Y-23450390D01*
X27300000Y-23450390D02*
X27338095Y-23488485D01*
X27338095Y-23488485D02*
X27376190Y-23564676D01*
X27376190Y-23564676D02*
X27376190Y-23640866D01*
X27376190Y-23640866D02*
X27338095Y-23717057D01*
X27338095Y-23717057D02*
X27300000Y-23755152D01*
X27300000Y-23755152D02*
X27223809Y-23793247D01*
X27223809Y-23793247D02*
X26957143Y-23793247D01*
X27719047Y-23488485D02*
X27757143Y-23450390D01*
X27757143Y-23450390D02*
X27833333Y-23412295D01*
X27833333Y-23412295D02*
X28023809Y-23412295D01*
X28023809Y-23412295D02*
X28100000Y-23450390D01*
X28100000Y-23450390D02*
X28138095Y-23488485D01*
X28138095Y-23488485D02*
X28176190Y-23564676D01*
X28176190Y-23564676D02*
X28176190Y-23640866D01*
X28176190Y-23640866D02*
X28138095Y-23755152D01*
X28138095Y-23755152D02*
X27680952Y-24212295D01*
X27680952Y-24212295D02*
X28176190Y-24212295D01*
X2012295Y-47521428D02*
X2583723Y-47521428D01*
X2583723Y-47521428D02*
X2698009Y-47559523D01*
X2698009Y-47559523D02*
X2774200Y-47635714D01*
X2774200Y-47635714D02*
X2812295Y-47749999D01*
X2812295Y-47749999D02*
X2812295Y-47826190D01*
X2888485Y-47330952D02*
X2888485Y-46721428D01*
X2393247Y-46264285D02*
X2431342Y-46149999D01*
X2431342Y-46149999D02*
X2469438Y-46111904D01*
X2469438Y-46111904D02*
X2545628Y-46073808D01*
X2545628Y-46073808D02*
X2659914Y-46073808D01*
X2659914Y-46073808D02*
X2736104Y-46111904D01*
X2736104Y-46111904D02*
X2774200Y-46149999D01*
X2774200Y-46149999D02*
X2812295Y-46226189D01*
X2812295Y-46226189D02*
X2812295Y-46530951D01*
X2812295Y-46530951D02*
X2012295Y-46530951D01*
X2012295Y-46530951D02*
X2012295Y-46264285D01*
X2012295Y-46264285D02*
X2050390Y-46188094D01*
X2050390Y-46188094D02*
X2088485Y-46149999D01*
X2088485Y-46149999D02*
X2164676Y-46111904D01*
X2164676Y-46111904D02*
X2240866Y-46111904D01*
X2240866Y-46111904D02*
X2317057Y-46149999D01*
X2317057Y-46149999D02*
X2355152Y-46188094D01*
X2355152Y-46188094D02*
X2393247Y-46264285D01*
X2393247Y-46264285D02*
X2393247Y-46530951D01*
X2012295Y-45730951D02*
X2659914Y-45730951D01*
X2659914Y-45730951D02*
X2736104Y-45692856D01*
X2736104Y-45692856D02*
X2774200Y-45654761D01*
X2774200Y-45654761D02*
X2812295Y-45578570D01*
X2812295Y-45578570D02*
X2812295Y-45426189D01*
X2812295Y-45426189D02*
X2774200Y-45349999D01*
X2774200Y-45349999D02*
X2736104Y-45311904D01*
X2736104Y-45311904D02*
X2659914Y-45273808D01*
X2659914Y-45273808D02*
X2012295Y-45273808D01*
X2012295Y-44969047D02*
X2012295Y-44435713D01*
X2012295Y-44435713D02*
X2812295Y-44969047D01*
X2812295Y-44969047D02*
X2812295Y-44435713D01*
X2812295Y-43711904D02*
X2812295Y-44169047D01*
X2812295Y-43940475D02*
X2012295Y-43940475D01*
X2012295Y-43940475D02*
X2126580Y-44016666D01*
X2126580Y-44016666D02*
X2202771Y-44092856D01*
X2202771Y-44092856D02*
X2240866Y-44169047D01*
X23780952Y-49462295D02*
X23514285Y-49081342D01*
X23323809Y-49462295D02*
X23323809Y-48662295D01*
X23323809Y-48662295D02*
X23628571Y-48662295D01*
X23628571Y-48662295D02*
X23704761Y-48700390D01*
X23704761Y-48700390D02*
X23742856Y-48738485D01*
X23742856Y-48738485D02*
X23780952Y-48814676D01*
X23780952Y-48814676D02*
X23780952Y-48928961D01*
X23780952Y-48928961D02*
X23742856Y-49005152D01*
X23742856Y-49005152D02*
X23704761Y-49043247D01*
X23704761Y-49043247D02*
X23628571Y-49081342D01*
X23628571Y-49081342D02*
X23323809Y-49081342D01*
X23933333Y-49538485D02*
X24542856Y-49538485D01*
X24695237Y-49424200D02*
X24809523Y-49462295D01*
X24809523Y-49462295D02*
X24999999Y-49462295D01*
X24999999Y-49462295D02*
X25076190Y-49424200D01*
X25076190Y-49424200D02*
X25114285Y-49386104D01*
X25114285Y-49386104D02*
X25152380Y-49309914D01*
X25152380Y-49309914D02*
X25152380Y-49233723D01*
X25152380Y-49233723D02*
X25114285Y-49157533D01*
X25114285Y-49157533D02*
X25076190Y-49119438D01*
X25076190Y-49119438D02*
X24999999Y-49081342D01*
X24999999Y-49081342D02*
X24847618Y-49043247D01*
X24847618Y-49043247D02*
X24771428Y-49005152D01*
X24771428Y-49005152D02*
X24733333Y-48967057D01*
X24733333Y-48967057D02*
X24695237Y-48890866D01*
X24695237Y-48890866D02*
X24695237Y-48814676D01*
X24695237Y-48814676D02*
X24733333Y-48738485D01*
X24733333Y-48738485D02*
X24771428Y-48700390D01*
X24771428Y-48700390D02*
X24847618Y-48662295D01*
X24847618Y-48662295D02*
X25038095Y-48662295D01*
X25038095Y-48662295D02*
X25152380Y-48700390D01*
X25761904Y-49043247D02*
X25876190Y-49081342D01*
X25876190Y-49081342D02*
X25914285Y-49119438D01*
X25914285Y-49119438D02*
X25952381Y-49195628D01*
X25952381Y-49195628D02*
X25952381Y-49309914D01*
X25952381Y-49309914D02*
X25914285Y-49386104D01*
X25914285Y-49386104D02*
X25876190Y-49424200D01*
X25876190Y-49424200D02*
X25800000Y-49462295D01*
X25800000Y-49462295D02*
X25495238Y-49462295D01*
X25495238Y-49462295D02*
X25495238Y-48662295D01*
X25495238Y-48662295D02*
X25761904Y-48662295D01*
X25761904Y-48662295D02*
X25838095Y-48700390D01*
X25838095Y-48700390D02*
X25876190Y-48738485D01*
X25876190Y-48738485D02*
X25914285Y-48814676D01*
X25914285Y-48814676D02*
X25914285Y-48890866D01*
X25914285Y-48890866D02*
X25876190Y-48967057D01*
X25876190Y-48967057D02*
X25838095Y-49005152D01*
X25838095Y-49005152D02*
X25761904Y-49043247D01*
X25761904Y-49043247D02*
X25495238Y-49043247D01*
X26714285Y-49462295D02*
X26257142Y-49462295D01*
X26485714Y-49462295D02*
X26485714Y-48662295D01*
X26485714Y-48662295D02*
X26409523Y-48776580D01*
X26409523Y-48776580D02*
X26333333Y-48852771D01*
X26333333Y-48852771D02*
X26257142Y-48890866D01*
X56016666Y-2012295D02*
X56016666Y-2583723D01*
X56016666Y-2583723D02*
X55978571Y-2698009D01*
X55978571Y-2698009D02*
X55902380Y-2774200D01*
X55902380Y-2774200D02*
X55788095Y-2812295D01*
X55788095Y-2812295D02*
X55711904Y-2812295D01*
X56207143Y-2888485D02*
X56816666Y-2888485D01*
X57007143Y-2812295D02*
X57007143Y-2012295D01*
X57007143Y-2012295D02*
X57464286Y-2812295D01*
X57464286Y-2812295D02*
X57464286Y-2012295D01*
X58111904Y-2393247D02*
X57845238Y-2393247D01*
X57845238Y-2812295D02*
X57845238Y-2012295D01*
X57845238Y-2012295D02*
X58226190Y-2012295D01*
X58988095Y-2736104D02*
X58949999Y-2774200D01*
X58949999Y-2774200D02*
X58835714Y-2812295D01*
X58835714Y-2812295D02*
X58759523Y-2812295D01*
X58759523Y-2812295D02*
X58645237Y-2774200D01*
X58645237Y-2774200D02*
X58569047Y-2698009D01*
X58569047Y-2698009D02*
X58530952Y-2621819D01*
X58530952Y-2621819D02*
X58492856Y-2469438D01*
X58492856Y-2469438D02*
X58492856Y-2355152D01*
X58492856Y-2355152D02*
X58530952Y-2202771D01*
X58530952Y-2202771D02*
X58569047Y-2126580D01*
X58569047Y-2126580D02*
X58645237Y-2050390D01*
X58645237Y-2050390D02*
X58759523Y-2012295D01*
X58759523Y-2012295D02*
X58835714Y-2012295D01*
X58835714Y-2012295D02*
X58949999Y-2050390D01*
X58949999Y-2050390D02*
X58988095Y-2088485D01*
X59749999Y-2812295D02*
X59292856Y-2812295D01*
X59521428Y-2812295D02*
X59521428Y-2012295D01*
X59521428Y-2012295D02*
X59445237Y-2126580D01*
X59445237Y-2126580D02*
X59369047Y-2202771D01*
X59369047Y-2202771D02*
X59292856Y-2240866D01*
X30038095Y-30712295D02*
X29771428Y-30331342D01*
X29580952Y-30712295D02*
X29580952Y-29912295D01*
X29580952Y-29912295D02*
X29885714Y-29912295D01*
X29885714Y-29912295D02*
X29961904Y-29950390D01*
X29961904Y-29950390D02*
X29999999Y-29988485D01*
X29999999Y-29988485D02*
X30038095Y-30064676D01*
X30038095Y-30064676D02*
X30038095Y-30178961D01*
X30038095Y-30178961D02*
X29999999Y-30255152D01*
X29999999Y-30255152D02*
X29961904Y-30293247D01*
X29961904Y-30293247D02*
X29885714Y-30331342D01*
X29885714Y-30331342D02*
X29580952Y-30331342D01*
X30190476Y-30788485D02*
X30799999Y-30788485D01*
X30990476Y-30712295D02*
X30990476Y-29912295D01*
X30990476Y-29912295D02*
X31295238Y-29912295D01*
X31295238Y-29912295D02*
X31371428Y-29950390D01*
X31371428Y-29950390D02*
X31409523Y-29988485D01*
X31409523Y-29988485D02*
X31447619Y-30064676D01*
X31447619Y-30064676D02*
X31447619Y-30178961D01*
X31447619Y-30178961D02*
X31409523Y-30255152D01*
X31409523Y-30255152D02*
X31371428Y-30293247D01*
X31371428Y-30293247D02*
X31295238Y-30331342D01*
X31295238Y-30331342D02*
X30990476Y-30331342D01*
X31790476Y-30712295D02*
X31790476Y-29912295D01*
X31790476Y-29912295D02*
X31980952Y-29912295D01*
X31980952Y-29912295D02*
X32095238Y-29950390D01*
X32095238Y-29950390D02*
X32171428Y-30026580D01*
X32171428Y-30026580D02*
X32209523Y-30102771D01*
X32209523Y-30102771D02*
X32247619Y-30255152D01*
X32247619Y-30255152D02*
X32247619Y-30369438D01*
X32247619Y-30369438D02*
X32209523Y-30521819D01*
X32209523Y-30521819D02*
X32171428Y-30598009D01*
X32171428Y-30598009D02*
X32095238Y-30674200D01*
X32095238Y-30674200D02*
X31980952Y-30712295D01*
X31980952Y-30712295D02*
X31790476Y-30712295D01*
X32971428Y-30712295D02*
X32590476Y-30712295D01*
X32590476Y-30712295D02*
X32590476Y-29912295D01*
X33695238Y-30712295D02*
X33428571Y-30331342D01*
X33238095Y-30712295D02*
X33238095Y-29912295D01*
X33238095Y-29912295D02*
X33542857Y-29912295D01*
X33542857Y-29912295D02*
X33619047Y-29950390D01*
X33619047Y-29950390D02*
X33657142Y-29988485D01*
X33657142Y-29988485D02*
X33695238Y-30064676D01*
X33695238Y-30064676D02*
X33695238Y-30178961D01*
X33695238Y-30178961D02*
X33657142Y-30255152D01*
X33657142Y-30255152D02*
X33619047Y-30293247D01*
X33619047Y-30293247D02*
X33542857Y-30331342D01*
X33542857Y-30331342D02*
X33238095Y-30331342D01*
X34457142Y-30712295D02*
X33999999Y-30712295D01*
X34228571Y-30712295D02*
X34228571Y-29912295D01*
X34228571Y-29912295D02*
X34152380Y-30026580D01*
X34152380Y-30026580D02*
X34076190Y-30102771D01*
X34076190Y-30102771D02*
X33999999Y-30140866D01*
X47957143Y-18712295D02*
X47690476Y-18331342D01*
X47500000Y-18712295D02*
X47500000Y-17912295D01*
X47500000Y-17912295D02*
X47804762Y-17912295D01*
X47804762Y-17912295D02*
X47880952Y-17950390D01*
X47880952Y-17950390D02*
X47919047Y-17988485D01*
X47919047Y-17988485D02*
X47957143Y-18064676D01*
X47957143Y-18064676D02*
X47957143Y-18178961D01*
X47957143Y-18178961D02*
X47919047Y-18255152D01*
X47919047Y-18255152D02*
X47880952Y-18293247D01*
X47880952Y-18293247D02*
X47804762Y-18331342D01*
X47804762Y-18331342D02*
X47500000Y-18331342D01*
X48109524Y-18788485D02*
X48719047Y-18788485D01*
X48871428Y-18674200D02*
X48985714Y-18712295D01*
X48985714Y-18712295D02*
X49176190Y-18712295D01*
X49176190Y-18712295D02*
X49252381Y-18674200D01*
X49252381Y-18674200D02*
X49290476Y-18636104D01*
X49290476Y-18636104D02*
X49328571Y-18559914D01*
X49328571Y-18559914D02*
X49328571Y-18483723D01*
X49328571Y-18483723D02*
X49290476Y-18407533D01*
X49290476Y-18407533D02*
X49252381Y-18369438D01*
X49252381Y-18369438D02*
X49176190Y-18331342D01*
X49176190Y-18331342D02*
X49023809Y-18293247D01*
X49023809Y-18293247D02*
X48947619Y-18255152D01*
X48947619Y-18255152D02*
X48909524Y-18217057D01*
X48909524Y-18217057D02*
X48871428Y-18140866D01*
X48871428Y-18140866D02*
X48871428Y-18064676D01*
X48871428Y-18064676D02*
X48909524Y-17988485D01*
X48909524Y-17988485D02*
X48947619Y-17950390D01*
X48947619Y-17950390D02*
X49023809Y-17912295D01*
X49023809Y-17912295D02*
X49214286Y-17912295D01*
X49214286Y-17912295D02*
X49328571Y-17950390D01*
X50128572Y-18636104D02*
X50090476Y-18674200D01*
X50090476Y-18674200D02*
X49976191Y-18712295D01*
X49976191Y-18712295D02*
X49900000Y-18712295D01*
X49900000Y-18712295D02*
X49785714Y-18674200D01*
X49785714Y-18674200D02*
X49709524Y-18598009D01*
X49709524Y-18598009D02*
X49671429Y-18521819D01*
X49671429Y-18521819D02*
X49633333Y-18369438D01*
X49633333Y-18369438D02*
X49633333Y-18255152D01*
X49633333Y-18255152D02*
X49671429Y-18102771D01*
X49671429Y-18102771D02*
X49709524Y-18026580D01*
X49709524Y-18026580D02*
X49785714Y-17950390D01*
X49785714Y-17950390D02*
X49900000Y-17912295D01*
X49900000Y-17912295D02*
X49976191Y-17912295D01*
X49976191Y-17912295D02*
X50090476Y-17950390D01*
X50090476Y-17950390D02*
X50128572Y-17988485D01*
X50852381Y-18712295D02*
X50471429Y-18712295D01*
X50471429Y-18712295D02*
X50471429Y-17912295D01*
X51042857Y-17912295D02*
X51538095Y-17912295D01*
X51538095Y-17912295D02*
X51271429Y-18217057D01*
X51271429Y-18217057D02*
X51385714Y-18217057D01*
X51385714Y-18217057D02*
X51461905Y-18255152D01*
X51461905Y-18255152D02*
X51500000Y-18293247D01*
X51500000Y-18293247D02*
X51538095Y-18369438D01*
X51538095Y-18369438D02*
X51538095Y-18559914D01*
X51538095Y-18559914D02*
X51500000Y-18636104D01*
X51500000Y-18636104D02*
X51461905Y-18674200D01*
X51461905Y-18674200D02*
X51385714Y-18712295D01*
X51385714Y-18712295D02*
X51157143Y-18712295D01*
X51157143Y-18712295D02*
X51080952Y-18674200D01*
X51080952Y-18674200D02*
X51042857Y-18636104D01*
X20709524Y-13862295D02*
X20709524Y-13062295D01*
X20709524Y-13062295D02*
X20900000Y-13062295D01*
X20900000Y-13062295D02*
X21014286Y-13100390D01*
X21014286Y-13100390D02*
X21090476Y-13176580D01*
X21090476Y-13176580D02*
X21128571Y-13252771D01*
X21128571Y-13252771D02*
X21166667Y-13405152D01*
X21166667Y-13405152D02*
X21166667Y-13519438D01*
X21166667Y-13519438D02*
X21128571Y-13671819D01*
X21128571Y-13671819D02*
X21090476Y-13748009D01*
X21090476Y-13748009D02*
X21014286Y-13824200D01*
X21014286Y-13824200D02*
X20900000Y-13862295D01*
X20900000Y-13862295D02*
X20709524Y-13862295D01*
X21928571Y-13862295D02*
X21471428Y-13862295D01*
X21700000Y-13862295D02*
X21700000Y-13062295D01*
X21700000Y-13062295D02*
X21623809Y-13176580D01*
X21623809Y-13176580D02*
X21547619Y-13252771D01*
X21547619Y-13252771D02*
X21471428Y-13290866D01*
X21980952Y-30712295D02*
X21714285Y-30331342D01*
X21523809Y-30712295D02*
X21523809Y-29912295D01*
X21523809Y-29912295D02*
X21828571Y-29912295D01*
X21828571Y-29912295D02*
X21904761Y-29950390D01*
X21904761Y-29950390D02*
X21942856Y-29988485D01*
X21942856Y-29988485D02*
X21980952Y-30064676D01*
X21980952Y-30064676D02*
X21980952Y-30178961D01*
X21980952Y-30178961D02*
X21942856Y-30255152D01*
X21942856Y-30255152D02*
X21904761Y-30293247D01*
X21904761Y-30293247D02*
X21828571Y-30331342D01*
X21828571Y-30331342D02*
X21523809Y-30331342D01*
X22133333Y-30788485D02*
X22742856Y-30788485D01*
X22933333Y-30712295D02*
X22933333Y-29912295D01*
X22933333Y-29912295D02*
X23238095Y-29912295D01*
X23238095Y-29912295D02*
X23314285Y-29950390D01*
X23314285Y-29950390D02*
X23352380Y-29988485D01*
X23352380Y-29988485D02*
X23390476Y-30064676D01*
X23390476Y-30064676D02*
X23390476Y-30178961D01*
X23390476Y-30178961D02*
X23352380Y-30255152D01*
X23352380Y-30255152D02*
X23314285Y-30293247D01*
X23314285Y-30293247D02*
X23238095Y-30331342D01*
X23238095Y-30331342D02*
X22933333Y-30331342D01*
X23733333Y-30712295D02*
X23733333Y-29912295D01*
X23733333Y-29912295D02*
X23923809Y-29912295D01*
X23923809Y-29912295D02*
X24038095Y-29950390D01*
X24038095Y-29950390D02*
X24114285Y-30026580D01*
X24114285Y-30026580D02*
X24152380Y-30102771D01*
X24152380Y-30102771D02*
X24190476Y-30255152D01*
X24190476Y-30255152D02*
X24190476Y-30369438D01*
X24190476Y-30369438D02*
X24152380Y-30521819D01*
X24152380Y-30521819D02*
X24114285Y-30598009D01*
X24114285Y-30598009D02*
X24038095Y-30674200D01*
X24038095Y-30674200D02*
X23923809Y-30712295D01*
X23923809Y-30712295D02*
X23733333Y-30712295D01*
X24799999Y-30293247D02*
X24914285Y-30331342D01*
X24914285Y-30331342D02*
X24952380Y-30369438D01*
X24952380Y-30369438D02*
X24990476Y-30445628D01*
X24990476Y-30445628D02*
X24990476Y-30559914D01*
X24990476Y-30559914D02*
X24952380Y-30636104D01*
X24952380Y-30636104D02*
X24914285Y-30674200D01*
X24914285Y-30674200D02*
X24838095Y-30712295D01*
X24838095Y-30712295D02*
X24533333Y-30712295D01*
X24533333Y-30712295D02*
X24533333Y-29912295D01*
X24533333Y-29912295D02*
X24799999Y-29912295D01*
X24799999Y-29912295D02*
X24876190Y-29950390D01*
X24876190Y-29950390D02*
X24914285Y-29988485D01*
X24914285Y-29988485D02*
X24952380Y-30064676D01*
X24952380Y-30064676D02*
X24952380Y-30140866D01*
X24952380Y-30140866D02*
X24914285Y-30217057D01*
X24914285Y-30217057D02*
X24876190Y-30255152D01*
X24876190Y-30255152D02*
X24799999Y-30293247D01*
X24799999Y-30293247D02*
X24533333Y-30293247D01*
X25257142Y-29912295D02*
X25790476Y-29912295D01*
X25790476Y-29912295D02*
X25257142Y-30712295D01*
X25257142Y-30712295D02*
X25790476Y-30712295D01*
X26514285Y-30712295D02*
X26057142Y-30712295D01*
X26285714Y-30712295D02*
X26285714Y-29912295D01*
X26285714Y-29912295D02*
X26209523Y-30026580D01*
X26209523Y-30026580D02*
X26133333Y-30102771D01*
X26133333Y-30102771D02*
X26057142Y-30140866D01*
X12769048Y-16386104D02*
X12730952Y-16424200D01*
X12730952Y-16424200D02*
X12616667Y-16462295D01*
X12616667Y-16462295D02*
X12540476Y-16462295D01*
X12540476Y-16462295D02*
X12426190Y-16424200D01*
X12426190Y-16424200D02*
X12350000Y-16348009D01*
X12350000Y-16348009D02*
X12311905Y-16271819D01*
X12311905Y-16271819D02*
X12273809Y-16119438D01*
X12273809Y-16119438D02*
X12273809Y-16005152D01*
X12273809Y-16005152D02*
X12311905Y-15852771D01*
X12311905Y-15852771D02*
X12350000Y-15776580D01*
X12350000Y-15776580D02*
X12426190Y-15700390D01*
X12426190Y-15700390D02*
X12540476Y-15662295D01*
X12540476Y-15662295D02*
X12616667Y-15662295D01*
X12616667Y-15662295D02*
X12730952Y-15700390D01*
X12730952Y-15700390D02*
X12769048Y-15738485D01*
X12921429Y-16538485D02*
X13530952Y-16538485D01*
X13988095Y-16043247D02*
X14102381Y-16081342D01*
X14102381Y-16081342D02*
X14140476Y-16119438D01*
X14140476Y-16119438D02*
X14178572Y-16195628D01*
X14178572Y-16195628D02*
X14178572Y-16309914D01*
X14178572Y-16309914D02*
X14140476Y-16386104D01*
X14140476Y-16386104D02*
X14102381Y-16424200D01*
X14102381Y-16424200D02*
X14026191Y-16462295D01*
X14026191Y-16462295D02*
X13721429Y-16462295D01*
X13721429Y-16462295D02*
X13721429Y-15662295D01*
X13721429Y-15662295D02*
X13988095Y-15662295D01*
X13988095Y-15662295D02*
X14064286Y-15700390D01*
X14064286Y-15700390D02*
X14102381Y-15738485D01*
X14102381Y-15738485D02*
X14140476Y-15814676D01*
X14140476Y-15814676D02*
X14140476Y-15890866D01*
X14140476Y-15890866D02*
X14102381Y-15967057D01*
X14102381Y-15967057D02*
X14064286Y-16005152D01*
X14064286Y-16005152D02*
X13988095Y-16043247D01*
X13988095Y-16043247D02*
X13721429Y-16043247D01*
X14521429Y-15662295D02*
X14521429Y-16309914D01*
X14521429Y-16309914D02*
X14559524Y-16386104D01*
X14559524Y-16386104D02*
X14597619Y-16424200D01*
X14597619Y-16424200D02*
X14673810Y-16462295D01*
X14673810Y-16462295D02*
X14826191Y-16462295D01*
X14826191Y-16462295D02*
X14902381Y-16424200D01*
X14902381Y-16424200D02*
X14940476Y-16386104D01*
X14940476Y-16386104D02*
X14978572Y-16309914D01*
X14978572Y-16309914D02*
X14978572Y-15662295D01*
X15740476Y-16462295D02*
X15359524Y-16462295D01*
X15359524Y-16462295D02*
X15359524Y-15662295D01*
X16007143Y-16462295D02*
X16007143Y-15662295D01*
X16464286Y-16462295D02*
X16121428Y-16005152D01*
X16464286Y-15662295D02*
X16007143Y-16119438D01*
X17226190Y-16462295D02*
X16769047Y-16462295D01*
X16997619Y-16462295D02*
X16997619Y-15662295D01*
X16997619Y-15662295D02*
X16921428Y-15776580D01*
X16921428Y-15776580D02*
X16845238Y-15852771D01*
X16845238Y-15852771D02*
X16769047Y-15890866D01*
X19419048Y-24886104D02*
X19380952Y-24924200D01*
X19380952Y-24924200D02*
X19266667Y-24962295D01*
X19266667Y-24962295D02*
X19190476Y-24962295D01*
X19190476Y-24962295D02*
X19076190Y-24924200D01*
X19076190Y-24924200D02*
X19000000Y-24848009D01*
X19000000Y-24848009D02*
X18961905Y-24771819D01*
X18961905Y-24771819D02*
X18923809Y-24619438D01*
X18923809Y-24619438D02*
X18923809Y-24505152D01*
X18923809Y-24505152D02*
X18961905Y-24352771D01*
X18961905Y-24352771D02*
X19000000Y-24276580D01*
X19000000Y-24276580D02*
X19076190Y-24200390D01*
X19076190Y-24200390D02*
X19190476Y-24162295D01*
X19190476Y-24162295D02*
X19266667Y-24162295D01*
X19266667Y-24162295D02*
X19380952Y-24200390D01*
X19380952Y-24200390D02*
X19419048Y-24238485D01*
X19571429Y-25038485D02*
X20180952Y-25038485D01*
X20523810Y-24162295D02*
X20676191Y-24162295D01*
X20676191Y-24162295D02*
X20752381Y-24200390D01*
X20752381Y-24200390D02*
X20828572Y-24276580D01*
X20828572Y-24276580D02*
X20866667Y-24428961D01*
X20866667Y-24428961D02*
X20866667Y-24695628D01*
X20866667Y-24695628D02*
X20828572Y-24848009D01*
X20828572Y-24848009D02*
X20752381Y-24924200D01*
X20752381Y-24924200D02*
X20676191Y-24962295D01*
X20676191Y-24962295D02*
X20523810Y-24962295D01*
X20523810Y-24962295D02*
X20447619Y-24924200D01*
X20447619Y-24924200D02*
X20371429Y-24848009D01*
X20371429Y-24848009D02*
X20333333Y-24695628D01*
X20333333Y-24695628D02*
X20333333Y-24428961D01*
X20333333Y-24428961D02*
X20371429Y-24276580D01*
X20371429Y-24276580D02*
X20447619Y-24200390D01*
X20447619Y-24200390D02*
X20523810Y-24162295D01*
X21209524Y-24162295D02*
X21209524Y-24809914D01*
X21209524Y-24809914D02*
X21247619Y-24886104D01*
X21247619Y-24886104D02*
X21285714Y-24924200D01*
X21285714Y-24924200D02*
X21361905Y-24962295D01*
X21361905Y-24962295D02*
X21514286Y-24962295D01*
X21514286Y-24962295D02*
X21590476Y-24924200D01*
X21590476Y-24924200D02*
X21628571Y-24886104D01*
X21628571Y-24886104D02*
X21666667Y-24809914D01*
X21666667Y-24809914D02*
X21666667Y-24162295D01*
X21933333Y-24162295D02*
X22390476Y-24162295D01*
X22161904Y-24962295D02*
X22161904Y-24162295D01*
X22619047Y-24238485D02*
X22657143Y-24200390D01*
X22657143Y-24200390D02*
X22733333Y-24162295D01*
X22733333Y-24162295D02*
X22923809Y-24162295D01*
X22923809Y-24162295D02*
X23000000Y-24200390D01*
X23000000Y-24200390D02*
X23038095Y-24238485D01*
X23038095Y-24238485D02*
X23076190Y-24314676D01*
X23076190Y-24314676D02*
X23076190Y-24390866D01*
X23076190Y-24390866D02*
X23038095Y-24505152D01*
X23038095Y-24505152D02*
X22580952Y-24962295D01*
X22580952Y-24962295D02*
X23076190Y-24962295D01*
X18573809Y-2012295D02*
X18573809Y-2583723D01*
X18573809Y-2583723D02*
X18535714Y-2698009D01*
X18535714Y-2698009D02*
X18459523Y-2774200D01*
X18459523Y-2774200D02*
X18345238Y-2812295D01*
X18345238Y-2812295D02*
X18269047Y-2812295D01*
X18764286Y-2888485D02*
X19373809Y-2888485D01*
X19564286Y-2812295D02*
X19564286Y-2012295D01*
X20021429Y-2812295D02*
X19678571Y-2355152D01*
X20021429Y-2012295D02*
X19564286Y-2469438D01*
X20364286Y-2393247D02*
X20630952Y-2393247D01*
X20745238Y-2812295D02*
X20364286Y-2812295D01*
X20364286Y-2812295D02*
X20364286Y-2012295D01*
X20364286Y-2012295D02*
X20745238Y-2012295D01*
X21240477Y-2431342D02*
X21240477Y-2812295D01*
X20973810Y-2012295D02*
X21240477Y-2431342D01*
X21240477Y-2431342D02*
X21507143Y-2012295D01*
X22192857Y-2812295D02*
X21735714Y-2812295D01*
X21964286Y-2812295D02*
X21964286Y-2012295D01*
X21964286Y-2012295D02*
X21888095Y-2126580D01*
X21888095Y-2126580D02*
X21811905Y-2202771D01*
X21811905Y-2202771D02*
X21735714Y-2240866D01*
X30438095Y-27712295D02*
X30171428Y-27331342D01*
X29980952Y-27712295D02*
X29980952Y-26912295D01*
X29980952Y-26912295D02*
X30285714Y-26912295D01*
X30285714Y-26912295D02*
X30361904Y-26950390D01*
X30361904Y-26950390D02*
X30399999Y-26988485D01*
X30399999Y-26988485D02*
X30438095Y-27064676D01*
X30438095Y-27064676D02*
X30438095Y-27178961D01*
X30438095Y-27178961D02*
X30399999Y-27255152D01*
X30399999Y-27255152D02*
X30361904Y-27293247D01*
X30361904Y-27293247D02*
X30285714Y-27331342D01*
X30285714Y-27331342D02*
X29980952Y-27331342D01*
X30590476Y-27788485D02*
X31199999Y-27788485D01*
X31809523Y-26950390D02*
X31733333Y-26912295D01*
X31733333Y-26912295D02*
X31619047Y-26912295D01*
X31619047Y-26912295D02*
X31504761Y-26950390D01*
X31504761Y-26950390D02*
X31428571Y-27026580D01*
X31428571Y-27026580D02*
X31390476Y-27102771D01*
X31390476Y-27102771D02*
X31352380Y-27255152D01*
X31352380Y-27255152D02*
X31352380Y-27369438D01*
X31352380Y-27369438D02*
X31390476Y-27521819D01*
X31390476Y-27521819D02*
X31428571Y-27598009D01*
X31428571Y-27598009D02*
X31504761Y-27674200D01*
X31504761Y-27674200D02*
X31619047Y-27712295D01*
X31619047Y-27712295D02*
X31695238Y-27712295D01*
X31695238Y-27712295D02*
X31809523Y-27674200D01*
X31809523Y-27674200D02*
X31847619Y-27636104D01*
X31847619Y-27636104D02*
X31847619Y-27369438D01*
X31847619Y-27369438D02*
X31695238Y-27369438D01*
X32571428Y-27712295D02*
X32190476Y-27712295D01*
X32190476Y-27712295D02*
X32190476Y-26912295D01*
X33295238Y-27712295D02*
X33028571Y-27331342D01*
X32838095Y-27712295D02*
X32838095Y-26912295D01*
X32838095Y-26912295D02*
X33142857Y-26912295D01*
X33142857Y-26912295D02*
X33219047Y-26950390D01*
X33219047Y-26950390D02*
X33257142Y-26988485D01*
X33257142Y-26988485D02*
X33295238Y-27064676D01*
X33295238Y-27064676D02*
X33295238Y-27178961D01*
X33295238Y-27178961D02*
X33257142Y-27255152D01*
X33257142Y-27255152D02*
X33219047Y-27293247D01*
X33219047Y-27293247D02*
X33142857Y-27331342D01*
X33142857Y-27331342D02*
X32838095Y-27331342D01*
X34057142Y-27712295D02*
X33599999Y-27712295D01*
X33828571Y-27712295D02*
X33828571Y-26912295D01*
X33828571Y-26912295D02*
X33752380Y-27026580D01*
X33752380Y-27026580D02*
X33676190Y-27102771D01*
X33676190Y-27102771D02*
X33599999Y-27140866D01*
X42495238Y-14038485D02*
X42419048Y-14000390D01*
X42419048Y-14000390D02*
X42342857Y-13924200D01*
X42342857Y-13924200D02*
X42228571Y-13809914D01*
X42228571Y-13809914D02*
X42152381Y-13771819D01*
X42152381Y-13771819D02*
X42076190Y-13771819D01*
X42114286Y-13962295D02*
X42038095Y-13924200D01*
X42038095Y-13924200D02*
X41961905Y-13848009D01*
X41961905Y-13848009D02*
X41923809Y-13695628D01*
X41923809Y-13695628D02*
X41923809Y-13428961D01*
X41923809Y-13428961D02*
X41961905Y-13276580D01*
X41961905Y-13276580D02*
X42038095Y-13200390D01*
X42038095Y-13200390D02*
X42114286Y-13162295D01*
X42114286Y-13162295D02*
X42266667Y-13162295D01*
X42266667Y-13162295D02*
X42342857Y-13200390D01*
X42342857Y-13200390D02*
X42419048Y-13276580D01*
X42419048Y-13276580D02*
X42457143Y-13428961D01*
X42457143Y-13428961D02*
X42457143Y-13695628D01*
X42457143Y-13695628D02*
X42419048Y-13848009D01*
X42419048Y-13848009D02*
X42342857Y-13924200D01*
X42342857Y-13924200D02*
X42266667Y-13962295D01*
X42266667Y-13962295D02*
X42114286Y-13962295D01*
X42609524Y-14038485D02*
X43219047Y-14038485D01*
X43371428Y-13924200D02*
X43485714Y-13962295D01*
X43485714Y-13962295D02*
X43676190Y-13962295D01*
X43676190Y-13962295D02*
X43752381Y-13924200D01*
X43752381Y-13924200D02*
X43790476Y-13886104D01*
X43790476Y-13886104D02*
X43828571Y-13809914D01*
X43828571Y-13809914D02*
X43828571Y-13733723D01*
X43828571Y-13733723D02*
X43790476Y-13657533D01*
X43790476Y-13657533D02*
X43752381Y-13619438D01*
X43752381Y-13619438D02*
X43676190Y-13581342D01*
X43676190Y-13581342D02*
X43523809Y-13543247D01*
X43523809Y-13543247D02*
X43447619Y-13505152D01*
X43447619Y-13505152D02*
X43409524Y-13467057D01*
X43409524Y-13467057D02*
X43371428Y-13390866D01*
X43371428Y-13390866D02*
X43371428Y-13314676D01*
X43371428Y-13314676D02*
X43409524Y-13238485D01*
X43409524Y-13238485D02*
X43447619Y-13200390D01*
X43447619Y-13200390D02*
X43523809Y-13162295D01*
X43523809Y-13162295D02*
X43714286Y-13162295D01*
X43714286Y-13162295D02*
X43828571Y-13200390D01*
X44171429Y-13962295D02*
X44171429Y-13162295D01*
X44171429Y-13162295D02*
X44361905Y-13162295D01*
X44361905Y-13162295D02*
X44476191Y-13200390D01*
X44476191Y-13200390D02*
X44552381Y-13276580D01*
X44552381Y-13276580D02*
X44590476Y-13352771D01*
X44590476Y-13352771D02*
X44628572Y-13505152D01*
X44628572Y-13505152D02*
X44628572Y-13619438D01*
X44628572Y-13619438D02*
X44590476Y-13771819D01*
X44590476Y-13771819D02*
X44552381Y-13848009D01*
X44552381Y-13848009D02*
X44476191Y-13924200D01*
X44476191Y-13924200D02*
X44361905Y-13962295D01*
X44361905Y-13962295D02*
X44171429Y-13962295D01*
X44933333Y-13733723D02*
X45314286Y-13733723D01*
X44857143Y-13962295D02*
X45123810Y-13162295D01*
X45123810Y-13162295D02*
X45390476Y-13962295D01*
X46076190Y-13962295D02*
X45619047Y-13962295D01*
X45847619Y-13962295D02*
X45847619Y-13162295D01*
X45847619Y-13162295D02*
X45771428Y-13276580D01*
X45771428Y-13276580D02*
X45695238Y-13352771D01*
X45695238Y-13352771D02*
X45619047Y-13390866D01*
X14933333Y-12113247D02*
X14666667Y-12113247D01*
X14666667Y-12532295D02*
X14666667Y-11732295D01*
X14666667Y-11732295D02*
X15047619Y-11732295D01*
X15771428Y-12532295D02*
X15314285Y-12532295D01*
X15542857Y-12532295D02*
X15542857Y-11732295D01*
X15542857Y-11732295D02*
X15466666Y-11846580D01*
X15466666Y-11846580D02*
X15390476Y-11922771D01*
X15390476Y-11922771D02*
X15314285Y-11960866D01*
X14438095Y-27712295D02*
X14171428Y-27331342D01*
X13980952Y-27712295D02*
X13980952Y-26912295D01*
X13980952Y-26912295D02*
X14285714Y-26912295D01*
X14285714Y-26912295D02*
X14361904Y-26950390D01*
X14361904Y-26950390D02*
X14399999Y-26988485D01*
X14399999Y-26988485D02*
X14438095Y-27064676D01*
X14438095Y-27064676D02*
X14438095Y-27178961D01*
X14438095Y-27178961D02*
X14399999Y-27255152D01*
X14399999Y-27255152D02*
X14361904Y-27293247D01*
X14361904Y-27293247D02*
X14285714Y-27331342D01*
X14285714Y-27331342D02*
X13980952Y-27331342D01*
X14590476Y-27788485D02*
X15199999Y-27788485D01*
X15809523Y-26950390D02*
X15733333Y-26912295D01*
X15733333Y-26912295D02*
X15619047Y-26912295D01*
X15619047Y-26912295D02*
X15504761Y-26950390D01*
X15504761Y-26950390D02*
X15428571Y-27026580D01*
X15428571Y-27026580D02*
X15390476Y-27102771D01*
X15390476Y-27102771D02*
X15352380Y-27255152D01*
X15352380Y-27255152D02*
X15352380Y-27369438D01*
X15352380Y-27369438D02*
X15390476Y-27521819D01*
X15390476Y-27521819D02*
X15428571Y-27598009D01*
X15428571Y-27598009D02*
X15504761Y-27674200D01*
X15504761Y-27674200D02*
X15619047Y-27712295D01*
X15619047Y-27712295D02*
X15695238Y-27712295D01*
X15695238Y-27712295D02*
X15809523Y-27674200D01*
X15809523Y-27674200D02*
X15847619Y-27636104D01*
X15847619Y-27636104D02*
X15847619Y-27369438D01*
X15847619Y-27369438D02*
X15695238Y-27369438D01*
X16571428Y-27712295D02*
X16190476Y-27712295D01*
X16190476Y-27712295D02*
X16190476Y-26912295D01*
X17104761Y-27293247D02*
X17219047Y-27331342D01*
X17219047Y-27331342D02*
X17257142Y-27369438D01*
X17257142Y-27369438D02*
X17295238Y-27445628D01*
X17295238Y-27445628D02*
X17295238Y-27559914D01*
X17295238Y-27559914D02*
X17257142Y-27636104D01*
X17257142Y-27636104D02*
X17219047Y-27674200D01*
X17219047Y-27674200D02*
X17142857Y-27712295D01*
X17142857Y-27712295D02*
X16838095Y-27712295D01*
X16838095Y-27712295D02*
X16838095Y-26912295D01*
X16838095Y-26912295D02*
X17104761Y-26912295D01*
X17104761Y-26912295D02*
X17180952Y-26950390D01*
X17180952Y-26950390D02*
X17219047Y-26988485D01*
X17219047Y-26988485D02*
X17257142Y-27064676D01*
X17257142Y-27064676D02*
X17257142Y-27140866D01*
X17257142Y-27140866D02*
X17219047Y-27217057D01*
X17219047Y-27217057D02*
X17180952Y-27255152D01*
X17180952Y-27255152D02*
X17104761Y-27293247D01*
X17104761Y-27293247D02*
X16838095Y-27293247D01*
X18057142Y-27712295D02*
X17599999Y-27712295D01*
X17828571Y-27712295D02*
X17828571Y-26912295D01*
X17828571Y-26912295D02*
X17752380Y-27026580D01*
X17752380Y-27026580D02*
X17676190Y-27102771D01*
X17676190Y-27102771D02*
X17599999Y-27140866D01*
X26838485Y-36661904D02*
X26800390Y-36738094D01*
X26800390Y-36738094D02*
X26724200Y-36814285D01*
X26724200Y-36814285D02*
X26609914Y-36928571D01*
X26609914Y-36928571D02*
X26571819Y-37004761D01*
X26571819Y-37004761D02*
X26571819Y-37080952D01*
X26762295Y-37042856D02*
X26724200Y-37119047D01*
X26724200Y-37119047D02*
X26648009Y-37195237D01*
X26648009Y-37195237D02*
X26495628Y-37233333D01*
X26495628Y-37233333D02*
X26228961Y-37233333D01*
X26228961Y-37233333D02*
X26076580Y-37195237D01*
X26076580Y-37195237D02*
X26000390Y-37119047D01*
X26000390Y-37119047D02*
X25962295Y-37042856D01*
X25962295Y-37042856D02*
X25962295Y-36890475D01*
X25962295Y-36890475D02*
X26000390Y-36814285D01*
X26000390Y-36814285D02*
X26076580Y-36738094D01*
X26076580Y-36738094D02*
X26228961Y-36699999D01*
X26228961Y-36699999D02*
X26495628Y-36699999D01*
X26495628Y-36699999D02*
X26648009Y-36738094D01*
X26648009Y-36738094D02*
X26724200Y-36814285D01*
X26724200Y-36814285D02*
X26762295Y-36890475D01*
X26762295Y-36890475D02*
X26762295Y-37042856D01*
X26838485Y-36547619D02*
X26838485Y-35938095D01*
X26343247Y-35480952D02*
X26381342Y-35366666D01*
X26381342Y-35366666D02*
X26419438Y-35328571D01*
X26419438Y-35328571D02*
X26495628Y-35290475D01*
X26495628Y-35290475D02*
X26609914Y-35290475D01*
X26609914Y-35290475D02*
X26686104Y-35328571D01*
X26686104Y-35328571D02*
X26724200Y-35366666D01*
X26724200Y-35366666D02*
X26762295Y-35442856D01*
X26762295Y-35442856D02*
X26762295Y-35747618D01*
X26762295Y-35747618D02*
X25962295Y-35747618D01*
X25962295Y-35747618D02*
X25962295Y-35480952D01*
X25962295Y-35480952D02*
X26000390Y-35404761D01*
X26000390Y-35404761D02*
X26038485Y-35366666D01*
X26038485Y-35366666D02*
X26114676Y-35328571D01*
X26114676Y-35328571D02*
X26190866Y-35328571D01*
X26190866Y-35328571D02*
X26267057Y-35366666D01*
X26267057Y-35366666D02*
X26305152Y-35404761D01*
X26305152Y-35404761D02*
X26343247Y-35480952D01*
X26343247Y-35480952D02*
X26343247Y-35747618D01*
X25962295Y-35023809D02*
X25962295Y-34490475D01*
X25962295Y-34490475D02*
X26762295Y-35023809D01*
X26762295Y-35023809D02*
X26762295Y-34490475D01*
X26762295Y-33766666D02*
X26762295Y-34223809D01*
X26762295Y-33995237D02*
X25962295Y-33995237D01*
X25962295Y-33995237D02*
X26076580Y-34071428D01*
X26076580Y-34071428D02*
X26152771Y-34147618D01*
X26152771Y-34147618D02*
X26190866Y-34223809D01*
X41612295Y-27266666D02*
X42183723Y-27266666D01*
X42183723Y-27266666D02*
X42298009Y-27304761D01*
X42298009Y-27304761D02*
X42374200Y-27380952D01*
X42374200Y-27380952D02*
X42412295Y-27495237D01*
X42412295Y-27495237D02*
X42412295Y-27571428D01*
X41612295Y-26961904D02*
X41612295Y-26466666D01*
X41612295Y-26466666D02*
X41917057Y-26733332D01*
X41917057Y-26733332D02*
X41917057Y-26619047D01*
X41917057Y-26619047D02*
X41955152Y-26542856D01*
X41955152Y-26542856D02*
X41993247Y-26504761D01*
X41993247Y-26504761D02*
X42069438Y-26466666D01*
X42069438Y-26466666D02*
X42259914Y-26466666D01*
X42259914Y-26466666D02*
X42336104Y-26504761D01*
X42336104Y-26504761D02*
X42374200Y-26542856D01*
X42374200Y-26542856D02*
X42412295Y-26619047D01*
X42412295Y-26619047D02*
X42412295Y-26847618D01*
X42412295Y-26847618D02*
X42374200Y-26923809D01*
X42374200Y-26923809D02*
X42336104Y-26961904D01*
X33662294Y-15633333D02*
X33662294Y-16014285D01*
X33662294Y-16014285D02*
X32862294Y-16014285D01*
X33662294Y-14947619D02*
X33662294Y-15404762D01*
X33662294Y-15176190D02*
X32862294Y-15176190D01*
X32862294Y-15176190D02*
X32976579Y-15252381D01*
X32976579Y-15252381D02*
X33052770Y-15328571D01*
X33052770Y-15328571D02*
X33090865Y-15404762D01*
X14038095Y-30712295D02*
X13771428Y-30331342D01*
X13580952Y-30712295D02*
X13580952Y-29912295D01*
X13580952Y-29912295D02*
X13885714Y-29912295D01*
X13885714Y-29912295D02*
X13961904Y-29950390D01*
X13961904Y-29950390D02*
X13999999Y-29988485D01*
X13999999Y-29988485D02*
X14038095Y-30064676D01*
X14038095Y-30064676D02*
X14038095Y-30178961D01*
X14038095Y-30178961D02*
X13999999Y-30255152D01*
X13999999Y-30255152D02*
X13961904Y-30293247D01*
X13961904Y-30293247D02*
X13885714Y-30331342D01*
X13885714Y-30331342D02*
X13580952Y-30331342D01*
X14190476Y-30788485D02*
X14799999Y-30788485D01*
X14990476Y-30712295D02*
X14990476Y-29912295D01*
X14990476Y-29912295D02*
X15295238Y-29912295D01*
X15295238Y-29912295D02*
X15371428Y-29950390D01*
X15371428Y-29950390D02*
X15409523Y-29988485D01*
X15409523Y-29988485D02*
X15447619Y-30064676D01*
X15447619Y-30064676D02*
X15447619Y-30178961D01*
X15447619Y-30178961D02*
X15409523Y-30255152D01*
X15409523Y-30255152D02*
X15371428Y-30293247D01*
X15371428Y-30293247D02*
X15295238Y-30331342D01*
X15295238Y-30331342D02*
X14990476Y-30331342D01*
X15790476Y-30712295D02*
X15790476Y-29912295D01*
X15790476Y-29912295D02*
X15980952Y-29912295D01*
X15980952Y-29912295D02*
X16095238Y-29950390D01*
X16095238Y-29950390D02*
X16171428Y-30026580D01*
X16171428Y-30026580D02*
X16209523Y-30102771D01*
X16209523Y-30102771D02*
X16247619Y-30255152D01*
X16247619Y-30255152D02*
X16247619Y-30369438D01*
X16247619Y-30369438D02*
X16209523Y-30521819D01*
X16209523Y-30521819D02*
X16171428Y-30598009D01*
X16171428Y-30598009D02*
X16095238Y-30674200D01*
X16095238Y-30674200D02*
X15980952Y-30712295D01*
X15980952Y-30712295D02*
X15790476Y-30712295D01*
X16971428Y-30712295D02*
X16590476Y-30712295D01*
X16590476Y-30712295D02*
X16590476Y-29912295D01*
X17504761Y-30293247D02*
X17619047Y-30331342D01*
X17619047Y-30331342D02*
X17657142Y-30369438D01*
X17657142Y-30369438D02*
X17695238Y-30445628D01*
X17695238Y-30445628D02*
X17695238Y-30559914D01*
X17695238Y-30559914D02*
X17657142Y-30636104D01*
X17657142Y-30636104D02*
X17619047Y-30674200D01*
X17619047Y-30674200D02*
X17542857Y-30712295D01*
X17542857Y-30712295D02*
X17238095Y-30712295D01*
X17238095Y-30712295D02*
X17238095Y-29912295D01*
X17238095Y-29912295D02*
X17504761Y-29912295D01*
X17504761Y-29912295D02*
X17580952Y-29950390D01*
X17580952Y-29950390D02*
X17619047Y-29988485D01*
X17619047Y-29988485D02*
X17657142Y-30064676D01*
X17657142Y-30064676D02*
X17657142Y-30140866D01*
X17657142Y-30140866D02*
X17619047Y-30217057D01*
X17619047Y-30217057D02*
X17580952Y-30255152D01*
X17580952Y-30255152D02*
X17504761Y-30293247D01*
X17504761Y-30293247D02*
X17238095Y-30293247D01*
X18457142Y-30712295D02*
X17999999Y-30712295D01*
X18228571Y-30712295D02*
X18228571Y-29912295D01*
X18228571Y-29912295D02*
X18152380Y-30026580D01*
X18152380Y-30026580D02*
X18076190Y-30102771D01*
X18076190Y-30102771D02*
X17999999Y-30140866D01*
X34012295Y-40985713D02*
X33631342Y-41252380D01*
X34012295Y-41442856D02*
X33212295Y-41442856D01*
X33212295Y-41442856D02*
X33212295Y-41138094D01*
X33212295Y-41138094D02*
X33250390Y-41061904D01*
X33250390Y-41061904D02*
X33288485Y-41023809D01*
X33288485Y-41023809D02*
X33364676Y-40985713D01*
X33364676Y-40985713D02*
X33478961Y-40985713D01*
X33478961Y-40985713D02*
X33555152Y-41023809D01*
X33555152Y-41023809D02*
X33593247Y-41061904D01*
X33593247Y-41061904D02*
X33631342Y-41138094D01*
X33631342Y-41138094D02*
X33631342Y-41442856D01*
X34088485Y-40833333D02*
X34088485Y-40223809D01*
X34012295Y-39652380D02*
X34012295Y-40033332D01*
X34012295Y-40033332D02*
X33212295Y-40033332D01*
X34012295Y-39004761D02*
X34012295Y-39385713D01*
X34012295Y-39385713D02*
X33212295Y-39385713D01*
X34012295Y-38280951D02*
X33631342Y-38547618D01*
X34012295Y-38738094D02*
X33212295Y-38738094D01*
X33212295Y-38738094D02*
X33212295Y-38433332D01*
X33212295Y-38433332D02*
X33250390Y-38357142D01*
X33250390Y-38357142D02*
X33288485Y-38319047D01*
X33288485Y-38319047D02*
X33364676Y-38280951D01*
X33364676Y-38280951D02*
X33478961Y-38280951D01*
X33478961Y-38280951D02*
X33555152Y-38319047D01*
X33555152Y-38319047D02*
X33593247Y-38357142D01*
X33593247Y-38357142D02*
X33631342Y-38433332D01*
X33631342Y-38433332D02*
X33631342Y-38738094D01*
X34012295Y-37519047D02*
X34012295Y-37976190D01*
X34012295Y-37747618D02*
X33212295Y-37747618D01*
X33212295Y-37747618D02*
X33326580Y-37823809D01*
X33326580Y-37823809D02*
X33402771Y-37899999D01*
X33402771Y-37899999D02*
X33440866Y-37976190D01*
X19419048Y-18686104D02*
X19380952Y-18724200D01*
X19380952Y-18724200D02*
X19266667Y-18762295D01*
X19266667Y-18762295D02*
X19190476Y-18762295D01*
X19190476Y-18762295D02*
X19076190Y-18724200D01*
X19076190Y-18724200D02*
X19000000Y-18648009D01*
X19000000Y-18648009D02*
X18961905Y-18571819D01*
X18961905Y-18571819D02*
X18923809Y-18419438D01*
X18923809Y-18419438D02*
X18923809Y-18305152D01*
X18923809Y-18305152D02*
X18961905Y-18152771D01*
X18961905Y-18152771D02*
X19000000Y-18076580D01*
X19000000Y-18076580D02*
X19076190Y-18000390D01*
X19076190Y-18000390D02*
X19190476Y-17962295D01*
X19190476Y-17962295D02*
X19266667Y-17962295D01*
X19266667Y-17962295D02*
X19380952Y-18000390D01*
X19380952Y-18000390D02*
X19419048Y-18038485D01*
X19571429Y-18838485D02*
X20180952Y-18838485D01*
X20523810Y-17962295D02*
X20676191Y-17962295D01*
X20676191Y-17962295D02*
X20752381Y-18000390D01*
X20752381Y-18000390D02*
X20828572Y-18076580D01*
X20828572Y-18076580D02*
X20866667Y-18228961D01*
X20866667Y-18228961D02*
X20866667Y-18495628D01*
X20866667Y-18495628D02*
X20828572Y-18648009D01*
X20828572Y-18648009D02*
X20752381Y-18724200D01*
X20752381Y-18724200D02*
X20676191Y-18762295D01*
X20676191Y-18762295D02*
X20523810Y-18762295D01*
X20523810Y-18762295D02*
X20447619Y-18724200D01*
X20447619Y-18724200D02*
X20371429Y-18648009D01*
X20371429Y-18648009D02*
X20333333Y-18495628D01*
X20333333Y-18495628D02*
X20333333Y-18228961D01*
X20333333Y-18228961D02*
X20371429Y-18076580D01*
X20371429Y-18076580D02*
X20447619Y-18000390D01*
X20447619Y-18000390D02*
X20523810Y-17962295D01*
X21209524Y-17962295D02*
X21209524Y-18609914D01*
X21209524Y-18609914D02*
X21247619Y-18686104D01*
X21247619Y-18686104D02*
X21285714Y-18724200D01*
X21285714Y-18724200D02*
X21361905Y-18762295D01*
X21361905Y-18762295D02*
X21514286Y-18762295D01*
X21514286Y-18762295D02*
X21590476Y-18724200D01*
X21590476Y-18724200D02*
X21628571Y-18686104D01*
X21628571Y-18686104D02*
X21666667Y-18609914D01*
X21666667Y-18609914D02*
X21666667Y-17962295D01*
X21933333Y-17962295D02*
X22390476Y-17962295D01*
X22161904Y-18762295D02*
X22161904Y-17962295D01*
X23076190Y-18762295D02*
X22619047Y-18762295D01*
X22847619Y-18762295D02*
X22847619Y-17962295D01*
X22847619Y-17962295D02*
X22771428Y-18076580D01*
X22771428Y-18076580D02*
X22695238Y-18152771D01*
X22695238Y-18152771D02*
X22619047Y-18190866D01*
X33336103Y-22847618D02*
X33374199Y-22885714D01*
X33374199Y-22885714D02*
X33412294Y-22999999D01*
X33412294Y-22999999D02*
X33412294Y-23076190D01*
X33412294Y-23076190D02*
X33374199Y-23190476D01*
X33374199Y-23190476D02*
X33298008Y-23266666D01*
X33298008Y-23266666D02*
X33221818Y-23304761D01*
X33221818Y-23304761D02*
X33069437Y-23342857D01*
X33069437Y-23342857D02*
X32955151Y-23342857D01*
X32955151Y-23342857D02*
X32802770Y-23304761D01*
X32802770Y-23304761D02*
X32726579Y-23266666D01*
X32726579Y-23266666D02*
X32650389Y-23190476D01*
X32650389Y-23190476D02*
X32612294Y-23076190D01*
X32612294Y-23076190D02*
X32612294Y-22999999D01*
X32612294Y-22999999D02*
X32650389Y-22885714D01*
X32650389Y-22885714D02*
X32688484Y-22847618D01*
X33488484Y-22695238D02*
X33488484Y-22085714D01*
X33412294Y-21895237D02*
X32612294Y-21895237D01*
X33412294Y-21514285D02*
X32612294Y-21514285D01*
X32612294Y-21514285D02*
X33412294Y-21057142D01*
X33412294Y-21057142D02*
X32612294Y-21057142D01*
X33412294Y-20257143D02*
X33412294Y-20714286D01*
X33412294Y-20485714D02*
X32612294Y-20485714D01*
X32612294Y-20485714D02*
X32726579Y-20561905D01*
X32726579Y-20561905D02*
X32802770Y-20638095D01*
X32802770Y-20638095D02*
X32840865Y-20714286D01*
X27211904Y-2012295D02*
X27211904Y-2583723D01*
X27211904Y-2583723D02*
X27173809Y-2698009D01*
X27173809Y-2698009D02*
X27097618Y-2774200D01*
X27097618Y-2774200D02*
X26983333Y-2812295D01*
X26983333Y-2812295D02*
X26907142Y-2812295D01*
X27402381Y-2888485D02*
X28011904Y-2888485D01*
X28202381Y-2812295D02*
X28202381Y-2012295D01*
X28202381Y-2393247D02*
X28659524Y-2393247D01*
X28659524Y-2812295D02*
X28659524Y-2012295D01*
X29307142Y-2393247D02*
X29421428Y-2431342D01*
X29421428Y-2431342D02*
X29459523Y-2469438D01*
X29459523Y-2469438D02*
X29497619Y-2545628D01*
X29497619Y-2545628D02*
X29497619Y-2659914D01*
X29497619Y-2659914D02*
X29459523Y-2736104D01*
X29459523Y-2736104D02*
X29421428Y-2774200D01*
X29421428Y-2774200D02*
X29345238Y-2812295D01*
X29345238Y-2812295D02*
X29040476Y-2812295D01*
X29040476Y-2812295D02*
X29040476Y-2012295D01*
X29040476Y-2012295D02*
X29307142Y-2012295D01*
X29307142Y-2012295D02*
X29383333Y-2050390D01*
X29383333Y-2050390D02*
X29421428Y-2088485D01*
X29421428Y-2088485D02*
X29459523Y-2164676D01*
X29459523Y-2164676D02*
X29459523Y-2240866D01*
X29459523Y-2240866D02*
X29421428Y-2317057D01*
X29421428Y-2317057D02*
X29383333Y-2355152D01*
X29383333Y-2355152D02*
X29307142Y-2393247D01*
X29307142Y-2393247D02*
X29040476Y-2393247D01*
X29802380Y-2583723D02*
X30183333Y-2583723D01*
X29726190Y-2812295D02*
X29992857Y-2012295D01*
X29992857Y-2012295D02*
X30259523Y-2812295D01*
X30411904Y-2012295D02*
X30869047Y-2012295D01*
X30640475Y-2812295D02*
X30640475Y-2012295D01*
X31554761Y-2812295D02*
X31097618Y-2812295D01*
X31326190Y-2812295D02*
X31326190Y-2012295D01*
X31326190Y-2012295D02*
X31249999Y-2126580D01*
X31249999Y-2126580D02*
X31173809Y-2202771D01*
X31173809Y-2202771D02*
X31097618Y-2240866D01*
X17219048Y-26362295D02*
X16952381Y-25981342D01*
X16761905Y-26362295D02*
X16761905Y-25562295D01*
X16761905Y-25562295D02*
X17066667Y-25562295D01*
X17066667Y-25562295D02*
X17142857Y-25600390D01*
X17142857Y-25600390D02*
X17180952Y-25638485D01*
X17180952Y-25638485D02*
X17219048Y-25714676D01*
X17219048Y-25714676D02*
X17219048Y-25828961D01*
X17219048Y-25828961D02*
X17180952Y-25905152D01*
X17180952Y-25905152D02*
X17142857Y-25943247D01*
X17142857Y-25943247D02*
X17066667Y-25981342D01*
X17066667Y-25981342D02*
X16761905Y-25981342D01*
X17371429Y-26438485D02*
X17980952Y-26438485D01*
X18438095Y-25943247D02*
X18171429Y-25943247D01*
X18171429Y-26362295D02*
X18171429Y-25562295D01*
X18171429Y-25562295D02*
X18552381Y-25562295D01*
X19123809Y-25943247D02*
X19238095Y-25981342D01*
X19238095Y-25981342D02*
X19276190Y-26019438D01*
X19276190Y-26019438D02*
X19314286Y-26095628D01*
X19314286Y-26095628D02*
X19314286Y-26209914D01*
X19314286Y-26209914D02*
X19276190Y-26286104D01*
X19276190Y-26286104D02*
X19238095Y-26324200D01*
X19238095Y-26324200D02*
X19161905Y-26362295D01*
X19161905Y-26362295D02*
X18857143Y-26362295D01*
X18857143Y-26362295D02*
X18857143Y-25562295D01*
X18857143Y-25562295D02*
X19123809Y-25562295D01*
X19123809Y-25562295D02*
X19200000Y-25600390D01*
X19200000Y-25600390D02*
X19238095Y-25638485D01*
X19238095Y-25638485D02*
X19276190Y-25714676D01*
X19276190Y-25714676D02*
X19276190Y-25790866D01*
X19276190Y-25790866D02*
X19238095Y-25867057D01*
X19238095Y-25867057D02*
X19200000Y-25905152D01*
X19200000Y-25905152D02*
X19123809Y-25943247D01*
X19123809Y-25943247D02*
X18857143Y-25943247D01*
X20076190Y-26362295D02*
X19619047Y-26362295D01*
X19847619Y-26362295D02*
X19847619Y-25562295D01*
X19847619Y-25562295D02*
X19771428Y-25676580D01*
X19771428Y-25676580D02*
X19695238Y-25752771D01*
X19695238Y-25752771D02*
X19619047Y-25790866D01*
X29112295Y-22109523D02*
X29759914Y-22109523D01*
X29759914Y-22109523D02*
X29836104Y-22071428D01*
X29836104Y-22071428D02*
X29874200Y-22033333D01*
X29874200Y-22033333D02*
X29912295Y-21957142D01*
X29912295Y-21957142D02*
X29912295Y-21804761D01*
X29912295Y-21804761D02*
X29874200Y-21728571D01*
X29874200Y-21728571D02*
X29836104Y-21690476D01*
X29836104Y-21690476D02*
X29759914Y-21652380D01*
X29759914Y-21652380D02*
X29112295Y-21652380D01*
X29912295Y-20852381D02*
X29912295Y-21309524D01*
X29912295Y-21080952D02*
X29112295Y-21080952D01*
X29112295Y-21080952D02*
X29226580Y-21157143D01*
X29226580Y-21157143D02*
X29302771Y-21233333D01*
X29302771Y-21233333D02*
X29340866Y-21309524D01*
X41612295Y-50126666D02*
X42183723Y-50126666D01*
X42183723Y-50126666D02*
X42298009Y-50164761D01*
X42298009Y-50164761D02*
X42374200Y-50240952D01*
X42374200Y-50240952D02*
X42412295Y-50355237D01*
X42412295Y-50355237D02*
X42412295Y-50431428D01*
X41688485Y-49783809D02*
X41650390Y-49745713D01*
X41650390Y-49745713D02*
X41612295Y-49669523D01*
X41612295Y-49669523D02*
X41612295Y-49479047D01*
X41612295Y-49479047D02*
X41650390Y-49402856D01*
X41650390Y-49402856D02*
X41688485Y-49364761D01*
X41688485Y-49364761D02*
X41764676Y-49326666D01*
X41764676Y-49326666D02*
X41840866Y-49326666D01*
X41840866Y-49326666D02*
X41955152Y-49364761D01*
X41955152Y-49364761D02*
X42412295Y-49821904D01*
X42412295Y-49821904D02*
X42412295Y-49326666D01*
X47957143Y-22012295D02*
X47690476Y-21631342D01*
X47500000Y-22012295D02*
X47500000Y-21212295D01*
X47500000Y-21212295D02*
X47804762Y-21212295D01*
X47804762Y-21212295D02*
X47880952Y-21250390D01*
X47880952Y-21250390D02*
X47919047Y-21288485D01*
X47919047Y-21288485D02*
X47957143Y-21364676D01*
X47957143Y-21364676D02*
X47957143Y-21478961D01*
X47957143Y-21478961D02*
X47919047Y-21555152D01*
X47919047Y-21555152D02*
X47880952Y-21593247D01*
X47880952Y-21593247D02*
X47804762Y-21631342D01*
X47804762Y-21631342D02*
X47500000Y-21631342D01*
X48109524Y-22088485D02*
X48719047Y-22088485D01*
X48871428Y-21974200D02*
X48985714Y-22012295D01*
X48985714Y-22012295D02*
X49176190Y-22012295D01*
X49176190Y-22012295D02*
X49252381Y-21974200D01*
X49252381Y-21974200D02*
X49290476Y-21936104D01*
X49290476Y-21936104D02*
X49328571Y-21859914D01*
X49328571Y-21859914D02*
X49328571Y-21783723D01*
X49328571Y-21783723D02*
X49290476Y-21707533D01*
X49290476Y-21707533D02*
X49252381Y-21669438D01*
X49252381Y-21669438D02*
X49176190Y-21631342D01*
X49176190Y-21631342D02*
X49023809Y-21593247D01*
X49023809Y-21593247D02*
X48947619Y-21555152D01*
X48947619Y-21555152D02*
X48909524Y-21517057D01*
X48909524Y-21517057D02*
X48871428Y-21440866D01*
X48871428Y-21440866D02*
X48871428Y-21364676D01*
X48871428Y-21364676D02*
X48909524Y-21288485D01*
X48909524Y-21288485D02*
X48947619Y-21250390D01*
X48947619Y-21250390D02*
X49023809Y-21212295D01*
X49023809Y-21212295D02*
X49214286Y-21212295D01*
X49214286Y-21212295D02*
X49328571Y-21250390D01*
X50128572Y-21936104D02*
X50090476Y-21974200D01*
X50090476Y-21974200D02*
X49976191Y-22012295D01*
X49976191Y-22012295D02*
X49900000Y-22012295D01*
X49900000Y-22012295D02*
X49785714Y-21974200D01*
X49785714Y-21974200D02*
X49709524Y-21898009D01*
X49709524Y-21898009D02*
X49671429Y-21821819D01*
X49671429Y-21821819D02*
X49633333Y-21669438D01*
X49633333Y-21669438D02*
X49633333Y-21555152D01*
X49633333Y-21555152D02*
X49671429Y-21402771D01*
X49671429Y-21402771D02*
X49709524Y-21326580D01*
X49709524Y-21326580D02*
X49785714Y-21250390D01*
X49785714Y-21250390D02*
X49900000Y-21212295D01*
X49900000Y-21212295D02*
X49976191Y-21212295D01*
X49976191Y-21212295D02*
X50090476Y-21250390D01*
X50090476Y-21250390D02*
X50128572Y-21288485D01*
X50852381Y-22012295D02*
X50471429Y-22012295D01*
X50471429Y-22012295D02*
X50471429Y-21212295D01*
X51500000Y-21212295D02*
X51119048Y-21212295D01*
X51119048Y-21212295D02*
X51080952Y-21593247D01*
X51080952Y-21593247D02*
X51119048Y-21555152D01*
X51119048Y-21555152D02*
X51195238Y-21517057D01*
X51195238Y-21517057D02*
X51385714Y-21517057D01*
X51385714Y-21517057D02*
X51461905Y-21555152D01*
X51461905Y-21555152D02*
X51500000Y-21593247D01*
X51500000Y-21593247D02*
X51538095Y-21669438D01*
X51538095Y-21669438D02*
X51538095Y-21859914D01*
X51538095Y-21859914D02*
X51500000Y-21936104D01*
X51500000Y-21936104D02*
X51461905Y-21974200D01*
X51461905Y-21974200D02*
X51385714Y-22012295D01*
X51385714Y-22012295D02*
X51195238Y-22012295D01*
X51195238Y-22012295D02*
X51119048Y-21974200D01*
X51119048Y-21974200D02*
X51080952Y-21936104D01*
X42438095Y-18712295D02*
X42171428Y-18331342D01*
X41980952Y-18712295D02*
X41980952Y-17912295D01*
X41980952Y-17912295D02*
X42285714Y-17912295D01*
X42285714Y-17912295D02*
X42361904Y-17950390D01*
X42361904Y-17950390D02*
X42399999Y-17988485D01*
X42399999Y-17988485D02*
X42438095Y-18064676D01*
X42438095Y-18064676D02*
X42438095Y-18178961D01*
X42438095Y-18178961D02*
X42399999Y-18255152D01*
X42399999Y-18255152D02*
X42361904Y-18293247D01*
X42361904Y-18293247D02*
X42285714Y-18331342D01*
X42285714Y-18331342D02*
X41980952Y-18331342D01*
X42590476Y-18788485D02*
X43199999Y-18788485D01*
X43352380Y-18674200D02*
X43466666Y-18712295D01*
X43466666Y-18712295D02*
X43657142Y-18712295D01*
X43657142Y-18712295D02*
X43733333Y-18674200D01*
X43733333Y-18674200D02*
X43771428Y-18636104D01*
X43771428Y-18636104D02*
X43809523Y-18559914D01*
X43809523Y-18559914D02*
X43809523Y-18483723D01*
X43809523Y-18483723D02*
X43771428Y-18407533D01*
X43771428Y-18407533D02*
X43733333Y-18369438D01*
X43733333Y-18369438D02*
X43657142Y-18331342D01*
X43657142Y-18331342D02*
X43504761Y-18293247D01*
X43504761Y-18293247D02*
X43428571Y-18255152D01*
X43428571Y-18255152D02*
X43390476Y-18217057D01*
X43390476Y-18217057D02*
X43352380Y-18140866D01*
X43352380Y-18140866D02*
X43352380Y-18064676D01*
X43352380Y-18064676D02*
X43390476Y-17988485D01*
X43390476Y-17988485D02*
X43428571Y-17950390D01*
X43428571Y-17950390D02*
X43504761Y-17912295D01*
X43504761Y-17912295D02*
X43695238Y-17912295D01*
X43695238Y-17912295D02*
X43809523Y-17950390D01*
X44152381Y-18712295D02*
X44152381Y-17912295D01*
X44152381Y-17912295D02*
X44342857Y-17912295D01*
X44342857Y-17912295D02*
X44457143Y-17950390D01*
X44457143Y-17950390D02*
X44533333Y-18026580D01*
X44533333Y-18026580D02*
X44571428Y-18102771D01*
X44571428Y-18102771D02*
X44609524Y-18255152D01*
X44609524Y-18255152D02*
X44609524Y-18369438D01*
X44609524Y-18369438D02*
X44571428Y-18521819D01*
X44571428Y-18521819D02*
X44533333Y-18598009D01*
X44533333Y-18598009D02*
X44457143Y-18674200D01*
X44457143Y-18674200D02*
X44342857Y-18712295D01*
X44342857Y-18712295D02*
X44152381Y-18712295D01*
X44914285Y-18483723D02*
X45295238Y-18483723D01*
X44838095Y-18712295D02*
X45104762Y-17912295D01*
X45104762Y-17912295D02*
X45371428Y-18712295D01*
X45561904Y-17912295D02*
X46057142Y-17912295D01*
X46057142Y-17912295D02*
X45790476Y-18217057D01*
X45790476Y-18217057D02*
X45904761Y-18217057D01*
X45904761Y-18217057D02*
X45980952Y-18255152D01*
X45980952Y-18255152D02*
X46019047Y-18293247D01*
X46019047Y-18293247D02*
X46057142Y-18369438D01*
X46057142Y-18369438D02*
X46057142Y-18559914D01*
X46057142Y-18559914D02*
X46019047Y-18636104D01*
X46019047Y-18636104D02*
X45980952Y-18674200D01*
X45980952Y-18674200D02*
X45904761Y-18712295D01*
X45904761Y-18712295D02*
X45676190Y-18712295D01*
X45676190Y-18712295D02*
X45599999Y-18674200D01*
X45599999Y-18674200D02*
X45561904Y-18636104D01*
X13095238Y-43362295D02*
X13095238Y-42562295D01*
X13095238Y-42562295D02*
X13285714Y-42562295D01*
X13285714Y-42562295D02*
X13400000Y-42600390D01*
X13400000Y-42600390D02*
X13476190Y-42676580D01*
X13476190Y-42676580D02*
X13514285Y-42752771D01*
X13514285Y-42752771D02*
X13552381Y-42905152D01*
X13552381Y-42905152D02*
X13552381Y-43019438D01*
X13552381Y-43019438D02*
X13514285Y-43171819D01*
X13514285Y-43171819D02*
X13476190Y-43248009D01*
X13476190Y-43248009D02*
X13400000Y-43324200D01*
X13400000Y-43324200D02*
X13285714Y-43362295D01*
X13285714Y-43362295D02*
X13095238Y-43362295D01*
X13704762Y-43438485D02*
X14314285Y-43438485D01*
X14771428Y-42943247D02*
X14504762Y-42943247D01*
X14504762Y-43362295D02*
X14504762Y-42562295D01*
X14504762Y-42562295D02*
X14885714Y-42562295D01*
X15571428Y-43362295D02*
X15190476Y-43362295D01*
X15190476Y-43362295D02*
X15190476Y-42562295D01*
X15990476Y-42981342D02*
X15990476Y-43362295D01*
X15723809Y-42562295D02*
X15990476Y-42981342D01*
X15990476Y-42981342D02*
X16257142Y-42562295D01*
X16942856Y-43362295D02*
X16485713Y-43362295D01*
X16714285Y-43362295D02*
X16714285Y-42562295D01*
X16714285Y-42562295D02*
X16638094Y-42676580D01*
X16638094Y-42676580D02*
X16561904Y-42752771D01*
X16561904Y-42752771D02*
X16485713Y-42790866D01*
X18012295Y-40985713D02*
X17631342Y-41252380D01*
X18012295Y-41442856D02*
X17212295Y-41442856D01*
X17212295Y-41442856D02*
X17212295Y-41138094D01*
X17212295Y-41138094D02*
X17250390Y-41061904D01*
X17250390Y-41061904D02*
X17288485Y-41023809D01*
X17288485Y-41023809D02*
X17364676Y-40985713D01*
X17364676Y-40985713D02*
X17478961Y-40985713D01*
X17478961Y-40985713D02*
X17555152Y-41023809D01*
X17555152Y-41023809D02*
X17593247Y-41061904D01*
X17593247Y-41061904D02*
X17631342Y-41138094D01*
X17631342Y-41138094D02*
X17631342Y-41442856D01*
X18088485Y-40833333D02*
X18088485Y-40223809D01*
X18012295Y-39652380D02*
X18012295Y-40033332D01*
X18012295Y-40033332D02*
X17212295Y-40033332D01*
X18012295Y-39004761D02*
X18012295Y-39385713D01*
X18012295Y-39385713D02*
X17212295Y-39385713D01*
X17593247Y-38471428D02*
X17631342Y-38357142D01*
X17631342Y-38357142D02*
X17669438Y-38319047D01*
X17669438Y-38319047D02*
X17745628Y-38280951D01*
X17745628Y-38280951D02*
X17859914Y-38280951D01*
X17859914Y-38280951D02*
X17936104Y-38319047D01*
X17936104Y-38319047D02*
X17974200Y-38357142D01*
X17974200Y-38357142D02*
X18012295Y-38433332D01*
X18012295Y-38433332D02*
X18012295Y-38738094D01*
X18012295Y-38738094D02*
X17212295Y-38738094D01*
X17212295Y-38738094D02*
X17212295Y-38471428D01*
X17212295Y-38471428D02*
X17250390Y-38395237D01*
X17250390Y-38395237D02*
X17288485Y-38357142D01*
X17288485Y-38357142D02*
X17364676Y-38319047D01*
X17364676Y-38319047D02*
X17440866Y-38319047D01*
X17440866Y-38319047D02*
X17517057Y-38357142D01*
X17517057Y-38357142D02*
X17555152Y-38395237D01*
X17555152Y-38395237D02*
X17593247Y-38471428D01*
X17593247Y-38471428D02*
X17593247Y-38738094D01*
X18012295Y-37519047D02*
X18012295Y-37976190D01*
X18012295Y-37747618D02*
X17212295Y-37747618D01*
X17212295Y-37747618D02*
X17326580Y-37823809D01*
X17326580Y-37823809D02*
X17402771Y-37899999D01*
X17402771Y-37899999D02*
X17440866Y-37976190D01*
X18838485Y-36604761D02*
X18800390Y-36680951D01*
X18800390Y-36680951D02*
X18724200Y-36757142D01*
X18724200Y-36757142D02*
X18609914Y-36871428D01*
X18609914Y-36871428D02*
X18571819Y-36947618D01*
X18571819Y-36947618D02*
X18571819Y-37023809D01*
X18762295Y-36985713D02*
X18724200Y-37061904D01*
X18724200Y-37061904D02*
X18648009Y-37138094D01*
X18648009Y-37138094D02*
X18495628Y-37176190D01*
X18495628Y-37176190D02*
X18228961Y-37176190D01*
X18228961Y-37176190D02*
X18076580Y-37138094D01*
X18076580Y-37138094D02*
X18000390Y-37061904D01*
X18000390Y-37061904D02*
X17962295Y-36985713D01*
X17962295Y-36985713D02*
X17962295Y-36833332D01*
X17962295Y-36833332D02*
X18000390Y-36757142D01*
X18000390Y-36757142D02*
X18076580Y-36680951D01*
X18076580Y-36680951D02*
X18228961Y-36642856D01*
X18228961Y-36642856D02*
X18495628Y-36642856D01*
X18495628Y-36642856D02*
X18648009Y-36680951D01*
X18648009Y-36680951D02*
X18724200Y-36757142D01*
X18724200Y-36757142D02*
X18762295Y-36833332D01*
X18762295Y-36833332D02*
X18762295Y-36985713D01*
X18838485Y-36490476D02*
X18838485Y-35880952D01*
X18762295Y-35309523D02*
X18762295Y-35690475D01*
X18762295Y-35690475D02*
X17962295Y-35690475D01*
X18343247Y-34776190D02*
X18381342Y-34661904D01*
X18381342Y-34661904D02*
X18419438Y-34623809D01*
X18419438Y-34623809D02*
X18495628Y-34585713D01*
X18495628Y-34585713D02*
X18609914Y-34585713D01*
X18609914Y-34585713D02*
X18686104Y-34623809D01*
X18686104Y-34623809D02*
X18724200Y-34661904D01*
X18724200Y-34661904D02*
X18762295Y-34738094D01*
X18762295Y-34738094D02*
X18762295Y-35042856D01*
X18762295Y-35042856D02*
X17962295Y-35042856D01*
X17962295Y-35042856D02*
X17962295Y-34776190D01*
X17962295Y-34776190D02*
X18000390Y-34699999D01*
X18000390Y-34699999D02*
X18038485Y-34661904D01*
X18038485Y-34661904D02*
X18114676Y-34623809D01*
X18114676Y-34623809D02*
X18190866Y-34623809D01*
X18190866Y-34623809D02*
X18267057Y-34661904D01*
X18267057Y-34661904D02*
X18305152Y-34699999D01*
X18305152Y-34699999D02*
X18343247Y-34776190D01*
X18343247Y-34776190D02*
X18343247Y-35042856D01*
X18762295Y-33823809D02*
X18762295Y-34280952D01*
X18762295Y-34052380D02*
X17962295Y-34052380D01*
X17962295Y-34052380D02*
X18076580Y-34128571D01*
X18076580Y-34128571D02*
X18152771Y-34204761D01*
X18152771Y-34204761D02*
X18190866Y-34280952D01*
X42438095Y-22012295D02*
X42171428Y-21631342D01*
X41980952Y-22012295D02*
X41980952Y-21212295D01*
X41980952Y-21212295D02*
X42285714Y-21212295D01*
X42285714Y-21212295D02*
X42361904Y-21250390D01*
X42361904Y-21250390D02*
X42399999Y-21288485D01*
X42399999Y-21288485D02*
X42438095Y-21364676D01*
X42438095Y-21364676D02*
X42438095Y-21478961D01*
X42438095Y-21478961D02*
X42399999Y-21555152D01*
X42399999Y-21555152D02*
X42361904Y-21593247D01*
X42361904Y-21593247D02*
X42285714Y-21631342D01*
X42285714Y-21631342D02*
X41980952Y-21631342D01*
X42590476Y-22088485D02*
X43199999Y-22088485D01*
X43352380Y-21974200D02*
X43466666Y-22012295D01*
X43466666Y-22012295D02*
X43657142Y-22012295D01*
X43657142Y-22012295D02*
X43733333Y-21974200D01*
X43733333Y-21974200D02*
X43771428Y-21936104D01*
X43771428Y-21936104D02*
X43809523Y-21859914D01*
X43809523Y-21859914D02*
X43809523Y-21783723D01*
X43809523Y-21783723D02*
X43771428Y-21707533D01*
X43771428Y-21707533D02*
X43733333Y-21669438D01*
X43733333Y-21669438D02*
X43657142Y-21631342D01*
X43657142Y-21631342D02*
X43504761Y-21593247D01*
X43504761Y-21593247D02*
X43428571Y-21555152D01*
X43428571Y-21555152D02*
X43390476Y-21517057D01*
X43390476Y-21517057D02*
X43352380Y-21440866D01*
X43352380Y-21440866D02*
X43352380Y-21364676D01*
X43352380Y-21364676D02*
X43390476Y-21288485D01*
X43390476Y-21288485D02*
X43428571Y-21250390D01*
X43428571Y-21250390D02*
X43504761Y-21212295D01*
X43504761Y-21212295D02*
X43695238Y-21212295D01*
X43695238Y-21212295D02*
X43809523Y-21250390D01*
X44152381Y-22012295D02*
X44152381Y-21212295D01*
X44152381Y-21212295D02*
X44342857Y-21212295D01*
X44342857Y-21212295D02*
X44457143Y-21250390D01*
X44457143Y-21250390D02*
X44533333Y-21326580D01*
X44533333Y-21326580D02*
X44571428Y-21402771D01*
X44571428Y-21402771D02*
X44609524Y-21555152D01*
X44609524Y-21555152D02*
X44609524Y-21669438D01*
X44609524Y-21669438D02*
X44571428Y-21821819D01*
X44571428Y-21821819D02*
X44533333Y-21898009D01*
X44533333Y-21898009D02*
X44457143Y-21974200D01*
X44457143Y-21974200D02*
X44342857Y-22012295D01*
X44342857Y-22012295D02*
X44152381Y-22012295D01*
X44914285Y-21783723D02*
X45295238Y-21783723D01*
X44838095Y-22012295D02*
X45104762Y-21212295D01*
X45104762Y-21212295D02*
X45371428Y-22012295D01*
X46019047Y-21212295D02*
X45638095Y-21212295D01*
X45638095Y-21212295D02*
X45599999Y-21593247D01*
X45599999Y-21593247D02*
X45638095Y-21555152D01*
X45638095Y-21555152D02*
X45714285Y-21517057D01*
X45714285Y-21517057D02*
X45904761Y-21517057D01*
X45904761Y-21517057D02*
X45980952Y-21555152D01*
X45980952Y-21555152D02*
X46019047Y-21593247D01*
X46019047Y-21593247D02*
X46057142Y-21669438D01*
X46057142Y-21669438D02*
X46057142Y-21859914D01*
X46057142Y-21859914D02*
X46019047Y-21936104D01*
X46019047Y-21936104D02*
X45980952Y-21974200D01*
X45980952Y-21974200D02*
X45904761Y-22012295D01*
X45904761Y-22012295D02*
X45714285Y-22012295D01*
X45714285Y-22012295D02*
X45638095Y-21974200D01*
X45638095Y-21974200D02*
X45599999Y-21936104D01*
X34838485Y-36604761D02*
X34800390Y-36680951D01*
X34800390Y-36680951D02*
X34724200Y-36757142D01*
X34724200Y-36757142D02*
X34609914Y-36871428D01*
X34609914Y-36871428D02*
X34571819Y-36947618D01*
X34571819Y-36947618D02*
X34571819Y-37023809D01*
X34762295Y-36985713D02*
X34724200Y-37061904D01*
X34724200Y-37061904D02*
X34648009Y-37138094D01*
X34648009Y-37138094D02*
X34495628Y-37176190D01*
X34495628Y-37176190D02*
X34228961Y-37176190D01*
X34228961Y-37176190D02*
X34076580Y-37138094D01*
X34076580Y-37138094D02*
X34000390Y-37061904D01*
X34000390Y-37061904D02*
X33962295Y-36985713D01*
X33962295Y-36985713D02*
X33962295Y-36833332D01*
X33962295Y-36833332D02*
X34000390Y-36757142D01*
X34000390Y-36757142D02*
X34076580Y-36680951D01*
X34076580Y-36680951D02*
X34228961Y-36642856D01*
X34228961Y-36642856D02*
X34495628Y-36642856D01*
X34495628Y-36642856D02*
X34648009Y-36680951D01*
X34648009Y-36680951D02*
X34724200Y-36757142D01*
X34724200Y-36757142D02*
X34762295Y-36833332D01*
X34762295Y-36833332D02*
X34762295Y-36985713D01*
X34838485Y-36490476D02*
X34838485Y-35880952D01*
X34762295Y-35309523D02*
X34762295Y-35690475D01*
X34762295Y-35690475D02*
X33962295Y-35690475D01*
X34762295Y-34585713D02*
X34381342Y-34852380D01*
X34762295Y-35042856D02*
X33962295Y-35042856D01*
X33962295Y-35042856D02*
X33962295Y-34738094D01*
X33962295Y-34738094D02*
X34000390Y-34661904D01*
X34000390Y-34661904D02*
X34038485Y-34623809D01*
X34038485Y-34623809D02*
X34114676Y-34585713D01*
X34114676Y-34585713D02*
X34228961Y-34585713D01*
X34228961Y-34585713D02*
X34305152Y-34623809D01*
X34305152Y-34623809D02*
X34343247Y-34661904D01*
X34343247Y-34661904D02*
X34381342Y-34738094D01*
X34381342Y-34738094D02*
X34381342Y-35042856D01*
X34762295Y-33823809D02*
X34762295Y-34280952D01*
X34762295Y-34052380D02*
X33962295Y-34052380D01*
X33962295Y-34052380D02*
X34076580Y-34128571D01*
X34076580Y-34128571D02*
X34152771Y-34204761D01*
X34152771Y-34204761D02*
X34190866Y-34280952D01*
X22380952Y-27712295D02*
X22114285Y-27331342D01*
X21923809Y-27712295D02*
X21923809Y-26912295D01*
X21923809Y-26912295D02*
X22228571Y-26912295D01*
X22228571Y-26912295D02*
X22304761Y-26950390D01*
X22304761Y-26950390D02*
X22342856Y-26988485D01*
X22342856Y-26988485D02*
X22380952Y-27064676D01*
X22380952Y-27064676D02*
X22380952Y-27178961D01*
X22380952Y-27178961D02*
X22342856Y-27255152D01*
X22342856Y-27255152D02*
X22304761Y-27293247D01*
X22304761Y-27293247D02*
X22228571Y-27331342D01*
X22228571Y-27331342D02*
X21923809Y-27331342D01*
X22533333Y-27788485D02*
X23142856Y-27788485D01*
X23752380Y-26950390D02*
X23676190Y-26912295D01*
X23676190Y-26912295D02*
X23561904Y-26912295D01*
X23561904Y-26912295D02*
X23447618Y-26950390D01*
X23447618Y-26950390D02*
X23371428Y-27026580D01*
X23371428Y-27026580D02*
X23333333Y-27102771D01*
X23333333Y-27102771D02*
X23295237Y-27255152D01*
X23295237Y-27255152D02*
X23295237Y-27369438D01*
X23295237Y-27369438D02*
X23333333Y-27521819D01*
X23333333Y-27521819D02*
X23371428Y-27598009D01*
X23371428Y-27598009D02*
X23447618Y-27674200D01*
X23447618Y-27674200D02*
X23561904Y-27712295D01*
X23561904Y-27712295D02*
X23638095Y-27712295D01*
X23638095Y-27712295D02*
X23752380Y-27674200D01*
X23752380Y-27674200D02*
X23790476Y-27636104D01*
X23790476Y-27636104D02*
X23790476Y-27369438D01*
X23790476Y-27369438D02*
X23638095Y-27369438D01*
X24399999Y-27293247D02*
X24514285Y-27331342D01*
X24514285Y-27331342D02*
X24552380Y-27369438D01*
X24552380Y-27369438D02*
X24590476Y-27445628D01*
X24590476Y-27445628D02*
X24590476Y-27559914D01*
X24590476Y-27559914D02*
X24552380Y-27636104D01*
X24552380Y-27636104D02*
X24514285Y-27674200D01*
X24514285Y-27674200D02*
X24438095Y-27712295D01*
X24438095Y-27712295D02*
X24133333Y-27712295D01*
X24133333Y-27712295D02*
X24133333Y-26912295D01*
X24133333Y-26912295D02*
X24399999Y-26912295D01*
X24399999Y-26912295D02*
X24476190Y-26950390D01*
X24476190Y-26950390D02*
X24514285Y-26988485D01*
X24514285Y-26988485D02*
X24552380Y-27064676D01*
X24552380Y-27064676D02*
X24552380Y-27140866D01*
X24552380Y-27140866D02*
X24514285Y-27217057D01*
X24514285Y-27217057D02*
X24476190Y-27255152D01*
X24476190Y-27255152D02*
X24399999Y-27293247D01*
X24399999Y-27293247D02*
X24133333Y-27293247D01*
X24857142Y-26912295D02*
X25390476Y-26912295D01*
X25390476Y-26912295D02*
X24857142Y-27712295D01*
X24857142Y-27712295D02*
X25390476Y-27712295D01*
X26114285Y-27712295D02*
X25657142Y-27712295D01*
X25885714Y-27712295D02*
X25885714Y-26912295D01*
X25885714Y-26912295D02*
X25809523Y-27026580D01*
X25809523Y-27026580D02*
X25733333Y-27102771D01*
X25733333Y-27102771D02*
X25657142Y-27140866D01*
X42054761Y-2012295D02*
X42054761Y-2583723D01*
X42054761Y-2583723D02*
X42016666Y-2698009D01*
X42016666Y-2698009D02*
X41940475Y-2774200D01*
X41940475Y-2774200D02*
X41826190Y-2812295D01*
X41826190Y-2812295D02*
X41749999Y-2812295D01*
X42245238Y-2888485D02*
X42854761Y-2888485D01*
X43426190Y-2812295D02*
X43045238Y-2812295D01*
X43045238Y-2812295D02*
X43045238Y-2012295D01*
X44150000Y-2736104D02*
X44111904Y-2774200D01*
X44111904Y-2774200D02*
X43997619Y-2812295D01*
X43997619Y-2812295D02*
X43921428Y-2812295D01*
X43921428Y-2812295D02*
X43807142Y-2774200D01*
X43807142Y-2774200D02*
X43730952Y-2698009D01*
X43730952Y-2698009D02*
X43692857Y-2621819D01*
X43692857Y-2621819D02*
X43654761Y-2469438D01*
X43654761Y-2469438D02*
X43654761Y-2355152D01*
X43654761Y-2355152D02*
X43692857Y-2202771D01*
X43692857Y-2202771D02*
X43730952Y-2126580D01*
X43730952Y-2126580D02*
X43807142Y-2050390D01*
X43807142Y-2050390D02*
X43921428Y-2012295D01*
X43921428Y-2012295D02*
X43997619Y-2012295D01*
X43997619Y-2012295D02*
X44111904Y-2050390D01*
X44111904Y-2050390D02*
X44150000Y-2088485D01*
X44492857Y-2812295D02*
X44492857Y-2012295D01*
X44492857Y-2012295D02*
X44683333Y-2012295D01*
X44683333Y-2012295D02*
X44797619Y-2050390D01*
X44797619Y-2050390D02*
X44873809Y-2126580D01*
X44873809Y-2126580D02*
X44911904Y-2202771D01*
X44911904Y-2202771D02*
X44950000Y-2355152D01*
X44950000Y-2355152D02*
X44950000Y-2469438D01*
X44950000Y-2469438D02*
X44911904Y-2621819D01*
X44911904Y-2621819D02*
X44873809Y-2698009D01*
X44873809Y-2698009D02*
X44797619Y-2774200D01*
X44797619Y-2774200D02*
X44683333Y-2812295D01*
X44683333Y-2812295D02*
X44492857Y-2812295D01*
X45711904Y-2812295D02*
X45254761Y-2812295D01*
X45483333Y-2812295D02*
X45483333Y-2012295D01*
X45483333Y-2012295D02*
X45407142Y-2126580D01*
X45407142Y-2126580D02*
X45330952Y-2202771D01*
X45330952Y-2202771D02*
X45254761Y-2240866D01*
X2012295Y-31650000D02*
X2583723Y-31650000D01*
X2583723Y-31650000D02*
X2698009Y-31688095D01*
X2698009Y-31688095D02*
X2774200Y-31764286D01*
X2774200Y-31764286D02*
X2812295Y-31878571D01*
X2812295Y-31878571D02*
X2812295Y-31954762D01*
X2888485Y-31459524D02*
X2888485Y-30850000D01*
X2393247Y-30392857D02*
X2431342Y-30278571D01*
X2431342Y-30278571D02*
X2469438Y-30240476D01*
X2469438Y-30240476D02*
X2545628Y-30202380D01*
X2545628Y-30202380D02*
X2659914Y-30202380D01*
X2659914Y-30202380D02*
X2736104Y-30240476D01*
X2736104Y-30240476D02*
X2774200Y-30278571D01*
X2774200Y-30278571D02*
X2812295Y-30354761D01*
X2812295Y-30354761D02*
X2812295Y-30659523D01*
X2812295Y-30659523D02*
X2012295Y-30659523D01*
X2012295Y-30659523D02*
X2012295Y-30392857D01*
X2012295Y-30392857D02*
X2050390Y-30316666D01*
X2050390Y-30316666D02*
X2088485Y-30278571D01*
X2088485Y-30278571D02*
X2164676Y-30240476D01*
X2164676Y-30240476D02*
X2240866Y-30240476D01*
X2240866Y-30240476D02*
X2317057Y-30278571D01*
X2317057Y-30278571D02*
X2355152Y-30316666D01*
X2355152Y-30316666D02*
X2393247Y-30392857D01*
X2393247Y-30392857D02*
X2393247Y-30659523D01*
X2012295Y-29973809D02*
X2012295Y-29516666D01*
X2812295Y-29745238D02*
X2012295Y-29745238D01*
X2812295Y-29249999D02*
X2012295Y-29249999D01*
X2012295Y-29249999D02*
X2812295Y-28792856D01*
X2812295Y-28792856D02*
X2012295Y-28792856D01*
X2888485Y-28602381D02*
X2888485Y-27992857D01*
X2393247Y-27535714D02*
X2431342Y-27421428D01*
X2431342Y-27421428D02*
X2469438Y-27383333D01*
X2469438Y-27383333D02*
X2545628Y-27345237D01*
X2545628Y-27345237D02*
X2659914Y-27345237D01*
X2659914Y-27345237D02*
X2736104Y-27383333D01*
X2736104Y-27383333D02*
X2774200Y-27421428D01*
X2774200Y-27421428D02*
X2812295Y-27497618D01*
X2812295Y-27497618D02*
X2812295Y-27802380D01*
X2812295Y-27802380D02*
X2012295Y-27802380D01*
X2012295Y-27802380D02*
X2012295Y-27535714D01*
X2012295Y-27535714D02*
X2050390Y-27459523D01*
X2050390Y-27459523D02*
X2088485Y-27421428D01*
X2088485Y-27421428D02*
X2164676Y-27383333D01*
X2164676Y-27383333D02*
X2240866Y-27383333D01*
X2240866Y-27383333D02*
X2317057Y-27421428D01*
X2317057Y-27421428D02*
X2355152Y-27459523D01*
X2355152Y-27459523D02*
X2393247Y-27535714D01*
X2393247Y-27535714D02*
X2393247Y-27802380D01*
X2812295Y-26583333D02*
X2812295Y-27040476D01*
X2812295Y-26811904D02*
X2012295Y-26811904D01*
X2012295Y-26811904D02*
X2126580Y-26888095D01*
X2126580Y-26888095D02*
X2202771Y-26964285D01*
X2202771Y-26964285D02*
X2240866Y-27040476D01*
X48014285Y-14038485D02*
X47938095Y-14000390D01*
X47938095Y-14000390D02*
X47861904Y-13924200D01*
X47861904Y-13924200D02*
X47747618Y-13809914D01*
X47747618Y-13809914D02*
X47671428Y-13771819D01*
X47671428Y-13771819D02*
X47595237Y-13771819D01*
X47633333Y-13962295D02*
X47557142Y-13924200D01*
X47557142Y-13924200D02*
X47480952Y-13848009D01*
X47480952Y-13848009D02*
X47442856Y-13695628D01*
X47442856Y-13695628D02*
X47442856Y-13428961D01*
X47442856Y-13428961D02*
X47480952Y-13276580D01*
X47480952Y-13276580D02*
X47557142Y-13200390D01*
X47557142Y-13200390D02*
X47633333Y-13162295D01*
X47633333Y-13162295D02*
X47785714Y-13162295D01*
X47785714Y-13162295D02*
X47861904Y-13200390D01*
X47861904Y-13200390D02*
X47938095Y-13276580D01*
X47938095Y-13276580D02*
X47976190Y-13428961D01*
X47976190Y-13428961D02*
X47976190Y-13695628D01*
X47976190Y-13695628D02*
X47938095Y-13848009D01*
X47938095Y-13848009D02*
X47861904Y-13924200D01*
X47861904Y-13924200D02*
X47785714Y-13962295D01*
X47785714Y-13962295D02*
X47633333Y-13962295D01*
X48128571Y-14038485D02*
X48738094Y-14038485D01*
X48890475Y-13924200D02*
X49004761Y-13962295D01*
X49004761Y-13962295D02*
X49195237Y-13962295D01*
X49195237Y-13962295D02*
X49271428Y-13924200D01*
X49271428Y-13924200D02*
X49309523Y-13886104D01*
X49309523Y-13886104D02*
X49347618Y-13809914D01*
X49347618Y-13809914D02*
X49347618Y-13733723D01*
X49347618Y-13733723D02*
X49309523Y-13657533D01*
X49309523Y-13657533D02*
X49271428Y-13619438D01*
X49271428Y-13619438D02*
X49195237Y-13581342D01*
X49195237Y-13581342D02*
X49042856Y-13543247D01*
X49042856Y-13543247D02*
X48966666Y-13505152D01*
X48966666Y-13505152D02*
X48928571Y-13467057D01*
X48928571Y-13467057D02*
X48890475Y-13390866D01*
X48890475Y-13390866D02*
X48890475Y-13314676D01*
X48890475Y-13314676D02*
X48928571Y-13238485D01*
X48928571Y-13238485D02*
X48966666Y-13200390D01*
X48966666Y-13200390D02*
X49042856Y-13162295D01*
X49042856Y-13162295D02*
X49233333Y-13162295D01*
X49233333Y-13162295D02*
X49347618Y-13200390D01*
X50147619Y-13886104D02*
X50109523Y-13924200D01*
X50109523Y-13924200D02*
X49995238Y-13962295D01*
X49995238Y-13962295D02*
X49919047Y-13962295D01*
X49919047Y-13962295D02*
X49804761Y-13924200D01*
X49804761Y-13924200D02*
X49728571Y-13848009D01*
X49728571Y-13848009D02*
X49690476Y-13771819D01*
X49690476Y-13771819D02*
X49652380Y-13619438D01*
X49652380Y-13619438D02*
X49652380Y-13505152D01*
X49652380Y-13505152D02*
X49690476Y-13352771D01*
X49690476Y-13352771D02*
X49728571Y-13276580D01*
X49728571Y-13276580D02*
X49804761Y-13200390D01*
X49804761Y-13200390D02*
X49919047Y-13162295D01*
X49919047Y-13162295D02*
X49995238Y-13162295D01*
X49995238Y-13162295D02*
X50109523Y-13200390D01*
X50109523Y-13200390D02*
X50147619Y-13238485D01*
X50871428Y-13962295D02*
X50490476Y-13962295D01*
X50490476Y-13962295D02*
X50490476Y-13162295D01*
X51557142Y-13962295D02*
X51099999Y-13962295D01*
X51328571Y-13962295D02*
X51328571Y-13162295D01*
X51328571Y-13162295D02*
X51252380Y-13276580D01*
X51252380Y-13276580D02*
X51176190Y-13352771D01*
X51176190Y-13352771D02*
X51099999Y-13390866D01*
X55150000Y-13886104D02*
X55111904Y-13924200D01*
X55111904Y-13924200D02*
X54997619Y-13962295D01*
X54997619Y-13962295D02*
X54921428Y-13962295D01*
X54921428Y-13962295D02*
X54807142Y-13924200D01*
X54807142Y-13924200D02*
X54730952Y-13848009D01*
X54730952Y-13848009D02*
X54692857Y-13771819D01*
X54692857Y-13771819D02*
X54654761Y-13619438D01*
X54654761Y-13619438D02*
X54654761Y-13505152D01*
X54654761Y-13505152D02*
X54692857Y-13352771D01*
X54692857Y-13352771D02*
X54730952Y-13276580D01*
X54730952Y-13276580D02*
X54807142Y-13200390D01*
X54807142Y-13200390D02*
X54921428Y-13162295D01*
X54921428Y-13162295D02*
X54997619Y-13162295D01*
X54997619Y-13162295D02*
X55111904Y-13200390D01*
X55111904Y-13200390D02*
X55150000Y-13238485D01*
X55302381Y-14038485D02*
X55911904Y-14038485D01*
X56102381Y-13962295D02*
X56102381Y-13162295D01*
X56102381Y-13162295D02*
X56559524Y-13962295D01*
X56559524Y-13962295D02*
X56559524Y-13162295D01*
X57207142Y-13543247D02*
X56940476Y-13543247D01*
X56940476Y-13962295D02*
X56940476Y-13162295D01*
X56940476Y-13162295D02*
X57321428Y-13162295D01*
X58083333Y-13886104D02*
X58045237Y-13924200D01*
X58045237Y-13924200D02*
X57930952Y-13962295D01*
X57930952Y-13962295D02*
X57854761Y-13962295D01*
X57854761Y-13962295D02*
X57740475Y-13924200D01*
X57740475Y-13924200D02*
X57664285Y-13848009D01*
X57664285Y-13848009D02*
X57626190Y-13771819D01*
X57626190Y-13771819D02*
X57588094Y-13619438D01*
X57588094Y-13619438D02*
X57588094Y-13505152D01*
X57588094Y-13505152D02*
X57626190Y-13352771D01*
X57626190Y-13352771D02*
X57664285Y-13276580D01*
X57664285Y-13276580D02*
X57740475Y-13200390D01*
X57740475Y-13200390D02*
X57854761Y-13162295D01*
X57854761Y-13162295D02*
X57930952Y-13162295D01*
X57930952Y-13162295D02*
X58045237Y-13200390D01*
X58045237Y-13200390D02*
X58083333Y-13238485D01*
X58845237Y-13962295D02*
X58388094Y-13962295D01*
X58616666Y-13962295D02*
X58616666Y-13162295D01*
X58616666Y-13162295D02*
X58540475Y-13276580D01*
X58540475Y-13276580D02*
X58464285Y-13352771D01*
X58464285Y-13352771D02*
X58388094Y-13390866D01*
X69349999Y-2012295D02*
X69349999Y-2583723D01*
X69349999Y-2583723D02*
X69311904Y-2698009D01*
X69311904Y-2698009D02*
X69235713Y-2774200D01*
X69235713Y-2774200D02*
X69121428Y-2812295D01*
X69121428Y-2812295D02*
X69045237Y-2812295D01*
X69540476Y-2888485D02*
X70149999Y-2888485D01*
X70607142Y-2393247D02*
X70721428Y-2431342D01*
X70721428Y-2431342D02*
X70759523Y-2469438D01*
X70759523Y-2469438D02*
X70797619Y-2545628D01*
X70797619Y-2545628D02*
X70797619Y-2659914D01*
X70797619Y-2659914D02*
X70759523Y-2736104D01*
X70759523Y-2736104D02*
X70721428Y-2774200D01*
X70721428Y-2774200D02*
X70645238Y-2812295D01*
X70645238Y-2812295D02*
X70340476Y-2812295D01*
X70340476Y-2812295D02*
X70340476Y-2012295D01*
X70340476Y-2012295D02*
X70607142Y-2012295D01*
X70607142Y-2012295D02*
X70683333Y-2050390D01*
X70683333Y-2050390D02*
X70721428Y-2088485D01*
X70721428Y-2088485D02*
X70759523Y-2164676D01*
X70759523Y-2164676D02*
X70759523Y-2240866D01*
X70759523Y-2240866D02*
X70721428Y-2317057D01*
X70721428Y-2317057D02*
X70683333Y-2355152D01*
X70683333Y-2355152D02*
X70607142Y-2393247D01*
X70607142Y-2393247D02*
X70340476Y-2393247D01*
X71026190Y-2012295D02*
X71483333Y-2012295D01*
X71254761Y-2812295D02*
X71254761Y-2012295D01*
X71750000Y-2812295D02*
X71750000Y-2012295D01*
X71750000Y-2012295D02*
X72207143Y-2812295D01*
X72207143Y-2812295D02*
X72207143Y-2012295D01*
X72397619Y-2888485D02*
X73007142Y-2888485D01*
X73654762Y-2812295D02*
X73388095Y-2431342D01*
X73197619Y-2812295D02*
X73197619Y-2012295D01*
X73197619Y-2012295D02*
X73502381Y-2012295D01*
X73502381Y-2012295D02*
X73578571Y-2050390D01*
X73578571Y-2050390D02*
X73616666Y-2088485D01*
X73616666Y-2088485D02*
X73654762Y-2164676D01*
X73654762Y-2164676D02*
X73654762Y-2278961D01*
X73654762Y-2278961D02*
X73616666Y-2355152D01*
X73616666Y-2355152D02*
X73578571Y-2393247D01*
X73578571Y-2393247D02*
X73502381Y-2431342D01*
X73502381Y-2431342D02*
X73197619Y-2431342D01*
X74416666Y-2812295D02*
X73959523Y-2812295D01*
X74188095Y-2812295D02*
X74188095Y-2012295D01*
X74188095Y-2012295D02*
X74111904Y-2126580D01*
X74111904Y-2126580D02*
X74035714Y-2202771D01*
X74035714Y-2202771D02*
X73959523Y-2240866D01*
D11*
%TO.C,C_BB1*%
X19738748Y-51765000D02*
X20261252Y-51765000D01*
X19738748Y-53235000D02*
X20261252Y-53235000D01*
%TO.C,R_PUB1*%
X19772936Y-48265000D02*
X20227064Y-48265000D01*
X19772936Y-49735000D02*
X20227064Y-49735000D01*
%TO.C,J_BAT1*%
X7150000Y-3250000D02*
X7150000Y-4500000D01*
X7450000Y-5800000D02*
X8200000Y-5800000D01*
X8200000Y-5800000D02*
X8200000Y-8750000D01*
X8200000Y-8750000D02*
X11250000Y-8750000D01*
X8400000Y-3250000D02*
X7150000Y-3250000D01*
X14300000Y-5800000D02*
X14300000Y-8750000D01*
X14300000Y-8750000D02*
X11250000Y-8750000D01*
X15050000Y-5800000D02*
X14300000Y-5800000D01*
X7440000Y-3540000D02*
X15060000Y-3540000D01*
X15060000Y-9510000D01*
X7440000Y-9510000D01*
X7440000Y-3540000D01*
X7450000Y-3550000D02*
X9250000Y-3550000D01*
X9250000Y-4300000D01*
X7450000Y-4300000D01*
X7450000Y-3550000D01*
X10750000Y-3550000D02*
X11750000Y-3550000D01*
X11750000Y-4300000D01*
X10750000Y-4300000D01*
X10750000Y-3550000D01*
X13250000Y-3550000D02*
X15050000Y-3550000D01*
X15050000Y-4300000D01*
X13250000Y-4300000D01*
X13250000Y-3550000D01*
%TO.C,R_SR1*%
X70772936Y-16515000D02*
X71227064Y-16515000D01*
X70772936Y-17985000D02*
X71227064Y-17985000D01*
%TO.C,R_PUR1*%
X65772936Y-14765000D02*
X66227064Y-14765000D01*
X65772936Y-16235000D02*
X66227064Y-16235000D01*
%TO.C,C_BR1*%
X65738748Y-18265000D02*
X66261252Y-18265000D01*
X65738748Y-19735000D02*
X66261252Y-19735000D01*
%TO.C,R_FB2*%
X26272936Y-24765000D02*
X26727064Y-24765000D01*
X26272936Y-26235000D02*
X26727064Y-26235000D01*
%TO.C,J_BUZ1*%
X3250000Y-48600000D02*
X3250000Y-49850000D01*
X3250000Y-49850000D02*
X4500000Y-49850000D01*
X5800000Y-41950000D02*
X5800000Y-42700000D01*
X5800000Y-42700000D02*
X8750000Y-42700000D01*
X5800000Y-48800000D02*
X8750000Y-48800000D01*
X5800000Y-49550000D02*
X5800000Y-48800000D01*
X8750000Y-42700000D02*
X8750000Y-45750000D01*
X8750000Y-48800000D02*
X8750000Y-45750000D01*
X3540000Y-49560000D02*
X9510000Y-49560000D01*
X9510000Y-41940000D01*
X3540000Y-41940000D01*
X3540000Y-49560000D01*
X3550000Y-43750000D02*
X4300000Y-43750000D01*
X4300000Y-41950000D01*
X3550000Y-41950000D01*
X3550000Y-43750000D01*
X3550000Y-46250000D02*
X4300000Y-46250000D01*
X4300000Y-45250000D01*
X3550000Y-45250000D01*
X3550000Y-46250000D01*
X3550000Y-49550000D02*
X4300000Y-49550000D01*
X4300000Y-47750000D01*
X3550000Y-47750000D01*
X3550000Y-49550000D01*
%TO.C,R_SB1*%
X24772936Y-50015000D02*
X25227064Y-50015000D01*
X24772936Y-51485000D02*
X25227064Y-51485000D01*
%TO.C,J_NFC1*%
X51150000Y-3250000D02*
X51150000Y-4500000D01*
X51450000Y-5800000D02*
X52200000Y-5800000D01*
X52200000Y-5800000D02*
X52200000Y-8750000D01*
X52200000Y-8750000D02*
X57750000Y-8750000D01*
X52400000Y-3250000D02*
X51150000Y-3250000D01*
X63300000Y-5800000D02*
X63300000Y-8750000D01*
X63300000Y-8750000D02*
X57750000Y-8750000D01*
X64050000Y-5800000D02*
X63300000Y-5800000D01*
X51440000Y-3540000D02*
X64060000Y-3540000D01*
X64060000Y-9510000D01*
X51440000Y-9510000D01*
X51440000Y-3540000D01*
X51450000Y-3550000D02*
X53250000Y-3550000D01*
X53250000Y-4300000D01*
X51450000Y-4300000D01*
X51450000Y-3550000D01*
X54750000Y-3550000D02*
X60750000Y-3550000D01*
X60750000Y-4300000D01*
X54750000Y-4300000D01*
X54750000Y-3550000D01*
X62250000Y-3550000D02*
X64050000Y-3550000D01*
X64050000Y-4300000D01*
X62250000Y-4300000D01*
X62250000Y-3550000D01*
%TO.C,R_PDLR1*%
X32227064Y-31265000D02*
X31772936Y-31265000D01*
X32227064Y-32735000D02*
X31772936Y-32735000D01*
%TO.C,R_SCL3*%
X49272936Y-19265000D02*
X49727064Y-19265000D01*
X49272936Y-20735000D02*
X49727064Y-20735000D01*
%TO.C,D1*%
X17790000Y-14350000D02*
X17790000Y-17650000D01*
X17790000Y-14350000D02*
X23300000Y-14350000D01*
X17790000Y-17650000D02*
X23300000Y-17650000D01*
%TO.C,R_PDBZ1*%
X24227064Y-31265000D02*
X23772936Y-31265000D01*
X24227064Y-32735000D02*
X23772936Y-32735000D01*
%TO.C,C_BULK1*%
X11249759Y-18661000D02*
X11879759Y-18661000D01*
X11564759Y-18346000D02*
X11564759Y-18976000D01*
X14750000Y-17270000D02*
X14750000Y-23730000D01*
X14790000Y-17270000D02*
X14790000Y-23730000D01*
X14830000Y-17271000D02*
X14830000Y-23729000D01*
X14870000Y-17272000D02*
X14870000Y-23728000D01*
X14910000Y-17274000D02*
X14910000Y-23726000D01*
X14950000Y-17276000D02*
X14950000Y-23724000D01*
X14990000Y-17279000D02*
X14990000Y-19460000D01*
X14990000Y-21540000D02*
X14990000Y-23721000D01*
X15030000Y-17282000D02*
X15030000Y-19460000D01*
X15030000Y-21540000D02*
X15030000Y-23718000D01*
X15070000Y-17286000D02*
X15070000Y-19460000D01*
X15070000Y-21540000D02*
X15070000Y-23714000D01*
X15110000Y-17290000D02*
X15110000Y-19460000D01*
X15110000Y-21540000D02*
X15110000Y-23710000D01*
X15150000Y-17295000D02*
X15150000Y-19460000D01*
X15150000Y-21540000D02*
X15150000Y-23705000D01*
X15190000Y-17300000D02*
X15190000Y-19460000D01*
X15190000Y-21540000D02*
X15190000Y-23700000D01*
X15230000Y-17305000D02*
X15230000Y-19460000D01*
X15230000Y-21540000D02*
X15230000Y-23695000D01*
X15270000Y-17312000D02*
X15270000Y-19460000D01*
X15270000Y-21540000D02*
X15270000Y-23688000D01*
X15310000Y-17318000D02*
X15310000Y-19460000D01*
X15310000Y-21540000D02*
X15310000Y-23682000D01*
X15350000Y-17326000D02*
X15350000Y-19460000D01*
X15350000Y-21540000D02*
X15350000Y-23674000D01*
X15390000Y-17333000D02*
X15390000Y-19460000D01*
X15390000Y-21540000D02*
X15390000Y-23667000D01*
X15430000Y-17341000D02*
X15430000Y-19460000D01*
X15430000Y-21540000D02*
X15430000Y-23659000D01*
X15470000Y-17350000D02*
X15470000Y-19460000D01*
X15470000Y-21540000D02*
X15470000Y-23650000D01*
X15510000Y-17360000D02*
X15510000Y-19460000D01*
X15510000Y-21540000D02*
X15510000Y-23640000D01*
X15550000Y-17369000D02*
X15550000Y-19460000D01*
X15550000Y-21540000D02*
X15550000Y-23631000D01*
X15590000Y-17380000D02*
X15590000Y-19460000D01*
X15590000Y-21540000D02*
X15590000Y-23620000D01*
X15630000Y-17391000D02*
X15630000Y-19460000D01*
X15630000Y-21540000D02*
X15630000Y-23609000D01*
X15670000Y-17402000D02*
X15670000Y-19460000D01*
X15670000Y-21540000D02*
X15670000Y-23598000D01*
X15710000Y-17414000D02*
X15710000Y-19460000D01*
X15710000Y-21540000D02*
X15710000Y-23586000D01*
X15750000Y-17427000D02*
X15750000Y-19460000D01*
X15750000Y-21540000D02*
X15750000Y-23573000D01*
X15790000Y-17440000D02*
X15790000Y-19460000D01*
X15790000Y-21540000D02*
X15790000Y-23560000D01*
X15830000Y-17453000D02*
X15830000Y-19460000D01*
X15830000Y-21540000D02*
X15830000Y-23547000D01*
X15870000Y-17468000D02*
X15870000Y-19460000D01*
X15870000Y-21540000D02*
X15870000Y-23532000D01*
X15910000Y-17483000D02*
X15910000Y-19460000D01*
X15910000Y-21540000D02*
X15910000Y-23517000D01*
X15950000Y-17498000D02*
X15950000Y-19460000D01*
X15950000Y-21540000D02*
X15950000Y-23502000D01*
X15990000Y-17514000D02*
X15990000Y-19460000D01*
X15990000Y-21540000D02*
X15990000Y-23486000D01*
X16030000Y-17531000D02*
X16030000Y-19460000D01*
X16030000Y-21540000D02*
X16030000Y-23469000D01*
X16070000Y-17548000D02*
X16070000Y-19460000D01*
X16070000Y-21540000D02*
X16070000Y-23452000D01*
X16110000Y-17566000D02*
X16110000Y-19460000D01*
X16110000Y-21540000D02*
X16110000Y-23434000D01*
X16150000Y-17585000D02*
X16150000Y-19460000D01*
X16150000Y-21540000D02*
X16150000Y-23415000D01*
X16190000Y-17604000D02*
X16190000Y-19460000D01*
X16190000Y-21540000D02*
X16190000Y-23396000D01*
X16230000Y-17624000D02*
X16230000Y-19460000D01*
X16230000Y-21540000D02*
X16230000Y-23376000D01*
X16270000Y-17645000D02*
X16270000Y-19460000D01*
X16270000Y-21540000D02*
X16270000Y-23355000D01*
X16310000Y-17666000D02*
X16310000Y-19460000D01*
X16310000Y-21540000D02*
X16310000Y-23334000D01*
X16350000Y-17688000D02*
X16350000Y-19460000D01*
X16350000Y-21540000D02*
X16350000Y-23312000D01*
X16390000Y-17711000D02*
X16390000Y-19460000D01*
X16390000Y-21540000D02*
X16390000Y-23289000D01*
X16430000Y-17735000D02*
X16430000Y-19460000D01*
X16430000Y-21540000D02*
X16430000Y-23265000D01*
X16470000Y-17759000D02*
X16470000Y-19460000D01*
X16470000Y-21540000D02*
X16470000Y-23241000D01*
X16510000Y-17784000D02*
X16510000Y-19460000D01*
X16510000Y-21540000D02*
X16510000Y-23216000D01*
X16550000Y-17810000D02*
X16550000Y-19460000D01*
X16550000Y-21540000D02*
X16550000Y-23190000D01*
X16590000Y-17837000D02*
X16590000Y-19460000D01*
X16590000Y-21540000D02*
X16590000Y-23163000D01*
X16630000Y-17864000D02*
X16630000Y-19460000D01*
X16630000Y-21540000D02*
X16630000Y-23136000D01*
X16670000Y-17893000D02*
X16670000Y-19460000D01*
X16670000Y-21540000D02*
X16670000Y-23107000D01*
X16710000Y-17923000D02*
X16710000Y-19460000D01*
X16710000Y-21540000D02*
X16710000Y-23077000D01*
X16750000Y-17953000D02*
X16750000Y-19460000D01*
X16750000Y-21540000D02*
X16750000Y-23047000D01*
X16790000Y-17984000D02*
X16790000Y-19460000D01*
X16790000Y-21540000D02*
X16790000Y-23016000D01*
X16830000Y-18017000D02*
X16830000Y-19460000D01*
X16830000Y-21540000D02*
X16830000Y-22983000D01*
X16870000Y-18050000D02*
X16870000Y-19460000D01*
X16870000Y-21540000D02*
X16870000Y-22950000D01*
X16910000Y-18085000D02*
X16910000Y-19460000D01*
X16910000Y-21540000D02*
X16910000Y-22915000D01*
X16950000Y-18121000D02*
X16950000Y-19460000D01*
X16950000Y-21540000D02*
X16950000Y-22879000D01*
X16990000Y-18158000D02*
X16990000Y-19460000D01*
X16990000Y-21540000D02*
X16990000Y-22842000D01*
X17030000Y-18196000D02*
X17030000Y-19460000D01*
X17030000Y-21540000D02*
X17030000Y-22804000D01*
X17070000Y-18236000D02*
X17070000Y-22764000D01*
X17110000Y-18277000D02*
X17110000Y-22723000D01*
X17150000Y-18319000D02*
X17150000Y-22681000D01*
X17190000Y-18363000D02*
X17190000Y-22637000D01*
X17230000Y-18409000D02*
X17230000Y-22591000D01*
X17270000Y-18456000D02*
X17270000Y-22544000D01*
X17310000Y-18505000D02*
X17310000Y-22495000D01*
X17350000Y-18557000D02*
X17350000Y-22443000D01*
X17390000Y-18610000D02*
X17390000Y-22390000D01*
X17430000Y-18666000D02*
X17430000Y-22334000D01*
X17470000Y-18725000D02*
X17470000Y-22275000D01*
X17510000Y-18786000D02*
X17510000Y-22214000D01*
X17550000Y-18851000D02*
X17550000Y-22149000D01*
X17590000Y-18919000D02*
X17590000Y-22081000D01*
X17630000Y-18991000D02*
X17630000Y-22009000D01*
X17670000Y-19068000D02*
X17670000Y-21932000D01*
X17710000Y-19150000D02*
X17710000Y-21850000D01*
X17750000Y-19239000D02*
X17750000Y-21761000D01*
X17790000Y-19335000D02*
X17790000Y-21665000D01*
X17830000Y-19442000D02*
X17830000Y-21558000D01*
X17870000Y-19561000D02*
X17870000Y-21439000D01*
X17910000Y-19699000D02*
X17910000Y-21301000D01*
X17950000Y-19867000D02*
X17950000Y-21133000D01*
X17990000Y-20098000D02*
X17990000Y-20902000D01*
X18020000Y-20500000D02*
G75*
G02*
X11480000Y-20500000I-3270000J0D01*
G01*
X11480000Y-20500000D02*
G75*
G02*
X18020000Y-20500000I3270000J0D01*
G01*
%TO.C,C_OUT2*%
X20288748Y-21990000D02*
X21711252Y-21990000D01*
X20288748Y-23810000D02*
X21711252Y-23810000D01*
%TO.C,J_KEY1*%
X16150000Y-3250000D02*
X16150000Y-4500000D01*
X16450000Y-5800000D02*
X17200000Y-5800000D01*
X17200000Y-5800000D02*
X17200000Y-8750000D01*
X17200000Y-8750000D02*
X20250000Y-8750000D01*
X17400000Y-3250000D02*
X16150000Y-3250000D01*
X23300000Y-5800000D02*
X23300000Y-8750000D01*
X23300000Y-8750000D02*
X20250000Y-8750000D01*
X24050000Y-5800000D02*
X23300000Y-5800000D01*
X16440000Y-3540000D02*
X24060000Y-3540000D01*
X24060000Y-9510000D01*
X16440000Y-9510000D01*
X16440000Y-3540000D01*
X16450000Y-3550000D02*
X18250000Y-3550000D01*
X18250000Y-4300000D01*
X16450000Y-4300000D01*
X16450000Y-3550000D01*
X19750000Y-3550000D02*
X20750000Y-3550000D01*
X20750000Y-4300000D01*
X19750000Y-4300000D01*
X19750000Y-3550000D01*
X22250000Y-3550000D02*
X24050000Y-3550000D01*
X24050000Y-4300000D01*
X22250000Y-4300000D01*
X22250000Y-3550000D01*
%TO.C,R_GLR1*%
X31772936Y-28265000D02*
X32227064Y-28265000D01*
X31772936Y-29735000D02*
X32227064Y-29735000D01*
%TO.C,Q_SDA1*%
X43240000Y-14440000D02*
X44760000Y-14440000D01*
X43240000Y-14490000D02*
X43240000Y-14440000D01*
X43240000Y-16390000D02*
X43240000Y-15610000D01*
X43240000Y-17560000D02*
X43240000Y-17510000D01*
X44760000Y-14440000D02*
X44760000Y-15440000D01*
X44760000Y-16560000D02*
X44760000Y-17560000D01*
X44760000Y-17560000D02*
X43240000Y-17560000D01*
X42940000Y-15950000D02*
X42460000Y-15950000D01*
X42700000Y-15620000D01*
X42940000Y-15950000D01*
G36*
X42940000Y-15950000D02*
G01*
X42460000Y-15950000D01*
X42700000Y-15620000D01*
X42940000Y-15950000D01*
G37*
%TO.C,F1*%
X14597936Y-13090000D02*
X15802064Y-13090000D01*
X14597936Y-14910000D02*
X15802064Y-14910000D01*
%TO.C,R_GLB1*%
X15772936Y-28265000D02*
X16227064Y-28265000D01*
X15772936Y-29735000D02*
X16227064Y-29735000D01*
%TO.C,Q_BZ1*%
X22440000Y-34740000D02*
X22490000Y-34740000D01*
X22440000Y-36260000D02*
X22440000Y-34740000D01*
X23440000Y-36260000D02*
X22440000Y-36260000D01*
X23610000Y-34740000D02*
X24390000Y-34740000D01*
X25510000Y-34740000D02*
X25560000Y-34740000D01*
X25560000Y-34740000D02*
X25560000Y-36260000D01*
X25560000Y-36260000D02*
X24560000Y-36260000D01*
X24380000Y-34200000D02*
X24050000Y-34440000D01*
X24050000Y-33960000D01*
X24380000Y-34200000D01*
G36*
X24380000Y-34200000D02*
G01*
X24050000Y-34440000D01*
X24050000Y-33960000D01*
X24380000Y-34200000D01*
G37*
%TO.C,J3*%
X43490000Y-25670000D02*
X44820000Y-25670000D01*
X43490000Y-27000000D02*
X43490000Y-25670000D01*
X46090000Y-25670000D02*
X89330000Y-25670000D01*
X46090000Y-28330000D02*
X46090000Y-25670000D01*
X46090000Y-28330000D02*
X89330000Y-28330000D01*
X89330000Y-28330000D02*
X89330000Y-25670000D01*
%TO.C,L1*%
X25400000Y-12400000D02*
X25400000Y-12850000D01*
X25400000Y-12400000D02*
X31600000Y-12400000D01*
X25400000Y-18600000D02*
X25400000Y-18150000D01*
X31600000Y-12400000D02*
X31600000Y-12850000D01*
X31600000Y-18600000D02*
X25400000Y-18600000D01*
X31600000Y-18600000D02*
X31600000Y-18150000D01*
%TO.C,R_PDLB1*%
X16227064Y-31265000D02*
X15772936Y-31265000D01*
X16227064Y-32735000D02*
X15772936Y-32735000D01*
%TO.C,R_LLR1*%
X31265000Y-39272936D02*
X31265000Y-39727064D01*
X32735000Y-39272936D02*
X32735000Y-39727064D01*
%TO.C,C_OUT1*%
X20288748Y-19090000D02*
X21711252Y-19090000D01*
X20288748Y-20910000D02*
X21711252Y-20910000D01*
%TO.C,C_IN1*%
X30290000Y-21088748D02*
X30290000Y-22511252D01*
X32110000Y-21088748D02*
X32110000Y-22511252D01*
%TO.C,J_HBAT1*%
X25150000Y-3250000D02*
X25150000Y-4500000D01*
X25450000Y-5800000D02*
X26200000Y-5800000D01*
X26200000Y-5800000D02*
X26200000Y-8750000D01*
X26200000Y-8750000D02*
X29250000Y-8750000D01*
X26400000Y-3250000D02*
X25150000Y-3250000D01*
X32300000Y-5800000D02*
X32300000Y-8750000D01*
X32300000Y-8750000D02*
X29250000Y-8750000D01*
X33050000Y-5800000D02*
X32300000Y-5800000D01*
X25440000Y-3540000D02*
X33060000Y-3540000D01*
X33060000Y-9510000D01*
X25440000Y-9510000D01*
X25440000Y-3540000D01*
X25450000Y-3550000D02*
X27250000Y-3550000D01*
X27250000Y-4300000D01*
X25450000Y-4300000D01*
X25450000Y-3550000D01*
X28750000Y-3550000D02*
X29750000Y-3550000D01*
X29750000Y-4300000D01*
X28750000Y-4300000D01*
X28750000Y-3550000D01*
X31250000Y-3550000D02*
X33050000Y-3550000D01*
X33050000Y-4300000D01*
X31250000Y-4300000D01*
X31250000Y-3550000D01*
%TO.C,R_FB1*%
X21772936Y-25265000D02*
X22227064Y-25265000D01*
X21772936Y-26735000D02*
X22227064Y-26735000D01*
%TO.C,U1*%
X26090000Y-19940000D02*
X27910000Y-19940000D01*
X26090000Y-19990000D02*
X26090000Y-19940000D01*
X26090000Y-23060000D02*
X26090000Y-23010000D01*
X27910000Y-19940000D02*
X27910000Y-19990000D01*
X27910000Y-23010000D02*
X27910000Y-23060000D01*
X27910000Y-23060000D02*
X26090000Y-23060000D01*
X25550000Y-19990000D02*
X25310000Y-19660000D01*
X25790000Y-19660000D01*
X25550000Y-19990000D01*
G36*
X25550000Y-19990000D02*
G01*
X25310000Y-19660000D01*
X25790000Y-19660000D01*
X25550000Y-19990000D01*
G37*
%TO.C,J2*%
X43490000Y-48530000D02*
X44820000Y-48530000D01*
X43490000Y-49860000D02*
X43490000Y-48530000D01*
X46090000Y-48530000D02*
X89330000Y-48530000D01*
X46090000Y-51190000D02*
X46090000Y-48530000D01*
X46090000Y-51190000D02*
X89330000Y-51190000D01*
X89330000Y-51190000D02*
X89330000Y-48530000D01*
%TO.C,R_SCL5*%
X49272936Y-22565000D02*
X49727064Y-22565000D01*
X49272936Y-24035000D02*
X49727064Y-24035000D01*
%TO.C,R_SDA3*%
X43772936Y-19265000D02*
X44227064Y-19265000D01*
X43772936Y-20735000D02*
X44227064Y-20735000D01*
%TO.C,D_FLY1*%
X12640000Y-44000000D02*
X12640000Y-46000000D01*
X12640000Y-44000000D02*
X16650000Y-44000000D01*
X12640000Y-46000000D02*
X16650000Y-46000000D01*
%TO.C,R_LLB1*%
X15265000Y-39272936D02*
X15265000Y-39727064D01*
X16735000Y-39272936D02*
X16735000Y-39727064D01*
%TO.C,Q_LB1*%
X14440000Y-34740000D02*
X14490000Y-34740000D01*
X14440000Y-36260000D02*
X14440000Y-34740000D01*
X15440000Y-36260000D02*
X14440000Y-36260000D01*
X15610000Y-34740000D02*
X16390000Y-34740000D01*
X17510000Y-34740000D02*
X17560000Y-34740000D01*
X17560000Y-34740000D02*
X17560000Y-36260000D01*
X17560000Y-36260000D02*
X16560000Y-36260000D01*
X16380000Y-34200000D02*
X16050000Y-34440000D01*
X16050000Y-33960000D01*
X16380000Y-34200000D01*
G36*
X16380000Y-34200000D02*
G01*
X16050000Y-34440000D01*
X16050000Y-33960000D01*
X16380000Y-34200000D01*
G37*
%TO.C,R_SDA5*%
X43772936Y-22565000D02*
X44227064Y-22565000D01*
X43772936Y-24035000D02*
X44227064Y-24035000D01*
%TO.C,Q_LR1*%
X30440000Y-34740000D02*
X30490000Y-34740000D01*
X30440000Y-36260000D02*
X30440000Y-34740000D01*
X31440000Y-36260000D02*
X30440000Y-36260000D01*
X31610000Y-34740000D02*
X32390000Y-34740000D01*
X33510000Y-34740000D02*
X33560000Y-34740000D01*
X33560000Y-34740000D02*
X33560000Y-36260000D01*
X33560000Y-36260000D02*
X32560000Y-36260000D01*
X32380000Y-34200000D02*
X32050000Y-34440000D01*
X32050000Y-33960000D01*
X32380000Y-34200000D01*
G36*
X32380000Y-34200000D02*
G01*
X32050000Y-34440000D01*
X32050000Y-33960000D01*
X32380000Y-34200000D01*
G37*
%TO.C,R_GBZ1*%
X23772936Y-28265000D02*
X24227064Y-28265000D01*
X23772936Y-29735000D02*
X24227064Y-29735000D01*
%TO.C,J_LCD1*%
X37150000Y-3250000D02*
X37150000Y-4500000D01*
X37450000Y-5800000D02*
X38200000Y-5800000D01*
X38200000Y-5800000D02*
X38200000Y-8750000D01*
X38200000Y-8750000D02*
X43750000Y-8750000D01*
X38400000Y-3250000D02*
X37150000Y-3250000D01*
X49300000Y-5800000D02*
X49300000Y-8750000D01*
X49300000Y-8750000D02*
X43750000Y-8750000D01*
X50050000Y-5800000D02*
X49300000Y-5800000D01*
X37440000Y-3540000D02*
X50060000Y-3540000D01*
X50060000Y-9510000D01*
X37440000Y-9510000D01*
X37440000Y-3540000D01*
X37450000Y-3550000D02*
X39250000Y-3550000D01*
X39250000Y-4300000D01*
X37450000Y-4300000D01*
X37450000Y-3550000D01*
X40750000Y-3550000D02*
X46750000Y-3550000D01*
X46750000Y-4300000D01*
X40750000Y-4300000D01*
X40750000Y-3550000D01*
X48250000Y-3550000D02*
X50050000Y-3550000D01*
X50050000Y-4300000D01*
X48250000Y-4300000D01*
X48250000Y-3550000D01*
%TO.C,J_BTN_B1*%
X3250000Y-34600000D02*
X3250000Y-35850000D01*
X3250000Y-35850000D02*
X4500000Y-35850000D01*
X5800000Y-22950000D02*
X5800000Y-23700000D01*
X5800000Y-23700000D02*
X8750000Y-23700000D01*
X5800000Y-34800000D02*
X8750000Y-34800000D01*
X5800000Y-35550000D02*
X5800000Y-34800000D01*
X8750000Y-23700000D02*
X8750000Y-29250000D01*
X8750000Y-34800000D02*
X8750000Y-29250000D01*
X3540000Y-35560000D02*
X9510000Y-35560000D01*
X9510000Y-22940000D01*
X3540000Y-22940000D01*
X3540000Y-35560000D01*
X3550000Y-24750000D02*
X4300000Y-24750000D01*
X4300000Y-22950000D01*
X3550000Y-22950000D01*
X3550000Y-24750000D01*
X3550000Y-32250000D02*
X4300000Y-32250000D01*
X4300000Y-26250000D01*
X3550000Y-26250000D01*
X3550000Y-32250000D01*
X3550000Y-35550000D02*
X4300000Y-35550000D01*
X4300000Y-33750000D01*
X3550000Y-33750000D01*
X3550000Y-35550000D01*
%TO.C,Q_SCL1*%
X48740000Y-14440000D02*
X50260000Y-14440000D01*
X48740000Y-14490000D02*
X48740000Y-14440000D01*
X48740000Y-16390000D02*
X48740000Y-15610000D01*
X48740000Y-17560000D02*
X48740000Y-17510000D01*
X50260000Y-14440000D02*
X50260000Y-15440000D01*
X50260000Y-16560000D02*
X50260000Y-17560000D01*
X50260000Y-17560000D02*
X48740000Y-17560000D01*
X48440000Y-15950000D02*
X47960000Y-15950000D01*
X48200000Y-15620000D01*
X48440000Y-15950000D01*
G36*
X48440000Y-15950000D02*
G01*
X47960000Y-15950000D01*
X48200000Y-15620000D01*
X48440000Y-15950000D01*
G37*
%TO.C,C_NFC1*%
X53249759Y-16161000D02*
X53879759Y-16161000D01*
X53564759Y-15846000D02*
X53564759Y-16476000D01*
X56750000Y-14770000D02*
X56750000Y-21230000D01*
X56790000Y-14770000D02*
X56790000Y-21230000D01*
X56830000Y-14771000D02*
X56830000Y-21229000D01*
X56870000Y-14772000D02*
X56870000Y-21228000D01*
X56910000Y-14774000D02*
X56910000Y-21226000D01*
X56950000Y-14776000D02*
X56950000Y-21224000D01*
X56990000Y-14779000D02*
X56990000Y-16960000D01*
X56990000Y-19040000D02*
X56990000Y-21221000D01*
X57030000Y-14782000D02*
X57030000Y-16960000D01*
X57030000Y-19040000D02*
X57030000Y-21218000D01*
X57070000Y-14786000D02*
X57070000Y-16960000D01*
X57070000Y-19040000D02*
X57070000Y-21214000D01*
X57110000Y-14790000D02*
X57110000Y-16960000D01*
X57110000Y-19040000D02*
X57110000Y-21210000D01*
X57150000Y-14795000D02*
X57150000Y-16960000D01*
X57150000Y-19040000D02*
X57150000Y-21205000D01*
X57190000Y-14800000D02*
X57190000Y-16960000D01*
X57190000Y-19040000D02*
X57190000Y-21200000D01*
X57230000Y-14805000D02*
X57230000Y-16960000D01*
X57230000Y-19040000D02*
X57230000Y-21195000D01*
X57270000Y-14812000D02*
X57270000Y-16960000D01*
X57270000Y-19040000D02*
X57270000Y-21188000D01*
X57310000Y-14818000D02*
X57310000Y-16960000D01*
X57310000Y-19040000D02*
X57310000Y-21182000D01*
X57350000Y-14826000D02*
X57350000Y-16960000D01*
X57350000Y-19040000D02*
X57350000Y-21174000D01*
X57390000Y-14833000D02*
X57390000Y-16960000D01*
X57390000Y-19040000D02*
X57390000Y-21167000D01*
X57430000Y-14841000D02*
X57430000Y-16960000D01*
X57430000Y-19040000D02*
X57430000Y-21159000D01*
X57470000Y-14850000D02*
X57470000Y-16960000D01*
X57470000Y-19040000D02*
X57470000Y-21150000D01*
X57510000Y-14860000D02*
X57510000Y-16960000D01*
X57510000Y-19040000D02*
X57510000Y-21140000D01*
X57550000Y-14869000D02*
X57550000Y-16960000D01*
X57550000Y-19040000D02*
X57550000Y-21131000D01*
X57590000Y-14880000D02*
X57590000Y-16960000D01*
X57590000Y-19040000D02*
X57590000Y-21120000D01*
X57630000Y-14891000D02*
X57630000Y-16960000D01*
X57630000Y-19040000D02*
X57630000Y-21109000D01*
X57670000Y-14902000D02*
X57670000Y-16960000D01*
X57670000Y-19040000D02*
X57670000Y-21098000D01*
X57710000Y-14914000D02*
X57710000Y-16960000D01*
X57710000Y-19040000D02*
X57710000Y-21086000D01*
X57750000Y-14927000D02*
X57750000Y-16960000D01*
X57750000Y-19040000D02*
X57750000Y-21073000D01*
X57790000Y-14940000D02*
X57790000Y-16960000D01*
X57790000Y-19040000D02*
X57790000Y-21060000D01*
X57830000Y-14953000D02*
X57830000Y-16960000D01*
X57830000Y-19040000D02*
X57830000Y-21047000D01*
X57870000Y-14968000D02*
X57870000Y-16960000D01*
X57870000Y-19040000D02*
X57870000Y-21032000D01*
X57910000Y-14983000D02*
X57910000Y-16960000D01*
X57910000Y-19040000D02*
X57910000Y-21017000D01*
X57950000Y-14998000D02*
X57950000Y-16960000D01*
X57950000Y-19040000D02*
X57950000Y-21002000D01*
X57990000Y-15014000D02*
X57990000Y-16960000D01*
X57990000Y-19040000D02*
X57990000Y-20986000D01*
X58030000Y-15031000D02*
X58030000Y-16960000D01*
X58030000Y-19040000D02*
X58030000Y-20969000D01*
X58070000Y-15048000D02*
X58070000Y-16960000D01*
X58070000Y-19040000D02*
X58070000Y-20952000D01*
X58110000Y-15066000D02*
X58110000Y-16960000D01*
X58110000Y-19040000D02*
X58110000Y-20934000D01*
X58150000Y-15085000D02*
X58150000Y-16960000D01*
X58150000Y-19040000D02*
X58150000Y-20915000D01*
X58190000Y-15104000D02*
X58190000Y-16960000D01*
X58190000Y-19040000D02*
X58190000Y-20896000D01*
X58230000Y-15124000D02*
X58230000Y-16960000D01*
X58230000Y-19040000D02*
X58230000Y-20876000D01*
X58270000Y-15145000D02*
X58270000Y-16960000D01*
X58270000Y-19040000D02*
X58270000Y-20855000D01*
X58310000Y-15166000D02*
X58310000Y-16960000D01*
X58310000Y-19040000D02*
X58310000Y-20834000D01*
X58350000Y-15188000D02*
X58350000Y-16960000D01*
X58350000Y-19040000D02*
X58350000Y-20812000D01*
X58390000Y-15211000D02*
X58390000Y-16960000D01*
X58390000Y-19040000D02*
X58390000Y-20789000D01*
X58430000Y-15235000D02*
X58430000Y-16960000D01*
X58430000Y-19040000D02*
X58430000Y-20765000D01*
X58470000Y-15259000D02*
X58470000Y-16960000D01*
X58470000Y-19040000D02*
X58470000Y-20741000D01*
X58510000Y-15284000D02*
X58510000Y-16960000D01*
X58510000Y-19040000D02*
X58510000Y-20716000D01*
X58550000Y-15310000D02*
X58550000Y-16960000D01*
X58550000Y-19040000D02*
X58550000Y-20690000D01*
X58590000Y-15337000D02*
X58590000Y-16960000D01*
X58590000Y-19040000D02*
X58590000Y-20663000D01*
X58630000Y-15364000D02*
X58630000Y-16960000D01*
X58630000Y-19040000D02*
X58630000Y-20636000D01*
X58670000Y-15393000D02*
X58670000Y-16960000D01*
X58670000Y-19040000D02*
X58670000Y-20607000D01*
X58710000Y-15423000D02*
X58710000Y-16960000D01*
X58710000Y-19040000D02*
X58710000Y-20577000D01*
X58750000Y-15453000D02*
X58750000Y-16960000D01*
X58750000Y-19040000D02*
X58750000Y-20547000D01*
X58790000Y-15484000D02*
X58790000Y-16960000D01*
X58790000Y-19040000D02*
X58790000Y-20516000D01*
X58830000Y-15517000D02*
X58830000Y-16960000D01*
X58830000Y-19040000D02*
X58830000Y-20483000D01*
X58870000Y-15550000D02*
X58870000Y-16960000D01*
X58870000Y-19040000D02*
X58870000Y-20450000D01*
X58910000Y-15585000D02*
X58910000Y-16960000D01*
X58910000Y-19040000D02*
X58910000Y-20415000D01*
X58950000Y-15621000D02*
X58950000Y-16960000D01*
X58950000Y-19040000D02*
X58950000Y-20379000D01*
X58990000Y-15658000D02*
X58990000Y-16960000D01*
X58990000Y-19040000D02*
X58990000Y-20342000D01*
X59030000Y-15696000D02*
X59030000Y-16960000D01*
X59030000Y-19040000D02*
X59030000Y-20304000D01*
X59070000Y-15736000D02*
X59070000Y-20264000D01*
X59110000Y-15777000D02*
X59110000Y-20223000D01*
X59150000Y-15819000D02*
X59150000Y-20181000D01*
X59190000Y-15863000D02*
X59190000Y-20137000D01*
X59230000Y-15909000D02*
X59230000Y-20091000D01*
X59270000Y-15956000D02*
X59270000Y-20044000D01*
X59310000Y-16005000D02*
X59310000Y-19995000D01*
X59350000Y-16057000D02*
X59350000Y-19943000D01*
X59390000Y-16110000D02*
X59390000Y-19890000D01*
X59430000Y-16166000D02*
X59430000Y-19834000D01*
X59470000Y-16225000D02*
X59470000Y-19775000D01*
X59510000Y-16286000D02*
X59510000Y-19714000D01*
X59550000Y-16351000D02*
X59550000Y-19649000D01*
X59590000Y-16419000D02*
X59590000Y-19581000D01*
X59630000Y-16491000D02*
X59630000Y-19509000D01*
X59670000Y-16568000D02*
X59670000Y-19432000D01*
X59710000Y-16650000D02*
X59710000Y-19350000D01*
X59750000Y-16739000D02*
X59750000Y-19261000D01*
X59790000Y-16835000D02*
X59790000Y-19165000D01*
X59830000Y-16942000D02*
X59830000Y-19058000D01*
X59870000Y-17061000D02*
X59870000Y-18939000D01*
X59910000Y-17199000D02*
X59910000Y-18801000D01*
X59950000Y-17367000D02*
X59950000Y-18633000D01*
X59990000Y-17598000D02*
X59990000Y-18402000D01*
X60020000Y-18000000D02*
G75*
G02*
X53480000Y-18000000I-3270000J0D01*
G01*
X53480000Y-18000000D02*
G75*
G02*
X60020000Y-18000000I3270000J0D01*
G01*
%TO.C,J_BTN_R1*%
X65150000Y-3250000D02*
X65150000Y-4500000D01*
X65450000Y-5800000D02*
X66200000Y-5800000D01*
X66200000Y-5800000D02*
X66200000Y-8750000D01*
X66200000Y-8750000D02*
X71750000Y-8750000D01*
X66400000Y-3250000D02*
X65150000Y-3250000D01*
X77300000Y-5800000D02*
X77300000Y-8750000D01*
X77300000Y-8750000D02*
X71750000Y-8750000D01*
X78050000Y-5800000D02*
X77300000Y-5800000D01*
X65440000Y-3540000D02*
X78060000Y-3540000D01*
X78060000Y-9510000D01*
X65440000Y-9510000D01*
X65440000Y-3540000D01*
X65450000Y-3550000D02*
X67250000Y-3550000D01*
X67250000Y-4300000D01*
X65450000Y-4300000D01*
X65450000Y-3550000D01*
X68750000Y-3550000D02*
X74750000Y-3550000D01*
X74750000Y-4300000D01*
X68750000Y-4300000D01*
X68750000Y-3550000D01*
X76250000Y-3550000D02*
X78050000Y-3550000D01*
X78050000Y-4300000D01*
X76250000Y-4300000D01*
X76250000Y-3550000D01*
%TD*%
M02*
