%TF.GenerationSoftware,KiCad,Pcbnew,9.0.8+dfsg-1*%
%TF.CreationDate,2026-09-29T10:58:16+02:00*%
%TF.ProjectId,carrier,63617272-6965-4722-9e6b-696361645f70,rev?*%
%TF.SameCoordinates,Original*%
%TF.FileFunction,Soldermask,Top*%
%TF.FilePolarity,Negative*%
%FSLAX46Y46*%
G04 Gerber Fmt 4.6, Leading zero omitted, Abs format (unit mm)*
G04 Created by KiCad (PCBNEW 9.0.8+dfsg-1) date 2026-09-29 10:58:16*
%MOMM*%
%LPD*%
G01*
G04 APERTURE LIST*
G04 Aperture macros list*
%AMRoundRect*
0 Rectangle with rounded corners*
0 $1 Rounding radius*
0 $2 $3 $4 $5 $6 $7 $8 $9 X,Y pos of 4 corners*
0 Add a 4 corners polygon primitive as box body*
4,1,4,$2,$3,$4,$5,$6,$7,$8,$9,$2,$3,0*
0 Add four circle primitives for the rounded corners*
1,1,$1+$1,$2,$3*
1,1,$1+$1,$4,$5*
1,1,$1+$1,$6,$7*
1,1,$1+$1,$8,$9*
0 Add four rect primitives between the rounded corners*
20,1,$1+$1,$2,$3,$4,$5,0*
20,1,$1+$1,$4,$5,$6,$7,0*
20,1,$1+$1,$6,$7,$8,$9,0*
20,1,$1+$1,$8,$9,$2,$3,0*%
G04 Aperture macros list end*
%ADD10RoundRect,0.250000X-0.337500X-0.475000X0.337500X-0.475000X0.337500X0.475000X-0.337500X0.475000X0*%
%ADD11RoundRect,0.250000X-0.350000X-0.450000X0.350000X-0.450000X0.350000X0.450000X-0.350000X0.450000X0*%
%ADD12RoundRect,0.250000X-0.600000X-0.750000X0.600000X-0.750000X0.600000X0.750000X-0.600000X0.750000X0*%
%ADD13O,1.700000X2.000000*%
%ADD14RoundRect,0.250000X0.750000X-0.600000X0.750000X0.600000X-0.750000X0.600000X-0.750000X-0.600000X0*%
%ADD15O,2.000000X1.700000*%
%ADD16RoundRect,0.250000X-0.600000X-0.725000X0.600000X-0.725000X0.600000X0.725000X-0.600000X0.725000X0*%
%ADD17O,1.700000X1.950000*%
%ADD18RoundRect,0.250000X0.350000X0.450000X-0.350000X0.450000X-0.350000X-0.450000X0.350000X-0.450000X0*%
%ADD19RoundRect,0.250000X-1.000000X-0.650000X1.000000X-0.650000X1.000000X0.650000X-1.000000X0.650000X0*%
%ADD20RoundRect,0.250000X-0.550000X-0.550000X0.550000X-0.550000X0.550000X0.550000X-0.550000X0.550000X0*%
%ADD21C,1.600000*%
%ADD22C,3.200000*%
%ADD23RoundRect,0.250000X-0.412500X-0.650000X0.412500X-0.650000X0.412500X0.650000X-0.412500X0.650000X0*%
%ADD24RoundRect,0.150000X-0.587500X-0.150000X0.587500X-0.150000X0.587500X0.150000X-0.587500X0.150000X0*%
%ADD25RoundRect,0.250001X-0.462499X-0.624999X0.462499X-0.624999X0.462499X0.624999X-0.462499X0.624999X0*%
%ADD26RoundRect,0.150000X-0.150000X0.587500X-0.150000X-0.587500X0.150000X-0.587500X0.150000X0.587500X0*%
%ADD27R,1.700000X1.700000*%
%ADD28C,1.700000*%
%ADD29R,2.350000X5.100000*%
%ADD30RoundRect,0.250000X-0.450000X0.350000X-0.450000X-0.350000X0.450000X-0.350000X0.450000X0.350000X0*%
%ADD31RoundRect,0.250000X-0.650000X0.412500X-0.650000X-0.412500X0.650000X-0.412500X0.650000X0.412500X0*%
%ADD32RoundRect,0.150000X-0.512500X-0.150000X0.512500X-0.150000X0.512500X0.150000X-0.512500X0.150000X0*%
%ADD33RoundRect,0.225000X-0.225000X-0.375000X0.225000X-0.375000X0.225000X0.375000X-0.225000X0.375000X0*%
%ADD34RoundRect,0.250000X0.725000X-0.600000X0.725000X0.600000X-0.725000X0.600000X-0.725000X-0.600000X0*%
%ADD35O,1.950000X1.700000*%
G04 APERTURE END LIST*
D10*
%TO.C,C_BB1*%
X18962500Y-52500000D03*
X21037500Y-52500000D03*
%TD*%
D11*
%TO.C,R_PUB1*%
X19000000Y-49000000D03*
X21000000Y-49000000D03*
%TD*%
D12*
%TO.C,J_BAT1*%
X10000000Y-6000000D03*
D13*
X12500000Y-6000000D03*
%TD*%
D11*
%TO.C,R_SR1*%
X70000000Y-17250000D03*
X72000000Y-17250000D03*
%TD*%
%TO.C,R_PUR1*%
X65000000Y-15500000D03*
X67000000Y-15500000D03*
%TD*%
D10*
%TO.C,C_BR1*%
X64962500Y-19000000D03*
X67037500Y-19000000D03*
%TD*%
D11*
%TO.C,R_FB2*%
X25500000Y-25500000D03*
X27500000Y-25500000D03*
%TD*%
D14*
%TO.C,J_BUZ1*%
X6000000Y-47000000D03*
D15*
X6000000Y-44500000D03*
%TD*%
D11*
%TO.C,R_SB1*%
X24000000Y-50750000D03*
X26000000Y-50750000D03*
%TD*%
D16*
%TO.C,J_NFC1*%
X54000000Y-6000000D03*
D17*
X56500000Y-6000000D03*
X59000000Y-6000000D03*
X61500000Y-6000000D03*
%TD*%
D18*
%TO.C,R_PDLR1*%
X33000000Y-32000000D03*
X31000000Y-32000000D03*
%TD*%
D11*
%TO.C,R_SCL3*%
X48500000Y-20000000D03*
X50500000Y-20000000D03*
%TD*%
D19*
%TO.C,D1*%
X19300000Y-16000000D03*
X23300000Y-16000000D03*
%TD*%
D18*
%TO.C,R_PDBZ1*%
X25000000Y-32000000D03*
X23000000Y-32000000D03*
%TD*%
D20*
%TO.C,C_BULK1*%
X13500000Y-20500000D03*
D21*
X16000000Y-20500000D03*
%TD*%
D22*
%TO.C,H1*%
X3500000Y-3500000D03*
%TD*%
D23*
%TO.C,C_OUT2*%
X19437500Y-22900000D03*
X22562500Y-22900000D03*
%TD*%
D12*
%TO.C,J_KEY1*%
X19000000Y-6000000D03*
D13*
X21500000Y-6000000D03*
%TD*%
D22*
%TO.C,H3*%
X3500000Y-56500000D03*
%TD*%
%TO.C,H4*%
X86500000Y-56500000D03*
%TD*%
D11*
%TO.C,R_GLR1*%
X31000000Y-29000000D03*
X33000000Y-29000000D03*
%TD*%
D22*
%TO.C,H2*%
X86500000Y-3500000D03*
%TD*%
D24*
%TO.C,Q_SDA1*%
X43062500Y-15050000D03*
X43062500Y-16950000D03*
X44937500Y-16000000D03*
%TD*%
D25*
%TO.C,F1*%
X13712500Y-14000000D03*
X16687500Y-14000000D03*
%TD*%
D11*
%TO.C,R_GLB1*%
X15000000Y-29000000D03*
X17000000Y-29000000D03*
%TD*%
D26*
%TO.C,Q_BZ1*%
X24950000Y-34562500D03*
X23050000Y-34562500D03*
X24000000Y-36437500D03*
%TD*%
D27*
%TO.C,J3*%
X44820000Y-27000000D03*
D28*
X47360000Y-27000000D03*
X49900000Y-27000000D03*
X52440000Y-27000000D03*
X54980000Y-27000000D03*
X57520000Y-27000000D03*
X60060000Y-27000000D03*
X62600000Y-27000000D03*
X65140000Y-27000000D03*
X67680000Y-27000000D03*
X70220000Y-27000000D03*
X72760000Y-27000000D03*
X75300000Y-27000000D03*
X77840000Y-27000000D03*
X80380000Y-27000000D03*
X82920000Y-27000000D03*
X85460000Y-27000000D03*
X88000000Y-27000000D03*
%TD*%
D29*
%TO.C,L1*%
X30575000Y-15500000D03*
X26425000Y-15500000D03*
%TD*%
D18*
%TO.C,R_PDLB1*%
X17000000Y-32000000D03*
X15000000Y-32000000D03*
%TD*%
D30*
%TO.C,R_LLR1*%
X32000000Y-38500000D03*
X32000000Y-40500000D03*
%TD*%
D23*
%TO.C,C_OUT1*%
X19437500Y-20000000D03*
X22562500Y-20000000D03*
%TD*%
D31*
%TO.C,C_IN1*%
X31200000Y-20237500D03*
X31200000Y-23362500D03*
%TD*%
D12*
%TO.C,J_HBAT1*%
X28000000Y-6000000D03*
D13*
X30500000Y-6000000D03*
%TD*%
D11*
%TO.C,R_FB1*%
X21000000Y-26000000D03*
X23000000Y-26000000D03*
%TD*%
D32*
%TO.C,U1*%
X25862500Y-20550000D03*
X25862500Y-21500000D03*
X25862500Y-22450000D03*
X28137500Y-22450000D03*
X28137500Y-21500000D03*
X28137500Y-20550000D03*
%TD*%
D27*
%TO.C,J2*%
X44820000Y-49860000D03*
D28*
X47360000Y-49860000D03*
X49900000Y-49860000D03*
X52440000Y-49860000D03*
X54980000Y-49860000D03*
X57520000Y-49860000D03*
X60060000Y-49860000D03*
X62600000Y-49860000D03*
X65140000Y-49860000D03*
X67680000Y-49860000D03*
X70220000Y-49860000D03*
X72760000Y-49860000D03*
X75300000Y-49860000D03*
X77840000Y-49860000D03*
X80380000Y-49860000D03*
X82920000Y-49860000D03*
X85460000Y-49860000D03*
X88000000Y-49860000D03*
%TD*%
D11*
%TO.C,R_SCL5*%
X48500000Y-23300000D03*
X50500000Y-23300000D03*
%TD*%
%TO.C,R_SDA3*%
X43000000Y-20000000D03*
X45000000Y-20000000D03*
%TD*%
D33*
%TO.C,D_FLY1*%
X13350000Y-45000000D03*
X16650000Y-45000000D03*
%TD*%
D30*
%TO.C,R_LLB1*%
X16000000Y-38500000D03*
X16000000Y-40500000D03*
%TD*%
D26*
%TO.C,Q_LB1*%
X16950000Y-34562500D03*
X15050000Y-34562500D03*
X16000000Y-36437500D03*
%TD*%
D11*
%TO.C,R_SDA5*%
X43000000Y-23300000D03*
X45000000Y-23300000D03*
%TD*%
D26*
%TO.C,Q_LR1*%
X32950000Y-34562500D03*
X31050000Y-34562500D03*
X32000000Y-36437500D03*
%TD*%
D11*
%TO.C,R_GBZ1*%
X23000000Y-29000000D03*
X25000000Y-29000000D03*
%TD*%
D16*
%TO.C,J_LCD1*%
X40000000Y-6000000D03*
D17*
X42500000Y-6000000D03*
X45000000Y-6000000D03*
X47500000Y-6000000D03*
%TD*%
D34*
%TO.C,J_BTN_B1*%
X6000000Y-33000000D03*
D35*
X6000000Y-30500000D03*
X6000000Y-28000000D03*
X6000000Y-25500000D03*
%TD*%
D24*
%TO.C,Q_SCL1*%
X48562500Y-15050000D03*
X48562500Y-16950000D03*
X50437500Y-16000000D03*
%TD*%
D20*
%TO.C,C_NFC1*%
X55500000Y-18000000D03*
D21*
X58000000Y-18000000D03*
%TD*%
D16*
%TO.C,J_BTN_R1*%
X68000000Y-6000000D03*
D17*
X70500000Y-6000000D03*
X73000000Y-6000000D03*
X75500000Y-6000000D03*
%TD*%
M02*
