%TF.GenerationSoftware,KiCad,Pcbnew,9.0.8+dfsg-1*%
%TF.CreationDate,2026-09-29T10:58:16+02:00*%
%TF.ProjectId,carrier,63617272-6965-4722-9e6b-696361645f70,rev?*%
%TF.SameCoordinates,Original*%
%TF.FileFunction,Drillmap*%
%TF.FilePolarity,Positive*%
%FSLAX45Y45*%
G04 Gerber Fmt 4.5, Leading zero omitted, Abs format (unit mm)*
G04 Created by KiCad (PCBNEW 9.0.8+dfsg-1) date 2026-09-29 10:58:16*
%MOMM*%
%LPD*%
G01*
G04 APERTURE LIST*
%ADD10C,0.050000*%
%ADD11C,0.200000*%
%ADD12C,0.100000*%
G04 APERTURE END LIST*
D10*
X0Y-200000D02*
G75*
G02*
X200000Y0I200000J0D01*
G01*
X0Y-5800000D02*
X0Y-200000D01*
X200000Y0D02*
X8800000Y0D01*
X200000Y-6000000D02*
G75*
G02*
X0Y-5800000I0J200000D01*
G01*
X8800000Y0D02*
G75*
G02*
X9000000Y-200000I0J-200000D01*
G01*
X8800000Y-6000000D02*
X200000Y-6000000D01*
X9000000Y-200000D02*
X9000000Y-5800000D01*
X9000000Y-5800000D02*
G75*
G02*
X8800000Y-6000000I-200000J0D01*
G01*
D11*
D12*
X851690Y-4418310D02*
X881690Y-4448310D01*
X881690Y-4418310D02*
X851690Y-4448310D01*
X1356250Y-1241450D02*
X1386250Y-1271450D01*
X1386250Y-1241450D02*
X1356250Y-1271450D01*
X1487940Y-3937940D02*
X1517940Y-3967940D01*
X1517940Y-3937940D02*
X1487940Y-3967940D01*
X1588350Y-2978750D02*
X1618350Y-3008750D01*
X1618350Y-2978750D02*
X1588350Y-3008750D01*
X1785360Y-2322940D02*
X1815360Y-2352940D01*
X1815360Y-2322940D02*
X1785360Y-2352940D01*
X1885000Y-4763360D02*
X1915000Y-4793360D01*
X1915000Y-4763360D02*
X1885000Y-4793360D01*
X2002990Y-4779180D02*
X2032990Y-4809180D01*
X2032990Y-4779180D02*
X2002990Y-4809180D01*
X2116410Y-2311920D02*
X2146410Y-2341920D01*
X2146410Y-2311920D02*
X2116410Y-2341920D01*
X2188630Y-5135120D02*
X2218630Y-5165120D01*
X2218630Y-5135120D02*
X2188630Y-5165120D01*
X2199710Y-3393020D02*
X2229710Y-3423020D01*
X2229710Y-3393020D02*
X2199710Y-3423020D01*
X2450530Y-4914110D02*
X2480530Y-4944110D01*
X2480530Y-4914110D02*
X2450530Y-4944110D01*
X2952040Y-2678680D02*
X2982040Y-2708680D01*
X2982040Y-2678680D02*
X2952040Y-2708680D01*
X3178240Y-2978240D02*
X3208240Y-3008240D01*
X3208240Y-2978240D02*
X3178240Y-3008240D01*
X4391350Y-2221090D02*
X4421350Y-2251090D01*
X4421350Y-2221090D02*
X4391350Y-2251090D01*
X4478750Y-1667230D02*
X4508750Y-1697230D01*
X4508750Y-1667230D02*
X4478750Y-1697230D01*
X4930540Y-2418950D02*
X4960540Y-2448950D01*
X4960540Y-2418950D02*
X4930540Y-2448950D01*
X4941090Y-2220930D02*
X4971090Y-2250930D01*
X4971090Y-2220930D02*
X4941090Y-2250930D01*
X5028870Y-1666640D02*
X5058870Y-1696640D01*
X5058870Y-1666640D02*
X5028870Y-1696640D01*
X5163320Y-644420D02*
X5193320Y-674420D01*
X5193320Y-644420D02*
X5163320Y-674420D01*
X5667120Y-1094100D02*
X5697120Y-1124100D01*
X5697120Y-1094100D02*
X5667120Y-1124100D01*
X6324420Y-1079310D02*
X6354420Y-1109310D01*
X6354420Y-1079310D02*
X6324420Y-1109310D01*
X6780850Y-1439150D02*
X6810850Y-1469150D01*
X6810850Y-1439150D02*
X6780850Y-1469150D01*
X6797290Y-1993540D02*
X6827290Y-2023540D01*
X6827290Y-1993540D02*
X6797290Y-2023540D01*
X7650010Y-1804010D02*
X7680010Y-1834010D01*
X7680010Y-1804010D02*
X7650010Y-1834010D01*
X1390000Y-2050000D02*
G75*
G02*
X1310000Y-2050000I-40000J0D01*
G01*
X1310000Y-2050000D02*
G75*
G02*
X1390000Y-2050000I40000J0D01*
G01*
X1640000Y-2050000D02*
G75*
G02*
X1560000Y-2050000I-40000J0D01*
G01*
X1560000Y-2050000D02*
G75*
G02*
X1640000Y-2050000I40000J0D01*
G01*
X5590000Y-1800000D02*
G75*
G02*
X5510000Y-1800000I-40000J0D01*
G01*
X5510000Y-1800000D02*
G75*
G02*
X5590000Y-1800000I40000J0D01*
G01*
X5840000Y-1800000D02*
G75*
G02*
X5760000Y-1800000I-40000J0D01*
G01*
X5760000Y-1800000D02*
G75*
G02*
X5840000Y-1800000I40000J0D01*
G01*
X600000Y-2502500D02*
X600000Y-2597500D01*
X552500Y-2550000D02*
X647500Y-2550000D01*
X600000Y-2752500D02*
X600000Y-2847500D01*
X552500Y-2800000D02*
X647500Y-2800000D01*
X600000Y-3002500D02*
X600000Y-3097500D01*
X552500Y-3050000D02*
X647500Y-3050000D01*
X600000Y-3252500D02*
X600000Y-3347500D01*
X552500Y-3300000D02*
X647500Y-3300000D01*
X4000000Y-552500D02*
X4000000Y-647500D01*
X3952500Y-600000D02*
X4047500Y-600000D01*
X4250000Y-552500D02*
X4250000Y-647500D01*
X4202500Y-600000D02*
X4297500Y-600000D01*
X4500000Y-552500D02*
X4500000Y-647500D01*
X4452500Y-600000D02*
X4547500Y-600000D01*
X4750000Y-552500D02*
X4750000Y-647500D01*
X4702500Y-600000D02*
X4797500Y-600000D01*
X5400000Y-552500D02*
X5400000Y-647500D01*
X5352500Y-600000D02*
X5447500Y-600000D01*
X5650000Y-552500D02*
X5650000Y-647500D01*
X5602500Y-600000D02*
X5697500Y-600000D01*
X5900000Y-552500D02*
X5900000Y-647500D01*
X5852500Y-600000D02*
X5947500Y-600000D01*
X6150000Y-552500D02*
X6150000Y-647500D01*
X6102500Y-600000D02*
X6197500Y-600000D01*
X6800000Y-552500D02*
X6800000Y-647500D01*
X6752500Y-600000D02*
X6847500Y-600000D01*
X7050000Y-552500D02*
X7050000Y-647500D01*
X7002500Y-600000D02*
X7097500Y-600000D01*
X7300000Y-552500D02*
X7300000Y-647500D01*
X7252500Y-600000D02*
X7347500Y-600000D01*
X7550000Y-552500D02*
X7550000Y-647500D01*
X7502500Y-600000D02*
X7597500Y-600000D01*
X635356Y-4485356D02*
X635356Y-4414644D01*
X564644Y-4414644D01*
X564644Y-4485356D01*
X635356Y-4485356D01*
X635356Y-4735356D02*
X635356Y-4664644D01*
X564644Y-4664644D01*
X564644Y-4735356D01*
X635356Y-4735356D01*
X1035356Y-635356D02*
X1035356Y-564644D01*
X964644Y-564644D01*
X964644Y-635356D01*
X1035356Y-635356D01*
X1285356Y-635356D02*
X1285356Y-564644D01*
X1214644Y-564644D01*
X1214644Y-635356D01*
X1285356Y-635356D01*
X1935356Y-635356D02*
X1935356Y-564644D01*
X1864644Y-564644D01*
X1864644Y-635356D01*
X1935356Y-635356D01*
X2185356Y-635356D02*
X2185356Y-564644D01*
X2114644Y-564644D01*
X2114644Y-635356D01*
X2185356Y-635356D01*
X2835356Y-635356D02*
X2835356Y-564644D01*
X2764644Y-564644D01*
X2764644Y-635356D01*
X2835356Y-635356D01*
X3085356Y-635356D02*
X3085356Y-564644D01*
X3014644Y-564644D01*
X3014644Y-635356D01*
X3085356Y-635356D01*
X4517356Y-2735356D02*
X4517356Y-2664644D01*
X4446644Y-2664644D01*
X4446644Y-2735356D01*
X4517356Y-2735356D01*
X4517356Y-5021356D02*
X4517356Y-4950644D01*
X4446644Y-4950644D01*
X4446644Y-5021356D01*
X4517356Y-5021356D01*
X4771356Y-2735356D02*
X4771356Y-2664644D01*
X4700644Y-2664644D01*
X4700644Y-2735356D01*
X4771356Y-2735356D01*
X4771356Y-5021356D02*
X4771356Y-4950644D01*
X4700644Y-4950644D01*
X4700644Y-5021356D01*
X4771356Y-5021356D01*
X5025356Y-2735356D02*
X5025356Y-2664644D01*
X4954644Y-2664644D01*
X4954644Y-2735356D01*
X5025356Y-2735356D01*
X5025356Y-5021356D02*
X5025356Y-4950644D01*
X4954644Y-4950644D01*
X4954644Y-5021356D01*
X5025356Y-5021356D01*
X5279356Y-2735356D02*
X5279356Y-2664644D01*
X5208644Y-2664644D01*
X5208644Y-2735356D01*
X5279356Y-2735356D01*
X5279356Y-5021356D02*
X5279356Y-4950644D01*
X5208644Y-4950644D01*
X5208644Y-5021356D01*
X5279356Y-5021356D01*
X5533356Y-2735356D02*
X5533356Y-2664644D01*
X5462644Y-2664644D01*
X5462644Y-2735356D01*
X5533356Y-2735356D01*
X5533356Y-5021356D02*
X5533356Y-4950644D01*
X5462644Y-4950644D01*
X5462644Y-5021356D01*
X5533356Y-5021356D01*
X5787356Y-2735356D02*
X5787356Y-2664644D01*
X5716644Y-2664644D01*
X5716644Y-2735356D01*
X5787356Y-2735356D01*
X5787356Y-5021356D02*
X5787356Y-4950644D01*
X5716644Y-4950644D01*
X5716644Y-5021356D01*
X5787356Y-5021356D01*
X6041356Y-2735356D02*
X6041356Y-2664644D01*
X5970644Y-2664644D01*
X5970644Y-2735356D01*
X6041356Y-2735356D01*
X6041356Y-5021356D02*
X6041356Y-4950644D01*
X5970644Y-4950644D01*
X5970644Y-5021356D01*
X6041356Y-5021356D01*
X6295356Y-2735356D02*
X6295356Y-2664644D01*
X6224644Y-2664644D01*
X6224644Y-2735356D01*
X6295356Y-2735356D01*
X6295356Y-5021356D02*
X6295356Y-4950644D01*
X6224644Y-4950644D01*
X6224644Y-5021356D01*
X6295356Y-5021356D01*
X6549356Y-2735356D02*
X6549356Y-2664644D01*
X6478644Y-2664644D01*
X6478644Y-2735356D01*
X6549356Y-2735356D01*
X6549356Y-5021356D02*
X6549356Y-4950644D01*
X6478644Y-4950644D01*
X6478644Y-5021356D01*
X6549356Y-5021356D01*
X6803356Y-2735356D02*
X6803356Y-2664644D01*
X6732644Y-2664644D01*
X6732644Y-2735356D01*
X6803356Y-2735356D01*
X6803356Y-5021356D02*
X6803356Y-4950644D01*
X6732644Y-4950644D01*
X6732644Y-5021356D01*
X6803356Y-5021356D01*
X7057356Y-2735356D02*
X7057356Y-2664644D01*
X6986644Y-2664644D01*
X6986644Y-2735356D01*
X7057356Y-2735356D01*
X7057356Y-5021356D02*
X7057356Y-4950644D01*
X6986644Y-4950644D01*
X6986644Y-5021356D01*
X7057356Y-5021356D01*
X7311356Y-2735356D02*
X7311356Y-2664644D01*
X7240644Y-2664644D01*
X7240644Y-2735356D01*
X7311356Y-2735356D01*
X7311356Y-5021356D02*
X7311356Y-4950644D01*
X7240644Y-4950644D01*
X7240644Y-5021356D01*
X7311356Y-5021356D01*
X7565356Y-2735356D02*
X7565356Y-2664644D01*
X7494644Y-2664644D01*
X7494644Y-2735356D01*
X7565356Y-2735356D01*
X7565356Y-5021356D02*
X7565356Y-4950644D01*
X7494644Y-4950644D01*
X7494644Y-5021356D01*
X7565356Y-5021356D01*
X7819356Y-2735356D02*
X7819356Y-2664644D01*
X7748644Y-2664644D01*
X7748644Y-2735356D01*
X7819356Y-2735356D01*
X7819356Y-5021356D02*
X7819356Y-4950644D01*
X7748644Y-4950644D01*
X7748644Y-5021356D01*
X7819356Y-5021356D01*
X8073356Y-2735356D02*
X8073356Y-2664644D01*
X8002644Y-2664644D01*
X8002644Y-2735356D01*
X8073356Y-2735356D01*
X8073356Y-5021356D02*
X8073356Y-4950644D01*
X8002644Y-4950644D01*
X8002644Y-5021356D01*
X8073356Y-5021356D01*
X8327356Y-2735356D02*
X8327356Y-2664644D01*
X8256644Y-2664644D01*
X8256644Y-2735356D01*
X8327356Y-2735356D01*
X8327356Y-5021356D02*
X8327356Y-4950644D01*
X8256644Y-4950644D01*
X8256644Y-5021356D01*
X8327356Y-5021356D01*
X8581356Y-2735356D02*
X8581356Y-2664644D01*
X8510644Y-2664644D01*
X8510644Y-2735356D01*
X8581356Y-2735356D01*
X8581356Y-5021356D02*
X8581356Y-4950644D01*
X8510644Y-4950644D01*
X8510644Y-5021356D01*
X8581356Y-5021356D01*
X8835356Y-2735356D02*
X8835356Y-2664644D01*
X8764644Y-2664644D01*
X8764644Y-2735356D01*
X8835356Y-2735356D01*
X8835356Y-5021356D02*
X8835356Y-4950644D01*
X8764644Y-4950644D01*
X8764644Y-5021356D01*
X8835356Y-5021356D01*
D11*
X258277Y-6313984D02*
X258277Y-6113984D01*
X258277Y-6113984D02*
X305896Y-6113984D01*
X305896Y-6113984D02*
X334467Y-6123508D01*
X334467Y-6123508D02*
X353515Y-6142555D01*
X353515Y-6142555D02*
X363039Y-6161603D01*
X363039Y-6161603D02*
X372562Y-6199698D01*
X372562Y-6199698D02*
X372562Y-6228269D01*
X372562Y-6228269D02*
X363039Y-6266365D01*
X363039Y-6266365D02*
X353515Y-6285412D01*
X353515Y-6285412D02*
X334467Y-6304460D01*
X334467Y-6304460D02*
X305896Y-6313984D01*
X305896Y-6313984D02*
X258277Y-6313984D01*
X458277Y-6313984D02*
X458277Y-6180650D01*
X458277Y-6218746D02*
X467801Y-6199698D01*
X467801Y-6199698D02*
X477324Y-6190174D01*
X477324Y-6190174D02*
X496372Y-6180650D01*
X496372Y-6180650D02*
X515420Y-6180650D01*
X582086Y-6313984D02*
X582086Y-6180650D01*
X582086Y-6113984D02*
X572563Y-6123508D01*
X572563Y-6123508D02*
X582086Y-6133031D01*
X582086Y-6133031D02*
X591610Y-6123508D01*
X591610Y-6123508D02*
X582086Y-6113984D01*
X582086Y-6113984D02*
X582086Y-6133031D01*
X705896Y-6313984D02*
X686848Y-6304460D01*
X686848Y-6304460D02*
X677324Y-6285412D01*
X677324Y-6285412D02*
X677324Y-6113984D01*
X810658Y-6313984D02*
X791610Y-6304460D01*
X791610Y-6304460D02*
X782086Y-6285412D01*
X782086Y-6285412D02*
X782086Y-6113984D01*
X1039229Y-6313984D02*
X1039229Y-6113984D01*
X1039229Y-6113984D02*
X1105896Y-6256841D01*
X1105896Y-6256841D02*
X1172563Y-6113984D01*
X1172563Y-6113984D02*
X1172563Y-6313984D01*
X1353515Y-6313984D02*
X1353515Y-6209222D01*
X1353515Y-6209222D02*
X1343991Y-6190174D01*
X1343991Y-6190174D02*
X1324944Y-6180650D01*
X1324944Y-6180650D02*
X1286848Y-6180650D01*
X1286848Y-6180650D02*
X1267801Y-6190174D01*
X1353515Y-6304460D02*
X1334467Y-6313984D01*
X1334467Y-6313984D02*
X1286848Y-6313984D01*
X1286848Y-6313984D02*
X1267801Y-6304460D01*
X1267801Y-6304460D02*
X1258277Y-6285412D01*
X1258277Y-6285412D02*
X1258277Y-6266365D01*
X1258277Y-6266365D02*
X1267801Y-6247317D01*
X1267801Y-6247317D02*
X1286848Y-6237793D01*
X1286848Y-6237793D02*
X1334467Y-6237793D01*
X1334467Y-6237793D02*
X1353515Y-6228269D01*
X1448753Y-6180650D02*
X1448753Y-6380650D01*
X1448753Y-6190174D02*
X1467801Y-6180650D01*
X1467801Y-6180650D02*
X1505896Y-6180650D01*
X1505896Y-6180650D02*
X1524943Y-6190174D01*
X1524943Y-6190174D02*
X1534467Y-6199698D01*
X1534467Y-6199698D02*
X1543991Y-6218746D01*
X1543991Y-6218746D02*
X1543991Y-6275888D01*
X1543991Y-6275888D02*
X1534467Y-6294936D01*
X1534467Y-6294936D02*
X1524943Y-6304460D01*
X1524943Y-6304460D02*
X1505896Y-6313984D01*
X1505896Y-6313984D02*
X1467801Y-6313984D01*
X1467801Y-6313984D02*
X1448753Y-6304460D01*
X1629705Y-6294936D02*
X1639229Y-6304460D01*
X1639229Y-6304460D02*
X1629705Y-6313984D01*
X1629705Y-6313984D02*
X1620182Y-6304460D01*
X1620182Y-6304460D02*
X1629705Y-6294936D01*
X1629705Y-6294936D02*
X1629705Y-6313984D01*
X1629705Y-6190174D02*
X1639229Y-6199698D01*
X1639229Y-6199698D02*
X1629705Y-6209222D01*
X1629705Y-6209222D02*
X1620182Y-6199698D01*
X1620182Y-6199698D02*
X1629705Y-6190174D01*
X1629705Y-6190174D02*
X1629705Y-6209222D01*
D12*
X-32500Y-6627500D02*
X-2500Y-6657500D01*
X-2500Y-6627500D02*
X-32500Y-6657500D01*
D11*
X296372Y-6533984D02*
X315420Y-6533984D01*
X315420Y-6533984D02*
X334467Y-6543508D01*
X334467Y-6543508D02*
X343991Y-6553031D01*
X343991Y-6553031D02*
X353515Y-6572079D01*
X353515Y-6572079D02*
X363039Y-6610174D01*
X363039Y-6610174D02*
X363039Y-6657793D01*
X363039Y-6657793D02*
X353515Y-6695888D01*
X353515Y-6695888D02*
X343991Y-6714936D01*
X343991Y-6714936D02*
X334467Y-6724460D01*
X334467Y-6724460D02*
X315420Y-6733984D01*
X315420Y-6733984D02*
X296372Y-6733984D01*
X296372Y-6733984D02*
X277324Y-6724460D01*
X277324Y-6724460D02*
X267801Y-6714936D01*
X267801Y-6714936D02*
X258277Y-6695888D01*
X258277Y-6695888D02*
X248753Y-6657793D01*
X248753Y-6657793D02*
X248753Y-6610174D01*
X248753Y-6610174D02*
X258277Y-6572079D01*
X258277Y-6572079D02*
X267801Y-6553031D01*
X267801Y-6553031D02*
X277324Y-6543508D01*
X277324Y-6543508D02*
X296372Y-6533984D01*
X448753Y-6714936D02*
X458277Y-6724460D01*
X458277Y-6724460D02*
X448753Y-6733984D01*
X448753Y-6733984D02*
X439229Y-6724460D01*
X439229Y-6724460D02*
X448753Y-6714936D01*
X448753Y-6714936D02*
X448753Y-6733984D01*
X524944Y-6533984D02*
X648753Y-6533984D01*
X648753Y-6533984D02*
X582086Y-6610174D01*
X582086Y-6610174D02*
X610658Y-6610174D01*
X610658Y-6610174D02*
X629705Y-6619698D01*
X629705Y-6619698D02*
X639229Y-6629222D01*
X639229Y-6629222D02*
X648753Y-6648269D01*
X648753Y-6648269D02*
X648753Y-6695888D01*
X648753Y-6695888D02*
X639229Y-6714936D01*
X639229Y-6714936D02*
X629705Y-6724460D01*
X629705Y-6724460D02*
X610658Y-6733984D01*
X610658Y-6733984D02*
X553515Y-6733984D01*
X553515Y-6733984D02*
X534467Y-6724460D01*
X534467Y-6724460D02*
X524944Y-6714936D01*
X772562Y-6533984D02*
X791610Y-6533984D01*
X791610Y-6533984D02*
X810658Y-6543508D01*
X810658Y-6543508D02*
X820182Y-6553031D01*
X820182Y-6553031D02*
X829705Y-6572079D01*
X829705Y-6572079D02*
X839229Y-6610174D01*
X839229Y-6610174D02*
X839229Y-6657793D01*
X839229Y-6657793D02*
X829705Y-6695888D01*
X829705Y-6695888D02*
X820182Y-6714936D01*
X820182Y-6714936D02*
X810658Y-6724460D01*
X810658Y-6724460D02*
X791610Y-6733984D01*
X791610Y-6733984D02*
X772562Y-6733984D01*
X772562Y-6733984D02*
X753515Y-6724460D01*
X753515Y-6724460D02*
X743991Y-6714936D01*
X743991Y-6714936D02*
X734467Y-6695888D01*
X734467Y-6695888D02*
X724943Y-6657793D01*
X724943Y-6657793D02*
X724943Y-6610174D01*
X724943Y-6610174D02*
X734467Y-6572079D01*
X734467Y-6572079D02*
X743991Y-6553031D01*
X743991Y-6553031D02*
X753515Y-6543508D01*
X753515Y-6543508D02*
X772562Y-6533984D01*
X963039Y-6533984D02*
X982086Y-6533984D01*
X982086Y-6533984D02*
X1001134Y-6543508D01*
X1001134Y-6543508D02*
X1010658Y-6553031D01*
X1010658Y-6553031D02*
X1020182Y-6572079D01*
X1020182Y-6572079D02*
X1029705Y-6610174D01*
X1029705Y-6610174D02*
X1029705Y-6657793D01*
X1029705Y-6657793D02*
X1020182Y-6695888D01*
X1020182Y-6695888D02*
X1010658Y-6714936D01*
X1010658Y-6714936D02*
X1001134Y-6724460D01*
X1001134Y-6724460D02*
X982086Y-6733984D01*
X982086Y-6733984D02*
X963039Y-6733984D01*
X963039Y-6733984D02*
X943991Y-6724460D01*
X943991Y-6724460D02*
X934467Y-6714936D01*
X934467Y-6714936D02*
X924943Y-6695888D01*
X924943Y-6695888D02*
X915420Y-6657793D01*
X915420Y-6657793D02*
X915420Y-6610174D01*
X915420Y-6610174D02*
X924943Y-6572079D01*
X924943Y-6572079D02*
X934467Y-6553031D01*
X934467Y-6553031D02*
X943991Y-6543508D01*
X943991Y-6543508D02*
X963039Y-6533984D01*
X1115420Y-6733984D02*
X1115420Y-6600650D01*
X1115420Y-6619698D02*
X1124944Y-6610174D01*
X1124944Y-6610174D02*
X1143991Y-6600650D01*
X1143991Y-6600650D02*
X1172563Y-6600650D01*
X1172563Y-6600650D02*
X1191610Y-6610174D01*
X1191610Y-6610174D02*
X1201134Y-6629222D01*
X1201134Y-6629222D02*
X1201134Y-6733984D01*
X1201134Y-6629222D02*
X1210658Y-6610174D01*
X1210658Y-6610174D02*
X1229705Y-6600650D01*
X1229705Y-6600650D02*
X1258277Y-6600650D01*
X1258277Y-6600650D02*
X1277325Y-6610174D01*
X1277325Y-6610174D02*
X1286848Y-6629222D01*
X1286848Y-6629222D02*
X1286848Y-6733984D01*
X1382086Y-6733984D02*
X1382086Y-6600650D01*
X1382086Y-6619698D02*
X1391610Y-6610174D01*
X1391610Y-6610174D02*
X1410658Y-6600650D01*
X1410658Y-6600650D02*
X1439229Y-6600650D01*
X1439229Y-6600650D02*
X1458277Y-6610174D01*
X1458277Y-6610174D02*
X1467801Y-6629222D01*
X1467801Y-6629222D02*
X1467801Y-6733984D01*
X1467801Y-6629222D02*
X1477324Y-6610174D01*
X1477324Y-6610174D02*
X1496372Y-6600650D01*
X1496372Y-6600650D02*
X1524943Y-6600650D01*
X1524943Y-6600650D02*
X1543991Y-6610174D01*
X1543991Y-6610174D02*
X1553515Y-6629222D01*
X1553515Y-6629222D02*
X1553515Y-6733984D01*
X1943991Y-6524460D02*
X1772563Y-6781603D01*
X2201134Y-6533984D02*
X2220182Y-6533984D01*
X2220182Y-6533984D02*
X2239229Y-6543508D01*
X2239229Y-6543508D02*
X2248753Y-6553031D01*
X2248753Y-6553031D02*
X2258277Y-6572079D01*
X2258277Y-6572079D02*
X2267801Y-6610174D01*
X2267801Y-6610174D02*
X2267801Y-6657793D01*
X2267801Y-6657793D02*
X2258277Y-6695888D01*
X2258277Y-6695888D02*
X2248753Y-6714936D01*
X2248753Y-6714936D02*
X2239229Y-6724460D01*
X2239229Y-6724460D02*
X2220182Y-6733984D01*
X2220182Y-6733984D02*
X2201134Y-6733984D01*
X2201134Y-6733984D02*
X2182087Y-6724460D01*
X2182087Y-6724460D02*
X2172563Y-6714936D01*
X2172563Y-6714936D02*
X2163039Y-6695888D01*
X2163039Y-6695888D02*
X2153515Y-6657793D01*
X2153515Y-6657793D02*
X2153515Y-6610174D01*
X2153515Y-6610174D02*
X2163039Y-6572079D01*
X2163039Y-6572079D02*
X2172563Y-6553031D01*
X2172563Y-6553031D02*
X2182087Y-6543508D01*
X2182087Y-6543508D02*
X2201134Y-6533984D01*
X2353515Y-6714936D02*
X2363039Y-6724460D01*
X2363039Y-6724460D02*
X2353515Y-6733984D01*
X2353515Y-6733984D02*
X2343991Y-6724460D01*
X2343991Y-6724460D02*
X2353515Y-6714936D01*
X2353515Y-6714936D02*
X2353515Y-6733984D01*
X2486848Y-6533984D02*
X2505896Y-6533984D01*
X2505896Y-6533984D02*
X2524944Y-6543508D01*
X2524944Y-6543508D02*
X2534468Y-6553031D01*
X2534468Y-6553031D02*
X2543991Y-6572079D01*
X2543991Y-6572079D02*
X2553515Y-6610174D01*
X2553515Y-6610174D02*
X2553515Y-6657793D01*
X2553515Y-6657793D02*
X2543991Y-6695888D01*
X2543991Y-6695888D02*
X2534468Y-6714936D01*
X2534468Y-6714936D02*
X2524944Y-6724460D01*
X2524944Y-6724460D02*
X2505896Y-6733984D01*
X2505896Y-6733984D02*
X2486848Y-6733984D01*
X2486848Y-6733984D02*
X2467801Y-6724460D01*
X2467801Y-6724460D02*
X2458277Y-6714936D01*
X2458277Y-6714936D02*
X2448753Y-6695888D01*
X2448753Y-6695888D02*
X2439229Y-6657793D01*
X2439229Y-6657793D02*
X2439229Y-6610174D01*
X2439229Y-6610174D02*
X2448753Y-6572079D01*
X2448753Y-6572079D02*
X2458277Y-6553031D01*
X2458277Y-6553031D02*
X2467801Y-6543508D01*
X2467801Y-6543508D02*
X2486848Y-6533984D01*
X2743991Y-6733984D02*
X2629706Y-6733984D01*
X2686848Y-6733984D02*
X2686848Y-6533984D01*
X2686848Y-6533984D02*
X2667801Y-6562555D01*
X2667801Y-6562555D02*
X2648753Y-6581603D01*
X2648753Y-6581603D02*
X2629706Y-6591127D01*
X2934467Y-6733984D02*
X2820182Y-6733984D01*
X2877325Y-6733984D02*
X2877325Y-6533984D01*
X2877325Y-6533984D02*
X2858277Y-6562555D01*
X2858277Y-6562555D02*
X2839229Y-6581603D01*
X2839229Y-6581603D02*
X2820182Y-6591127D01*
X3048753Y-6619698D02*
X3029706Y-6610174D01*
X3029706Y-6610174D02*
X3020182Y-6600650D01*
X3020182Y-6600650D02*
X3010658Y-6581603D01*
X3010658Y-6581603D02*
X3010658Y-6572079D01*
X3010658Y-6572079D02*
X3020182Y-6553031D01*
X3020182Y-6553031D02*
X3029706Y-6543508D01*
X3029706Y-6543508D02*
X3048753Y-6533984D01*
X3048753Y-6533984D02*
X3086848Y-6533984D01*
X3086848Y-6533984D02*
X3105896Y-6543508D01*
X3105896Y-6543508D02*
X3115420Y-6553031D01*
X3115420Y-6553031D02*
X3124944Y-6572079D01*
X3124944Y-6572079D02*
X3124944Y-6581603D01*
X3124944Y-6581603D02*
X3115420Y-6600650D01*
X3115420Y-6600650D02*
X3105896Y-6610174D01*
X3105896Y-6610174D02*
X3086848Y-6619698D01*
X3086848Y-6619698D02*
X3048753Y-6619698D01*
X3048753Y-6619698D02*
X3029706Y-6629222D01*
X3029706Y-6629222D02*
X3020182Y-6638746D01*
X3020182Y-6638746D02*
X3010658Y-6657793D01*
X3010658Y-6657793D02*
X3010658Y-6695888D01*
X3010658Y-6695888D02*
X3020182Y-6714936D01*
X3020182Y-6714936D02*
X3029706Y-6724460D01*
X3029706Y-6724460D02*
X3048753Y-6733984D01*
X3048753Y-6733984D02*
X3086848Y-6733984D01*
X3086848Y-6733984D02*
X3105896Y-6724460D01*
X3105896Y-6724460D02*
X3115420Y-6714936D01*
X3115420Y-6714936D02*
X3124944Y-6695888D01*
X3124944Y-6695888D02*
X3124944Y-6657793D01*
X3124944Y-6657793D02*
X3115420Y-6638746D01*
X3115420Y-6638746D02*
X3105896Y-6629222D01*
X3105896Y-6629222D02*
X3086848Y-6619698D01*
X3201134Y-6533984D02*
X3201134Y-6572079D01*
X3277325Y-6533984D02*
X3277325Y-6572079D01*
X3572563Y-6810174D02*
X3563039Y-6800650D01*
X3563039Y-6800650D02*
X3543991Y-6772079D01*
X3543991Y-6772079D02*
X3534468Y-6753031D01*
X3534468Y-6753031D02*
X3524944Y-6724460D01*
X3524944Y-6724460D02*
X3515420Y-6676841D01*
X3515420Y-6676841D02*
X3515420Y-6638746D01*
X3515420Y-6638746D02*
X3524944Y-6591127D01*
X3524944Y-6591127D02*
X3534468Y-6562555D01*
X3534468Y-6562555D02*
X3543991Y-6543508D01*
X3543991Y-6543508D02*
X3563039Y-6514936D01*
X3563039Y-6514936D02*
X3572563Y-6505412D01*
X3639229Y-6553031D02*
X3648753Y-6543508D01*
X3648753Y-6543508D02*
X3667801Y-6533984D01*
X3667801Y-6533984D02*
X3715420Y-6533984D01*
X3715420Y-6533984D02*
X3734468Y-6543508D01*
X3734468Y-6543508D02*
X3743991Y-6553031D01*
X3743991Y-6553031D02*
X3753515Y-6572079D01*
X3753515Y-6572079D02*
X3753515Y-6591127D01*
X3753515Y-6591127D02*
X3743991Y-6619698D01*
X3743991Y-6619698D02*
X3629706Y-6733984D01*
X3629706Y-6733984D02*
X3753515Y-6733984D01*
X3924944Y-6600650D02*
X3924944Y-6733984D01*
X3877325Y-6524460D02*
X3829706Y-6667317D01*
X3829706Y-6667317D02*
X3953515Y-6667317D01*
X4182087Y-6733984D02*
X4182087Y-6533984D01*
X4267801Y-6733984D02*
X4267801Y-6629222D01*
X4267801Y-6629222D02*
X4258277Y-6610174D01*
X4258277Y-6610174D02*
X4239230Y-6600650D01*
X4239230Y-6600650D02*
X4210658Y-6600650D01*
X4210658Y-6600650D02*
X4191610Y-6610174D01*
X4191610Y-6610174D02*
X4182087Y-6619698D01*
X4391611Y-6733984D02*
X4372563Y-6724460D01*
X4372563Y-6724460D02*
X4363039Y-6714936D01*
X4363039Y-6714936D02*
X4353515Y-6695888D01*
X4353515Y-6695888D02*
X4353515Y-6638746D01*
X4353515Y-6638746D02*
X4363039Y-6619698D01*
X4363039Y-6619698D02*
X4372563Y-6610174D01*
X4372563Y-6610174D02*
X4391611Y-6600650D01*
X4391611Y-6600650D02*
X4420182Y-6600650D01*
X4420182Y-6600650D02*
X4439230Y-6610174D01*
X4439230Y-6610174D02*
X4448753Y-6619698D01*
X4448753Y-6619698D02*
X4458277Y-6638746D01*
X4458277Y-6638746D02*
X4458277Y-6695888D01*
X4458277Y-6695888D02*
X4448753Y-6714936D01*
X4448753Y-6714936D02*
X4439230Y-6724460D01*
X4439230Y-6724460D02*
X4420182Y-6733984D01*
X4420182Y-6733984D02*
X4391611Y-6733984D01*
X4572563Y-6733984D02*
X4553515Y-6724460D01*
X4553515Y-6724460D02*
X4543992Y-6705412D01*
X4543992Y-6705412D02*
X4543992Y-6533984D01*
X4724944Y-6724460D02*
X4705896Y-6733984D01*
X4705896Y-6733984D02*
X4667801Y-6733984D01*
X4667801Y-6733984D02*
X4648753Y-6724460D01*
X4648753Y-6724460D02*
X4639230Y-6705412D01*
X4639230Y-6705412D02*
X4639230Y-6629222D01*
X4639230Y-6629222D02*
X4648753Y-6610174D01*
X4648753Y-6610174D02*
X4667801Y-6600650D01*
X4667801Y-6600650D02*
X4705896Y-6600650D01*
X4705896Y-6600650D02*
X4724944Y-6610174D01*
X4724944Y-6610174D02*
X4734468Y-6629222D01*
X4734468Y-6629222D02*
X4734468Y-6648269D01*
X4734468Y-6648269D02*
X4639230Y-6667317D01*
X4810658Y-6724460D02*
X4829706Y-6733984D01*
X4829706Y-6733984D02*
X4867801Y-6733984D01*
X4867801Y-6733984D02*
X4886849Y-6724460D01*
X4886849Y-6724460D02*
X4896373Y-6705412D01*
X4896373Y-6705412D02*
X4896373Y-6695888D01*
X4896373Y-6695888D02*
X4886849Y-6676841D01*
X4886849Y-6676841D02*
X4867801Y-6667317D01*
X4867801Y-6667317D02*
X4839230Y-6667317D01*
X4839230Y-6667317D02*
X4820182Y-6657793D01*
X4820182Y-6657793D02*
X4810658Y-6638746D01*
X4810658Y-6638746D02*
X4810658Y-6629222D01*
X4810658Y-6629222D02*
X4820182Y-6610174D01*
X4820182Y-6610174D02*
X4839230Y-6600650D01*
X4839230Y-6600650D02*
X4867801Y-6600650D01*
X4867801Y-6600650D02*
X4886849Y-6610174D01*
X4963039Y-6810174D02*
X4972563Y-6800650D01*
X4972563Y-6800650D02*
X4991611Y-6772079D01*
X4991611Y-6772079D02*
X5001134Y-6753031D01*
X5001134Y-6753031D02*
X5010658Y-6724460D01*
X5010658Y-6724460D02*
X5020182Y-6676841D01*
X5020182Y-6676841D02*
X5020182Y-6638746D01*
X5020182Y-6638746D02*
X5010658Y-6591127D01*
X5010658Y-6591127D02*
X5001134Y-6562555D01*
X5001134Y-6562555D02*
X4991611Y-6543508D01*
X4991611Y-6543508D02*
X4972563Y-6514936D01*
X4972563Y-6514936D02*
X4963039Y-6505412D01*
D12*
X-2500Y-6906500D02*
G75*
G02*
X-82500Y-6906500I-40000J0D01*
G01*
X-82500Y-6906500D02*
G75*
G02*
X-2500Y-6906500I40000J0D01*
G01*
D11*
X296372Y-6797984D02*
X315420Y-6797984D01*
X315420Y-6797984D02*
X334467Y-6807508D01*
X334467Y-6807508D02*
X343991Y-6817031D01*
X343991Y-6817031D02*
X353515Y-6836079D01*
X353515Y-6836079D02*
X363039Y-6874174D01*
X363039Y-6874174D02*
X363039Y-6921793D01*
X363039Y-6921793D02*
X353515Y-6959888D01*
X353515Y-6959888D02*
X343991Y-6978936D01*
X343991Y-6978936D02*
X334467Y-6988460D01*
X334467Y-6988460D02*
X315420Y-6997984D01*
X315420Y-6997984D02*
X296372Y-6997984D01*
X296372Y-6997984D02*
X277324Y-6988460D01*
X277324Y-6988460D02*
X267801Y-6978936D01*
X267801Y-6978936D02*
X258277Y-6959888D01*
X258277Y-6959888D02*
X248753Y-6921793D01*
X248753Y-6921793D02*
X248753Y-6874174D01*
X248753Y-6874174D02*
X258277Y-6836079D01*
X258277Y-6836079D02*
X267801Y-6817031D01*
X267801Y-6817031D02*
X277324Y-6807508D01*
X277324Y-6807508D02*
X296372Y-6797984D01*
X448753Y-6978936D02*
X458277Y-6988460D01*
X458277Y-6988460D02*
X448753Y-6997984D01*
X448753Y-6997984D02*
X439229Y-6988460D01*
X439229Y-6988460D02*
X448753Y-6978936D01*
X448753Y-6978936D02*
X448753Y-6997984D01*
X572563Y-6883698D02*
X553515Y-6874174D01*
X553515Y-6874174D02*
X543991Y-6864650D01*
X543991Y-6864650D02*
X534467Y-6845603D01*
X534467Y-6845603D02*
X534467Y-6836079D01*
X534467Y-6836079D02*
X543991Y-6817031D01*
X543991Y-6817031D02*
X553515Y-6807508D01*
X553515Y-6807508D02*
X572563Y-6797984D01*
X572563Y-6797984D02*
X610658Y-6797984D01*
X610658Y-6797984D02*
X629705Y-6807508D01*
X629705Y-6807508D02*
X639229Y-6817031D01*
X639229Y-6817031D02*
X648753Y-6836079D01*
X648753Y-6836079D02*
X648753Y-6845603D01*
X648753Y-6845603D02*
X639229Y-6864650D01*
X639229Y-6864650D02*
X629705Y-6874174D01*
X629705Y-6874174D02*
X610658Y-6883698D01*
X610658Y-6883698D02*
X572563Y-6883698D01*
X572563Y-6883698D02*
X553515Y-6893222D01*
X553515Y-6893222D02*
X543991Y-6902746D01*
X543991Y-6902746D02*
X534467Y-6921793D01*
X534467Y-6921793D02*
X534467Y-6959888D01*
X534467Y-6959888D02*
X543991Y-6978936D01*
X543991Y-6978936D02*
X553515Y-6988460D01*
X553515Y-6988460D02*
X572563Y-6997984D01*
X572563Y-6997984D02*
X610658Y-6997984D01*
X610658Y-6997984D02*
X629705Y-6988460D01*
X629705Y-6988460D02*
X639229Y-6978936D01*
X639229Y-6978936D02*
X648753Y-6959888D01*
X648753Y-6959888D02*
X648753Y-6921793D01*
X648753Y-6921793D02*
X639229Y-6902746D01*
X639229Y-6902746D02*
X629705Y-6893222D01*
X629705Y-6893222D02*
X610658Y-6883698D01*
X772562Y-6797984D02*
X791610Y-6797984D01*
X791610Y-6797984D02*
X810658Y-6807508D01*
X810658Y-6807508D02*
X820182Y-6817031D01*
X820182Y-6817031D02*
X829705Y-6836079D01*
X829705Y-6836079D02*
X839229Y-6874174D01*
X839229Y-6874174D02*
X839229Y-6921793D01*
X839229Y-6921793D02*
X829705Y-6959888D01*
X829705Y-6959888D02*
X820182Y-6978936D01*
X820182Y-6978936D02*
X810658Y-6988460D01*
X810658Y-6988460D02*
X791610Y-6997984D01*
X791610Y-6997984D02*
X772562Y-6997984D01*
X772562Y-6997984D02*
X753515Y-6988460D01*
X753515Y-6988460D02*
X743991Y-6978936D01*
X743991Y-6978936D02*
X734467Y-6959888D01*
X734467Y-6959888D02*
X724943Y-6921793D01*
X724943Y-6921793D02*
X724943Y-6874174D01*
X724943Y-6874174D02*
X734467Y-6836079D01*
X734467Y-6836079D02*
X743991Y-6817031D01*
X743991Y-6817031D02*
X753515Y-6807508D01*
X753515Y-6807508D02*
X772562Y-6797984D01*
X963039Y-6797984D02*
X982086Y-6797984D01*
X982086Y-6797984D02*
X1001134Y-6807508D01*
X1001134Y-6807508D02*
X1010658Y-6817031D01*
X1010658Y-6817031D02*
X1020182Y-6836079D01*
X1020182Y-6836079D02*
X1029705Y-6874174D01*
X1029705Y-6874174D02*
X1029705Y-6921793D01*
X1029705Y-6921793D02*
X1020182Y-6959888D01*
X1020182Y-6959888D02*
X1010658Y-6978936D01*
X1010658Y-6978936D02*
X1001134Y-6988460D01*
X1001134Y-6988460D02*
X982086Y-6997984D01*
X982086Y-6997984D02*
X963039Y-6997984D01*
X963039Y-6997984D02*
X943991Y-6988460D01*
X943991Y-6988460D02*
X934467Y-6978936D01*
X934467Y-6978936D02*
X924943Y-6959888D01*
X924943Y-6959888D02*
X915420Y-6921793D01*
X915420Y-6921793D02*
X915420Y-6874174D01*
X915420Y-6874174D02*
X924943Y-6836079D01*
X924943Y-6836079D02*
X934467Y-6817031D01*
X934467Y-6817031D02*
X943991Y-6807508D01*
X943991Y-6807508D02*
X963039Y-6797984D01*
X1115420Y-6997984D02*
X1115420Y-6864650D01*
X1115420Y-6883698D02*
X1124944Y-6874174D01*
X1124944Y-6874174D02*
X1143991Y-6864650D01*
X1143991Y-6864650D02*
X1172563Y-6864650D01*
X1172563Y-6864650D02*
X1191610Y-6874174D01*
X1191610Y-6874174D02*
X1201134Y-6893222D01*
X1201134Y-6893222D02*
X1201134Y-6997984D01*
X1201134Y-6893222D02*
X1210658Y-6874174D01*
X1210658Y-6874174D02*
X1229705Y-6864650D01*
X1229705Y-6864650D02*
X1258277Y-6864650D01*
X1258277Y-6864650D02*
X1277325Y-6874174D01*
X1277325Y-6874174D02*
X1286848Y-6893222D01*
X1286848Y-6893222D02*
X1286848Y-6997984D01*
X1382086Y-6997984D02*
X1382086Y-6864650D01*
X1382086Y-6883698D02*
X1391610Y-6874174D01*
X1391610Y-6874174D02*
X1410658Y-6864650D01*
X1410658Y-6864650D02*
X1439229Y-6864650D01*
X1439229Y-6864650D02*
X1458277Y-6874174D01*
X1458277Y-6874174D02*
X1467801Y-6893222D01*
X1467801Y-6893222D02*
X1467801Y-6997984D01*
X1467801Y-6893222D02*
X1477324Y-6874174D01*
X1477324Y-6874174D02*
X1496372Y-6864650D01*
X1496372Y-6864650D02*
X1524943Y-6864650D01*
X1524943Y-6864650D02*
X1543991Y-6874174D01*
X1543991Y-6874174D02*
X1553515Y-6893222D01*
X1553515Y-6893222D02*
X1553515Y-6997984D01*
X1943991Y-6788460D02*
X1772563Y-7045603D01*
X2201134Y-6797984D02*
X2220182Y-6797984D01*
X2220182Y-6797984D02*
X2239229Y-6807508D01*
X2239229Y-6807508D02*
X2248753Y-6817031D01*
X2248753Y-6817031D02*
X2258277Y-6836079D01*
X2258277Y-6836079D02*
X2267801Y-6874174D01*
X2267801Y-6874174D02*
X2267801Y-6921793D01*
X2267801Y-6921793D02*
X2258277Y-6959888D01*
X2258277Y-6959888D02*
X2248753Y-6978936D01*
X2248753Y-6978936D02*
X2239229Y-6988460D01*
X2239229Y-6988460D02*
X2220182Y-6997984D01*
X2220182Y-6997984D02*
X2201134Y-6997984D01*
X2201134Y-6997984D02*
X2182087Y-6988460D01*
X2182087Y-6988460D02*
X2172563Y-6978936D01*
X2172563Y-6978936D02*
X2163039Y-6959888D01*
X2163039Y-6959888D02*
X2153515Y-6921793D01*
X2153515Y-6921793D02*
X2153515Y-6874174D01*
X2153515Y-6874174D02*
X2163039Y-6836079D01*
X2163039Y-6836079D02*
X2172563Y-6817031D01*
X2172563Y-6817031D02*
X2182087Y-6807508D01*
X2182087Y-6807508D02*
X2201134Y-6797984D01*
X2353515Y-6978936D02*
X2363039Y-6988460D01*
X2363039Y-6988460D02*
X2353515Y-6997984D01*
X2353515Y-6997984D02*
X2343991Y-6988460D01*
X2343991Y-6988460D02*
X2353515Y-6978936D01*
X2353515Y-6978936D02*
X2353515Y-6997984D01*
X2486848Y-6797984D02*
X2505896Y-6797984D01*
X2505896Y-6797984D02*
X2524944Y-6807508D01*
X2524944Y-6807508D02*
X2534468Y-6817031D01*
X2534468Y-6817031D02*
X2543991Y-6836079D01*
X2543991Y-6836079D02*
X2553515Y-6874174D01*
X2553515Y-6874174D02*
X2553515Y-6921793D01*
X2553515Y-6921793D02*
X2543991Y-6959888D01*
X2543991Y-6959888D02*
X2534468Y-6978936D01*
X2534468Y-6978936D02*
X2524944Y-6988460D01*
X2524944Y-6988460D02*
X2505896Y-6997984D01*
X2505896Y-6997984D02*
X2486848Y-6997984D01*
X2486848Y-6997984D02*
X2467801Y-6988460D01*
X2467801Y-6988460D02*
X2458277Y-6978936D01*
X2458277Y-6978936D02*
X2448753Y-6959888D01*
X2448753Y-6959888D02*
X2439229Y-6921793D01*
X2439229Y-6921793D02*
X2439229Y-6874174D01*
X2439229Y-6874174D02*
X2448753Y-6836079D01*
X2448753Y-6836079D02*
X2458277Y-6817031D01*
X2458277Y-6817031D02*
X2467801Y-6807508D01*
X2467801Y-6807508D02*
X2486848Y-6797984D01*
X2620182Y-6797984D02*
X2743991Y-6797984D01*
X2743991Y-6797984D02*
X2677325Y-6874174D01*
X2677325Y-6874174D02*
X2705896Y-6874174D01*
X2705896Y-6874174D02*
X2724944Y-6883698D01*
X2724944Y-6883698D02*
X2734468Y-6893222D01*
X2734468Y-6893222D02*
X2743991Y-6912269D01*
X2743991Y-6912269D02*
X2743991Y-6959888D01*
X2743991Y-6959888D02*
X2734468Y-6978936D01*
X2734468Y-6978936D02*
X2724944Y-6988460D01*
X2724944Y-6988460D02*
X2705896Y-6997984D01*
X2705896Y-6997984D02*
X2648753Y-6997984D01*
X2648753Y-6997984D02*
X2629706Y-6988460D01*
X2629706Y-6988460D02*
X2620182Y-6978936D01*
X2934467Y-6997984D02*
X2820182Y-6997984D01*
X2877325Y-6997984D02*
X2877325Y-6797984D01*
X2877325Y-6797984D02*
X2858277Y-6826555D01*
X2858277Y-6826555D02*
X2839229Y-6845603D01*
X2839229Y-6845603D02*
X2820182Y-6855127D01*
X3115420Y-6797984D02*
X3020182Y-6797984D01*
X3020182Y-6797984D02*
X3010658Y-6893222D01*
X3010658Y-6893222D02*
X3020182Y-6883698D01*
X3020182Y-6883698D02*
X3039229Y-6874174D01*
X3039229Y-6874174D02*
X3086848Y-6874174D01*
X3086848Y-6874174D02*
X3105896Y-6883698D01*
X3105896Y-6883698D02*
X3115420Y-6893222D01*
X3115420Y-6893222D02*
X3124944Y-6912269D01*
X3124944Y-6912269D02*
X3124944Y-6959888D01*
X3124944Y-6959888D02*
X3115420Y-6978936D01*
X3115420Y-6978936D02*
X3105896Y-6988460D01*
X3105896Y-6988460D02*
X3086848Y-6997984D01*
X3086848Y-6997984D02*
X3039229Y-6997984D01*
X3039229Y-6997984D02*
X3020182Y-6988460D01*
X3020182Y-6988460D02*
X3010658Y-6978936D01*
X3201134Y-6797984D02*
X3201134Y-6836079D01*
X3277325Y-6797984D02*
X3277325Y-6836079D01*
X3572563Y-7074174D02*
X3563039Y-7064650D01*
X3563039Y-7064650D02*
X3543991Y-7036079D01*
X3543991Y-7036079D02*
X3534468Y-7017031D01*
X3534468Y-7017031D02*
X3524944Y-6988460D01*
X3524944Y-6988460D02*
X3515420Y-6940841D01*
X3515420Y-6940841D02*
X3515420Y-6902746D01*
X3515420Y-6902746D02*
X3524944Y-6855127D01*
X3524944Y-6855127D02*
X3534468Y-6826555D01*
X3534468Y-6826555D02*
X3543991Y-6807508D01*
X3543991Y-6807508D02*
X3563039Y-6778936D01*
X3563039Y-6778936D02*
X3572563Y-6769412D01*
X3734468Y-6864650D02*
X3734468Y-6997984D01*
X3686848Y-6788460D02*
X3639229Y-6931317D01*
X3639229Y-6931317D02*
X3763039Y-6931317D01*
X3991610Y-6997984D02*
X3991610Y-6797984D01*
X4077325Y-6997984D02*
X4077325Y-6893222D01*
X4077325Y-6893222D02*
X4067801Y-6874174D01*
X4067801Y-6874174D02*
X4048753Y-6864650D01*
X4048753Y-6864650D02*
X4020182Y-6864650D01*
X4020182Y-6864650D02*
X4001134Y-6874174D01*
X4001134Y-6874174D02*
X3991610Y-6883698D01*
X4201134Y-6997984D02*
X4182087Y-6988460D01*
X4182087Y-6988460D02*
X4172563Y-6978936D01*
X4172563Y-6978936D02*
X4163039Y-6959888D01*
X4163039Y-6959888D02*
X4163039Y-6902746D01*
X4163039Y-6902746D02*
X4172563Y-6883698D01*
X4172563Y-6883698D02*
X4182087Y-6874174D01*
X4182087Y-6874174D02*
X4201134Y-6864650D01*
X4201134Y-6864650D02*
X4229706Y-6864650D01*
X4229706Y-6864650D02*
X4248753Y-6874174D01*
X4248753Y-6874174D02*
X4258277Y-6883698D01*
X4258277Y-6883698D02*
X4267801Y-6902746D01*
X4267801Y-6902746D02*
X4267801Y-6959888D01*
X4267801Y-6959888D02*
X4258277Y-6978936D01*
X4258277Y-6978936D02*
X4248753Y-6988460D01*
X4248753Y-6988460D02*
X4229706Y-6997984D01*
X4229706Y-6997984D02*
X4201134Y-6997984D01*
X4382087Y-6997984D02*
X4363039Y-6988460D01*
X4363039Y-6988460D02*
X4353515Y-6969412D01*
X4353515Y-6969412D02*
X4353515Y-6797984D01*
X4534468Y-6988460D02*
X4515420Y-6997984D01*
X4515420Y-6997984D02*
X4477325Y-6997984D01*
X4477325Y-6997984D02*
X4458277Y-6988460D01*
X4458277Y-6988460D02*
X4448753Y-6969412D01*
X4448753Y-6969412D02*
X4448753Y-6893222D01*
X4448753Y-6893222D02*
X4458277Y-6874174D01*
X4458277Y-6874174D02*
X4477325Y-6864650D01*
X4477325Y-6864650D02*
X4515420Y-6864650D01*
X4515420Y-6864650D02*
X4534468Y-6874174D01*
X4534468Y-6874174D02*
X4543992Y-6893222D01*
X4543992Y-6893222D02*
X4543992Y-6912269D01*
X4543992Y-6912269D02*
X4448753Y-6931317D01*
X4620182Y-6988460D02*
X4639230Y-6997984D01*
X4639230Y-6997984D02*
X4677325Y-6997984D01*
X4677325Y-6997984D02*
X4696373Y-6988460D01*
X4696373Y-6988460D02*
X4705896Y-6969412D01*
X4705896Y-6969412D02*
X4705896Y-6959888D01*
X4705896Y-6959888D02*
X4696373Y-6940841D01*
X4696373Y-6940841D02*
X4677325Y-6931317D01*
X4677325Y-6931317D02*
X4648753Y-6931317D01*
X4648753Y-6931317D02*
X4629706Y-6921793D01*
X4629706Y-6921793D02*
X4620182Y-6902746D01*
X4620182Y-6902746D02*
X4620182Y-6893222D01*
X4620182Y-6893222D02*
X4629706Y-6874174D01*
X4629706Y-6874174D02*
X4648753Y-6864650D01*
X4648753Y-6864650D02*
X4677325Y-6864650D01*
X4677325Y-6864650D02*
X4696373Y-6874174D01*
X4772563Y-7074174D02*
X4782087Y-7064650D01*
X4782087Y-7064650D02*
X4801134Y-7036079D01*
X4801134Y-7036079D02*
X4810658Y-7017031D01*
X4810658Y-7017031D02*
X4820182Y-6988460D01*
X4820182Y-6988460D02*
X4829706Y-6940841D01*
X4829706Y-6940841D02*
X4829706Y-6902746D01*
X4829706Y-6902746D02*
X4820182Y-6855127D01*
X4820182Y-6855127D02*
X4810658Y-6826555D01*
X4810658Y-6826555D02*
X4801134Y-6807508D01*
X4801134Y-6807508D02*
X4782087Y-6778936D01*
X4782087Y-6778936D02*
X4772563Y-6769412D01*
D12*
X-50000Y-7123000D02*
X-50000Y-7218000D01*
X-97500Y-7170500D02*
X-2500Y-7170500D01*
D11*
X296372Y-7061984D02*
X315420Y-7061984D01*
X315420Y-7061984D02*
X334467Y-7071508D01*
X334467Y-7071508D02*
X343991Y-7081031D01*
X343991Y-7081031D02*
X353515Y-7100079D01*
X353515Y-7100079D02*
X363039Y-7138174D01*
X363039Y-7138174D02*
X363039Y-7185793D01*
X363039Y-7185793D02*
X353515Y-7223888D01*
X353515Y-7223888D02*
X343991Y-7242936D01*
X343991Y-7242936D02*
X334467Y-7252460D01*
X334467Y-7252460D02*
X315420Y-7261984D01*
X315420Y-7261984D02*
X296372Y-7261984D01*
X296372Y-7261984D02*
X277324Y-7252460D01*
X277324Y-7252460D02*
X267801Y-7242936D01*
X267801Y-7242936D02*
X258277Y-7223888D01*
X258277Y-7223888D02*
X248753Y-7185793D01*
X248753Y-7185793D02*
X248753Y-7138174D01*
X248753Y-7138174D02*
X258277Y-7100079D01*
X258277Y-7100079D02*
X267801Y-7081031D01*
X267801Y-7081031D02*
X277324Y-7071508D01*
X277324Y-7071508D02*
X296372Y-7061984D01*
X448753Y-7242936D02*
X458277Y-7252460D01*
X458277Y-7252460D02*
X448753Y-7261984D01*
X448753Y-7261984D02*
X439229Y-7252460D01*
X439229Y-7252460D02*
X448753Y-7242936D01*
X448753Y-7242936D02*
X448753Y-7261984D01*
X553515Y-7261984D02*
X591610Y-7261984D01*
X591610Y-7261984D02*
X610658Y-7252460D01*
X610658Y-7252460D02*
X620182Y-7242936D01*
X620182Y-7242936D02*
X639229Y-7214365D01*
X639229Y-7214365D02*
X648753Y-7176269D01*
X648753Y-7176269D02*
X648753Y-7100079D01*
X648753Y-7100079D02*
X639229Y-7081031D01*
X639229Y-7081031D02*
X629705Y-7071508D01*
X629705Y-7071508D02*
X610658Y-7061984D01*
X610658Y-7061984D02*
X572563Y-7061984D01*
X572563Y-7061984D02*
X553515Y-7071508D01*
X553515Y-7071508D02*
X543991Y-7081031D01*
X543991Y-7081031D02*
X534467Y-7100079D01*
X534467Y-7100079D02*
X534467Y-7147698D01*
X534467Y-7147698D02*
X543991Y-7166746D01*
X543991Y-7166746D02*
X553515Y-7176269D01*
X553515Y-7176269D02*
X572563Y-7185793D01*
X572563Y-7185793D02*
X610658Y-7185793D01*
X610658Y-7185793D02*
X629705Y-7176269D01*
X629705Y-7176269D02*
X639229Y-7166746D01*
X639229Y-7166746D02*
X648753Y-7147698D01*
X829705Y-7061984D02*
X734467Y-7061984D01*
X734467Y-7061984D02*
X724943Y-7157222D01*
X724943Y-7157222D02*
X734467Y-7147698D01*
X734467Y-7147698D02*
X753515Y-7138174D01*
X753515Y-7138174D02*
X801134Y-7138174D01*
X801134Y-7138174D02*
X820182Y-7147698D01*
X820182Y-7147698D02*
X829705Y-7157222D01*
X829705Y-7157222D02*
X839229Y-7176269D01*
X839229Y-7176269D02*
X839229Y-7223888D01*
X839229Y-7223888D02*
X829705Y-7242936D01*
X829705Y-7242936D02*
X820182Y-7252460D01*
X820182Y-7252460D02*
X801134Y-7261984D01*
X801134Y-7261984D02*
X753515Y-7261984D01*
X753515Y-7261984D02*
X734467Y-7252460D01*
X734467Y-7252460D02*
X724943Y-7242936D01*
X963039Y-7061984D02*
X982086Y-7061984D01*
X982086Y-7061984D02*
X1001134Y-7071508D01*
X1001134Y-7071508D02*
X1010658Y-7081031D01*
X1010658Y-7081031D02*
X1020182Y-7100079D01*
X1020182Y-7100079D02*
X1029705Y-7138174D01*
X1029705Y-7138174D02*
X1029705Y-7185793D01*
X1029705Y-7185793D02*
X1020182Y-7223888D01*
X1020182Y-7223888D02*
X1010658Y-7242936D01*
X1010658Y-7242936D02*
X1001134Y-7252460D01*
X1001134Y-7252460D02*
X982086Y-7261984D01*
X982086Y-7261984D02*
X963039Y-7261984D01*
X963039Y-7261984D02*
X943991Y-7252460D01*
X943991Y-7252460D02*
X934467Y-7242936D01*
X934467Y-7242936D02*
X924943Y-7223888D01*
X924943Y-7223888D02*
X915420Y-7185793D01*
X915420Y-7185793D02*
X915420Y-7138174D01*
X915420Y-7138174D02*
X924943Y-7100079D01*
X924943Y-7100079D02*
X934467Y-7081031D01*
X934467Y-7081031D02*
X943991Y-7071508D01*
X943991Y-7071508D02*
X963039Y-7061984D01*
X1115420Y-7261984D02*
X1115420Y-7128650D01*
X1115420Y-7147698D02*
X1124944Y-7138174D01*
X1124944Y-7138174D02*
X1143991Y-7128650D01*
X1143991Y-7128650D02*
X1172563Y-7128650D01*
X1172563Y-7128650D02*
X1191610Y-7138174D01*
X1191610Y-7138174D02*
X1201134Y-7157222D01*
X1201134Y-7157222D02*
X1201134Y-7261984D01*
X1201134Y-7157222D02*
X1210658Y-7138174D01*
X1210658Y-7138174D02*
X1229705Y-7128650D01*
X1229705Y-7128650D02*
X1258277Y-7128650D01*
X1258277Y-7128650D02*
X1277325Y-7138174D01*
X1277325Y-7138174D02*
X1286848Y-7157222D01*
X1286848Y-7157222D02*
X1286848Y-7261984D01*
X1382086Y-7261984D02*
X1382086Y-7128650D01*
X1382086Y-7147698D02*
X1391610Y-7138174D01*
X1391610Y-7138174D02*
X1410658Y-7128650D01*
X1410658Y-7128650D02*
X1439229Y-7128650D01*
X1439229Y-7128650D02*
X1458277Y-7138174D01*
X1458277Y-7138174D02*
X1467801Y-7157222D01*
X1467801Y-7157222D02*
X1467801Y-7261984D01*
X1467801Y-7157222D02*
X1477324Y-7138174D01*
X1477324Y-7138174D02*
X1496372Y-7128650D01*
X1496372Y-7128650D02*
X1524943Y-7128650D01*
X1524943Y-7128650D02*
X1543991Y-7138174D01*
X1543991Y-7138174D02*
X1553515Y-7157222D01*
X1553515Y-7157222D02*
X1553515Y-7261984D01*
X1943991Y-7052460D02*
X1772563Y-7309603D01*
X2201134Y-7061984D02*
X2220182Y-7061984D01*
X2220182Y-7061984D02*
X2239229Y-7071508D01*
X2239229Y-7071508D02*
X2248753Y-7081031D01*
X2248753Y-7081031D02*
X2258277Y-7100079D01*
X2258277Y-7100079D02*
X2267801Y-7138174D01*
X2267801Y-7138174D02*
X2267801Y-7185793D01*
X2267801Y-7185793D02*
X2258277Y-7223888D01*
X2258277Y-7223888D02*
X2248753Y-7242936D01*
X2248753Y-7242936D02*
X2239229Y-7252460D01*
X2239229Y-7252460D02*
X2220182Y-7261984D01*
X2220182Y-7261984D02*
X2201134Y-7261984D01*
X2201134Y-7261984D02*
X2182087Y-7252460D01*
X2182087Y-7252460D02*
X2172563Y-7242936D01*
X2172563Y-7242936D02*
X2163039Y-7223888D01*
X2163039Y-7223888D02*
X2153515Y-7185793D01*
X2153515Y-7185793D02*
X2153515Y-7138174D01*
X2153515Y-7138174D02*
X2163039Y-7100079D01*
X2163039Y-7100079D02*
X2172563Y-7081031D01*
X2172563Y-7081031D02*
X2182087Y-7071508D01*
X2182087Y-7071508D02*
X2201134Y-7061984D01*
X2353515Y-7242936D02*
X2363039Y-7252460D01*
X2363039Y-7252460D02*
X2353515Y-7261984D01*
X2353515Y-7261984D02*
X2343991Y-7252460D01*
X2343991Y-7252460D02*
X2353515Y-7242936D01*
X2353515Y-7242936D02*
X2353515Y-7261984D01*
X2486848Y-7061984D02*
X2505896Y-7061984D01*
X2505896Y-7061984D02*
X2524944Y-7071508D01*
X2524944Y-7071508D02*
X2534468Y-7081031D01*
X2534468Y-7081031D02*
X2543991Y-7100079D01*
X2543991Y-7100079D02*
X2553515Y-7138174D01*
X2553515Y-7138174D02*
X2553515Y-7185793D01*
X2553515Y-7185793D02*
X2543991Y-7223888D01*
X2543991Y-7223888D02*
X2534468Y-7242936D01*
X2534468Y-7242936D02*
X2524944Y-7252460D01*
X2524944Y-7252460D02*
X2505896Y-7261984D01*
X2505896Y-7261984D02*
X2486848Y-7261984D01*
X2486848Y-7261984D02*
X2467801Y-7252460D01*
X2467801Y-7252460D02*
X2458277Y-7242936D01*
X2458277Y-7242936D02*
X2448753Y-7223888D01*
X2448753Y-7223888D02*
X2439229Y-7185793D01*
X2439229Y-7185793D02*
X2439229Y-7138174D01*
X2439229Y-7138174D02*
X2448753Y-7100079D01*
X2448753Y-7100079D02*
X2458277Y-7081031D01*
X2458277Y-7081031D02*
X2467801Y-7071508D01*
X2467801Y-7071508D02*
X2486848Y-7061984D01*
X2620182Y-7061984D02*
X2743991Y-7061984D01*
X2743991Y-7061984D02*
X2677325Y-7138174D01*
X2677325Y-7138174D02*
X2705896Y-7138174D01*
X2705896Y-7138174D02*
X2724944Y-7147698D01*
X2724944Y-7147698D02*
X2734468Y-7157222D01*
X2734468Y-7157222D02*
X2743991Y-7176269D01*
X2743991Y-7176269D02*
X2743991Y-7223888D01*
X2743991Y-7223888D02*
X2734468Y-7242936D01*
X2734468Y-7242936D02*
X2724944Y-7252460D01*
X2724944Y-7252460D02*
X2705896Y-7261984D01*
X2705896Y-7261984D02*
X2648753Y-7261984D01*
X2648753Y-7261984D02*
X2629706Y-7252460D01*
X2629706Y-7252460D02*
X2620182Y-7242936D01*
X2810658Y-7061984D02*
X2943991Y-7061984D01*
X2943991Y-7061984D02*
X2858277Y-7261984D01*
X3105896Y-7128650D02*
X3105896Y-7261984D01*
X3058277Y-7052460D02*
X3010658Y-7195317D01*
X3010658Y-7195317D02*
X3134467Y-7195317D01*
X3201134Y-7061984D02*
X3201134Y-7100079D01*
X3277325Y-7061984D02*
X3277325Y-7100079D01*
X3572563Y-7338174D02*
X3563039Y-7328650D01*
X3563039Y-7328650D02*
X3543991Y-7300079D01*
X3543991Y-7300079D02*
X3534468Y-7281031D01*
X3534468Y-7281031D02*
X3524944Y-7252460D01*
X3524944Y-7252460D02*
X3515420Y-7204841D01*
X3515420Y-7204841D02*
X3515420Y-7166746D01*
X3515420Y-7166746D02*
X3524944Y-7119127D01*
X3524944Y-7119127D02*
X3534468Y-7090555D01*
X3534468Y-7090555D02*
X3543991Y-7071508D01*
X3543991Y-7071508D02*
X3563039Y-7042936D01*
X3563039Y-7042936D02*
X3572563Y-7033412D01*
X3753515Y-7261984D02*
X3639229Y-7261984D01*
X3696372Y-7261984D02*
X3696372Y-7061984D01*
X3696372Y-7061984D02*
X3677325Y-7090555D01*
X3677325Y-7090555D02*
X3658277Y-7109603D01*
X3658277Y-7109603D02*
X3639229Y-7119127D01*
X3924944Y-7061984D02*
X3886848Y-7061984D01*
X3886848Y-7061984D02*
X3867801Y-7071508D01*
X3867801Y-7071508D02*
X3858277Y-7081031D01*
X3858277Y-7081031D02*
X3839229Y-7109603D01*
X3839229Y-7109603D02*
X3829706Y-7147698D01*
X3829706Y-7147698D02*
X3829706Y-7223888D01*
X3829706Y-7223888D02*
X3839229Y-7242936D01*
X3839229Y-7242936D02*
X3848753Y-7252460D01*
X3848753Y-7252460D02*
X3867801Y-7261984D01*
X3867801Y-7261984D02*
X3905896Y-7261984D01*
X3905896Y-7261984D02*
X3924944Y-7252460D01*
X3924944Y-7252460D02*
X3934468Y-7242936D01*
X3934468Y-7242936D02*
X3943991Y-7223888D01*
X3943991Y-7223888D02*
X3943991Y-7176269D01*
X3943991Y-7176269D02*
X3934468Y-7157222D01*
X3934468Y-7157222D02*
X3924944Y-7147698D01*
X3924944Y-7147698D02*
X3905896Y-7138174D01*
X3905896Y-7138174D02*
X3867801Y-7138174D01*
X3867801Y-7138174D02*
X3848753Y-7147698D01*
X3848753Y-7147698D02*
X3839229Y-7157222D01*
X3839229Y-7157222D02*
X3829706Y-7176269D01*
X4182087Y-7261984D02*
X4182087Y-7061984D01*
X4267801Y-7261984D02*
X4267801Y-7157222D01*
X4267801Y-7157222D02*
X4258277Y-7138174D01*
X4258277Y-7138174D02*
X4239230Y-7128650D01*
X4239230Y-7128650D02*
X4210658Y-7128650D01*
X4210658Y-7128650D02*
X4191610Y-7138174D01*
X4191610Y-7138174D02*
X4182087Y-7147698D01*
X4391611Y-7261984D02*
X4372563Y-7252460D01*
X4372563Y-7252460D02*
X4363039Y-7242936D01*
X4363039Y-7242936D02*
X4353515Y-7223888D01*
X4353515Y-7223888D02*
X4353515Y-7166746D01*
X4353515Y-7166746D02*
X4363039Y-7147698D01*
X4363039Y-7147698D02*
X4372563Y-7138174D01*
X4372563Y-7138174D02*
X4391611Y-7128650D01*
X4391611Y-7128650D02*
X4420182Y-7128650D01*
X4420182Y-7128650D02*
X4439230Y-7138174D01*
X4439230Y-7138174D02*
X4448753Y-7147698D01*
X4448753Y-7147698D02*
X4458277Y-7166746D01*
X4458277Y-7166746D02*
X4458277Y-7223888D01*
X4458277Y-7223888D02*
X4448753Y-7242936D01*
X4448753Y-7242936D02*
X4439230Y-7252460D01*
X4439230Y-7252460D02*
X4420182Y-7261984D01*
X4420182Y-7261984D02*
X4391611Y-7261984D01*
X4572563Y-7261984D02*
X4553515Y-7252460D01*
X4553515Y-7252460D02*
X4543992Y-7233412D01*
X4543992Y-7233412D02*
X4543992Y-7061984D01*
X4724944Y-7252460D02*
X4705896Y-7261984D01*
X4705896Y-7261984D02*
X4667801Y-7261984D01*
X4667801Y-7261984D02*
X4648753Y-7252460D01*
X4648753Y-7252460D02*
X4639230Y-7233412D01*
X4639230Y-7233412D02*
X4639230Y-7157222D01*
X4639230Y-7157222D02*
X4648753Y-7138174D01*
X4648753Y-7138174D02*
X4667801Y-7128650D01*
X4667801Y-7128650D02*
X4705896Y-7128650D01*
X4705896Y-7128650D02*
X4724944Y-7138174D01*
X4724944Y-7138174D02*
X4734468Y-7157222D01*
X4734468Y-7157222D02*
X4734468Y-7176269D01*
X4734468Y-7176269D02*
X4639230Y-7195317D01*
X4810658Y-7252460D02*
X4829706Y-7261984D01*
X4829706Y-7261984D02*
X4867801Y-7261984D01*
X4867801Y-7261984D02*
X4886849Y-7252460D01*
X4886849Y-7252460D02*
X4896373Y-7233412D01*
X4896373Y-7233412D02*
X4896373Y-7223888D01*
X4896373Y-7223888D02*
X4886849Y-7204841D01*
X4886849Y-7204841D02*
X4867801Y-7195317D01*
X4867801Y-7195317D02*
X4839230Y-7195317D01*
X4839230Y-7195317D02*
X4820182Y-7185793D01*
X4820182Y-7185793D02*
X4810658Y-7166746D01*
X4810658Y-7166746D02*
X4810658Y-7157222D01*
X4810658Y-7157222D02*
X4820182Y-7138174D01*
X4820182Y-7138174D02*
X4839230Y-7128650D01*
X4839230Y-7128650D02*
X4867801Y-7128650D01*
X4867801Y-7128650D02*
X4886849Y-7138174D01*
X4963039Y-7338174D02*
X4972563Y-7328650D01*
X4972563Y-7328650D02*
X4991611Y-7300079D01*
X4991611Y-7300079D02*
X5001134Y-7281031D01*
X5001134Y-7281031D02*
X5010658Y-7252460D01*
X5010658Y-7252460D02*
X5020182Y-7204841D01*
X5020182Y-7204841D02*
X5020182Y-7166746D01*
X5020182Y-7166746D02*
X5010658Y-7119127D01*
X5010658Y-7119127D02*
X5001134Y-7090555D01*
X5001134Y-7090555D02*
X4991611Y-7071508D01*
X4991611Y-7071508D02*
X4972563Y-7042936D01*
X4972563Y-7042936D02*
X4963039Y-7033412D01*
D12*
X-17144Y-7469856D02*
X-17144Y-7399144D01*
X-87856Y-7399144D01*
X-87856Y-7469856D01*
X-17144Y-7469856D01*
D11*
X363039Y-7525984D02*
X248753Y-7525984D01*
X305896Y-7525984D02*
X305896Y-7325984D01*
X305896Y-7325984D02*
X286848Y-7354555D01*
X286848Y-7354555D02*
X267801Y-7373603D01*
X267801Y-7373603D02*
X248753Y-7383127D01*
X448753Y-7506936D02*
X458277Y-7516460D01*
X458277Y-7516460D02*
X448753Y-7525984D01*
X448753Y-7525984D02*
X439229Y-7516460D01*
X439229Y-7516460D02*
X448753Y-7506936D01*
X448753Y-7506936D02*
X448753Y-7525984D01*
X582086Y-7325984D02*
X601134Y-7325984D01*
X601134Y-7325984D02*
X620182Y-7335508D01*
X620182Y-7335508D02*
X629705Y-7345031D01*
X629705Y-7345031D02*
X639229Y-7364079D01*
X639229Y-7364079D02*
X648753Y-7402174D01*
X648753Y-7402174D02*
X648753Y-7449793D01*
X648753Y-7449793D02*
X639229Y-7487888D01*
X639229Y-7487888D02*
X629705Y-7506936D01*
X629705Y-7506936D02*
X620182Y-7516460D01*
X620182Y-7516460D02*
X601134Y-7525984D01*
X601134Y-7525984D02*
X582086Y-7525984D01*
X582086Y-7525984D02*
X563039Y-7516460D01*
X563039Y-7516460D02*
X553515Y-7506936D01*
X553515Y-7506936D02*
X543991Y-7487888D01*
X543991Y-7487888D02*
X534467Y-7449793D01*
X534467Y-7449793D02*
X534467Y-7402174D01*
X534467Y-7402174D02*
X543991Y-7364079D01*
X543991Y-7364079D02*
X553515Y-7345031D01*
X553515Y-7345031D02*
X563039Y-7335508D01*
X563039Y-7335508D02*
X582086Y-7325984D01*
X772562Y-7325984D02*
X791610Y-7325984D01*
X791610Y-7325984D02*
X810658Y-7335508D01*
X810658Y-7335508D02*
X820182Y-7345031D01*
X820182Y-7345031D02*
X829705Y-7364079D01*
X829705Y-7364079D02*
X839229Y-7402174D01*
X839229Y-7402174D02*
X839229Y-7449793D01*
X839229Y-7449793D02*
X829705Y-7487888D01*
X829705Y-7487888D02*
X820182Y-7506936D01*
X820182Y-7506936D02*
X810658Y-7516460D01*
X810658Y-7516460D02*
X791610Y-7525984D01*
X791610Y-7525984D02*
X772562Y-7525984D01*
X772562Y-7525984D02*
X753515Y-7516460D01*
X753515Y-7516460D02*
X743991Y-7506936D01*
X743991Y-7506936D02*
X734467Y-7487888D01*
X734467Y-7487888D02*
X724943Y-7449793D01*
X724943Y-7449793D02*
X724943Y-7402174D01*
X724943Y-7402174D02*
X734467Y-7364079D01*
X734467Y-7364079D02*
X743991Y-7345031D01*
X743991Y-7345031D02*
X753515Y-7335508D01*
X753515Y-7335508D02*
X772562Y-7325984D01*
X963039Y-7325984D02*
X982086Y-7325984D01*
X982086Y-7325984D02*
X1001134Y-7335508D01*
X1001134Y-7335508D02*
X1010658Y-7345031D01*
X1010658Y-7345031D02*
X1020182Y-7364079D01*
X1020182Y-7364079D02*
X1029705Y-7402174D01*
X1029705Y-7402174D02*
X1029705Y-7449793D01*
X1029705Y-7449793D02*
X1020182Y-7487888D01*
X1020182Y-7487888D02*
X1010658Y-7506936D01*
X1010658Y-7506936D02*
X1001134Y-7516460D01*
X1001134Y-7516460D02*
X982086Y-7525984D01*
X982086Y-7525984D02*
X963039Y-7525984D01*
X963039Y-7525984D02*
X943991Y-7516460D01*
X943991Y-7516460D02*
X934467Y-7506936D01*
X934467Y-7506936D02*
X924943Y-7487888D01*
X924943Y-7487888D02*
X915420Y-7449793D01*
X915420Y-7449793D02*
X915420Y-7402174D01*
X915420Y-7402174D02*
X924943Y-7364079D01*
X924943Y-7364079D02*
X934467Y-7345031D01*
X934467Y-7345031D02*
X943991Y-7335508D01*
X943991Y-7335508D02*
X963039Y-7325984D01*
X1115420Y-7525984D02*
X1115420Y-7392650D01*
X1115420Y-7411698D02*
X1124944Y-7402174D01*
X1124944Y-7402174D02*
X1143991Y-7392650D01*
X1143991Y-7392650D02*
X1172563Y-7392650D01*
X1172563Y-7392650D02*
X1191610Y-7402174D01*
X1191610Y-7402174D02*
X1201134Y-7421222D01*
X1201134Y-7421222D02*
X1201134Y-7525984D01*
X1201134Y-7421222D02*
X1210658Y-7402174D01*
X1210658Y-7402174D02*
X1229705Y-7392650D01*
X1229705Y-7392650D02*
X1258277Y-7392650D01*
X1258277Y-7392650D02*
X1277325Y-7402174D01*
X1277325Y-7402174D02*
X1286848Y-7421222D01*
X1286848Y-7421222D02*
X1286848Y-7525984D01*
X1382086Y-7525984D02*
X1382086Y-7392650D01*
X1382086Y-7411698D02*
X1391610Y-7402174D01*
X1391610Y-7402174D02*
X1410658Y-7392650D01*
X1410658Y-7392650D02*
X1439229Y-7392650D01*
X1439229Y-7392650D02*
X1458277Y-7402174D01*
X1458277Y-7402174D02*
X1467801Y-7421222D01*
X1467801Y-7421222D02*
X1467801Y-7525984D01*
X1467801Y-7421222D02*
X1477324Y-7402174D01*
X1477324Y-7402174D02*
X1496372Y-7392650D01*
X1496372Y-7392650D02*
X1524943Y-7392650D01*
X1524943Y-7392650D02*
X1543991Y-7402174D01*
X1543991Y-7402174D02*
X1553515Y-7421222D01*
X1553515Y-7421222D02*
X1553515Y-7525984D01*
X1943991Y-7316460D02*
X1772563Y-7573603D01*
X2201134Y-7325984D02*
X2220182Y-7325984D01*
X2220182Y-7325984D02*
X2239229Y-7335508D01*
X2239229Y-7335508D02*
X2248753Y-7345031D01*
X2248753Y-7345031D02*
X2258277Y-7364079D01*
X2258277Y-7364079D02*
X2267801Y-7402174D01*
X2267801Y-7402174D02*
X2267801Y-7449793D01*
X2267801Y-7449793D02*
X2258277Y-7487888D01*
X2258277Y-7487888D02*
X2248753Y-7506936D01*
X2248753Y-7506936D02*
X2239229Y-7516460D01*
X2239229Y-7516460D02*
X2220182Y-7525984D01*
X2220182Y-7525984D02*
X2201134Y-7525984D01*
X2201134Y-7525984D02*
X2182087Y-7516460D01*
X2182087Y-7516460D02*
X2172563Y-7506936D01*
X2172563Y-7506936D02*
X2163039Y-7487888D01*
X2163039Y-7487888D02*
X2153515Y-7449793D01*
X2153515Y-7449793D02*
X2153515Y-7402174D01*
X2153515Y-7402174D02*
X2163039Y-7364079D01*
X2163039Y-7364079D02*
X2172563Y-7345031D01*
X2172563Y-7345031D02*
X2182087Y-7335508D01*
X2182087Y-7335508D02*
X2201134Y-7325984D01*
X2353515Y-7506936D02*
X2363039Y-7516460D01*
X2363039Y-7516460D02*
X2353515Y-7525984D01*
X2353515Y-7525984D02*
X2343991Y-7516460D01*
X2343991Y-7516460D02*
X2353515Y-7506936D01*
X2353515Y-7506936D02*
X2353515Y-7525984D01*
X2486848Y-7325984D02*
X2505896Y-7325984D01*
X2505896Y-7325984D02*
X2524944Y-7335508D01*
X2524944Y-7335508D02*
X2534468Y-7345031D01*
X2534468Y-7345031D02*
X2543991Y-7364079D01*
X2543991Y-7364079D02*
X2553515Y-7402174D01*
X2553515Y-7402174D02*
X2553515Y-7449793D01*
X2553515Y-7449793D02*
X2543991Y-7487888D01*
X2543991Y-7487888D02*
X2534468Y-7506936D01*
X2534468Y-7506936D02*
X2524944Y-7516460D01*
X2524944Y-7516460D02*
X2505896Y-7525984D01*
X2505896Y-7525984D02*
X2486848Y-7525984D01*
X2486848Y-7525984D02*
X2467801Y-7516460D01*
X2467801Y-7516460D02*
X2458277Y-7506936D01*
X2458277Y-7506936D02*
X2448753Y-7487888D01*
X2448753Y-7487888D02*
X2439229Y-7449793D01*
X2439229Y-7449793D02*
X2439229Y-7402174D01*
X2439229Y-7402174D02*
X2448753Y-7364079D01*
X2448753Y-7364079D02*
X2458277Y-7345031D01*
X2458277Y-7345031D02*
X2467801Y-7335508D01*
X2467801Y-7335508D02*
X2486848Y-7325984D01*
X2620182Y-7325984D02*
X2743991Y-7325984D01*
X2743991Y-7325984D02*
X2677325Y-7402174D01*
X2677325Y-7402174D02*
X2705896Y-7402174D01*
X2705896Y-7402174D02*
X2724944Y-7411698D01*
X2724944Y-7411698D02*
X2734468Y-7421222D01*
X2734468Y-7421222D02*
X2743991Y-7440269D01*
X2743991Y-7440269D02*
X2743991Y-7487888D01*
X2743991Y-7487888D02*
X2734468Y-7506936D01*
X2734468Y-7506936D02*
X2724944Y-7516460D01*
X2724944Y-7516460D02*
X2705896Y-7525984D01*
X2705896Y-7525984D02*
X2648753Y-7525984D01*
X2648753Y-7525984D02*
X2629706Y-7516460D01*
X2629706Y-7516460D02*
X2620182Y-7506936D01*
X2839229Y-7525984D02*
X2877325Y-7525984D01*
X2877325Y-7525984D02*
X2896372Y-7516460D01*
X2896372Y-7516460D02*
X2905896Y-7506936D01*
X2905896Y-7506936D02*
X2924944Y-7478365D01*
X2924944Y-7478365D02*
X2934467Y-7440269D01*
X2934467Y-7440269D02*
X2934467Y-7364079D01*
X2934467Y-7364079D02*
X2924944Y-7345031D01*
X2924944Y-7345031D02*
X2915420Y-7335508D01*
X2915420Y-7335508D02*
X2896372Y-7325984D01*
X2896372Y-7325984D02*
X2858277Y-7325984D01*
X2858277Y-7325984D02*
X2839229Y-7335508D01*
X2839229Y-7335508D02*
X2829706Y-7345031D01*
X2829706Y-7345031D02*
X2820182Y-7364079D01*
X2820182Y-7364079D02*
X2820182Y-7411698D01*
X2820182Y-7411698D02*
X2829706Y-7430746D01*
X2829706Y-7430746D02*
X2839229Y-7440269D01*
X2839229Y-7440269D02*
X2858277Y-7449793D01*
X2858277Y-7449793D02*
X2896372Y-7449793D01*
X2896372Y-7449793D02*
X2915420Y-7440269D01*
X2915420Y-7440269D02*
X2924944Y-7430746D01*
X2924944Y-7430746D02*
X2934467Y-7411698D01*
X3105896Y-7392650D02*
X3105896Y-7525984D01*
X3058277Y-7316460D02*
X3010658Y-7459317D01*
X3010658Y-7459317D02*
X3134467Y-7459317D01*
X3201134Y-7325984D02*
X3201134Y-7364079D01*
X3277325Y-7325984D02*
X3277325Y-7364079D01*
X3572563Y-7602174D02*
X3563039Y-7592650D01*
X3563039Y-7592650D02*
X3543991Y-7564079D01*
X3543991Y-7564079D02*
X3534468Y-7545031D01*
X3534468Y-7545031D02*
X3524944Y-7516460D01*
X3524944Y-7516460D02*
X3515420Y-7468841D01*
X3515420Y-7468841D02*
X3515420Y-7430746D01*
X3515420Y-7430746D02*
X3524944Y-7383127D01*
X3524944Y-7383127D02*
X3534468Y-7354555D01*
X3534468Y-7354555D02*
X3543991Y-7335508D01*
X3543991Y-7335508D02*
X3563039Y-7306936D01*
X3563039Y-7306936D02*
X3572563Y-7297412D01*
X3734468Y-7392650D02*
X3734468Y-7525984D01*
X3686848Y-7316460D02*
X3639229Y-7459317D01*
X3639229Y-7459317D02*
X3763039Y-7459317D01*
X3924944Y-7392650D02*
X3924944Y-7525984D01*
X3877325Y-7316460D02*
X3829706Y-7459317D01*
X3829706Y-7459317D02*
X3953515Y-7459317D01*
X4182087Y-7525984D02*
X4182087Y-7325984D01*
X4267801Y-7525984D02*
X4267801Y-7421222D01*
X4267801Y-7421222D02*
X4258277Y-7402174D01*
X4258277Y-7402174D02*
X4239230Y-7392650D01*
X4239230Y-7392650D02*
X4210658Y-7392650D01*
X4210658Y-7392650D02*
X4191610Y-7402174D01*
X4191610Y-7402174D02*
X4182087Y-7411698D01*
X4391611Y-7525984D02*
X4372563Y-7516460D01*
X4372563Y-7516460D02*
X4363039Y-7506936D01*
X4363039Y-7506936D02*
X4353515Y-7487888D01*
X4353515Y-7487888D02*
X4353515Y-7430746D01*
X4353515Y-7430746D02*
X4363039Y-7411698D01*
X4363039Y-7411698D02*
X4372563Y-7402174D01*
X4372563Y-7402174D02*
X4391611Y-7392650D01*
X4391611Y-7392650D02*
X4420182Y-7392650D01*
X4420182Y-7392650D02*
X4439230Y-7402174D01*
X4439230Y-7402174D02*
X4448753Y-7411698D01*
X4448753Y-7411698D02*
X4458277Y-7430746D01*
X4458277Y-7430746D02*
X4458277Y-7487888D01*
X4458277Y-7487888D02*
X4448753Y-7506936D01*
X4448753Y-7506936D02*
X4439230Y-7516460D01*
X4439230Y-7516460D02*
X4420182Y-7525984D01*
X4420182Y-7525984D02*
X4391611Y-7525984D01*
X4572563Y-7525984D02*
X4553515Y-7516460D01*
X4553515Y-7516460D02*
X4543992Y-7497412D01*
X4543992Y-7497412D02*
X4543992Y-7325984D01*
X4724944Y-7516460D02*
X4705896Y-7525984D01*
X4705896Y-7525984D02*
X4667801Y-7525984D01*
X4667801Y-7525984D02*
X4648753Y-7516460D01*
X4648753Y-7516460D02*
X4639230Y-7497412D01*
X4639230Y-7497412D02*
X4639230Y-7421222D01*
X4639230Y-7421222D02*
X4648753Y-7402174D01*
X4648753Y-7402174D02*
X4667801Y-7392650D01*
X4667801Y-7392650D02*
X4705896Y-7392650D01*
X4705896Y-7392650D02*
X4724944Y-7402174D01*
X4724944Y-7402174D02*
X4734468Y-7421222D01*
X4734468Y-7421222D02*
X4734468Y-7440269D01*
X4734468Y-7440269D02*
X4639230Y-7459317D01*
X4810658Y-7516460D02*
X4829706Y-7525984D01*
X4829706Y-7525984D02*
X4867801Y-7525984D01*
X4867801Y-7525984D02*
X4886849Y-7516460D01*
X4886849Y-7516460D02*
X4896373Y-7497412D01*
X4896373Y-7497412D02*
X4896373Y-7487888D01*
X4896373Y-7487888D02*
X4886849Y-7468841D01*
X4886849Y-7468841D02*
X4867801Y-7459317D01*
X4867801Y-7459317D02*
X4839230Y-7459317D01*
X4839230Y-7459317D02*
X4820182Y-7449793D01*
X4820182Y-7449793D02*
X4810658Y-7430746D01*
X4810658Y-7430746D02*
X4810658Y-7421222D01*
X4810658Y-7421222D02*
X4820182Y-7402174D01*
X4820182Y-7402174D02*
X4839230Y-7392650D01*
X4839230Y-7392650D02*
X4867801Y-7392650D01*
X4867801Y-7392650D02*
X4886849Y-7402174D01*
X4963039Y-7602174D02*
X4972563Y-7592650D01*
X4972563Y-7592650D02*
X4991611Y-7564079D01*
X4991611Y-7564079D02*
X5001134Y-7545031D01*
X5001134Y-7545031D02*
X5010658Y-7516460D01*
X5010658Y-7516460D02*
X5020182Y-7468841D01*
X5020182Y-7468841D02*
X5020182Y-7430746D01*
X5020182Y-7430746D02*
X5010658Y-7383127D01*
X5010658Y-7383127D02*
X5001134Y-7354555D01*
X5001134Y-7354555D02*
X4991611Y-7335508D01*
X4991611Y-7335508D02*
X4972563Y-7306936D01*
X4972563Y-7306936D02*
X4963039Y-7297412D01*
M02*
